<svg xmlns="http://www.w3.org/2000/svg" viewBox="0 0 512 512"><style>.a{fill:#808080;}.b{fill:#333;}</style><path d="M391.8 97.8c-3.7 0-6.7 3-6.7 6.7s3 6.7 6.7 6.7c3.7 0 6.7-3 6.7-6.7C398.6 100.8 395.5 97.8 391.8 97.8z" class="a"/><path d="M351.6 99.7c-29.4 43.9-38 71.4-38 71.6 -0.6 2.1-2.4 3.6-4.6 4 -0.3 0-26.9 4.4-62.8 24.5 -33.1 18.6-81 55-121.5 122.4 -0.3 0.6-0.8 1-1.2 1.5 -29.6 24.5-72.6 60.8-96 82 24.3-11.7 62.9-32.4 83.7-45.1 0.1 0 0.1-0.1 0.2-0.1 0 0 0.1-0.1 0.1-0.1 1-0.5 105.1-54.2 146.4-85.1 1-0.8 2.3-1.2 3.6-1.1 0.2 0 20.5 0.5 41.7-9.6 28-13.4 44.5-38.3 48.9-74.2 0.4-3.1 3.2-5.3 6.3-4.9 3.1 0.4 5.3 3.2 4.9 6.3 -6.2 50-33.7 72.9-55.7 83.3 -19.8 9.3-38.4 10.4-44.5 10.5 -27 19.8-76.2 47.4-110.1 65.7 34.5-6.4 85.3-13.4 128.6-9.4l-2.3-7.1c-1-3 0.7-6.2 3.7-7.1 3-1 6.2 0.7 7.1 3.7l11.3 35.1c2.2 6.8 9.5 10.6 16.3 8.4 3.3-1.1 6-3.3 7.6-6.4 1.6-3.1 1.9-6.6 0.8-9.9l-8.6-26.8c-1-3 0.7-6.2 3.7-7.1 3-1 6.2 0.7 7.1 3.7l2.1 6.5c31.1-7.1 52.5-31.4 63.6-72.3 9-33 7.5-64.8 7.5-65.1 -0.1-1.5-1-29.6 16.4-51.3 -2.6-8.6-7.6-32.3 5.8-57.2C411.9 82.1 374.4 65.6 351.6 99.7zM391.8 122.5c-10 0-18.1-8.1-18.1-18.1s8.1-18.1 18.1-18.1c10 0 18.1 8.1 18.1 18.1S401.8 122.5 391.8 122.5z" class="b"/><path d="M324.4 384.1c-1 0.5-2.1 1-3.2 1.3 -4.7 1.4-8.3 1.1-8.8 1.1l7.5 24.4c0.2 0.7 0.3 1.3 0.2 2 -0.3 5-4.4 12.5-14.2 12.5 -8.2 0-10.4 1.6-12.1 7.7h86.2c-0.6-2.1-1.7-4.5-3.6-6.4 -2.6-2.6-6.2-3.9-11.2-3.9 -10.1 0-28.4-0.6-34.3-17.2C331 405.5 324.4 384.1 324.4 384.1z" class="a"/><path d="M435.2 91.5c-3 5-5 9.9-6.4 14.7 9.5-0.8 37.8-3.2 63.5-3.8C483.3 96.7 466.2 90.3 435.2 91.5z" class="a"/><path d="M426.6 117.8c-0.7 7.4-0.1 13.9 0.8 18.6 8.7-7.4 32.9-17.8 42.5-21.8 -23 1.2-43 3.1-43.3 3.2C426.6 117.8 426.6 117.8 426.6 117.8z" class="b"/><path d="M391.8 86.4c-10 0-18.1 8.1-18.1 18.1s8.1 18.1 18.1 18.1c10 0 18.1-8.1 18.1-18.1C409.9 94.5 401.8 86.4 391.8 86.4zM391.8 111.2c-3.7 0-6.7-3-6.7-6.7s3-6.7 6.7-6.7c3.7 0 6.7 3 6.7 6.7C398.6 108.2 395.5 111.2 391.8 111.2z"/><path d="M432.2 80.3c-4.3-2.5-16.2-9-31-11.6 -24.8-4.4-45.2 4.1-59 24.7 -24.8 37.1-35.2 62.6-38.4 71.3 -8.6 1.8-32.3 7.9-62.7 24.9 -34.3 19.2-83.9 56.6-125.7 125.9 -4.7 3.9-30.9 25.6-56.7 47.6 -59.7 50.9-59.3 53.4-58.7 57.5 0.3 2.1 1.7 3.8 3.6 4.6 0.6 0.3 1.3 0.5 2.5 0.5 4 0 13.7-3.2 48.2-21.1 22.4-11.6 47.7-25.5 61.9-34.1 9.5-2.4 101.8-24.8 169.2-17.1l5.2 16.2c1.6 4.9 4.5 8.9 8.3 11.8l9.7 31.4c-0.3 0.6-1 1.2-2.7 1.2 -19.8 0-24.7 23.6-24.7 23.6 -0.4 1.7 0.1 3.4 1.1 4.7 1.1 1.3 2.7 2.1 4.4 2.1h99.9c3.1 0 5.6-2.4 5.7-5.5 0-0.5 0.2-12-7.6-20.1 -4.8-4.9-11.3-7.4-19.4-7.4 -11 0-19.7-0.7-23.7-10l-7.8-25.4c0.6-0.9 1.1-1.7 1.6-2.7 3-5.8 3.5-12.3 1.5-18.5l-3.1-9.5c34.6-8.4 59.2-36 71.2-80.4 9.4-34.7 7.9-67 7.8-68.3 0-0.4-1.2-40.5 30.1-57 34-17.9 64.5-26.1 64.8-26.2 1.6-0.4 3-1.6 3.7-3.2 0.7-1.6 0.7-3.3-0.1-4.9C510.8 104.2 496.4 77 432.2 80.3zM365.4 422.8c4.9 0 8.6 1.3 11.2 3.9 1.9 1.9 2.9 4.3 3.6 6.4h-86.2c1.7-6.1 3.9-7.7 12.1-7.7 9.8 0 13.9-7.5 14.2-12.5 0-0.7 0-1.4-0.2-2l-7.5-24.4c0.5 0 4.1 0.3 8.8-1.1 1.1-0.3 2.2-0.8 3.2-1.3 0 0 6.6 21.4 6.7 21.6C337 422.2 355.3 422.8 365.4 422.8zM418 145.8c-17.4 21.7-16.5 49.8-16.4 51.3 0 0.3 1.5 32.1-7.5 65.1 -11.1 40.9-32.5 65.1-63.6 72.3l-2.1-6.5c-1-3-4.1-4.6-7.1-3.7 -3 1-4.6 4.1-3.7 7.1l8.6 26.8c1.1 3.3 0.8 6.8-0.8 9.9 -1.6 3.1-4.3 5.3-7.6 6.4 -6.8 2.2-14.1-1.6-16.3-8.4l-11.3-35.1c-1-3-4.2-4.6-7.1-3.7 -3 1-4.6 4.2-3.7 7.1l2.3 7.1c-43.3-4-94.1 2.9-128.6 9.4 33.9-18.3 83.1-45.9 110.1-65.7 6.1-0.1 24.7-1.2 44.5-10.5 22-10.4 49.5-33.3 55.7-83.3 0.4-3.1-1.8-5.9-4.9-6.3 -3.1-0.4-5.9 1.8-6.3 4.9 -4.4 35.9-20.9 60.8-48.9 74.2 -21.2 10.1-41.5 9.6-41.7 9.6 -1.3 0-2.6 0.4-3.6 1.1 -41.3 30.9-145.4 84.6-146.4 85.1 0 0-0.1 0.1-0.1 0.1 -0.1 0-0.2 0.1-0.2 0.1 -20.8 12.7-59.4 33.4-83.7 45.1 23.4-21.2 66.4-57.5 96-82 0.5-0.4 0.9-0.9 1.2-1.5 40.5-67.4 88.4-103.7 121.5-122.4 35.9-20.2 62.6-24.5 62.8-24.5 2.2-0.3 3.9-1.9 4.6-4 0.1-0.3 8.7-27.7 38.1-71.6 22.8-34 60.2-17.6 72.2-11C410.4 113.5 415.4 137.2 418 145.8zM427.4 136.4c-0.9-4.8-1.5-11.2-0.8-18.6 0 0 0 0 0 0 0.3 0 20.3-1.9 43.3-3.2C460.3 118.6 436.1 128.9 427.4 136.4zM428.8 106.2c1.4-4.8 3.4-9.7 6.4-14.7 31-1.2 48.1 5.2 57.1 10.9C466.6 103 438.3 105.3 428.8 106.2z"/></svg>