<svg xmlns="http://www.w3.org/2000/svg" viewBox="0 0 603.4 603.4"><path d="M120.3 392.1c11 13.5 27.3 21.3 44.8 21.3 13.2 0 26.2-4.6 36.5-13l129.3-105.3 61.3 75-2.3 1.9c-8.6 7-14.8 16.2-18.1 26.7-3 9.7-3.3 20-0.9 29.9 2.4 9.9 7.5 18.9 14.6 26.2 7.7 7.8 17.5 13.1 28.3 15.3l123.6 25.7c1.3 0.3 3.2 0.6 5.6 0.9 1.8 0.2 3.6 0.3 5.3 0.3 13.4 0 26.3-5 36.3-14 10.1-9.1 16.4-21.5 17.7-35 0.2-2.2 0.3-4 0.3-5.2l0.2-125.1c0-15.2-5.8-29.5-16.5-40.1-10.6-10.6-25.3-16.7-40.3-16.7-13 0-25.7 4.6-35.8 12.8l-1.7 1.4L387.6 127c-10.7-13.1-26.5-20.6-43.4-20.6-10.1 0-20 2.8-28.6 7.9-2.4 1.3-4.7 2.8-6.9 4.6L178.4 225.4l-49.6-60.7c-10.7-13.1-26.5-20.6-43.3-20.6-12.9 0-25.4 4.5-35.4 12.6l-28.4 23.2c-24.6 20.1-28.3 56.5-8.2 81.2L120.3 392.1zM48.8 213.2l28.4-23.2c2.4-2 5.4-3 8.3-3 3.8 0 7.6 1.6 10.2 4.8l67.3 82.3c2.9 3.6 7.2 5.5 11.5 5.5 3.3 0 6.6-1.1 9.4-3.3l152.1-124.2 0.1 0.1c2.4-2 5.4-3 8.3-3 3.8 0 7.6 1.6 10.2 4.8l139.7 171.1c2.6 3.2 6.4 4.8 10.2 4.8 2.9 0 5.9-1 8.3-3l24.7-20.2c2.7-2.2 5.7-3.2 8.7-3.2 7.2 0 14 5.7 14 14l-0.2 125.1c0 0.4 0 0.7 0 1-0.6 5.9-5.6 10.4-11.4 10.4-0.4 0-0.8 0-1.1-0.1-0.4 0-0.7-0.1-1.1-0.2l-123.6-25.7c-10.8-2.2-14.2-16-5.6-23l25.3-20.7c5.6-4.6 6.4-12.9 1.9-18.5l-98.9-121c-2.6-3.2-6.4-4.8-10.2-4.8-2.9 0-5.9 1-8.3 3L174.5 367.1c-2.8 2.3-6.1 3.4-9.4 3.4-4.3 0-8.6-1.9-11.6-5.5L46.7 234.1C41.5 227.7 42.4 218.4 48.8 213.2z"/><path d="M548.4 497.5c-1.8 0-3.6-0.1-5.4-0.3-2.4-0.2-4.4-0.6-5.7-0.9l-123.6-25.7c-10.9-2.3-20.8-7.6-28.6-15.5-7.2-7.3-12.3-16.4-14.8-26.4-2.4-10-2.1-20.4 0.9-30.2 3.3-10.6 9.6-19.9 18.2-26.9l1.9-1.6-60.7-74.3-128.9 105c-10.4 8.4-23.4 13.1-36.8 13.1-17.6 0-34.1-7.8-45.2-21.4L13.1 261.5C-7.2 236.6-3.5 199.9 21.4 179.6l28.4-23.2c10.1-8.2 22.7-12.7 35.7-12.7 17 0 33 7.6 43.7 20.7l49.2 60.3L308.4 118.5c2.2-1.8 4.5-3.3 7-4.6 8.7-5.2 18.7-7.9 28.9-7.9 17 0 33 7.6 43.7 20.7l120.6 147.7 1.3-1.1c10.2-8.3 23.1-12.9 36.2-12.9 15.1 0 30 6.2 40.7 16.9 10.8 10.8 16.7 25.2 16.7 40.5l-0.2 125.1c0 1.2 0 3-0.3 5.3-1.4 13.6-7.7 26.2-17.9 35.3C575 492.5 562 497.5 548.4 497.5zM330.9 294.4l0.3 0.4 61.6 75.4-2.7 2.2c-8.5 6.9-14.7 16.1-17.9 26.5-3 9.6-3.3 19.9-0.9 29.7 2.4 9.8 7.4 18.8 14.5 25.9 7.7 7.7 17.4 13 28.1 15.2l123.6 25.7c1.2 0.3 3.2 0.6 5.6 0.9 1.8 0.2 3.5 0.3 5.3 0.3 13.3 0 26.1-4.9 36-13.8 10-9 16.2-21.3 17.6-34.7 0.2-2.2 0.2-4 0.2-5.2l0.2-125.1c0-15.1-5.8-29.2-16.4-39.8-10.5-10.5-25.1-16.6-40-16.6-12.9 0-25.5 4.5-35.5 12.7l-2.1 1.7L387.2 127.3c-10.6-13-26.2-20.4-43-20.4-10 0-19.8 2.7-28.4 7.8-2.4 1.3-4.7 2.8-6.8 4.6l-130.8 106.8-49.9-61.1c-10.6-13-26.2-20.4-43-20.4-12.7 0-25.2 4.4-35.1 12.5l-28.4 23.2c-24.4 20-28.1 56.1-8.1 80.5l106.8 130.9c10.9 13.4 27.1 21.1 44.4 21.1 13.1 0 26-4.6 36.2-12.9L330.9 294.4zM548.4 454.6c-0.4 0-0.8 0-1.2-0.1-0.4 0-0.8-0.1-1.2-0.2L422.5 428.7c-5.2-1.1-9.2-4.9-10.5-10.1-1.3-5.1 0.5-10.4 4.6-13.8l25.3-20.7c5.4-4.4 6.2-12.4 1.8-17.8L344.9 245.3c-2.4-2.9-6-4.6-9.8-4.6-2.9 0-5.7 1-8 2.8L174.8 367.5c-2.7 2.2-6.2 3.5-9.7 3.5-4.7 0-9-2.1-12-5.7L46.3 234.4c-2.6-3.2-3.8-7.2-3.4-11.3s2.4-7.8 5.6-10.4l28.4-23.2c2.4-2 5.5-3.1 8.6-3.1 4.1 0 8 1.8 10.6 5l67.3 82.3c2.7 3.4 6.8 5.3 11.1 5.3 3.3 0 6.5-1.1 9.1-3.2l152.5-124.5 0.1 0.1c2.4-1.8 5.3-2.8 8.2-2.8 4.1 0 8 1.8 10.6 5L494.6 324.9c2.4 2.9 6 4.6 9.8 4.6 2.9 0 5.7-1 8-2.8l24.7-20.2c2.6-2.1 5.8-3.3 9.1-3.3 3.8 0 7.6 1.6 10.3 4.3 2.7 2.7 4.1 6.3 4.1 10.2l-0.2 125.1c0 0.4 0 0.7 0 1.1C559.7 450 554.6 454.6 548.4 454.6zM335.1 239.7c4.1 0 8 1.8 10.6 5l98.9 121c4.8 5.8 3.9 14.4-1.9 19.2l-25.3 20.7c-3.8 3.1-5.4 8-4.3 12.8 1.2 4.8 4.9 8.4 9.7 9.4l123.6 25.7c0.4 0.1 0.7 0.1 1.1 0.2 6.2 0.6 11.4-3.8 12-9.9 0-0.3 0-0.7 0-1l0.2-125.1c0-3.6-1.4-7-3.8-9.5-2.5-2.5-6.1-4-9.6-4-3.1 0-6 1.1-8.4 3.1l-24.7 20.2c-2.4 2-5.5 3.1-8.6 3.1-4.1 0-8-1.8-10.6-5L354 154.4c-2.4-2.9-6-4.6-9.8-4.6-2.9 0-5.7 1-8 2.8l-0.4 0.3-0.1-0.1L184.1 276.7c-2.7 2.2-6.2 3.5-9.7 3.5-4.6 0-9-2.1-11.9-5.6l-67.3-82.3c-2.4-2.9-6-4.6-9.8-4.6-2.9 0-5.7 1-8 2.8L49.1 213.6c-3 2.4-4.8 5.9-5.2 9.7-0.4 3.8 0.7 7.6 3.2 10.5L153.9 364.7c2.8 3.4 6.8 5.3 11.2 5.3 3.3 0 6.5-1.2 9.1-3.2l152.3-124C328.9 240.8 332 239.7 335.1 239.7z"/></svg>
