<svg xmlns="http://www.w3.org/2000/svg" viewBox="0 0 160 160"><style>.a{opacity:0.2;}.b{fill:#825012;}.c{fill:#262626;}</style><path d="M63.6 114.3c-14.1 9.1-38.5 17.2-16.5 30.7 20.5 12.5 40.7-4.1 55.2-11.8 21.3-11.3 32.2-21.2 19.2-29.4C108.1 95.4 72 108.9 63.6 114.3z" class="a"/><path d="M88.4 90.5c0 0 8.9 2.3 8.9 4.9 0 1.4 0 5.8 0 7 0 2.2-4.6 3.8-4.6 6 0 2.9 5.7 4.7 7.3 4.3s2.5-1.2 2.5-4c0-2.8 1-14.5 1.4-18.1 0.4-3.6-1.1-14.8-1.1-14.8L88.4 90.5z" class="b"/><path d="M88.4 90.5c0 0 8.9 2.3 8.9 4.9 0 1.4 0 5.8 0 7 0 2.2-4.6 3.8-4.6 6 0 2.9 5.7 4.7 7.3 4.3s2.5-1.2 2.5-4c0-2.8 1-14.5 1.4-18.1 0.4-3.6-1.1-14.8-1.1-14.8L88.4 90.5z" class="a"/><path d="M21.6 54.3c1.6-0.6 7.9-2.8 8-4s0-3.1 1.5-3.8 2.8-4.2 4.6-4.5c1.8-0.4 2.8 0.1 6.3 1.2 3.5 1.1 7.7 3.4 10.4 5.3 2.8 2 4.1 4 5.9 6.7s2.4 3.5 2.1 4.2c-0.3 0.7-0.8 0.3-0.4 1.5 0.6 1.6 0.9 3.7 3 4.3 7.1 1.9 23.5-9.6 27.8-10.9 10.1-3.3 19.9 1.8 25 6 3.3 2.7 6.5 10.1 8.9 14.9 2.4 4.8 6.7 5.4 6.3 7.5 -0.2 0.9-1.5 1.5-4.1 0.5 -3.3-1.3-10.5-9.4-10.5-9.4s1 3-0.5 7 -3.8 10.5-1.7 12.7c2 2.1 4.6 4.5 4.9 6.7 0.3 2.2 1.2 18.2 1.2 19 0 0.8-0.5 2.3-2 2.8 -4.5 1.5-10.1-1.7-9.3-4.5 0.8-2.8 4-2.1 4-6.3 0-1.5-0.4-6-0.7-6.9 -0.4-1.2-1.7-2.4-3.3-3 -1.4-0.5-7.3-3.8-8.5-7.5s-1.7-7.9-3.7-8.2C94.8 85 88 96.2 82.3 100s-9.5 4.1-9.5 4.1 -1.1 18.6-1.1 22.2 2.6 7.4 3 9.8c0.4 2.5 1 6.8-2.1 8.8 -3.7 2.4-8.4 0.2-9.5-1.1 -1-1.3-1.2-3.7 0.4-5.2 1.5-1.5 3.3-2.7 2.8-3.4 -0.5-0.7-2.5-4.1-2.9-6.2 -0.5-3.3-1-17.2-4.9-19.6 -1.2-0.7-4.1-1.1-4.9 0.1 -0.8 1.3-0.7 8.7-0.7 9.9 0 1.9 2.8 6 2.8 9.3 0 3.3-1.2 5.1-4.1 6.1 -2.3 0.8-5.4 0.2-7.7-2.7 -1.5-1.9-0.3-4 1.2-4.9 1-0.6 2.3-0.8 2.4-2.1 0.1-1.3-1.8-3.2-1.8-5.6 0-2.4-1-12-1-13.2 0-3.9-6.4-7.6-8.8-15.6 -1.2-3.9-0.3-8.4-0.6-11.7C35.3 76.8 34.8 67.8 31 67c-1.4-0.3-7.6-0.2-9.3-2.1 -1.3-1.4-2.1-3.3-1.7-5.5C20.4 57.1 21.6 54.3 21.6 54.3z" class="b"/><path d="M41.3 56.5c0 0-0.7-1.9-2.4-2.9 -1.6-0.9-3.2 0.9-1.2 2.4C39.5 57.4 41.3 56.5 41.3 56.5z" class="c"/><path d="M25.7 57.1c0.2-1.8-1-2.7-3.3-3.2 -1.4-0.3-3 0.5-3 2.3 0 2.5 2.1 4.4 2.1 4.4S25.3 60.6 25.7 57.1z" class="c"/><path d="M29.8 48.5c0 0 1.2 0.6 0.3 1.5C29.3 51.1 29.8 48.5 29.8 48.5z" class="c"/><path d="M34.6 73.3c0 0 2.8 1.6 7.3 1.6s8.4-1.8 10.6-3.9c2.2-2.1 8.1-8.5 8.1-8.5l2 2.1c0 0-7 8.9-10 10.7 -3.1 1.8-6.3 3.4-10.8 3.3s-6.6-1.5-6.6-1.5L34.6 73.3z" class="c"/><path d="M46.7 54.8c0 0-4.9 18.4 0.8 18.2 2.9-0.1 12.3-13.1 12.3-13.1s-5.6 16.4-13.4 16.5C38.7 76.5 46.7 54.8 46.7 54.8z" class="a"/></svg>
