<svg xmlns="http://www.w3.org/2000/svg" viewBox="0 0 512 512"><style>.a{fill:#333;}.b{fill:#444242;}</style><path d="M62.3 204.4c-20.4-40.3-24.8-85.5-12.9-130.7 9-33.9 24.1-56 24.7-56.9L85.7 0l79.7 92.8L62.3 204.4z" fill="#AEADB3"/><path d="M141.7 113.3L90 53.1c-3.6 7.9-7.5 18-10.5 29.6 -7.9 30.7-7 60.2 2.6 88.2L141.7 113.3z" fill="#D37B93"/><path d="M449.7 204.4c20.4-40.3 24.8-85.5 12.9-130.7 -9-33.9-24.1-56-24.7-56.9L426.3 0l-79.7 92.8L449.7 204.4" fill="#818186"/><path d="M370.3 113.3l51.6-60.1c3.6 7.9 7.5 18 10.5 29.6 7.9 30.7 7 60.2-2.6 88.2L370.3 113.3" fill="#9D5B6E"/><path d="M256 512c-45.4 0-80.6-14.7-107.4-44.8 -24.9-28-39.7-65.8-51.9-102.5 -4.8-14.3-9.3-26.5-13.8-38.4 -13.2-35.1-23.6-62.8-23.6-107.8 0-30.7 7-57.1 20.7-78.5 12.1-18.8 29.5-33.9 51.8-44.8 41.1-20.1 90.5-22.4 124.1-22.4s83 2.3 124.1 22.4c22.3 10.9 39.7 26 51.8 44.8 13.8 21.4 20.7 47.8 20.7 78.5 0 45-10.4 72.7-23.6 107.8 -4.4 11.8-9 24.1-13.8 38.4 -12.2 36.7-26.9 74.5-51.9 102.5C336.6 497.3 301.4 512 256 512" fill="#D8D9DD"/><path d="M184.9 225.8c0-11.3 9-20.4 20.1-20.4 11.1 0 20.1 9.1 20.1 20.4 0 11.3-9 20.4-20.1 20.4C193.9 246.2 184.9 237.1 184.9 225.8z" class="a"/><path d="M327.1 225.8c0-11.4-9.1-20.6-20.3-20.6 -11.2 0-20.3 9.2-20.3 20.6 0 11.4 9.1 20.6 20.3 20.6C318 246.4 327.1 237.2 327.1 225.8" class="a"/><path d="M240.3 511.4c5.1 0.4 10.3 0.6 15.7 0.6 5.4 0 10.6-0.2 15.7-0.6V403.6h-31.4L240.3 511.4" class="b"/><path d="M256 415.8c-19.6 0-37.1-15.5-43.8-22.1 -6.7-6.7-22.2-24.3-22.2-44.2 0-16.4 7.8-28.4 22.7-34.7 9.8-4.1 22.4-5.8 43.2-5.8s33.4 1.7 43.2 5.8c14.8 6.3 22.7 18.3 22.7 34.7 0 19.9-15.5 37.6-22.2 44.2C293.1 400.3 275.6 415.8 256 415.8" class="b"/><path d="M452.6 218.3c0 0.1 0 0.1 0 0.2l0 0C452.6 218.4 452.6 218.4 452.6 218.3M452.6 218.2c0 0 0 0 0 0C452.6 218.2 452.6 218.2 452.6 218.2M462.9 75.4v0V75.4M462.9 75.2c0 0 0 0 0 0L462.9 75.2M462.9 75.1c0 0 0 0 0 0C462.9 75.1 462.9 75.1 462.9 75.1M462.8 75c0 0 0 0 0 0C462.9 75 462.8 75 462.8 75M462.8 74.8c0 0 0 0 0 0C462.8 74.8 462.8 74.8 462.8 74.8M462.8 74.7c0 0 0 0 0 0C462.8 74.7 462.8 74.7 462.8 74.7M462.7 74.6c0 0 0 0 0 0C462.8 74.6 462.7 74.6 462.7 74.6M462.7 74.4c0 0 0 0 0 0C462.7 74.5 462.7 74.4 462.7 74.4M462.7 74.3c0 0 0 0 0 0C462.7 74.3 462.7 74.3 462.7 74.3M462.6 74.2c0 0 0 0 0 0C462.6 74.2 462.6 74.2 462.6 74.2M462.6 74c0 0 0 0 0 0C462.6 74.1 462.6 74 462.6 74M462.6 73.9c0 0 0 0 0 0.1C462.6 73.9 462.6 73.9 462.6 73.9M256.5 72.8c0 0 0 0 0 0C256.5 72.8 256.5 72.8 256.5 72.8M256 72.8L256 72.8c0.1 0 0.3 0 0.4 0C256.3 72.8 256.1 72.8 256 72.8M426.3 0l-72.8 84.8 0 0L426.3 0l11.6 16.7c0.6 0.9 15.7 23 24.7 56.9 0 0 0 0.1 0 0.1 0 0 0-0.1 0-0.1 -9-33.9-24.1-56-24.7-56.9L426.3 0" fill="#BDBDBF"/><path d="M306.9 246.4c-11.2 0-20.3-9.2-20.3-20.6s9.1-20.6 20.3-20.6c11.2 0 20.3 9.2 20.3 20.6C327.1 237.2 318 246.4 306.9 246.4M256 72.8v236.2c20.9 0 33.4 1.7 43.2 5.8 14.8 6.3 22.7 18.3 22.7 34.7 0 19.9-15.5 37.6-22.2 44.2 -4.8 4.8-15.3 14.2-28.1 19v98.6c-5 0.4-10.2 0.6-15.6 0.6 45.4 0 80.5-14.7 107.3-44.8 24.9-28 39.7-65.8 51.9-102.5 4.8-14.3 9.3-26.5 13.8-38.4 13.2-35.1 23.6-62.8 23.6-107.8 0-0.1 0-0.1 0-0.2 0 0 0-0.1 0-0.1 0 0 0 0 0 0 0-6.2-0.3-12.2-0.9-18.1 0 0 0 0 0 0 -2-20-7.3-37.8-15.8-53.3 -1.3-2.3-2.6-4.6-4-6.8 -11.4-17.7-27.5-32.1-47.8-42.8 -1.3-0.7-2.6-1.4-4-2 -8.6-4.2-17.6-7.6-26.7-10.4l0 0 0 0c-34.2-10.5-70.4-12-96.9-12 0 0 0 0 0 0 0 0-0.1 0-0.1 0C256.3 72.8 256.1 72.8 256 72.8" fill="#A0A1A5"/><path d="M299.2 314.8c-9.8-4.1-22.4-5.8-43.2-5.8v106.8V512c0 0 0.1 0 0.1 0 5.3 0 10.5-0.2 15.6-0.6v-98.6c12.8-4.9 23.3-14.2 28.1-19 6.7-6.7 22.2-24.3 22.2-44.2C321.9 333 314.1 321 299.2 314.8z" fill="#323132"/></svg>
