<svg width="14" height="14" xmlns="http://www.w3.org/2000/svg" viewBox="0 0 489.7 489.7"><path d="M485.3 252.3l4.3-7.5 -4.3-7.5c-24-41.4-58.4-76.2-99.7-100.5 -42.5-25-91.1-38.3-140.7-38.3 0 0-0.1 0-0.1 0s-0.1 0-0.1 0c-36 0-71.5 7-104.6 20.4L27.9 6.7 6.7 27.9 111.4 132.6c-2.5 1.4-4.9 2.8-7.4 4.2 -41.2 24.3-75.7 59.1-99.7 100.5L0 244.8l4.3 7.5c24 41.4 58.4 76.2 99.7 100.5 42.5 25 91.1 38.3 140.7 38.3 0 0 0.1 0 0.1 0s0.1 0 0.1 0c36 0 71.5-7 104.6-20.4l112.2 112.2 21.2-21.2L378.3 357c2.5-1.4 4.9-2.8 7.4-4.2C426.9 328.5 461.3 293.8 485.3 252.3zM454.8 244.8c-22.9 36.6-54.8 66-91.8 86.1 17.7-24.2 28.1-54 28.1-86.1s-10.4-62-28.1-86.1C400 178.8 431.9 208.2 454.8 244.8zM244.8 361.2c0 0-0.1 0-0.1 0 -64.1-0.1-116.2-52.2-116.2-116.3 0-26.7 9-51.3 24.2-70.9l47.8 47.8c-3.6 6.9-5.7 14.8-5.7 23.1 0 27.6 22.4 50 50 50 8.3 0 16.2-2.1 23.1-5.7l47.8 47.8c-19.6 15.1-44.2 24.2-70.8 24.2C244.9 361.2 244.9 361.2 244.8 361.2zM244.8 128.5c0 0 0.1 0 0.1 0 64.1 0.1 116.2 52.2 116.2 116.3 0 26.7-9 51.3-24.2 70.9l-47.8-47.8c3.6-6.9 5.7-14.8 5.7-23.1 0-27.6-22.4-50-50-50 -8.3 0-16.2 2.1-23.1 5.7l-47.8-47.8c19.6-15.1 44.2-24.2 70.8-24.2C244.8 128.5 244.8 128.5 244.8 128.5zM34.8 244.8c22.9-36.6 54.8-66 91.8-86.1 -17.7 24.2-28.1 54-28.1 86.1s10.5 62 28.1 86.1C89.6 310.9 57.8 281.4 34.8 244.8z"/></svg>
