<svg xmlns="http://www.w3.org/2000/svg" height="512" viewBox="0 0 512 512" width="512"><style>.a{fill:#b56d3c;}.b{fill:#ffb655;}</style><path d="m256 434.6h-216c-22.1 0-40-17.9-40-40v-5c0-22.1 17.9-40 40-40h216z" class="a"/><path d="m256 437.4-143.6 55.1c-20.6 7.9-43.8-2.4-51.7-23l-1.8-4.6c-7.9-20.6 2.4-43.8 23-51.7l143.6-55.1z" fill="#c9885b"/><path d="m472 434.6h-216v-85h216c22.1 0 40 17.9 40 40v5c0 22.1-17.9 40-40 40z" fill="#8f562f"/><path d="m256 437.4 143.6 55.1c20.6 7.9 43.8-2.4 51.7-23l1.8-4.6c7.9-20.6-2.4-43.8-23-51.7l-143.6-55.1z" class="a"/><path d="m424 215.3-23.6-84.1-43.9 45.8-100.5-160.3-100.5 160.3-43.9-45.8-23.6 84.1c-30.8 109.7 49.8 220 163.7 222.1 1.4 2.9 4.3s2.9 0 4.3 0c113.9-2 194.4-112.4 163.7-222.1z" class="b"/><path d="m256 437.4c1.4 0 2.9 0 4.3 0 113.9-2 194.4-112.4 163.7-222.1l-23.6-84.1-43.9 45.8-100.5-160.3z" fill="#ff7c48"/><path d="m343 322.4-12.2-43.5-22.7 23.7-52-83-52 83-22.7-23.7-12.2 43.5c-15.9 56.8 25.8 113.9 84.7 115 1.5 2.2s1.5 0 2.2 0c59-1.1 100.7-58.2 84.7-115z" fill="#ffe477"/><path d="m256 437.4c0.7 0 1.5 0 2.2 0 59-1.1 100.7-58.2 84.7-115l-12.2-43.5-22.7 23.7-52-83z" class="b"/></svg>
