<svg xmlns="http://www.w3.org/2000/svg" viewBox="0 0 512 512"><path d="M256.4 0C145.9-0.2 55.6 91.7 55.6 202.2v276.4c0 14.9 18 22.3 28.5 11.8l38.3-38.3 55 55c6.5 6.5 17.1 6.5 23.6 0L256 452.1l55 55c6.5 6.5 17.1 6.5 23.6 0l55-55 38.3 38.3c10.5 10.5 28.5 3.1 28.5-11.8V200.4C456.4 89.9 366.9 0.2 256.4 0zM423 438.3l-21.6-21.6c-6.5-6.5-17.1-6.5-23.6 0l-55 55 -55-55c-6.5-6.5-17.1-6.5-23.6 0l-55 55 -55-55c-6.5-6.5-17.1-6.5-23.6 0l-21.6 21.6V202.1h0c0-92.3 74.2-168.4 166.6-168.6 92.3-0.3 167.5 74.8 167.5 167V438.3z"/><path d="M172.5 167c-27.6 0-50.1 22.5-50.1 50.1s22.5 50.1 50.1 50.1c27.6 0 50.1-22.5 50.1-50.1S200.1 167 172.5 167zM172.5 233.8c-9.2 0-16.7-7.5-16.7-16.7s7.5-16.7 16.7-16.7c9.2 0 16.7 7.5 16.7 16.7S181.7 233.8 172.5 233.8z"/><path d="M339.5 167c-27.6 0-50.1 22.5-50.1 50.1s22.5 50.1 50.1 50.1c27.6 0 50.1-22.5 50.1-50.1S367.1 167 339.5 167zM339.5 233.8c-9.2 0-16.7-7.5-16.7-16.7s7.5-16.7 16.7-16.7c9.2 0 16.7 7.5 16.7 16.7S348.7 233.8 339.5 233.8z"/></svg>