<svg xmlns="http://www.w3.org/2000/svg" viewBox="0 0 512 512"><style>.a{fill:#333;}</style><polygon points="363.1 55.1 316.1 189.8 430 178.6 " class="a"/><polygon points="256 226.7 222.5 291.1 289.5 291.1 " class="a"/><polygon points="148.9 55.1 82 178.6 195.9 189.8 " class="a"/><path d="M468.2 332.4c1.3 3.7 0.4 7.8-2.7 12.1 -6.1 8.6-22.4 19.7-31.3 19.7 -3.1 0-5.1-1.2-6.3-2.3 -3.7-3.5-14.4-17.8-20.4-25.9 -48.1 33.4-125.2 37.1-156.9 37.1 -1.7 0-3.1 0-4.4 0 0 0 0 17 0 17.1 -0.4 8-11.4 10.3-15.6 11.1 -6.7 1.4-15.6 2.2-24.5 2.2 -18 0-39.8-2.8-41.8-16.1 -1.7-11.3-3.1-23.8-3.8-30.2 -84.6-21-129.6-50.5-148.1-65.3 1.7 42.2 32.9 92.9 44.2 109.9 4.7-4.4 11.9-10.6 18.6-15.3 2-1.4 4.4-2.1 7.2-2.1 9.6 0 21.8 8 25.3 10.5 5.9 4.2 16 12.4 16.5 20.5 0.4 7.8-1.7 29.7-2.7 39.6 22.4 7.3 50.6 11 84 11 49.8 0 97.2-8.3 113.6-11.6 -1.5-6.8-3.9-18.1-5.6-28.6 -0.4-2.2-0.2-5.7 2.9-9.4 9-10.6 38.6-18.3 54.1-18.3 7 0 11.9 1.4 15.1 4.2 15.2 13.8 25.9 23.8 31 28.6 32.5-19.7 56.2-47.8 70.6-83.5 7.3-18 10.3-33.7 11.5-42.7 -8.2 2-22.5 6.1-36.5 10.3C463.9 319.9 466.2 326.7 468.2 332.4z" class="a"/><path d="M71.5 190.1c0 0 133.5 13.1 133.5 13.1 3.4 0 6.2-2.8 6.2-6.2 0-0.9-0.2-1.8-0.6-2.6L156 37.7c-0.8-2.3-2.9-4-5.4-4.2 -2.5-0.2-4.8 1.1-6 3.2L66.6 180.9c-1 1.8-1 4 0 5.9C67.6 188.6 69.4 189.9 71.5 190.1zM148.9 55.1l47 134.8L82 178.6 148.9 55.1z"/><path d="M307 203.2c2.5 0 133.5-13.1 133.5-13.1 2.1-0.2 3.9-1.4 4.9-3.3 1-1.8 1-4 0-5.9L367.4 36.8c-1.2-2.2-3.5-3.4-6-3.2 -2.5 0.2-4.6 1.8-5.4 4.2l-54.9 157.3c-0.7 2-0.3 4.2 1 5.9C303.3 202.3 305.1 203.2 307 203.2zM363.1 55.1l66.9 123.5 -113.9 11.2L363.1 55.1z"/><path d="M207 300.5c1.1 1.9 3.1 3 5.3 3h87.5c2.2 0 4.2-1.1 5.3-3s1.2-4.2 0.2-6.1l-43.7-84c-1.1-2.1-3.2-3.3-5.5-3.3 -2.3 0-4.4 1.3-5.5 3.3l-43.7 84C205.8 296.3 205.8 298.6 207 300.5zM256 226.7l33.5 64.3h-67L256 226.7z"/><path d="M507.3 291.3c-0.6-0.1-1.2-0.2-1.9-0.2 -6 0-39 9.8-52.8 14 -1.6 0.5-2.9 1.6-3.7 3.1 -0.8 1.5-0.9 3.2-0.4 4.8 0 0.1 4.3 13 7.8 22.9 -1.6 4.7-15.3 14.3-20.9 15.7 -4.3-4.8-15-19.2-21.4-28 -1-1.4-2.5-2.3-4.2-2.5 -1.7-0.2-3.4 0.2-4.7 1.2 -45.8 35.6-129.8 38.3-154.4 38.3 -6.5 0-10.3-0.2-10.4-0.2 -1.7-0.1-3.4 0.5-4.6 1.7 -1.2 1.2-1.9 2.8-1.9 4.5v20.8c-3.5 1.5-13.4 3.5-27.6 3.5 -19.5 0-28.3-3.8-29.5-5.6 -2.3-15.7-4.2-33.7-4.2-33.9 -0.3-2.6-2.2-4.8-4.7-5.4C53.9 318.7 11.8 274.6 11.4 274.2c-1.6-1.8-4.2-2.4-6.5-1.7 -2.3 0.7-4 2.8-4.3 5.2 -7.1 57.5 47.7 134.1 50 137.3 1.1 1.5 2.7 2.4 4.5 2.6 1.8 0.2 3.6-0.5 4.9-1.8 0.1-0.1 19.9-18.9 22.4-18.9 8.3 0 28.3 14.1 29.3 19.3 0.4 7.5-2.2 33.2-3.2 42.5 -0.3 2.9 1.4 5.6 4.1 6.5 24.5 8.8 55.7 13.3 92.8 13.3 62.7 0 121.8-13 122.4-13.1 1.6-0.4 3-1.3 3.9-2.7 0.9-1.4 1.2-3.1 0.8-4.7 0-0.2-4-17.6-6.8-33.4 3.4-4.9 27.7-13.9 44.7-13.9 5.2 0 6.7 1 6.7 1 0 0 0 0 0 0 21.7 19.6 34 31.5 34.1 31.6 2 1.9 5 2.3 7.4 0.9 46.3-26.6 69.1-64.9 80.2-92.5 11.9-29.8 12.9-53.2 13-54.2C512.1 294.6 510.1 292 507.3 291.3zM487.3 347.5c-14.4 35.7-38.2 63.8-70.6 83.5 -5.1-4.8-15.8-14.8-31-28.6 -3.1-2.8-8-4.2-15.1-4.2 -15.6 0-45.2 7.7-54.1 18.3 -3.1 3.7-3.3 7.1-2.9 9.4 1.8 10.4 4.2 21.8 5.6 28.6 -16.4 3.2-63.8 11.6-113.6 11.6 -33.4 0-61.6-3.7-84-11 1-9.9 3.2-31.8 2.7-39.6 -0.5-8.2-10.5-16.4-16.4-20.5 -3.5-2.5-15.7-10.5-25.3-10.5 -2.8 0-5.2 0.7-7.2 2.1 -6.7 4.6-13.9 10.9-18.6 15.3 -11.3-17-42.5-67.8-44.2-109.9 18.5 14.8 63.5 44.4 148.1 65.3 0.7 6.4 2.2 18.9 3.8 30.2 2 13.3 23.8 16.1 41.8 16.1 8.8 0 17.7-0.8 24.5-2.2 4.2-0.9 15.2-3.1 15.6-11.1 0-0.1 0-17.1 0-17.1 1.3 0 2.8 0 4.4 0 31.7 0 108.8-3.7 156.9-37.1 6 8.2 16.7 22.5 20.4 25.9 1.1 1 3.1 2.3 6.3 2.3 8.9 0 25.2-11.1 31.3-19.7 3.1-4.3 4-8.4 2.7-12.1 -2-5.7-4.3-12.5-5.9-17.3 14-4.2 28.3-8.2 36.5-10.3C497.6 313.8 494.6 329.5 487.3 347.5z"/></svg>
