<svg xmlns="http://www.w3.org/2000/svg" viewBox="0 0 512 512"><style>.a{fill:#B27214;}.b{fill:#90BC42;}.c{fill:#995C0D;}</style><path d="M396.3 399.4c9.7 0 17.6 7.9 17.6 17.6 0 9.7-7.9 17.6-17.6 17.6s-17.6-7.9-17.6-17.6C378.7 407.3 386.6 399.4 396.3 399.4z" class="a"/><path d="M120.2 352.2c11.7 0 21.2 9.5 21.2 21.2 0 11.7-9.5 21.2-21.2 21.2s-21.2-9.5-21.2-21.2C99 361.7 108.5 352.2 120.2 352.2z" class="a"/><path d="M373.2 488.7c0 5.2-1.3 10.1-3.5 14.4H135.6c-1-3.3-1.5-6.8-1.5-10.4 0-20.5 16.6-37.1 37.1-37.1 3.7 0 7.3 0.5 10.7 1.6 11 3.3 19.9 11.7 24 22.4 4.6-8.2 13.4-13.7 23.4-13.7 8.1 0 15.3 3.6 20.3 9.2 6.3-11.6 18.5-19.5 32.6-19.5 13.8 0 25.8 7.5 32.2 18.7 3.5-6.7 9.4-12 16.5-14.7 3.4-1.3 7.2-2 11.1-2C359.3 457.5 373.2 471.5 373.2 488.7z" class="a"/><path d="M424 150.8c0 4.4-1.2 8.8-3.8 12.6l-49.3 74.5c-16.4 24.8-28.7 52-36.4 80.6 -1.1 4-2.6 87.7-3.5 141v0c-7.1 2.7-13 8-16.5 14.7 -6.4-11.2-18.4-18.7-32.2-18.7 -14.1 0-26.4 7.9-32.6 19.5 -4.9-5.6-12.2-9.2-20.3-9.2 -10.1 0-18.8 5.5-23.4 13.7 -4.1-10.7-12.9-19.1-24-22.4l-2.2-144.9c-1.4-11.5-7.7-21.9-17.4-28.4 -7-4.7-12.8-11.1-16.8-18.7 -12.2-22.9-30.3-42.5-52.7-56.6l-3.3-2.1c-13.2-8.3-16.8-25.9-8-38.8l0.4-0.6c9.1-13.3 27.4-16.1 39.9-6.2 11.5 9.2 25.5 20.2 37.2 29.5 1 0.8 2.1 1.5 3.2 1.9 7.2 3 15.6-1.4 17.5-8.8 0.4-1.5 0.5-3.1 0.3-4.8L165.4 46.8c-1.5-13.3 7.4-25.6 20.6-28.2 1.7-0.3 3.4-0.5 5.1-0.5 12.5 0 23.5 9.1 25.5 21.9l14.3 92.9c0.5 3 4.9 2.8 5.1-0.2l6-106.5c0.8-15.1 13.6-26.7 28.7-26.1 14.9 0.6 26.6 12.9 26.6 27.6 0 0.5 0 1 0 1.5l-5.4 98.6c-0.3 5.4 7.3 6.9 9 1.8l22.3-65c4.8-13.9 20.4-20.9 33.9-15.1 9.5 4.1 15.3 13.4 15.3 23.3 0 2.6-0.4 5.3-1.3 7.9l-28 85.4c-2 6 5.7 10.4 9.9 5.6l31.1-35.8c8.4-9.7 23-10.6 32.6-2C421.4 138.2 424 144.5 424 150.8z" fill="#9AD14B"/><path d="M214.1 457.2c0 0-3.6 14.3-8.2 22.4 -4.1-10.7-12.9-19.1-24-22.4l-2.2-144.9c-1.4-11.5-7.7-21.9-17.4-28.4 -7-4.7-12.8-11.1-16.8-18.7 -12.2-22.9-30.3-42.5-52.7-56.6l-3.3-2.1c-13.2-8.3-16.8-25.9-8-38.8l0.4-0.6c8.8-13 26.5-16 38.9-6.9 -2.6 1.8-4.9 4.2-6.8 6.9l-0.4 0.6c-8.8 12.9-5.1 30.5 8 38.8l3.3 2.1c22.4 14.2 40.5 33.8 52.7 56.6 4.1 7.6 9.8 14 16.8 18.7 9.7 6.5 16 16.9 17.4 28.4L214.1 457.2z" class="b"/><path d="M479.2 512H32.8c-4.9 0-8.9-4-8.9-8.9 0-4.9 4-8.9 8.9-8.9h446.4c4.9 0 8.9 4 8.9 8.9C488.1 508 484.1 512 479.2 512z" class="c"/><path d="M273.7 275.4c-4.1-78-80.3-66.7-111.3-83.1 7.2 3 15.6-1.4 17.5-8.8 12.5 2.4 29.9 7 52.3 15.9C284.2 220.1 273.7 275.4 273.7 275.4z" class="b"/><circle cx="427.6" cy="448.2" r="8.9" class="c"/><circle cx="366.8" cy="310" r="8.9" class="c"/><circle cx="89.2" cy="425.6" r="8.9" class="c"/><circle cx="105.9" cy="277.8" r="8.9" class="c"/></svg>
