<svg xmlns="http://www.w3.org/2000/svg" xmlns:xlink="http://www.w3.org/1999/xlink" width="271.269" height="237.08" viewBox="0 0 271.269 237.08"><defs><linearGradient id="a" x1="126.174" y1="89.692" x2="148.074" y2="177.526" gradientUnits="userSpaceOnUse"><stop offset="0" stop-color="#edf3cd"/><stop offset="0.5" stop-color="#eef3cf"/><stop offset="0.692" stop-color="#f0f5d6"/><stop offset="0.83" stop-color="#f5f8e2"/><stop offset="0.943" stop-color="#fbfcf3"/><stop offset="1" stop-color="#fff"/></linearGradient><linearGradient id="b" x1="113.463" y1="120.762" x2="217.057" y2="120.762" gradientUnits="userSpaceOnUse"><stop offset="0" stop-color="#fff"/><stop offset="0.043" stop-color="#fafcf2"/><stop offset="0.124" stop-color="#f4f8e1"/><stop offset="0.224" stop-color="#f0f5d6"/><stop offset="0.364" stop-color="#eef3cf"/><stop offset="0.754" stop-color="#edf3cd"/><stop offset="0.86" stop-color="#e6ecc7"/><stop offset="0.997" stop-color="#d7dbba"/></linearGradient><linearGradient id="c" x1="119.061" y1="111.681" x2="211.396" y2="111.681" xlink:href="#b"/><linearGradient id="d" x1="134.816" y1="78.651" x2="192.495" y2="78.651" xlink:href="#b"/></defs><title>keylimepie</title><path d="M10.553,201l268.421-68.421V199s2.105,10.526-7.369,11.579S10.553,262.158,10.553,262.158Z" transform="translate(-10.553 -25.078)" fill="#9c7e2e"/><path d="M10.553,200l263.421-66.421V197s2.105,10.526-7.369,11.579S10.553,258.158,10.553,258.158Z" transform="translate(-10.553 -25.078)" fill="#c1da60"/><path d="M280.86,136.9a110.075,110.075,0,0,1-18.334,9c-9,3.333-22.833,2.833-30.5,5s-17.5,8.333-24.5,9.5-11.833-1.167-17,0-9.833,6.166-15.5,7.5-10.5-.667-21.5,2-25.666,12.666-33,14.5-28.5,2.5-40,4.5-21,10.5-36,14-33.973,3.5-33.973,3.5V200s.973-7.6,5.973-10.6c2.157-1.294,46.167-35.5,67.167-50.5S187.526,74.4,187.526,74.4s81.294,38.5,86.647,44.5S283.806,135.194,280.86,136.9Z" transform="translate(-10.553 -25.078)" fill="url(#a)"/><path d="M117.026,139.4s21,11.5,51,5.5,47.5-8,49-18.5-53-31.5-53-31.5l-44,25.867S107.526,132.4,117.026,139.4Z" transform="translate(-10.553 -25.078)" fill="url(#b)"/><path d="M122.026,119.4s54,33.5,84-5-75.5-19-75.5-19S112.026,108.4,122.026,119.4Z" transform="translate(-10.553 -25.078)" fill="url(#c)"/><path d="M135.526,93.9s10,13.5,45.5,6.5-22.75-45.5-22.75-45.5S130.026,82.4,135.526,93.9Z" transform="translate(-10.553 -25.078)" fill="url(#d)"/><path d="M174.4,27.875,152.416,95.529l.479.29q1.818-5.6,3.637-11.2l9.51,18.664c1.569.821,3.127,1.605,4.661,2.341L159.285,83.221l43.694,14.2a45.633,45.633,0,0,1-9,15.638c1.97.408,4.024.813,6.133,1.211C222.687,84.663,209.406,40.3,174.4,27.875ZM158.837,77.529q7.178-22.087,14.354-44.175c10.985,3.57,21.814,13.6,26.726,23.244Zm45.7,14.7a22.012,22.012,0,0,1-.6,2.251l-43.694-14.2L201.3,59.359A50.449,50.449,0,0,1,204.535,92.228Z" transform="translate(-10.553 -25.078)" fill="#fff"/><path d="M160.24,80.282l43.694,14.2a22.012,22.012,0,0,0,.6-2.251A50.449,50.449,0,0,0,201.3,59.359Z" transform="translate(-10.553 -25.078)" fill="#c1cf33"/><path d="M173.191,33.354q-7.177,22.088-14.354,44.175L199.917,56.6C195.005,46.958,184.176,36.924,173.191,33.354Z" transform="translate(-10.553 -25.078)" fill="#c1cf33"/><path d="M152.9,95.819c4.194,2.542,8.7,5.144,13.147,7.469l-9.51-18.664Q154.714,90.222,152.9,95.819Z" transform="translate(-10.553 -25.078)" fill="#c1cf33"/><path d="M159.285,83.221,170.7,105.629a99.409,99.409,0,0,0,23.28,7.427,45.633,45.633,0,0,0,9-15.638Z" transform="translate(-10.553 -25.078)" fill="#c1cf33"/><path d="M175.307,25.078l-.9,2.764-.011.033c35,12.419,48.293,56.782,25.718,86.392q1.59.3,3.216.593C225.96,83.562,211.666,37.925,175.307,25.078Z" transform="translate(-10.553 -25.078)" fill="#84a53e"/></svg>
