<svg xmlns="http://www.w3.org/2000/svg" viewBox="0 0 470 470"><style>.a{fill:#3D2A20;}</style><path d="M383.8 151.5c-9.3 13.2-22.8 25.2-39.8 35.1 -3.6 2.1-8.2 0.9-10.2-2.7 0-0.1-0.1-0.1-0.1-0.2 -4.4 2.3-8.9 4.4-13.7 6.3 0 0 0 0.1 0.1 0.1 1.4 3.9-0.6 8.2-4.5 9.6 -24.4 9-52.3 13.7-80.6 13.7 -43.2 0-83.8-10.7-114.5-30.2 -14.5-9.2-26-19.9-34.3-31.5v211.6c0 23.8 15 46.5 42.3 63.8C156.8 445.1 194.7 455 235 455s78.2-9.9 106.5-27.9c27.3-17.3 42.3-40 42.3-63.8V151.5zM137 259.7c-4.4 0-8-3.6-8-8s3.6-8 8-8 8 3.6 8 8S141.5 259.7 137 259.7zM315.6 401.4c-4.4 0-8-3.6-8-8s3.6-8 8-8 8 3.6 8 8S320 401.4 315.6 401.4zM340 362.9c-4.4 0-8-3.6-8-8s3.6-8 8-8 8 3.6 8 8S344.4 362.9 340 362.9z" fill="#E0DCD7"/><path d="M336.5 173.6c30.1-17.4 47.3-41.8 47.3-66.9 0-23.8-15-46.5-42.3-63.8C313.2 24.9 275.3 15 235 15c-40.3 0-78.2 9.9-106.5 27.9 -27.3 17.3-42.3 40-42.3 63.8s15 46.5 42.3 63.8c28.3 18 66.2 27.9 106.5 27.9 26.6 0 52.7-4.4 75.5-12.8 3.8-1.4 8.1 0.5 9.6 4.3 4.7-2 9.3-4.1 13.7-6.3C331.7 180.1 333 175.6 336.5 173.6z" fill="#FFF"/><path d="M340 346.9c-4.4 0-8 3.6-8 8s3.6 8 8 8 8-3.6 8-8S344.4 346.9 340 346.9z" class="a"/><path d="M315.6 385.4c-4.4 0-8 3.6-8 8s3.6 8 8 8 8-3.6 8-8S320 385.4 315.6 385.4z" class="a"/><path d="M137 243.7c-4.4 0-8 3.6-8 8s3.6 8 8 8 8-3.6 8-8S141.5 243.7 137 243.7z" class="a"/><path d="M349.5 30.2C318.8 10.7 278.2 0 235 0s-83.8 10.7-114.5 30.2c-31.8 20.2-49.3 47.3-49.3 76.5v256.6c0 29.2 17.5 56.3 49.3 76.5C151.2 459.3 191.8 470 235 470s83.8-10.7 114.5-30.2c31.8-20.2 49.3-47.3 49.3-76.5V106.7C398.8 77.6 381.3 50.4 349.5 30.2zM341.5 427.1C313.2 445.1 275.3 455 235 455s-78.2-9.9-106.5-27.9c-27.3-17.3-42.3-40-42.3-63.8V151.7c8.2 11.6 19.8 22.3 34.3 31.5 30.7 19.5 71.4 30.2 114.5 30.2 28.3 0 56.2-4.7 80.6-13.7 3.9-1.4 5.9-5.7 4.5-9.6 0 0 0-0.1-0.1-0.1 -1.5-3.8-5.7-5.7-9.6-4.3 -22.8 8.4-48.9 12.8-75.5 12.8 -40.3 0-78.2-9.9-106.5-27.9 -27.3-17.3-42.3-40-42.3-63.8s15-46.5 42.3-63.8C156.8 24.9 194.7 15 235 15c40.3 0 78.2 9.9 106.5 27.9 27.3 17.3 42.3 40 42.3 63.8 0 25.1-17.2 49.5-47.3 66.9 -3.5 2-4.8 6.5-2.8 10.1 0 0.1 0.1 0.1 0.1 0.2 2.1 3.6 6.7 4.8 10.2 2.7 17-9.8 30.5-21.8 39.8-35.1v211.8C383.8 387.1 368.8 409.8 341.5 427.1z" class="a"/></svg>
