<svg xmlns="http://www.w3.org/2000/svg" viewBox="0 0 512 512"><style>.a{fill:#E6E6E6;}.b{fill:#603813;}</style><polygon points="150.8 459.2 52.8 361.2 31.3 432.2 79.8 480.7 " class="a"/><polygon points="79.8 480.7 31.3 432.2 10.2 501.8 " fill="#B3B3B3"/><rect x="167.1" y="85.2" transform="matrix(0.7071 0.7071 -0.7071 0.7071 264.1103 -86.4613)" width="138.7" height="380.8" fill="#FFBA57"/><rect x="364" y="54.5" transform="matrix(-0.7071 0.7071 -0.7071 -0.7071 750.1869 -63.0778)" width="48.4" height="138.7" class="a"/><path d="M491.3 118.8c14-14 14-36.6 0-50.6L443.8 20.7c-14-14-36.6-14-50.6 0l-37 37 98.1 98.1L491.3 118.8z" fill="#E8655A"/><path d="M45.5 354c0 0 0 0 0 0 -1.2 1.2-2 2.6-2.5 4.2L0.4 498.8c-1.1 3.6-0.1 7.5 2.6 10.2C4.9 511 7.5 512 10.2 512c1 0 2-0.1 3-0.4l140.6-42.6c1.6-0.5 3.1-1.4 4.2-2.6 0 0 0 0 0 0l340.5-340.5 0 0c8.7-8.7 13.5-20.2 13.5-32.5 0-12.3-4.8-23.8-13.5-32.5l-47.5-47.5C442.4 4.8 430.8 0 418.5 0s-23.8 4.8-32.5 13.5L45.5 354zM356.2 72.1l83.7 83.7 -19.8 19.8L336.4 91.9 356.2 72.1zM150.8 444.8l-83.7-83.7 254.8-254.8 83.7 83.7L150.8 444.8zM57.6 380.4l74 74L82.7 469.2 42.8 429.3 57.6 380.4zM36.1 451.4l24.5 24.5L25.5 486.5 36.1 451.4zM484.1 111.5L484.1 111.5l-29.8 29.8 -83.7-83.7 29.8-29.8c4.8-4.8 11.2-7.5 18.1-7.5 6.8 0 13.3 2.7 18.1 7.5l47.5 47.5c4.8 4.8 7.5 11.2 7.5 18.1S488.9 106.7 484.1 111.5z" class="b"/><path d="M307.1 256.9c-4-4-10.4-4-14.4 0l-4.1 4.1c-4 4-4 10.4 0 14.4 2 2 4.6 3 7.2 3 2.6 0 5.2-1 7.2-3l4.1-4.1C311.1 267.4 311.1 260.9 307.1 256.9z" class="b"/><path d="M259 290.6L143.7 405.9c-4 4-4 10.4 0 14.4 2 2 4.6 3 7.2 3 2.6 0 5.2-1 7.2-3L273.4 305c4-4 4-10.4 0-14.4C269.4 286.6 263 286.6 259 290.6z" class="b"/></svg>
