<svg xmlns="http://www.w3.org/2000/svg" viewBox="0 0 512 512"><style>.a{fill:#FFF;}.b{fill:#6A86AC;}.c{fill:#95C11F;}.d{fill:#AACD4C;}.e{fill:#1D1D1B;}</style><rect x="45.7" y="378" transform="matrix(-0.7071 -0.7071 0.7071 -0.7071 -97.0259 763.8459)" width="128" height="48" class="a"/><path d="M70.4 498.5l-54.8-54.8c-10.5-10.5-10.5-27.5 0-38l31.9-31.9 90.5 90.5 -34.2 34.2C94.5 507.7 79.6 507.7 70.4 498.5z" fill="#889EBD"/><path d="M74.3 502.4l-41-41c-1.6-1.6-1.6-4.1 0-5.6l48.1-48.1 56.6 56.6 -38.2 38.2C92.7 509.5 81.4 509.5 74.3 502.4z" class="b"/><polygon points="357.5 86.6 380.1 86.5 380.2 109.2 402.8 109.2 402.8 131.8 425.1 131.5 426.4 153.1 449.1 153.1 494.3 17.4 358.6 62.6 " class="a"/><polygon points="494.3 17.4 449.1 28.7 454.7 57 483 62.6 " class="b"/><polygon points="423.7 152 449.1 153.1 171.9 430.3 159.8 416.9 " class="c"/><polygon points="357.7 88.1 358.6 62.6 81.4 339.8 94.9 352 " class="c"/><polygon points="380.1 86.5 357.5 86.6 92.7 351.1 117.2 375.4 381.2 110.5 " class="d"/><polygon points="402.6 109 380 109 115.2 373.6 138.5 397.8 403.5 133.9 " class="c"/><polygon points="425.1 131.4 402.5 131.5 137.7 396.1 160.3 418.7 425.1 154.2 " class="d"/><path d="M358.8 51.2L70.1 339.8l102.1 102.1L455.1 159 512 0.3 358.8 51.2zM485.9 25.8l-9.8 27.3 -14.6-2.9 -3.1-15.3L485.9 25.8zM92.7 339.8L349.5 82.9l0.1 11.6 22.5-0.1 0.1 22.7 22.6 0 0 22.7 22.5-0.3 0.3 22.8 11.5-0.1L172.2 419.3 92.7 339.8zM442.6 146.4l-9.3 0.1 -0.3-22.9 -22.2 0.3 0-22.5 -22.7 0 -0.1-22.8 -22.6 0.1 -0.1-11.5 2-2 75.8-25.2 4.8 23.8 22.7 4.5L442.6 146.4z" class="e"/><rect x="37.7" y="394" transform="matrix(0.7071 0.7071 -0.7071 0.7071 316.3915 40.1905)" width="144" height="16" class="e"/><path d="M10.4 399.5c-13.9 13.9-13.9 36.4 0 50.2l51.5 51.5c6.7 6.7 15.6 10.4 25.1 10.4s18.4-3.7 25.1-10.4l37.1-37.1L47.5 362.5 10.4 399.5zM100.9 490c-3.7 3.7-8.6 5.7-13.8 5.7 -5.2 0-10.1-2-13.8-5.7L21.7 438.5c-7.6-7.6-7.6-20 0-27.7l25.8-25.8 79.2 79.2L100.9 490z" class="e"/></svg>
