<?xml version="1.0" encoding="iso-8859-1"?>
<!-- Generator: Adobe Illustrator 19.0.0, SVG Export Plug-In . SVG Version: 6.00 Build 0)  -->
<svg version="1.1" id="Layer_1" xmlns="http://www.w3.org/2000/svg" xmlns:xlink="http://www.w3.org/1999/xlink" x="0px" y="0px"
	 viewBox="0 0 512 512" style="enable-background:new 0 0 512 512;" xml:space="preserve">
<polygon style="fill:#DD7128;" points="485.92,400.798 456.092,464.484 55.908,464.484 26.093,400.798 254.77,372.578 "/>
<path style="fill:#F77D2B;" d="M436.771,439.632l-10.087,24.852H85.318L75.236,439.63c-2.211-5.45,1.799-11.404,7.681-11.404H429.09
	C434.973,428.226,438.983,434.182,436.771,439.632z"/>
<path style="fill:#E09B2D;" d="M470.721,341.44c-26.847,0-26.847,38.558-53.682,38.558c-26.847,0-26.847-19.786-53.694-19.786
	c-26.835,0-26.835,19.786-53.682,19.786c-26.835,0-26.835-19.786-53.67-19.786c-26.847,0-26.847,19.786-53.682,19.786
	c-26.847,0-26.847-19.786-53.682-19.786s-26.835,19.786-53.67,19.786S68.126,341.44,41.279,341.44
	c9.151-30.767,26.39-58.604,49.589-81.568c40.648-40.265,99.573-65.578,165.139-65.578c65.554,0,124.466,25.314,165.127,65.578
	C444.332,282.836,461.57,310.673,470.721,341.44z"/>
<path style="fill:#B27214;" d="M512,382.731c0,9.98-8.088,18.067-18.067,18.067h-8.013H26.093h-8.013
	c-4.996,0-9.522-2.028-12.787-5.293C2.028,392.24,0,387.714,0,382.731c0-11.402,4.625-21.728,12.094-29.197
	c7.469-7.469,17.783-12.094,29.184-12.094c26.847,0,26.847,19.786,53.682,19.786s26.835-19.786,53.67-19.786
	s26.835,19.786,53.682,19.786c26.835,0,26.835-19.786,53.682-19.786c26.835,0,26.835,19.786,53.67,19.786
	c26.847,0,26.847-19.786,53.682-19.786c26.847,0,26.847,19.786,53.694,19.786c26.835,0,26.835-19.786,53.682-19.786
	c11.402,0,21.728,4.625,29.197,12.094C507.387,361.003,512,371.329,512,382.731z"/>
<path style="fill:#F7B239;" d="M421.133,259.872c-40.66,40.264-99.585,65.578-165.139,65.578s-124.479-25.314-165.127-65.578
	c40.648-40.265,99.573-65.578,165.139-65.578C321.56,194.294,380.473,219.608,421.133,259.872z"/>
<g>
	<path style="fill:#B27214;" d="M256.006,284.568c-5.122,0-9.275-4.153-9.275-9.275v-26.587c0-5.122,4.153-9.275,9.275-9.275
		c5.122,0,9.275,4.153,9.275,9.275v26.587C265.281,280.415,261.128,284.568,256.006,284.568z"/>
	<path style="fill:#B27214;" d="M177.79,273.5c-2.374,0-4.749-0.906-6.56-2.718c-3.621-3.623-3.62-9.495,0.004-13.116l24.93-24.918
		c3.622-3.621,9.494-3.62,13.116,0.004c3.621,3.623,3.62,9.495-0.004,13.116l-24.93,24.918
		C182.535,272.595,180.163,273.5,177.79,273.5z"/>
	<path style="fill:#B27214;" d="M334.21,273.5c-2.373,0-4.747-0.905-6.558-2.717l-24.918-24.918c-3.622-3.622-3.622-9.495,0-13.116
		c3.622-3.622,9.495-3.622,13.116,0l24.918,24.918c3.622,3.622,3.622,9.494,0,13.116C338.958,272.593,336.585,273.5,334.21,273.5z"
		/>
</g>
<g>
	<path style="fill:#CCCCCC;" d="M253.135,162.391c-1.195,0-2.406-0.289-3.531-0.899c-3.602-1.954-4.938-6.458-2.984-10.06
		c9.403-17.336,6.069-29.963,2.21-44.584c-4.076-15.439-8.696-32.939,3.513-55.448c1.954-3.601,6.458-4.939,10.06-2.984
		c3.602,1.954,4.938,6.458,2.984,10.06c-9.403,17.336-6.069,29.963-2.21,44.584c4.076,15.439,8.696,32.939-3.513,55.448
		C258.32,160.985,255.769,162.391,253.135,162.391z"/>
	<path style="fill:#CCCCCC;" d="M204.15,162.391c-1.195,0-2.406-0.289-3.531-0.899c-3.602-1.954-4.938-6.458-2.984-10.06
		c9.403-17.336,6.069-29.963,2.209-44.584c-4.076-15.439-8.696-32.939,3.513-55.448c1.953-3.601,6.456-4.939,10.06-2.984
		c3.602,1.954,4.938,6.458,2.984,10.06c-9.403,17.336-6.069,29.963-2.21,44.585c4.076,15.439,8.696,32.939-3.513,55.448
		C209.335,160.985,206.784,162.391,204.15,162.391z"/>
	<path style="fill:#CCCCCC;" d="M302.119,162.391c-1.195,0-2.406-0.289-3.531-0.899c-3.602-1.954-4.938-6.458-2.984-10.06
		c9.403-17.336,6.069-29.963,2.21-44.585c-4.076-15.439-8.696-32.939,3.513-55.448c1.954-3.601,6.456-4.939,10.06-2.984
		c3.602,1.954,4.938,6.458,2.984,10.06c-9.403,17.336-6.069,29.963-2.209,44.584c4.076,15.439,8.696,32.939-3.513,55.448
		C307.304,160.985,304.753,162.391,302.119,162.391z"/>
</g>
<g>
</g>
<g>
</g>
<g>
</g>
<g>
</g>
<g>
</g>
<g>
</g>
<g>
</g>
<g>
</g>
<g>
</g>
<g>
</g>
<g>
</g>
<g>
</g>
<g>
</g>
<g>
</g>
<g>
</g>
</svg>
