<svg xmlns="http://www.w3.org/2000/svg" viewBox="0 0 512 512"><style>.a{fill:#B27214;}.b{fill:#CCC;}</style><polygon points="485.9 400.8 456.1 464.5 55.9 464.5 26.1 400.8 254.8 372.6 " fill="#DD7128"/><path d="M436.8 439.6l-10.1 24.9H85.3L75.2 439.6c-2.2-5.4 1.8-11.4 7.7-11.4H429.1C435 428.2 439 434.2 436.8 439.6z" fill="#F77D2B"/><path d="M470.7 341.4c-26.8 0-26.8 38.6-53.7 38.6 -26.8 0-26.8-19.8-53.7-19.8 -26.8 0-26.8 19.8-53.7 19.8 -26.8 0-26.8-19.8-53.7-19.8 -26.8 0-26.8 19.8-53.7 19.8 -26.8 0-26.8-19.8-53.7-19.8s-26.8 19.8-53.7 19.8S68.1 341.4 41.3 341.4c9.2-30.8 26.4-58.6 49.6-81.6 40.6-40.3 99.6-65.6 165.1-65.6 65.6 0 124.5 25.3 165.1 65.6C444.3 282.8 461.6 310.7 470.7 341.4z" fill="#E09B2D"/><path d="M512 382.7c0 10-8.1 18.1-18.1 18.1h-8H26.1h-8c-5 0-9.5-2-12.8-5.3C2 392.2 0 387.7 0 382.7c0-11.4 4.6-21.7 12.1-29.2 7.5-7.5 17.8-12.1 29.2-12.1 26.8 0 26.8 19.8 53.7 19.8s26.8-19.8 53.7-19.8 26.8 19.8 53.7 19.8c26.8 0 26.8-19.8 53.7-19.8 26.8 0 26.8 19.8 53.7 19.8 26.8 0 26.8-19.8 53.7-19.8 26.8 0 26.8 19.8 53.7 19.8 26.8 0 26.8-19.8 53.7-19.8 11.4 0 21.7 4.6 29.2 12.1C507.4 361 512 371.3 512 382.7z" class="a"/><path d="M421.1 259.9c-40.7 40.3-99.6 65.6-165.1 65.6s-124.5-25.3-165.1-65.6c40.6-40.3 99.6-65.6 165.1-65.6C321.6 194.3 380.5 219.6 421.1 259.9z" fill="#F7B239"/><path d="M256 284.6c-5.1 0-9.3-4.2-9.3-9.3v-26.6c0-5.1 4.2-9.3 9.3-9.3 5.1 0 9.3 4.2 9.3 9.3v26.6C265.3 280.4 261.1 284.6 256 284.6z" class="a"/><path d="M177.8 273.5c-2.4 0-4.7-0.9-6.6-2.7 -3.6-3.6-3.6-9.5 0-13.1l24.9-24.9c3.6-3.6 9.5-3.6 13.1 0 3.6 3.6 3.6 9.5 0 13.1l-24.9 24.9C182.5 272.6 180.2 273.5 177.8 273.5z" class="a"/><path d="M334.2 273.5c-2.4 0-4.7-0.9-6.6-2.7l-24.9-24.9c-3.6-3.6-3.6-9.5 0-13.1 3.6-3.6 9.5-3.6 13.1 0l24.9 24.9c3.6 3.6 3.6 9.5 0 13.1C339 272.6 336.6 273.5 334.2 273.5z" class="a"/><path d="M253.1 162.4c-1.2 0-2.4-0.3-3.5-0.9 -3.6-2-4.9-6.5-3-10.1 9.4-17.3 6.1-30 2.2-44.6 -4.1-15.4-8.7-32.9 3.5-55.4 2-3.6 6.5-4.9 10.1-3 3.6 2 4.9 6.5 3 10.1 -9.4 17.3-6.1 30-2.2 44.6 4.1 15.4 8.7 32.9-3.5 55.4C258.3 161 255.8 162.4 253.1 162.4z" class="b"/><path d="M204.2 162.4c-1.2 0-2.4-0.3-3.5-0.9 -3.6-2-4.9-6.5-3-10.1 9.4-17.3 6.1-30 2.2-44.6 -4.1-15.4-8.7-32.9 3.5-55.4 2-3.6 6.5-4.9 10.1-3 3.6 2 4.9 6.5 3 10.1 -9.4 17.3-6.1 30-2.2 44.6 4.1 15.4 8.7 32.9-3.5 55.4C209.3 161 206.8 162.4 204.2 162.4z" class="b"/><path d="M302.1 162.4c-1.2 0-2.4-0.3-3.5-0.9 -3.6-2-4.9-6.5-3-10.1 9.4-17.3 6.1-30 2.2-44.6 -4.1-15.4-8.7-32.9 3.5-55.4 2-3.6 6.5-4.9 10.1-3 3.6 2 4.9 6.5 3 10.1 -9.4 17.3-6.1 30-2.2 44.6 4.1 15.4 8.7 32.9-3.5 55.4C307.3 161 304.8 162.4 302.1 162.4z" class="b"/></svg>
