<svg xmlns="http://www.w3.org/2000/svg" viewBox="0 0 512 512"><style>.a{fill:#B27214;}.b{fill:#E09B2D;}</style><path d="M500 264.4l-30.6 121.2c-2.5 9.8-11.3 16.7-21.4 16.7H64c-10.1 0-18.9-6.9-21.4-16.7L12 264.4c2 1.1 235.3-37.4 244-37.4C264.7 227 498 265.5 500 264.4z" class="a"/><path d="M468.3 229.7v45.2c-0.5 0.4-1.1 0.7-1.6 1.1 -6.9 4.8-10 7-18.7 7 -8.7 0-11.8-2.2-18.7-7 -9.3-6.5-22-15.4-45.3-15.4 -23.3 0-36 8.9-45.3 15.4 -6.9 4.8-10 7-18.7 7 -8.7 0-11.8-2.2-18.7-7 -9.3-6.5-22-15.4-45.3-15.4s-36 8.9-45.3 15.4c-6.9 4.8-10 7-18.7 7 -8.7 0-11.8-2.2-18.7-7 -9.3-6.5-22-15.4-45.3-15.4s-36.1 8.9-45.3 15.4c-6.9 4.8-12.5 0.9-18.7 7 -10.3 10.3-15.8-25.2-22.6-30.1 -0.5-0.4 2.9-22.9 2.3-23.2 43.4-71.9 122.2-119.9 212.3-119.9C346.1 109.8 424.9 157.8 468.3 229.7z" fill="#F7B239"/><path d="M139.3 385.6l-29.6-117.1c-0.1 0.1-0.3 0.2-0.4 0.3 -9.3 6.5-22 15.5-45.3 15.5s-36-8.9-45.3-15.5c-2.6-1.8-4.6-3.2-6.7-4.3l30.6 121.2c2.5 9.8 11.3 16.7 21.4 16.7h96.7C150.6 402.2 141.8 395.4 139.3 385.6z" fill="#995C0D"/><path d="M512 243.7v1c0 8.3-4.7 15.8-12 19.7 -2 1.1-4.1 2.5-6.7 4.3 -9.3 6.5-22 15.5-45.3 15.5 -23.3 0-36.1-8.9-45.3-15.5 -6.9-4.8-10-7-18.7-7 -8.7 0-11.8 2.2-18.7 7 -9.3 6.5-22 15.5-45.3 15.5 -23.3 0-36.1-8.9-45.3-15.5 -6.9-4.8-10-7-18.7-7 -8.7 0-11.8 2.2-18.7 7 -9.3 6.5-22 15.5-45.3 15.5s-36-8.9-45.3-15.5c-6.9-4.8-10-7-18.7-7 -7.3 0-10.7 1.6-15.7 5 -0.9 0.6-1.9 1.3-3 2.1 -9.3 6.5-22 15.5-45.3 15.5s-36-8.9-45.3-15.5c-2.6-1.8-4.6-3.2-6.7-4.3C4.7 260.5 0 253 0 244.7v-1c0-17.4 18.6-28.5 33.9-20.2 3.7 2 7 4.2 9.8 6.2 0.6 0.4 1.1 0.8 1.6 1.1 6.9 4.8 10 7 18.7 7s11.8-2.2 18.7-7c8.4-5.9 19.5-13.7 38.7-15.2 2.1-0.2 4.3-0.3 6.7-0.3 23.3 0 36 8.9 45.3 15.4 6.9 4.8 10 7 18.7 7 8.7 0 11.8-2.2 18.7-7 9.3-6.5 22-15.4 45.3-15.4 23.3 0 36 8.9 45.3 15.4 6.9 4.8 10 7 18.7 7 8.7 0 11.8-2.2 18.7-7 9.3-6.5 22-15.4 45.3-15.4 23.3 0 36.1 8.9 45.3 15.4 6.9 4.8 10 7 18.7 7 8.7 0 11.8-2.2 18.7-7 0.5-0.4 1.1-0.7 1.6-1.1 2.9-2 6.1-4.2 9.8-6.2C493.4 215.2 512 226.3 512 243.7z" class="b"/><path d="M112.3 266.7c-0.9 0.6-1.9 1.3-3 2.1 -9.3 6.5-22 15.5-45.3 15.5s-36-8.9-45.3-15.5c-2.6-1.8-4.6-3.2-6.7-4.3C4.7 260.5 0 253 0 244.7v-1c0-17.4 18.6-28.5 33.9-20.2 3.7 2 7 4.2 9.8 6.2 0.6 0.4 1.1 0.8 1.6 1.1 6.9 4.8 10 7 18.7 7s11.8-2.2 18.7-7c8.4-5.9 19.5-13.7 38.7-15.2C115 228.3 109.1 246.5 112.3 266.7z" fill="#CC8A29"/><path d="M147 217.6c-5.4-1.4-11.7-2.3-19-2.3 -23.3 0-36.1 8.9-45.3 15.4 -6.9 4.8-10 7-18.7 7s-11.8-2.2-18.7-7c-0.5-0.4-1.1-0.7-1.6-1.1 43.4-71.9 122.2-119.9 212.3-119.9 16.3 0 32.3 1.6 47.8 4.6C238.9 127 183.1 165 147 217.6z" class="b"/><path d="M256 170.8c4.9 0 8.8-4 8.8-8.8v-19.7c0-4.9-4-8.8-8.8-8.8s-8.8 4-8.8 8.8v19.7C247.2 166.9 251.1 170.8 256 170.8z" class="a"/><path d="M306 161.4l16.9 7c1.1 0.5 2.3 0.7 3.4 0.7 3.5 0 6.8-2 8.2-5.4 1.9-4.5-0.3-9.7-4.8-11.6l-16.9-7c-4.5-1.9-9.7 0.3-11.6 4.8C299.3 154.4 301.5 159.6 306 161.4z" class="a"/><path d="M185.8 169.1c1.1 0 2.3-0.2 3.4-0.7l16.9-7c4.5-1.9 6.6-7.1 4.8-11.6 -1.9-4.5-7.1-6.6-11.6-4.8l-16.9 7c-4.5 1.9-6.6 7.1-4.8 11.6C179 167.1 182.3 169.1 185.8 169.1z" class="a"/></svg>