<svg xmlns="http://www.w3.org/2000/svg" viewBox="0 0 449.2 449.2" width="512" height="512"><style>.a{fill:#E09B2D;}.b{fill:#FFF;}.c{fill:#333;}</style><path d="M431.4 231.7l-25.9 102.7c-2.1 8.3-9.6 14.1-18.1 14.1H61.8c-8.6 0-16-5.8-18.1-14.1l-25.9-102.7c1.7 0.9 3.5 2.2 5.6 3.7 7.9 5.5 18.7 13.1 38.4 13.1s30.6-7.6 38.4-13.1c5.8-4.1 8.5-6 15.8-6 7.4 0 10 1.9 15.8 6 7.9 5.5 18.7 13.1 38.4 13.1s30.6-7.6 38.4-13.1c5.8-4.1 8.5-6 15.8-6 7.4 0 10 1.9 15.8 6 7.9 5.5 18.7 13.1 38.4 13.1 19.8 0 30.6-7.6 38.4-13.1 5.8-4.1 8.5-6 15.8-6 7.4 0 10 1.9 15.8 6 7.9 5.5 18.7 13.1 38.4 13.1s30.6-7.6 38.4-13.1C428 233.9 429.7 232.6 431.4 231.7z" fill="#B27214"/><path d="M125.6 334.4l-25.1-99.3c-0.1 0.1-0.2 0.2-0.4 0.3 -7.9 5.5-18.6 13.1-38.4 13.1s-30.6-7.6-38.4-13.1c-2.2-1.5-3.9-2.7-5.6-3.7l25.9 102.7c2.1 8.3 9.6 14.1 18.1 14.1h82C135.2 348.6 127.7 342.8 125.6 334.4z" fill="#995C0D"/><path d="M441.6 214.2v0.8c0 7.1-4 13.4-10.2 16.7 -1.7 0.9-3.4 2.2-5.6 3.7 -7.9 5.5-18.6 13.1-38.4 13.1 -19.8 0-30.6-7.6-38.4-13.1 -5.8-4.1-8.5-6-15.8-6 -7.3 0-10 1.9-15.8 6 -7.9 5.5-18.6 13.1-38.4 13.1 -19.8 0-30.6-7.6-38.4-13.1 -5.8-4.1-8.5-6-15.8-6 -7.3 0-10 1.9-15.8 6 -7.9 5.5-18.6 13.1-38.4 13.1 -19.8 0-30.6-7.6-38.4-13.1 -5.8-4.1-8.5-6-15.8-6 -6.2 0-9.1 1.3-13.3 4.2 -0.8 0.5-1.6 1.1-2.5 1.8 -7.9 5.5-18.6 13.1-38.4 13.1 -19.8 0-30.6-7.6-38.4-13.1 -2.2-1.5-3.9-2.7-5.6-3.7 -6.2-3.4-10.2-9.7-10.2-16.7v-0.8c0-14.7 15.8-24.1 28.7-17.1 3.2 1.7 5.9 3.6 8.3 5.3 0.5 0.3 0.9 0.6 1.4 1 5.8 4.1 8.5 6 15.8 6s10-1.9 15.8-6c7.1-5 16.5-11.6 32.8-12.9 1.8-0.1 3.7-0.2 5.6-0.2 19.8 0 30.6 7.6 38.4 13.1 5.8 4.1 8.5 6 15.8 6 7.4 0 10-1.9 15.8-6 7.9-5.5 18.7-13.1 38.4-13.1 19.8 0 30.6 7.6 38.4 13.1 5.8 4.1 8.5 6 15.8 6 7.4 0 10-1.9 15.8-6 7.9-5.5 18.7-13.1 38.4-13.1 19.8 0 30.6 7.6 38.4 13.1 5.8 4.1 8.5 6 15.8 6 7.4 0 10-1.9 15.8-6 0.4-0.3 0.9-0.6 1.4-0.9 2.4-1.7 5.2-3.5 8.4-5.3C425.9 190 441.6 199.4 441.6 214.2z" class="a"/><path d="M404.6 202.3v0c-0.5 0.3-0.9 0.6-1.3 0.9 -5.8 4.1-8.5 6-15.8 6 -7.4 0-10-1.9-15.8-6 -7.9-5.5-18.6-13.1-38.4-13.1 -19.8 0-30.6 7.6-38.4 13.1 -5.8 4.1-8.5 6-15.8 6 -7.4 0-10-1.9-15.8-6 -7.9-5.5-18.6-13.1-38.4-13.1s-30.6 7.6-38.4 13.1c-5.8 4.1-8.5 6-15.8 6s-10-1.9-15.8-6c-7.9-5.5-18.6-13.1-38.4-13.1s-30.6 7.6-38.4 13.1c-5.8 4.1-8.5 6-15.8 6s-10-1.9-15.8-6c-0.4-0.3-0.9-0.6-1.4-0.9 36.8-60.9 103.6-101.7 180-101.7C300.9 100.6 367.8 141.3 404.6 202.3z" fill="#F7B239"/><path d="M102.7 233.6c-0.8 0.5-1.6 1.1-2.5 1.8 -7.9 5.5-18.6 13.1-38.4 13.1 -19.8 0-30.6-7.6-38.4-13.1 -2.2-1.5-3.9-2.7-5.6-3.7 -6.2-3.4-10.2-9.7-10.2-16.7v-0.8c0-14.7 15.8-24.1 28.7-17.1 3.2 1.7 5.9 3.6 8.3 5.3 0.5 0.3 0.9 0.6 1.4 1 5.8 4.1 8.5 6 15.8 6s10-1.9 15.8-6c7.1-5 16.5-11.6 32.8-12.9C105 201.1 100 216.5 102.7 233.6z" fill="#CC8A29"/><path d="M132.1 192c-4.6-1.2-9.9-1.9-16.1-1.9 -19.8 0-30.6 7.6-38.4 13.1 -5.8 4.1-8.5 6-15.8 6s-10-1.9-15.8-6c-0.4-0.3-0.9-0.6-1.4-0.9 36.8-60.9 103.6-101.7 180-101.7 13.9 0 27.4 1.3 40.5 3.9C210 115.2 162.7 147.4 132.1 192z" class="a"/><path d="M348.6 178.1c-1.8 0-3.5-0.6-5-1.9 -9.1-8.1-19-15.2-29.5-21.2 -4.3-2.5-8.8-4.8-13.3-7 -3.7-1.8-5.4-6.2-3.6-10 1.8-3.8 6.2-5.4 10-3.6 4.9 2.3 9.8 4.8 14.5 7.5 11.3 6.5 22.1 14.3 31.9 23 3.1 2.7 3.4 7.5 0.6 10.6C352.7 177.3 350.7 178.1 348.6 178.1z" class="b"/><path d="M383.9 335.6c-0.6 0-1.1-0.1-1.7-0.2 -4-1-6.5-5-5.6-9l14-59.3c1-4 5-6.5 9-5.6 4 1 6.5 5 5.6 9l-14 59.3C390.4 333.3 387.3 335.6 383.9 335.6z" class="b"/><path d="M436 191c-8.2-4.9-18.2-5.1-26.6-0.6 -0.9 0.5-1.7 0.9-2.5 1.4 -18.7-28.6-44-52.7-73.7-69.8 -32.9-19-70.4-29-108.6-29 -38.2 0-75.7 10-108.6 29 -29.6 17.1-55 41.1-73.7 69.8 -0.8-0.5-1.6-0.9-2.5-1.4 -8.4-4.6-18.4-4.3-26.6 0.6C4.9 195.9 0 204.6 0 214.2v0.8c0 8.5 4.2 16.4 11.2 21.5l25.2 99.8c2.9 11.7 13.4 19.8 25.4 19.8H387.4c12 0 22.5-8.1 25.4-19.8l25.2-99.8c7-5 11.2-13 11.2-21.5v-0.8C449.2 204.6 444.2 195.9 436 191zM123.5 135.1c30.6-17.7 65.6-27 101.1-27 35.5 0 70.5 9.3 101.1 27 27.6 16 51.3 38.4 68.7 65.1 -2.2 1.2-3.8 1.6-7 1.6 -5 0-6.1-0.8-11.5-4.6 -8.2-5.8-20.6-14.5-42.7-14.5 -22.2 0-34.5 8.7-42.7 14.5 -5.4 3.8-6.5 4.6-11.5 4.6 -5 0-6.1-0.8-11.5-4.6 -8.2-5.8-20.6-14.5-42.7-14.5 -22.2 0-34.5 8.7-42.7 14.5 -5.4 3.8-6.5 4.6-11.5 4.6 -5 0-6.1-0.8-11.5-4.6 -8.2-5.8-20.6-14.5-42.7-14.5 -22.2 0-34.5 8.7-42.7 14.5 -5.4 3.8-6.5 4.6-11.5 4.6 -3.2 0-4.8-0.3-7-1.6C72.2 173.4 95.8 151 123.5 135.1zM15 214.2c0-4.3 2.2-8.1 5.8-10.3 3.7-2.2 8.1-2.3 11.8-0.3 3.4 1.8 6.2 3.8 9 5.7 6.3 4.4 10.4 7.3 20.1 7.3 9.7 0 13.9-2.9 20.1-7.3 7.4-5.2 16.7-11.7 34.1-11.7 17.4 0 26.7 6.5 34.1 11.7 6.3 4.4 10.4 7.3 20.1 7.3 9.7 0 13.9-2.9 20.1-7.3 7.4-5.2 16.7-11.7 34.1-11.7 17.4 0 26.7 6.5 34.1 11.7 6.3 4.4 10.4 7.3 20.1 7.3 9.7 0 13.9-2.9 20.1-7.3 7.4-5.2 16.7-11.7 34.1-11.7 17.4 0 26.7 6.5 34.1 11.7 6.3 4.4 10.4 7.3 20.1 7.3 9.7 0 13.9-2.9 20.2-7.3 2.7-1.9 5.6-3.9 9-5.7 3.7-2 8.2-1.9 11.8 0.3 3.7 2.2 5.8 6 5.8 10.3v0.8c0 4.2-2.4 8-6.3 10.1 -2.1 1.1-4.1 2.5-6.4 4.1 -7.4 5.2-16.7 11.7-34.1 11.7s-26.7-6.5-34.1-11.7c-6.3-4.4-10.4-7.3-20.1-7.3 -9.7 0-13.9 2.9-20.1 7.3 -7.4 5.2-16.7 11.7-34.1 11.7 -17.4 0-26.7-6.5-34.1-11.7 -6.3-4.4-10.4-7.3-20.1-7.3 -9.7 0-13.9 2.9-20.1 7.3 -7.4 5.2-16.7 11.7-34.1 11.7 -17.4 0-26.7-6.5-34.1-11.7 -6.3-4.4-10.4-7.3-20.1-7.3 -9.7 0-13.9 2.9-20.1 7.3 -7.4 5.2-16.7 11.7-34.1 11.7 -17.4 0-26.7-6.5-34.1-11.7 -2.3-1.6-4.3-3-6.4-4.1C17.4 223 15 219.1 15 215V214.2zM398.2 332.6c-1.3 5-5.7 8.5-10.9 8.5H61.8c-5.1 0-9.6-3.5-10.9-8.5l-21.3-84.3c7.7 4.1 17.9 7.7 32.1 7.7 22.2 0 34.5-8.7 42.7-14.5 5.4-3.8 6.5-4.6 11.5-4.6 5 0 6.1 0.8 11.5 4.6 8.2 5.8 20.6 14.5 42.7 14.5 22.1 0 34.5-8.7 42.7-14.5 5.4-3.8 6.5-4.6 11.5-4.6 5 0 6.1 0.8 11.5 4.6 8.2 5.8 20.6 14.5 42.7 14.5 22.2 0 34.5-8.7 42.7-14.5 5.4-3.8 6.5-4.6 11.5-4.6 5 0 6.1 0.8 11.5 4.6 8.2 5.8 20.6 14.5 42.7 14.5 14.3 0 24.5-3.6 32.2-7.7L398.2 332.6z" class="c"/><path d="M224.6 152.4c4.1 0 7.5-3.4 7.5-7.5v-16.7c0-4.1-3.4-7.5-7.5-7.5s-7.5 3.4-7.5 7.5v16.7C217.1 149 220.4 152.4 224.6 152.4z" class="c"/><path d="M267 144.4l14.3 6c0.9 0.4 1.9 0.6 2.9 0.6 2.9 0 5.7-1.7 6.9-4.6 1.6-3.8-0.2-8.2-4-9.8l-14.3-6c-3.8-1.6-8.2 0.2-9.8 4C261.3 138.4 263.1 142.8 267 144.4z" class="c"/><path d="M165 150.9c1 0 1.9-0.2 2.9-0.6l14.3-6c3.8-1.6 5.6-6 4-9.8 -1.6-3.8-6-5.6-9.8-4l-14.3 6c-3.8 1.6-5.6 6-4 9.8C159.3 149.2 162.1 150.9 165 150.9z" class="c"/></svg>