<svg xmlns="http://www.w3.org/2000/svg" viewBox="0 0 350 350"><style>.a{fill:#FFAD41;}.b{fill:#BD720D;}</style><path d="M314.9 219.5c0.1-1.3 0.1-2.5 0.1-3.8 0-63.6-62.7-115.2-140-115.2 -77.3 0-140 51.6-140 115.2 0 1.3 0 2.5 0.1 3.8H314.9z" fill="#FFDA44"/><path d="M175 219.5v-119c-77.3 0-140 51.6-140 115.2 0 1.3 0 2.5 0.1 3.8H175z" class="a"/><path d="M325 209.5v-40c0-11-9-20-20-20 -21.7 0-21.7 15.8-43.3 15.8 -21.7 0-21.7-15.8-43.3-15.8 -21.7 0-21.7 15.8-43.3 15.8 -21.7 0-21.7-15.8-43.3-15.8 -21.7 0-21.7 15.8-43.3 15.8C66.7 165.3 66.7 149.5 45 149.5c-11 0-20 9-20 20v40H325z" fill="#FF9811"/><path d="M175 165.3c-21.7 0-21.7-15.8-43.3-15.8 -21.7 0-21.7 15.8-43.3 15.8C66.7 165.3 66.7 149.5 45 149.5c-11 0-20 9-20 20v40h150C175 209.5 175 179.8 175 165.3z" class="b"/><path d="M335 179.5H15c-8.3 0-15 6.7-15 15s6.7 15 15 15h10c0 22.1 17.9 40 40 40h220c22.1 0 40-17.9 40-40h10c8.3 0 15-6.7 15-15S343.3 179.5 335 179.5z" fill="#CDCDD0"/><path d="M175 179.5H15c-8.3 0-15 6.7-15 15s6.7 15 15 15h10c0 22.1 17.9 40 40 40h110V179.5z" fill="#ACABB1"/><path d="M120 130.5c8.3 0 15-6.7 15-15v-10.2c-10.6 2.6-20.6 6.2-30 10.6C105.2 124 111.9 130.5 120 130.5z" class="b"/><path d="M230 130.5c8.1 0 14.8-6.5 15-14.6 -9.4-4.5-19.4-8-30-10.6v10.2C215 123.8 221.7 130.5 230 130.5z" class="a"/><path d="M175 130.5c8.3 0 15-6.7 15-15v-14.3c-4.9-0.4-9.9-0.7-15-0.7s-10.1 0.2-15 0.7V115.5C160 123.8 166.7 130.5 175 130.5z" class="a"/><path d="M175 130.5c0-7 0-13.5 0-30 -5.1 0-10.1 0.2-15 0.7V115.5C160 123.8 166.7 130.5 175 130.5z" class="b"/></svg>
