<svg xmlns="http://www.w3.org/2000/svg" viewBox="0 0 217.2 217.2"><style>.a{fill:#0CB04A;}.b{fill:#142A3B;}</style><path d="M89 135.6H71.1c-3.5 0-6.3 2-6.3 4.6 0 2.5 2.8 4.6 6.3 4.6h0.8c3.5 0 6.3 2 6.3 4.6s-2.8 4.6-6.3 4.6H33.4c-3.5 0-6.3 2-6.3 4.6 0 2.5 2.8 4.6 6.3 4.6h46.3 94.7c3.5 0 6.3-2 6.3-4.6 0-2.5-2.8-4.6-6.3-4.6h-10.7c-3.5 0-6.3-2-6.3-4.6s2.8-4.6 6.3-4.6h42c3.5 0 6.3-2 6.3-4.6 0-2.5-2.8-4.6-6.3-4.6h-3.1H89z" class="a"/><path d="M199.3 163.4c-2.4 0-4.4-1.4-4.4-3.2 0-1.8 2-3.2 4.4-3.2h13.5c2.4 0 4.4 1.4 4.4 3.2 0 1.8-2 3.2-4.4 3.2H199.3z" class="a"/><path d="M177.3 98.1c0-24.4-36.8-44.3-82.2-44.3S12.9 73.7 12.9 98.1H177.3z" fill="#FBB713"/><path d="M143.1 62.2c2.4 2 4.5 4.2 6.3 6.4 5.5 7 0.6 17.2-8.3 17.2H16.1c-2.1 3.9-3.2 8-3.2 12.3h164.4C177.3 83.3 163.8 70.2 143.1 62.2z" opacity="0.3"/><path d="M153.8 139.3H36.3L0 96.4h190.1L153.8 139.3z" class="b"/><path d="M162.5 96.4l-36.3 42.9h27.6l36.3-42.9H162.5z" opacity="0.4"/><path d="M91.7 88.3c-2 0-3.6-1.6-3.6-3.6V70.6c0-2 1.6-3.6 3.6-3.6 2 0 3.6 1.6 3.6 3.6v14.1C95.3 86.7 93.7 88.3 91.7 88.3z" class="b"/><path d="M132.9 86.3c-0.9 0-1.9-0.4-2.6-1.1l-9.8-10c-1.4-1.4-1.4-3.7 0-5.1 1.4-1.4 3.7-1.4 5.1 0l9.9 10c1.4 1.4 1.4 3.7 0 5.1C134.8 85.9 133.8 86.3 132.9 86.3z" class="b"/><path d="M50.4 86.3c-0.9 0-1.8-0.3-2.5-1 -1.4-1.4-1.4-3.7 0-5.1l9.8-10c1.4-1.4 3.7-1.4 5.1 0 1.4 1.4 1.4 3.7 0 5.1l-9.8 10C52.3 85.9 51.3 86.3 50.4 86.3z" class="b"/><path d="M40.3 78c-1 0-2-0.4-2.7-1.2 -1.4-1.5-1.3-3.8 0.2-5.1 0.4-0.4 10-9.1 24.8-13 1.9-0.5 3.9 0.6 4.4 2.6 0.5 1.9-0.6 3.9-2.6 4.4 -13 3.4-21.6 11.2-21.7 11.3C42 77.7 41.2 78 40.3 78z" fill="#FFF"/></svg>
