<svg xmlns="http://www.w3.org/2000/svg" viewBox="0 0 417.2 417.2"><path d="M325.6 335.9c-9.6-6-17.9-11.3-35.4-11.3 -17.5 0-25.8 5.2-35.5 11.3 -10.7 6.7-22.8 14.3-46.1 14.3s-35.4-7.6-46.1-14.3c-9.6-6-18-11.3-35.5-11.3 -17.5 0-25.8 5.2-35.4 11.3 -9 5.6-19 11.9-35.7 13.8l1.5 6.5 7 30.9h275.3l8.3-40.2C338.7 344.1 331.9 339.9 325.6 335.9z" fill="#89634A"/><path d="M356.1 289.7c-4.2 0-7.9-2.6-9.4-6.5 -22.5-60.2-84.3-100.6-153.7-100.6 -32.2 0-62.7 8.7-88.5 24.1 -22.3 17.1-39.7 39.6-49.6 66 -1.5 3.9-5.2 6.5-9.4 6.5 -1.6 0-3.2 0.2-4.8 0.5 0 0.1-0.2 0.1-0.3 0.1 -6.4 1.3-11.9 5-15.6 10.1 -0.1 0.3-0.2 0.5-0.4 0.5C21.7 294.4 20 299.4 20 304.7c0 14.1 11.4 25.6 25.5 25.6 17.5 0 25.8-5.2 35.4-11.3 10.7-6.7 22.8-14.3 46.1-14.3 23.3 0 35.4 7.6 46.1 14.3 9.6 6 18 11.3 35.5 11.3s25.8-5.2 35.5-11.3c10.7-6.7 22.8-14.3 46.1-14.3 23.3 0 35.4 7.6 46.1 14.3 9.6 6 17.9 11.3 35.4 11.3 1.9 0 3.7-0.2 5.5-0.6 2.8-4.1 4.5-9.1 4.5-14.4C381.6 301.1 370.1 289.7 356.1 289.7zM164.9 225.5l-16.9 21c-2 2.5-4.9 3.7-7.8 3.7 -2.2 0-4.4-0.7-6.3-2.2 -4.3-3.5-5-9.8-1.5-14.1l16.9-21c3.5-4.3 9.8-5 14.1-1.5C167.7 214.9 168.4 221.2 164.9 225.5zM218.6 249.9c0 5.5-4.5 10-10 10s-10-4.5-10-10v-27c0-5.5 4.5-10 10-10s10 4.5 10 10V249.9zM283.2 248c-1.8 1.5-4.1 2.2-6.3 2.2 -2.9 0-5.8-1.3-7.8-3.7l-16.9-21c-3.5-4.3-2.8-10.6 1.5-14.1 4.3-3.5 10.6-2.8 14.1 1.5l16.9 21C288.2 238.3 287.5 244.6 283.2 248z" fill="#D4B783"/><path d="M378.6 259.7c-27.2-64.6-94.7-107.6-170-107.6S65.7 195 38.6 259.7C16.7 263.1 0 282 0 304.7c0 21.6 15.1 39.7 35.2 44.4l11.3 50.3c1 4.6 5.1 7.8 9.8 7.8h304.5c4.7 0 8.7-3.2 9.8-7.8l11.3-50.3c20.2-4.7 35.2-22.8 35.2-44.4C417.2 282 400.4 263.1 378.6 259.7zM352.8 387.2h-13.2H64.3l-7-30.9 -1.5-6.5c16.7-1.9 26.7-8.1 35.7-13.8 9.6-6 17.9-11.3 35.4-11.3 17.5 0 25.8 5.2 35.5 11.3 10.7 6.7 22.8 14.3 46.1 14.3s35.4-7.6 46.1-14.3c9.6-6 18-11.3 35.5-11.3 17.5 0 25.8 5.2 35.4 11.3 6.3 4 13.1 8.2 22.4 11.1 3.9 1.2 8.3 2.2 13.3 2.7L352.8 387.2zM377.1 329.7c-1.8 0.4-3.6 0.6-5.5 0.6 -17.5 0-25.8-5.2-35.4-11.3 -10.7-6.7-22.8-14.3-46.1-14.3 -23.3 0-35.4 7.6-46.1 14.3 -9.6 6-18 11.3-35.5 11.3s-25.8-5.2-35.5-11.3c-10.7-6.7-22.8-14.3-46.1-14.3 -23.3 0-35.4 7.6-46.1 14.3 -9.6 6-17.9 11.3-35.4 11.3C31.4 330.3 20 318.8 20 304.7c0-5.3 1.7-10.3 4.5-14.4 0.1-0.2 0.3-0.4 0.4-0.5 3.7-5.1 9.2-8.8 15.6-10.1 0.1 0 0.2 0 0.3-0.1 1.6-0.3 3.2-0.5 4.8-0.5 4.2 0 7.9-2.6 9.4-6.5 9.9-26.4 27.3-49 49.6-66 28.6-21.8 65.1-34.6 104-34.6 69.4 0 131.1 40.4 153.7 100.6 1.5 3.9 5.2 6.5 9.4 6.5 14.1 0 25.6 11.5 25.6 25.6C397.2 316.9 388.6 327.1 377.1 329.7z"/><path d="M208.6 213c-5.5 0-10 4.5-10 10v27c0 5.5 4.5 10 10 10s10-4.5 10-10v-27C218.6 217.5 214.1 213 208.6 213z"/><path d="M267.8 213c-3.5-4.3-9.8-5-14.1-1.5 -4.3 3.5-5 9.8-1.5 14.1l16.9 21c2 2.5 4.9 3.7 7.8 3.7 2.2 0 4.4-0.7 6.3-2.2 4.3-3.5 5-9.8 1.5-14.1L267.8 213z"/><path d="M163.4 211.4c-4.3-3.5-10.6-2.8-14.1 1.5l-16.9 21c-3.5 4.3-2.8 10.6 1.5 14.1 1.8 1.5 4.1 2.2 6.3 2.2 2.9 0 5.8-1.3 7.8-3.7l16.9-21C168.4 221.2 167.7 214.9 163.4 211.4z"/><path d="M171.6 126.5c0 5.5 4.5 10 10 10s10-4.5 10-10c0-11.5 2-16.9 4.4-23.1 2.6-7 5.6-15 5.6-30.1s-3-23.1-5.6-30.1c-2.3-6.2-4.4-11.6-4.4-23.1 0-5.5-4.5-10-10-10s-10 4.5-10 10c0 15.1 3 23.1 5.6 30.1 2.3 6.2 4.4 11.6 4.4 23.1 0 11.5-2 16.9-4.4 23.1C174.6 103.4 171.6 111.3 171.6 126.5z"/><path d="M215.6 126.5c0 5.5 4.5 10 10 10s10-4.5 10-10c0-11.5 2-16.9 4.4-23.1 2.6-7 5.6-15 5.6-30.1s-3-23.1-5.6-30.1c-2.3-6.2-4.4-11.6-4.4-23.1 0-5.5-4.5-10-10-10s-10 4.5-10 10c0 15.1 3 23.1 5.6 30.1 2.3 6.2 4.4 11.6 4.4 23.1 0 11.5-2 16.9-4.4 23.1C218.6 103.4 215.6 111.3 215.6 126.5z"/></svg>