<?xml version="1.0" encoding="iso-8859-1"?>
<!-- Generator: Adobe Illustrator 19.1.0, SVG Export Plug-In . SVG Version: 6.00 Build 0)  -->
<svg version="1.1" id="Capa_1" xmlns="http://www.w3.org/2000/svg" xmlns:xlink="http://www.w3.org/1999/xlink" x="0px" y="0px"
	 viewBox="0 0 417.157 417.157" style="enable-background:new 0 0 417.157 417.157;" xml:space="preserve">
<g>
	<path style="fill:#89634A;" d="M325.568,335.919c-9.62-6.048-17.927-11.271-35.433-11.271c-17.509,0-25.828,5.225-35.46,11.274
		c-10.7,6.72-22.828,14.337-46.097,14.337s-35.397-7.617-46.097-14.337c-9.632-6.049-17.951-11.274-35.46-11.274
		c-17.506,0-25.813,5.223-35.433,11.271c-8.976,5.644-18.961,11.917-35.705,13.785l1.472,6.544l6.959,30.935h275.342l8.305-40.196
		C338.677,344.147,331.869,339.881,325.568,335.919z"/>
	<path style="fill:#D4B783;" d="M356.054,289.671c-4.169,0-7.901-2.587-9.364-6.491c-22.55-60.177-84.303-100.609-153.663-100.609
		c-32.189,0-62.737,8.713-88.491,24.062c-22.302,17.051-39.731,39.642-49.62,66.031c-1.463,3.904-5.195,6.491-9.364,6.491
		c-1.637,0-3.236,0.161-4.788,0.456c-0.047,0.115-0.159,0.13-0.322,0.07c-6.376,1.3-11.891,4.977-15.581,10.068
		c-0.08,0.299-0.202,0.49-0.383,0.53C21.656,294.388,20,299.357,20,304.707c0,14.089,11.444,25.552,25.511,25.552
		c17.506,0,25.814-5.223,35.433-11.271c10.69-6.722,22.808-14.34,46.078-14.34c23.269,0,35.397,7.617,46.097,14.337
		c9.632,6.049,17.951,11.274,35.46,11.274s25.828-5.225,35.46-11.274c10.7-6.72,22.828-14.337,46.097-14.337
		c23.271,0,35.388,7.618,46.078,14.34c9.62,6.048,17.927,11.271,35.433,11.271c1.883,0,3.716-0.212,5.484-0.601
		c2.82-4.11,4.475-9.082,4.475-14.435C381.606,301.134,370.143,289.671,356.054,289.671z M164.917,225.479l-16.895,21.021
		c-1.975,2.457-4.875,3.736-7.801,3.736c-2.199,0-4.411-0.721-6.258-2.206c-4.305-3.46-4.99-9.754-1.53-14.059l16.895-21.021
		c3.46-4.304,9.754-4.99,14.059-1.53C167.691,214.879,168.376,221.174,164.917,225.479z M218.579,249.947c0,5.523-4.477,10-10,10
		s-10-4.477-10-10v-26.969c0-5.523,4.477-10,10-10s10,4.477,10,10V249.947z M283.195,248.03c-1.847,1.484-4.06,2.206-6.258,2.206
		c-2.926,0-5.826-1.278-7.801-3.736l-16.895-21.021c-3.46-4.305-2.775-10.6,1.53-14.059c4.306-3.46,10.6-2.774,14.059,1.53
		l16.895,21.021C288.185,238.276,287.5,244.571,283.195,248.03z"/>
</g>
<g>
	<path d="M378.603,259.691c-27.187-64.644-94.661-107.637-170.024-107.637S65.742,195.047,38.555,259.691
		C16.747,263.068,0,281.969,0,304.707c0,21.582,15.079,39.694,35.242,44.368l11.316,50.303c1.027,4.563,5.079,7.805,9.756,7.805
		h304.528c4.677,0,8.729-3.242,9.756-7.805l11.316-50.303c20.163-4.674,35.242-22.786,35.242-44.368
		C417.157,281.969,400.41,263.068,378.603,259.691z M352.842,387.184h-13.186H64.315l-6.959-30.935l-1.472-6.544
		c16.744-1.868,26.729-8.141,35.705-13.785c9.62-6.048,17.927-11.271,35.433-11.271c17.509,0,25.828,5.225,35.46,11.274
		c10.7,6.72,22.828,14.337,46.097,14.337s35.397-7.617,46.097-14.337c9.632-6.049,17.951-11.274,35.46-11.274
		c17.506,0,25.814,5.223,35.433,11.271c6.301,3.961,13.109,8.227,22.393,11.068c3.942,1.206,8.322,2.16,13.312,2.717
		L352.842,387.184z M377.13,329.658c-1.768,0.389-3.601,0.601-5.484,0.601c-17.506,0-25.814-5.223-35.433-11.271
		c-10.691-6.722-22.808-14.34-46.078-14.34c-23.269,0-35.397,7.617-46.097,14.337c-9.632,6.049-17.951,11.274-35.46,11.274
		s-25.828-5.225-35.46-11.274c-10.7-6.72-22.828-14.337-46.097-14.337c-23.271,0-35.388,7.618-46.078,14.34
		c-9.62,6.048-17.927,11.271-35.433,11.271C31.444,330.259,20,318.796,20,304.707c0-5.35,1.656-10.319,4.478-14.428
		c0.124-0.18,0.255-0.354,0.383-0.53c3.691-5.09,9.206-8.768,15.581-10.068c0.108-0.022,0.213-0.049,0.322-0.07
		c1.552-0.296,3.151-0.456,4.788-0.456c4.169,0,7.901-2.587,9.364-6.491c9.889-26.39,27.318-48.981,49.62-66.031
		c28.555-21.831,65.099-34.578,104.042-34.578c69.36,0,131.112,40.432,153.663,100.609c1.463,3.904,5.195,6.491,9.364,6.491
		c14.089,0,25.552,11.463,25.552,25.552C397.157,316.911,388.57,327.138,377.13,329.658z"/>
	<path d="M208.579,212.977c-5.523,0-10,4.477-10,10v26.969c0,5.523,4.477,10,10,10s10-4.477,10-10v-26.969
		C218.579,217.455,214.102,212.977,208.579,212.977z"/>
	<path d="M267.83,212.95c-3.46-4.304-9.753-4.99-14.059-1.53c-4.305,3.46-4.99,9.754-1.53,14.059l16.895,21.021
		c1.975,2.458,4.875,3.736,7.801,3.736c2.198,0,4.411-0.722,6.258-2.206c4.305-3.46,4.99-9.754,1.53-14.059L267.83,212.95z"/>
	<path d="M163.387,211.42c-4.305-3.46-10.599-2.774-14.059,1.53l-16.895,21.021c-3.46,4.305-2.775,10.6,1.53,14.059
		c1.847,1.485,4.06,2.206,6.258,2.206c2.926,0,5.826-1.278,7.801-3.736l16.895-21.021
		C168.376,221.174,167.691,214.879,163.387,211.42z"/>
	<path d="M171.579,126.468c0,5.523,4.477,10,10,10s10-4.477,10-10c0-11.496,2.021-16.876,4.361-23.107
		c2.643-7.037,5.639-15.012,5.639-30.14s-2.996-23.103-5.639-30.14c-2.34-6.231-4.361-11.612-4.361-23.107c0-5.523-4.477-10-10-10
		s-10,4.477-10,10c0,15.128,2.996,23.103,5.639,30.14c2.34,6.231,4.361,11.612,4.361,23.107c0,11.496-2.021,16.877-4.361,23.108
		C174.574,103.365,171.579,111.34,171.579,126.468z"/>
	<path d="M215.579,126.468c0,5.523,4.477,10,10,10s10-4.477,10-10c0-11.496,2.021-16.876,4.361-23.107
		c2.643-7.037,5.639-15.012,5.639-30.14s-2.996-23.103-5.639-30.14c-2.34-6.231-4.361-11.612-4.361-23.107c0-5.523-4.477-10-10-10
		s-10,4.477-10,10c0,15.128,2.996,23.103,5.639,30.14c2.34,6.231,4.361,11.612,4.361,23.107c0,11.496-2.021,16.877-4.361,23.108
		C218.574,103.365,215.579,111.34,215.579,126.468z"/>
</g>
<g>
</g>
<g>
</g>
<g>
</g>
<g>
</g>
<g>
</g>
<g>
</g>
<g>
</g>
<g>
</g>
<g>
</g>
<g>
</g>
<g>
</g>
<g>
</g>
<g>
</g>
<g>
</g>
<g>
</g>
</svg>
