<svg xmlns="http://www.w3.org/2000/svg" viewBox="0 0 325.5 325.5"><style>.a{fill:#D9A460;}</style><path d="M149.5 2.2c7.3 4.1 19.3 4.1 26.6 0 7.3-4.1 18-2.4 23.7 3.7 5.7 6.2 17.1 9.9 25.3 8.2 8.2-1.6 17.8 3.3 21.3 10.9 3.5 7.6 13.2 14.7 21.5 15.6s15.9 8.6 16.9 16.9 8 18 15.6 21.5c7.6 3.5 12.5 13.1 10.9 21.3 -1.6 8.2 2.1 19.6 8.2 25.3 6.2 5.7 7.8 16.3 3.7 23.7 -4.1 7.3-4.1 19.3 0 26.6 4.1 7.3 2.4 18-3.7 23.7 -6.2 5.7-9.9 17.1-8.2 25.3 1.6 8.2-3.3 17.8-10.9 21.3 -7.6 3.5-14.7 13.2-15.6 21.5 -1 8.3-8.6 16-16.9 16.9 -8.3 1-18 8-21.5 15.6 -3.5 7.6-13.1 12.5-21.3 10.9 -8.2-1.6-19.6 2.1-25.3 8.2 -5.7 6.2-16.3 7.8-23.7 3.7 -7.3-4.1-19.3-4.1-26.6 0 -7.3 4.1-18 2.4-23.6-3.7 -5.7-6.2-17.1-9.9-25.3-8.2 -8.2 1.6-17.8-3.3-21.3-10.9 -3.5-7.6-13.2-14.7-21.5-15.6 -8.3-1-16-8.6-16.9-16.9 -1-8.3-8-18-15.6-21.5 -7.6-3.5-12.5-13.1-10.9-21.3 1.6-8.2-2.1-19.6-8.2-25.3 -6.2-5.7-7.8-16.3-3.7-23.6 4.1-7.3 4.1-19.3 0-26.6 -4.1-7.3-2.4-18 3.7-23.6 6.2-5.7 9.9-17.1 8.2-25.3 -1.6-8.2 3.3-17.8 10.9-21.3 7.6-3.5 14.7-13.2 15.6-21.5 1-8.3 8.6-15.9 16.9-16.9 8.3-1 18-8 21.5-15.6 3.5-7.6 13.1-12.5 21.3-10.9 8.2 1.6 19.6-2.1 25.3-8.2C131.5-0.2 142.1-1.9 149.5 2.2z" class="a"/><circle cx="162.8" cy="162.8" r="141.3" fill="#997443"/><circle cx="162.8" cy="162.8" r="132" fill="#BF4132"/><path d="M51.9 91.1l182.5 182.5c12.2-7.9 23-17.7 32-29.1L81 59.2C69.6 68.1 59.8 79 51.9 91.1zM30.8 162.8c0 10 1.1 19.7 3.2 29.1l99.7 99.7c9.4 2.1 19.1 3.2 29.1 3.2 10.8 0 21.4-1.3 31.4-3.8L34.6 131.3C32.1 141.4 30.8 151.9 30.8 162.8zM294.5 154L171.5 31.1c-2.9-0.2-5.8-0.3-8.7-0.3 -15.7 0-30.8 2.8-44.8 7.8L286.9 207.6c5.1-14 7.8-29.1 7.8-44.8C294.7 159.8 294.6 156.9 294.5 154z" class="a"/><path d="M118.1 157.3l44.3 44.3 30.5-30.5 -44.3-44.3L118.1 157.3zM133.6 111.8L89.3 67.5 58.8 98l44.3 44.3L133.6 111.8zM192.9 52.5l-21.4-21.4c-2.9-0.2-5.8-0.3-8.7-0.3 -15.6 0-30.5 2.7-44.4 7.7l-0.3 0.3 44.3 44.3L192.9 52.5zM221.7 142.3l30.5-30.5L207.9 67.5l-30.5 30.5L221.7 142.3zM177.4 216.6l44.3 44.3 30.5-30.5 -44.3-44.3L177.4 216.6zM294.5 154l-27.2-27.2 -30.5 30.5 44.3 44.3 10.8-10.8c2-9 3-18.4 3-28.1C294.7 159.8 294.6 156.9 294.5 154zM34.6 131.3c-2.5 10.1-3.8 20.6-3.8 31.4 0 10 1.1 19.7 3.2 29.1l9.8 9.8 30.5-30.5L34.6 131.3zM118.1 275.9l15.6 15.6c9.4 2.1 19.1 3.2 29.1 3.2 9.6 0 19-1 28.1-3l2.1-2.1 -44.3-44.3L118.1 275.9zM89.3 186.1l-30.5 30.5 44.3 44.3 30.5-30.5L89.3 186.1z" fill="#B3874F"/><path d="M162.8 30.8c-8.7 0-17.2 0.9-25.4 2.5L33.2 137.3c-1.6 8.2-2.5 16.7-2.5 25.4 0 11.7 1.5 23 4.4 33.7L196.5 35.1C185.7 32.3 174.4 30.8 162.8 30.8zM287.7 120.1L120.1 287.7c13.4 4.6 27.8 7.1 42.7 7.1 4 0 7.9-0.2 11.9-0.5l119.6-119.6c0.3-3.9 0.5-7.9 0.5-11.8C294.7 147.8 292.3 133.5 287.7 120.1zM236.1 53L53 236.1c8.1 12.1 18.1 22.7 29.6 31.5L267.6 82.6C258.8 71.1 248.2 61.1 236.1 53z" class="a"/></svg>
