<svg xmlns="http://www.w3.org/2000/svg" viewBox="0 0 512 512"><style>.a{fill:#806749;}</style><path d="M505.2 262.8c-9.1-9.1-23.8-9.1-32.9 0 -3.5 3.5-6.4 6.3-9.1 8.6 -9.5-63.5-47.6-117.8-100.8-149.3 -1-0.7-2.1-1.3-3.2-1.8C328.7 103 293.5 93.1 256 93.1s-72.7 9.9-103.2 27.3c-1.1 0.5-2.2 1.1-3.2 1.8C96.5 153.7 58.4 207.9 48.9 271.5c-2.8-2.3-5.7-5.2-9.1-8.6 -9.1-9.1-23.8-9.1-32.9 0 -9.1 9.1-9.1 23.8 0 32.9 10.3 10.3 23.7 23.8 46.1 28.4 5.1 1.1 10.7 1.7 16.8 1.7 0 0 0.1 0 0.1 0 0 0 0 0 0 0 0 0 0.1 0 0.1 0 2.8 0 5.6-0.1 8.2-0.4 22.4-2.1 36.9-12.8 47.7-22.9 0 0 0 0 0 0 2.5-2.3 4.8-4.6 7-6.8 11.4-11.4 17-16.4 30-16.5h0.2c13 0 18.6 5.1 30 16.5 2.2 2.2 4.5 4.5 7 6.8 0 0 0 0 0 0 12.1 11.3 28.7 23.3 56 23.3 0 0 0 0 0 0 0 0 0 0 0 0 27.3 0 43.9-11.9 56-23.3 0 0 0 0 0 0 2.5-2.3 4.8-4.6 7-6.8 11.4-11.4 17-16.5 30.1-16.5 0 0 0 0 0 0s0 0 0 0c13.1 0 18.7 5 30.1 16.5 2.2 2.2 4.5 4.5 7 6.8 0 0 0 0 0 0 10.8 10.1 25.3 20.7 47.7 22.9 2.6 0.3 5.3 0.4 8.2 0.4 0 0 0.1 0 0.1 0 0 0 0 0 0 0 0 0 0.1 0 0.1 0 6.1 0 11.7-0.6 16.8-1.7 22.4-4.7 35.8-18.1 46.1-28.4C514.3 286.6 514.3 271.9 505.2 262.8zM442.2 279.3c0 0 0 0 0 0 0 0 0 0-0.1 0h0.1c0 0 0 0 0 0C442.2 279.3 442.2 279.3 442.2 279.3z" fill="#FFB655"/><path d="M139.6 141.3v15.9 5.7c0 7.2 3.2 13.6 8.3 17.8 4 3.4 9.3 5.4 14.9 5.4 12.9 0 23.3-10.4 23.3-23.3v-7.5 -14.1c0-3.7-0.9-7.2-2.5-10.4 -3.8-7.6-11.7-12.9-20.8-12.9 -3.6 0-7.1 0.9-10.1 2.3 -1.1 0.5-2.2 1.1-3.2 1.8C143.6 126.4 139.6 133.4 139.6 141.3z" class="a"/><path d="M328.3 130.9c-1.6 3.1-2.5 6.6-2.5 10.4v14.1 7.5c0 12.9 10.4 23.3 23.3 23.3 5.7 0 10.9-2.1 14.9-5.4 5.1-4.3 8.3-10.7 8.3-17.8v-5.7 -15.9c0-7.9-3.9-14.9-10-19.1 -1-0.7-2.1-1.3-3.2-1.8 -3.1-1.5-6.5-2.3-10.1-2.3C340 118 332.1 123.3 328.3 130.9z" class="a"/><path d="M256 93.1c-12.9 0-23.3 10.4-23.3 23.3v1.4 23.5 21.6c0 12.9 10.4 23.3 23.3 23.3 12.9 0 23.3-10.4 23.3-23.3v-21.6 -23.5 -1.4C279.3 103.5 268.9 93.1 256 93.1z" class="a"/><path d="M442.2 279.3c0 0 0 0 0 0 0 0 0 0 0 0h-0.1c0 0 0 0 0.1 0C442.2 279.3 442.2 279.3 442.2 279.3z" fill="#A9A8AE"/><path d="M52.9 324.1c5.1 1.1 10.7 1.7 16.8 1.7 0 0 0.1 0 0.1 0 0 0 0 0 0 0 0 0 0.1 0 0.1 0 2.8 0 5.6-0.1 8.2-0.4 22.4-2.1 36.9-12.8 47.7-22.9 0 0 0 0 0 0 2.5-2.3 4.8-4.6 7-6.8 11.4-11.4 17-16.4 30-16.5h0.2c13 0 18.6 5.1 30 16.5 2.2 2.2 4.5 4.5 7 6.8 0 0 0 0 0 0 12.1 11.3 28.7 23.3 56 23.3 0 0 0 0 0 0V186.2c-12.9 0-23.3-10.4-23.3-23.3v-21.6 -23.5 -1.4c0-12.9 10.4-23.3 23.3-23.3 -37.5 0-72.7 9.9-103.2 27.3 3.1-1.5 6.5-2.3 10.1-2.3 9.1 0 17 5.3 20.8 12.9 1.6 3.1 2.5 6.6 2.5 10.4v14.1 7.5c0 12.9-10.4 23.3-23.3 23.3 -5.7 0-10.9-2.1-14.9-5.4 -5.1-4.3-8.3-10.7-8.3-17.8v-5.7 -15.9c0-7.9 3.9-14.9 10-19.1C96.5 153.7 58.4 207.9 48.9 271.5c-2.8-2.3-5.7-5.2-9.1-8.6 -9.1-9.1-23.8-9.1-32.9 0 -9.1 9.1-9.1 23.8 0 32.9C17.1 306 30.6 319.5 52.9 324.1z" fill="#EE8700"/><path d="M442.3 325.8c0 0-0.1 0-0.1 0 0 0 0 0 0 0 0 0-0.1 0-0.1 0 -2.8 0-5.6-0.1-8.2-0.4 -22.4-2.1-36.9-12.8-47.7-22.9 0 0 0 0 0 0 -2.5-2.3-4.8-4.6-7-6.8 -11.4-11.4-17-16.5-30.1-16.5 0 0 0 0 0 0s0 0 0 0c-13.1 0-18.7 5-30.1 16.5 -2.2 2.2-4.5 4.5-7 6.8 0 0 0 0 0 0 -12.1 11.3-28.7 23.3-56 23.3 0 0 0 0 0 0s0 0 0 0c-1 0-1.9 0-2.8-0.1 -25.6-0.8-41.5-12.3-53.2-23.2 0 0 0 0 0 0 -2.5-2.3-4.8-4.6-7-6.8 -11.4-11.4-17-16.4-30-16.5h-0.2c-13 0-18.6 5.1-30 16.5 -2.2 2.2-4.5 4.5-7 6.8 0 0 0 0 0 0 -10.8 10.1-25.3 20.7-47.7 22.9 -2.6 0.3-5.3 0.4-8.2 0.4 0 0-0.1 0-0.1 0 0 0 0 0 0 0 0 0-0.1 0-0.1 0 -6.1 0-11.7-0.6-16.8-1.7l28.9 79.5c3.3 9.2 12.1 15.3 21.9 15.3h149.5 155.2c9.8 0 18.5-6.1 21.9-15.3l28.9-79.4C454 325.2 448.4 325.8 442.3 325.8z" fill="#DEDEE0"/><path d="M200 302.5c0 0 0 0 0 0 -2.5-2.3-4.8-4.6-7-6.8 -11.4-11.4-17-16.4-30-16.5h-0.2c-13 0-18.6 5.1-30 16.5 -2.2 2.2-4.5 4.5-7 6.8 0 0 0 0 0 0 -10.8 10.1-25.3 20.7-47.7 22.9 -2.6 0.3-5.3 0.4-8.2 0.4 0 0-0.1 0-0.1 0 0 0 0 0 0 0 0 0-0.1 0-0.1 0 -6.1 0-11.7-0.6-16.8-1.7l28.9 79.5c3.3 9.2 12.1 15.3 21.9 15.3h149.5v-93.2C227.6 324.9 211.7 313.5 200 302.5z" fill="#D6D5D8"/></svg>