<svg xmlns="http://www.w3.org/2000/svg" viewBox="0 0 60 60"><path d="M10.5 6.5C8 6.5 6 8.5 6 11s2 4.5 4.5 4.5S15 13.5 15 11 13 6.5 10.5 6.5zM10.5 13.5C9.1 13.5 8 12.4 8 11s1.1-2.5 2.5-2.5S13 9.6 13 11 11.9 13.5 10.5 13.5z"/><circle cx="50" cy="9.5" r="1"/><circle cx="46" cy="9.5" r="1"/><circle cx="52" cy="12.5" r="1"/><circle cx="48" cy="12.5" r="1"/><circle cx="42" cy="9.5" r="1"/><circle cx="44" cy="12.5" r="1"/><circle cx="38" cy="9.5" r="1"/><circle cx="40" cy="12.5" r="1"/><circle cx="34" cy="9.5" r="1"/><circle cx="36" cy="12.5" r="1"/><path d="M60 16.9V5.1C60 2.6 57.9 0.5 55.4 0.5H4.6C2.1 0.5 0 2.6 0 5.1v11.8c0 1.5 0.7 2.8 1.8 3.6C0.7 21.3 0 22.6 0 24.1v11.8c0 1.5 0.7 2.8 1.8 3.6C0.7 40.3 0 41.6 0 43.1v11.8C0 57.4 2.1 59.5 4.6 59.5h50.8c2.5 0 4.6-2.1 4.6-4.6V43.1c0-1.5-0.7-2.8-1.8-3.6C59.3 38.7 60 37.4 60 35.9V24.1c0-1.5-0.7-2.8-1.8-3.6C59.3 19.7 60 18.4 60 16.9zM58 43.1v11.8c0 1.4-1.2 2.6-2.6 2.6H4.6C3.2 57.5 2 56.3 2 54.9V43.1C2 41.7 3.2 40.5 4.6 40.5h50.8C56.8 40.5 58 41.7 58 43.1zM58 24.1v11.8c0 1.4-1.2 2.6-2.6 2.6H4.6C3.2 38.5 2 37.3 2 35.9V24.1C2 22.7 3.2 21.5 4.6 21.5h50.8C56.8 21.5 58 22.7 58 24.1zM4.6 19.5C3.2 19.5 2 18.3 2 16.9V5.1C2 3.7 3.2 2.5 4.6 2.5h50.8C56.8 2.5 58 3.7 58 5.1v11.8c0 1.4-1.2 2.6-2.6 2.6H4.6z"/><path d="M10.5 34.5c2.5 0 4.5-2 4.5-4.5s-2-4.5-4.5-4.5S6 27.5 6 30 8 34.5 10.5 34.5zM10.5 27.5c1.4 0 2.5 1.1 2.5 2.5s-1.1 2.5-2.5 2.5S8 31.4 8 30 9.1 27.5 10.5 27.5z"/><circle cx="50" cy="28.5" r="1"/><circle cx="46" cy="28.5" r="1"/><circle cx="52" cy="31.5" r="1"/><circle cx="48" cy="31.5" r="1"/><circle cx="42" cy="28.5" r="1"/><circle cx="44" cy="31.5" r="1"/><circle cx="38" cy="28.5" r="1"/><circle cx="40" cy="31.5" r="1"/><circle cx="34" cy="28.5" r="1"/><circle cx="36" cy="31.5" r="1"/><path d="M10.5 53.5c2.5 0 4.5-2 4.5-4.5s-2-4.5-4.5-4.5S6 46.5 6 49 8 53.5 10.5 53.5zM10.5 46.5c1.4 0 2.5 1.1 2.5 2.5s-1.1 2.5-2.5 2.5S8 50.4 8 49 9.1 46.5 10.5 46.5z"/><circle cx="50" cy="47.5" r="1"/><circle cx="46" cy="47.5" r="1"/><circle cx="52" cy="50.5" r="1"/><circle cx="48" cy="50.5" r="1"/><circle cx="42" cy="47.5" r="1"/><circle cx="44" cy="50.5" r="1"/><circle cx="38" cy="47.5" r="1"/><circle cx="40" cy="50.5" r="1"/><circle cx="34" cy="47.5" r="1"/><circle cx="36" cy="50.5" r="1"/></svg>
