<svg xmlns="http://www.w3.org/2000/svg" viewBox="0 0 362.6 362.6"><path d="M288.8 121.5c33.5 0 60.7-27.3 60.7-60.7S322.2 0 288.8 0s-60.7 27.3-60.7 60.7c0 6.3 1 12.4 2.8 18.1l-126.1 76.9c-9.7-8.3-22.3-13.4-36.1-13.4 -30.6 0-55.5 24.9-55.5 55.5s24.9 55.5 55.5 55.5c10.9 0 21-3.2 29.6-8.6l101.7 58.2c-0.6 3.1-0.9 6.2-0.9 9.4 0 27.7 22.5 50.2 50.2 50.2s50.2-22.5 50.2-50.2 -22.5-50.2-50.2-50.2c-13.6 0-26 5.5-35.1 14.3l-95.5-54.7c3.5-7.3 5.5-15.4 5.5-24 0-6-1-11.8-2.7-17.2l125.2-76.4C257.5 115 272.4 121.5 288.8 121.5z"/></svg>
