<svg xmlns="http://www.w3.org/2000/svg" viewBox="0 0 512 512"><path d="M360.6 74.6c-1.5-1.7-3.1-3.3-4.7-4.9 -3.5-3.4-9-3.4-12.4 0.1 -3.4 3.5-3.4 9 0.1 12.4 1.4 1.4 2.8 2.8 4.1 4.3 1.7 1.9 4.1 2.8 6.5 2.8 2.1 0 4.3-0.8 6-2.3C363.6 83.8 363.9 78.2 360.6 74.6z"/><path d="M510.2 334.8l-56.2-73.5c-2.1-2.7-5.5-3.9-8.8-3.3l-78.8 16.4 119.1-62c3.1-1.6 4.9-4.9 4.7-8.4L477.9 18.2c-0.3-4.8-4.5-8.5-9.3-8.2 -4.8 0.3-8.5 4.5-8.2 9.3l11.9 180.2 -96.6 50.3c14.5-22.4 23-49.2 23-77.9 0-14.4-2.1-28.6-6.3-42.2 -1.4-4.6-6.3-7.2-11-5.8 -4.6 1.4-7.2 6.3-5.8 11 3.7 12 5.5 24.4 5.5 37.1 0 49.4-28.6 92.3-70.1 112.9 -0.8 0.1-1.6 0.4-2.3 0.7 -17.2 8.2-35.4 12.4-54.1 12.4 -0.8 0-1.6 0-2.4 0 -0.2 0-0.3 0-0.5 0 -28.2-0.7-54.1-10.8-74.8-27.1 -0.1-0.1-0.2-0.2-0.3-0.2 -29-23.1-47.7-58.8-47.7-98.7 0-69.5 56.6-126.1 126.1-126.1 22.3 0 44.2 5.9 63.4 17.1 4.2 2.4 9.6 1 12-3.2 2.4-4.2 1-9.6-3.2-12 -21.8-12.7-46.8-19.4-72.2-19.4 -79.2 0-143.7 64.4-143.7 143.7 0 27.8 8 53.8 21.7 75.8l-91.6-47.7L53.3 19.9c0.3-4.8-3.3-9-8.2-9.3 -4.8-0.3-9 3.3-9.3 8.2L23.5 204.7c-0.2 3.5 1.6 6.8 4.7 8.4l118.4 61.7 -79.9-16.7c-3.3-0.7-6.7 0.6-8.8 3.3L1.8 334.8c-2.9 3.9-2.2 9.4 1.6 12.3 1.6 1.2 3.5 1.8 5.3 1.8 2.6 0 5.3-1.2 7-3.4l52.9-69.1 115.1 24c0 0.1-0.1 0.1-0.1 0.2l-114.8 42c-2 0.7-3.7 2.2-4.7 4l-40.6 74.2c-2.3 4.3-0.8 9.6 3.5 11.9 1.3 0.7 2.8 1.1 4.2 1.1 3.1 0 6.1-1.7 7.7-4.6l39-71.3 99.5-36.4c-0.5 3.6-0.8 7.2-0.8 10.9 0 4 0.3 7.9 0.8 11.7l-31.3 88.8c-0.9 2.6-0.6 5.4 0.9 7.7l36.7 57.4c1.7 2.6 4.5 4.1 7.4 4.1 1.6 0 3.3-0.4 4.7-1.4 4.1-2.6 5.3-8 2.7-12.1l-34.4-53.8 22.5-63.8c5.5 9.8 13.1 18.4 22.2 25 -1.9 5.2-3 10.7-3 16.2 0 15.4 7.6 29.8 20.4 38.4 1.5 1 3.2 1.5 4.9 1.5 2.8 0 5.6-1.4 7.3-3.9 2.7-4 1.7-9.5-2.4-12.2 -8-5.4-12.7-14.3-12.7-23.9 0-2.5 0.3-5 1-7.4 9.3 3.9 19.5 6.1 30.2 6.2 0.1 0 0.2 0 0.3 0 10.4 0 20.5-2 29.8-5.9 0.6 2.3 0.9 4.7 0.9 7.1 0 9.6-4.7 18.5-12.7 23.9 -4 2.7-5.1 8.2-2.4 12.2 1.7 2.5 4.5 3.9 7.3 3.9 1.7 0 3.4-0.5 4.9-1.5 12.8-8.6 20.4-23 20.4-38.4 0-5.4-1-10.7-2.8-15.8 3.4-2.4 6.6-5.2 9.7-8.2 5.8-5.8 10.6-12.3 14.3-19.4l23.2 65.8 -34.4 53.8c-2.6 4.1-1.4 9.5 2.7 12.1 1.5 0.9 3.1 1.4 4.7 1.4 2.9 0 5.7-1.4 7.4-4.1l36.7-57.4c1.5-2.3 1.8-5.1 0.9-7.7l-32.1-91.1c-0.2-0.5-0.4-1-0.7-1.4 0.2-2.5 0.4-4.9 0.4-7.4 0-4.1-0.3-8.1-0.9-12.1l101.6 37.2 39 71.3c1.6 2.9 4.6 4.6 7.7 4.6 1.4 0 2.9-0.3 4.2-1.1 4.3-2.3 5.8-7.7 3.5-11.9l-40.6-74.2c-1-1.9-2.7-3.3-4.7-4l-115.1-42.1 115.4-24.1 52.9 69.1c1.7 2.3 4.3 3.4 7 3.4 1.9 0 3.7-0.6 5.3-1.8C512.4 344.2 513.1 338.7 510.2 334.8zM297.8 375.8c-3.5 3.5-7.3 6.5-11.4 8.9 -0.6 0.2-1.1 0.4-1.6 0.7 -0.4 0.2-0.8 0.5-1.2 0.8 -8.7 4.7-18.4 7.1-28.6 7.1 -0.1 0-0.1 0-0.2 0 -29.4-0.1-53.9-21.2-59.4-49 0-0.8-0.2-1.5-0.4-2.3 -0.5-3.1-0.7-6.4-0.7-9.6 0-9.5 2.3-18.8 6.6-27.3 17 6.9 34.8 10.4 53 10.4 0.1 0 0.3 0 0.4 0 0.2 0 0.4 0 0.6 0 19.1 0 37.4-3.8 54.1-10.6 4.4 8.6 6.7 18.1 6.7 27.8C315.7 349.1 309.3 364.4 297.8 375.8z"/></svg>
