<svg xmlns="http://www.w3.org/2000/svg" viewBox="0 0 272.8 272.8"><path d="M272.5 35.7c0-0.6-0.4-1.3-1.1-1.3 -44.9-2.7-90.1-1.6-135 0.3 -37.8 1.6-75.1 0.1-112.7-1.6 -0.3-0.2-0.6-0.2-0.9 0 -7.2-0.3-14.3-0.7-21.5-1 -1.6-0.1-1.6 2.4 0 2.5 7.4 0.7 14.9 1.2 22.3 1.7 13.7 17 17 41.9 9.3 62.3 -2.1 1.6-4.2 3.3-6.2 4.9 -1 0.8 0.3 2.6 1.4 1.8 1.9-1.4 3.9-2.7 5.8-4 0.4 0 0.7-0.2 0.9-0.5 39.7 7.7 74.2 28.9 98.4 61.6 0.1 0.2 0.3 0.3 0.5 0.4 -0.1 8.9-0.4 17.8-1.2 26.7 -2.3 0.5-4.3 1.4-6.1 2.6 -0.6 0.2-1.2 0.5-1.7 0.8 -3.2-3.6-3.5-8.3-1.3-12.8 0.5-1.1-0.9-2.4-1.7-1.4 -3.9 4.9-3.1 11.4 1 15.6 -1.4 1.3-2.5 2.8-3.4 4.6 -3.4-0.8-6.7-2.1-9-4.8 -3-3.5-3.5-8.3-3.3-12.8 0.1-1.3-1.9-1.5-2.2-0.3 -1.2 4.9-0.4 10.2 2.7 14.3 2.6 3.5 6.6 5.3 10.8 6.1 -0.4 1.5-0.6 3-0.6 4.6 -2.3-0.3-4.7 0-6.7 0.3 -4.4 0.7-9 2.7-10.7 7 -0.5 1.2 1.2 1.9 2 1.2 2.7-2.4 4.8-4.3 8.4-5.1 2-0.5 4.8-0.9 7.3-0.7 0.2 1.4 0.5 2.7 1.1 4 0.3 0.8 0.8 1.4 1.2 2.1 -6.8 2-11.8 9.9-9.3 17 0.4 1.2 2.4 1.1 2.3-0.3 -0.2-3.8 0.2-7.7 2.8-10.6 1.7-2 3.8-3 6.1-3.6 1.7 1.8 3.7 3.3 5.9 4.3 -0.4 1.6-0.3 3.3 0.2 4.7 0.6 1.6 1.8 2.9 3.2 3.7 -1 1.2-1.5 2.8-1 4.5 0.3 0.9 1.5 0.7 1.6-0.2 0.1-1.2 0.7-2.6 1.7-3.4 0.5 0.1 1 0.2 1.6 0.3 0.7 0 1.4-0.1 2.1-0.2 0.9 0.9 0.5 2.2 0.7 3.5 0.1 0.7 1 1 1.5 0.6 1.9-1.2 1.4-3.4 0.1-5 1.3-0.8 2.4-1.8 3.1-3.2 0.8-1.5 1.2-3.6 1-5.4 1.9-1 3.6-2.3 5.1-4 4.2 0.8 7.8 3.2 9.9 7.3 2.6 4.8 2.2 9.8 2 15 -0.1 1.4 2 1.7 2.4 0.3 2.8-9.8-2.7-23-12.9-24.6 1.4-2.2 2-4.9 2.1-7.5 2.1-0.1 4.3-0.1 6.3 0.5 4.7 1.4 6.1 4.8 7.5 9.1 0.3 1 1.9 0.9 1.9-0.3 0.1-9.4-8.3-11.6-15.8-11.2 -0.1-2-0.6-4-1.3-5.8 9.9-1.9 17.8-10.3 18.7-20.9 0.1-1.4-2.2-1.7-2.5-0.3 -1.8 9.9-8 16.9-17.2 19.1 -1-2-2.3-3.7-3.9-5.2 4.4-2.2 7.4-8.2 6.5-12.8 -0.2-1.2-1.9-0.8-2 0.3 -0.3 2.5-0.7 5-2.1 7.2 -1.1 1.8-2.5 2.8-4.1 3.9 -1.5-1-3.1-1.7-4.9-2.1 -1.4-0.3-2.9-0.4-4.3-0.3 0.8-9.1 1.3-18.4 1.5-27.7 25.7-25.8 54.4-39.3 91.6-34.5 0.4 0.1 0.8-0.1 1-0.4 0.3 0.2 0.5 0.4 0.8 0.6 0.4 0.4 1 0.2 1.2-0.2 0.4-0.1 0.7-0.3 0.7-0.8 0.9-18.4 1.6-33.2 9.6-50.3 7-15 15.6-29.2 30.1-38C272.9 37.2 272.9 36.3 272.5 35.7zM224.1 36.7c-17.7 12.9-27.6 36-26 57.8 -6.8-6.3-13.6-12.5-20.5-18.7 1.3-16.3 5.4-30.5 20.3-39.3C206.6 36.5 215.3 36.6 224.1 36.7zM192.6 36.5c-12.2 7.7-17.5 23.1-17.3 37.3 -6.6-5.9-13.3-11.7-20.1-17.5 0.3-4.1-0.1-8.4 2-12.1 2-3.5 5.3-5.7 8.7-7.5C174.9 36.6 183.8 36.5 192.6 36.5zM136.4 37.6c7.8-0.3 15.6-0.6 23.4-0.7 -2.1 1.6-3.9 3.5-5.2 5.9 -1.9 3.5-2 7.7-1.7 11.7 -6.7-5.7-13.4-11.3-20.1-16.7C134 37.6 135.2 37.6 136.4 37.6zM130.8 37.8c6.2 6.5 12.6 12.9 19.1 19.2 -6.4-0.9-13.1 2.2-17 7.4 -0.7-9-1.5-17.8-2.3-26.6C130.7 37.8 130.8 37.8 130.8 37.8zM133 123.8c-12.2-24.1-33.3-41.9-59.3-49.2 6.1-4 12.3-8 18.4-11.9 18.7 1.4 32.4 11.7 39.2 29.3C131.9 102.6 132.5 113.2 133 123.8zM130.9 84.2c-6.6-13.7-20.5-22.9-35.7-23.5 5.6-3.6 11.2-7.3 16.8-11 5.8 0.7 11.2 4.3 13.8 9.6 1.7 3.4 2.8 7 4.3 10.5C130.4 74.6 130.6 79.4 130.9 84.2zM129.8 61.8c-1.4-3.5-3.1-6.9-5.6-9.3 -2.5-2.3-5.8-3.9-9.3-4.8 4.8-3.2 9.5-6.4 14.3-9.6C129.2 46 129.5 53.9 129.8 61.8zM125.6 37.9c-5.2 2.5-10.4 5.2-15.6 8 0.5-2.7-0.1-5.4-1.8-7.6C114 38.3 119.8 38.1 125.6 37.9zM106.4 38.4c1.9 2.7 2.5 5.9 0.9 9.1 -5 2.7-9.9 5.7-14.7 8.6 1.3-6.1-0.2-13.2-4.3-17.7C94.3 38.4 100.4 38.5 106.4 38.4zM84.7 38.4c2.2 2.7 4.1 5.1 5.1 8.7 1 4 0.5 7.4-0.6 11.1 -6.2 3.9-12.3 7.9-18.3 12 1.1-11.8-4.1-23.9-12.2-32.3C67.4 38.2 76.1 38.4 84.7 38.4zM26.7 36.4c9.8 0.6 19.6 1.1 29.4 1.4 9.5 9.8 12.4 21.3 12.1 34.4 -10.8 7.5-21.3 15.3-31.4 23.2C43.2 75.9 39.3 52.4 26.7 36.4zM37 99.1c11.3-7.9 22.8-15.5 34.3-23 27.6 8.3 50.1 27.7 62 54.4 0.3 9.4 0.5 18.8 0.5 28.3C109.7 127 76 106 37 99.1zM133.3 67.9c4.9-6.7 11.1-8.7 19.6-7.5 0.2 0 0.4 0 0.6-0.1 5.8 5.5 11.7 11 17.7 16.4 -13.1-1.4-27.2 3.3-36.2 13.1C134.4 82.5 133.9 75.2 133.3 67.9zM135.1 92.5c11.7-9.9 24-14.1 39.4-12.4 0.1 0 0.2 0 0.3 0 6.3 5.6 12.6 11.1 19 16.6 -22.4 2.9-44 11.5-56.9 30.8C136.5 115.8 135.9 104.1 135.1 92.5zM137.1 159.6c0.2-9.7 0.1-19.4-0.1-29.2 0 0 0 0 0.1 0 14.2-19.9 35.9-28.2 59.5-30.9 0.1 0 0.2-0.1 0.4-0.1 9.6 8.2 19.3 16.2 29 24.1C192.4 119.1 156.9 131 137.1 159.6zM230.4 124.7c-0.2-0.1-0.3-0.3-0.5-0.4 -0.1-0.2-0.3-0.3-0.4-0.4 -9.6-9.2-19.3-18.3-29.2-27.4 -0.7-24.6 9.3-44.3 28-59.8 13.2 0.1 26.5 0.1 39.8 0.1C240.5 54.7 227.6 93.2 230.4 124.7z"/></svg>
