<svg xmlns="http://www.w3.org/2000/svg" height="64" viewBox="0 0 64 64" width="64"><path d="M60 31h-1.7L46.1 7.1l1.6-3.1c0.3-0.5 0.1-1.1-0.4-1.3 -0.5-0.3-1.1-0.1-1.3 0.4l-1.5 3H19.4l-1.3-2.5c-0.3-0.5-0.9-0.7-1.4-0.4 -0.5 0.3-0.7 0.9-0.4 1.4L18 7.5 6 31H4c-0.6 0-1 0.4-1 1s0.4 1 1 1h2l12.4 24.3L17.1 60c-0.2 0.5 0 1.1 0.5 1.3 0.1 0.1 0.3 0.1 0.4 0.1 0.4 0 0.7-0.2 0.9-0.6l1.4-2.8h24.6l1.1 2.1c0.2 0.3 0.5 0.5 0.9 0.5 0.2 0 0.3 0 0.5-0.1 0.5-0.3 0.7-0.9 0.4-1.3l-1.4-2.7 12-23.5H60c0.6 0 1-0.4 1-1S60.6 31 60 31zM56.1 31h-5.2l-8.7-16.3L45 9.3 56.1 31zM32.2 29.9L29 24h6.1L32.2 29.9zM30.5 31H23l4-6.6L30.5 31zM30 33l-3.1 6.5L22.9 33H30zM32.1 33.3l3.5 6.7h-6.7L32.1 33.3zM34.2 33h7.2l-3.9 6.4L34.2 33zM33.8 31l3.4-6.7 4.1 6.7H33.8zM36.2 22H28l-3.2-6h14.5L36.2 22zM25.9 22.4c0 0-0.1 0.1-0.1 0.1L20.6 31h-5l7.4-13.9L25.9 22.4zM20.6 33l5.2 8.5c0 0 0 0.1 0.1 0.1l-2.7 5.6L15.6 33H20.6zM27.9 42h8.6l3.1 6H25L27.9 42zM38.5 41.5l5.2-8.5h5l-7.4 13.8L38.5 41.5zM43.7 31l-5.2-8.5c-0.1-0.1-0.1-0.2-0.2-0.2l2.8-5.4L48.7 31H43.7zM43.4 8l-3.1 6H23.7l-3.2-6H43.4zM19.1 9.7l2.8 5.3 -8.6 16H8.2L19.1 9.7zM8.2 33h5.1l8.8 16.4L19.5 55 8.2 33zM21.2 56l2.9-6h16.6l3.1 6H21.2zM45.2 54.3L42.4 49l8.5-16h5.2L45.2 54.3z"/></svg>
