<svg height="512pt" viewBox="0 -18 512 512" width="512pt" xmlns="http://www.w3.org/2000/svg"><path d="m289.367188 64.53125 8.917968.527344c13.222656 1.917968 26.273438 4.898437 39.015625 8.917968 32.601563 9.761719 62.9375 25.90625 89.25 47.492188 53.421875 42.363281 84.832031 106.605469 85.449219 174.785156 0 129.589844-114.582031 180.4375-256 180.4375s-256-50.847656-256-180.4375c.617188-68.179687 32.027344-132.421875 85.449219-174.785156 26.3125-21.585938 56.648437-37.730469 89.25-47.492188 22.851562-7.0625 46.539062-11.070312 70.441406-11.917968" fill="#e57e25"/><path d="m282.484375 64.53125 7.058594.527344c10.570312 1.949218 20.917969 4.933594 30.898437 8.917968 26.816406 10.40625 50.992188 26.625 70.789063 47.492188 44.339843 47.308594 68.640625 109.949219 67.804687 174.785156 0 129.589844-90.871094 180.4375-203.035156 180.4375s-203.035156-50.847656-203.035156-180.4375c-.84375-64.832031 23.441406-127.472656 67.769531-174.785156 19.808594-20.871094 43.996094-37.09375 70.824219-47.492188 17.84375-7.003906 36.714844-11.03125 55.859375-11.917968" fill="#f29c1f"/><path d="m274.792969 64.53125 3.851562.527344c6.027344 2.09375 11.699219 5.101562 16.816407 8.917968 16.375 12.585938 29.554687 28.855469 38.46875 47.492188 22.597656 42.902344 36.828124 105.3125 36.828124 174.785156 0 129.589844-49.390624 180.4375-110.34375 180.4375-60.953124 0-110.34375-50.847656-110.34375-180.4375 0-69.472656 14.230469-131.882812 36.828126-174.785156 8.914062-18.636719 22.09375-34.90625 38.46875-47.492188 8.847656-6.671874 19.347656-10.792968 30.367187-11.917968" fill="#e57e25"/><path d="m281.863281 98.957031c14.054688 1.238281 27.539063 6.136719 39.109375 14.210938 3.308594 2.484375 5.375 6.289062 5.648438 10.417969 0 14.652343-31.601563 26.484374-70.621094 26.484374s-70.621094-11.832031-70.621094-26.484374c.273438-4.128907 2.339844-7.933594 5.648438-10.417969 12.234375-8.488281 26.546875-13.492188 41.402344-14.476563" fill="#59474e"/><path d="m239.890625 114.757812c-2.652344 0-5.160156-1.191406-6.835937-3.246093-1.671876-2.054688-2.335938-4.75-1.808594-7.347657 4.804687-23.9375 21.726562-81.6875 75.46875-103.28125 1.476562-.582031 3.046875-.882812 4.632812-.882812 4.820313-.015625 9.171875 2.878906 11.015625 7.332031s.8125 9.578125-2.609375 12.972657c-18.054687 18.121093-39.25 47.667968-37.960937 85.53125.054687 2.367187-.855469 4.652343-2.519531 6.339843-1.664063 1.683594-3.9375 2.621094-6.308594 2.601563zm0 0" fill="#4c8056"/><g fill="#2c3e50"><path d="m107.828125 259.804688c4.535156 4.496093 11.171875 6.136718 17.277344 4.265624l83.394531-25.503906c5.582031-1.671875 9.929688-6.070312 11.539062-11.671875 1.605469-5.601562.25-11.636719-3.59375-16.011719l-32.832031-37.296874c-3.375-3.832032-8.269531-5.976563-13.375-5.867188-5.105469.113281-9.898437 2.46875-13.105469 6.441406l-50.546874 62.796875c-5.503907 6.808594-4.96875 16.679688 1.242187 22.847657zm0 0"/><path d="m404.171875 259.804688c-4.535156 4.496093-11.171875 6.136718-17.277344 4.265624l-83.394531-25.503906c-5.582031-1.671875-9.929688-6.070312-11.539062-11.671875-1.605469-5.601562-.25-11.636719 3.59375-16.011719l32.839843-37.296874c3.375-3.832032 8.269531-5.976563 13.375-5.867188 5.105469.113281 9.902344 2.46875 13.109375 6.441406l50.546875 62.796875c5.5 6.8125 4.957031 16.679688-1.253906 22.847657zm0 0"/><path d="m431.84375 354.957031c-11.710938 17.097657-26.867188 31.558594-44.488281 42.460938-10.855469 6.84375-22.320313 12.664062-34.253907 17.390625v-8.738282c-.027343-9.738281-7.914062-17.628906-17.652343-17.65625h-8.828125c-9.738282.027344-17.625 7.917969-17.65625 17.65625v21.449219c-17.449219 3.382813-35.1875 5.066407-52.964844 5.03125-23.988281.074219-47.878906-3.011719-71.0625-9.179687-21.292969-5.550782-41.621094-14.304688-60.292969-25.953125-17.621093-10.902344-32.777343-25.363281-44.488281-42.460938-10.777344-16.257812-6.328125-38.175781 9.929688-48.949219 16.257812-10.773437 38.175781-6.328124 48.949218 9.929688 6.273438 8.835938 14.292969 16.289062 23.570313 21.894531 1.675781 1.058594 3.351562 2.03125 5.117187 3v29.925781c.03125 9.738282 7.917969 17.628907 17.65625 17.65625h8.828125c9.738281-.027343 17.625-7.917968 17.65625-17.65625v-13.503906c32.003907 6.796875 65.144531 6.101563 96.835938-2.03125 14.347656-3.769531 28.058593-9.628906 40.695312-17.390625 9.277344-5.605469 17.296875-13.058593 23.570313-21.894531 10.773437-16.257812 32.691406-20.703125 48.949218-9.929688 16.257813 10.773438 20.707032 32.691407 9.929688 48.949219zm0 0"/></g></svg>