<svg height="512pt" viewBox="0 0 512 512.00029" width="512pt" xmlns="http://www.w3.org/2000/svg"><path d="m224.042969 111.933594-13.945313-52.257813c-4.730468-17.816406 1.277344-36.757812 15.410156-48.59375 14.132813-11.835937 33.835938-14.421875 50.542969-6.640625 16.710938 7.78125 27.40625 24.53125 27.441407 42.964844-.011719 4.140625-.546876 8.261719-1.589844 12.269531l-13.945313 52.257813" fill="#4c8056"/><path d="m343.214844 156.390625c15.109375-12.84375 34.203125-20.046875 54.027344-20.382813 63.382812 0 114.757812 77.453126 114.757812 172.957032 0 95.507812-51.375 172.960937-114.757812 172.960937-19.824219-.339843-38.917969-7.542969-54.027344-20.382812h-174.429688c-15.109375 12.839843-34.203125 20.042969-54.027344 20.382812-63.382812 0-114.757812-77.453125-114.757812-172.960937 0-95.503906 51.375-172.957032 114.757812-172.957032 19.824219.335938 38.917969 7.539063 54.027344 20.382813zm0 0" fill="#e57e25"/><path d="m388.414062 308.964844c0-112.132813-59.285156-203.035156-132.414062-203.035156s-132.414062 90.902343-132.414062 203.035156c0 112.132812 59.285156 203.035156 132.414062 203.035156s132.414062-90.902344 132.414062-203.035156zm0 0" fill="#f29c1f"/><g fill="#2c3e50"><path d="m256 353.105469h10.894531c3.175781-.003907 6.109375-1.714844 7.675781-4.480469 1.5625-2.765625 1.523438-6.160156-.113281-8.886719l-10.890625-18.15625c-1.597656-2.65625-4.46875-4.28125-7.566406-4.28125s-5.96875 1.625-7.566406 4.28125l-10.890625 18.15625c-1.636719 2.726563-1.675781 6.121094-.109375 8.886719 1.5625 2.765625 4.496094 4.476562 7.671875 4.480469zm0 0"/><path d="m256 423.722656c-2.777344 0-5.394531-1.304687-7.0625-3.527344l-19.421875-25.894531-19.417969 25.894531c-1.53125 2.054688-3.878906 3.34375-6.4375 3.527344-2.554687.195313-5.066406-.746094-6.867187-2.566406l-26.480469-26.484375c-3.347656-3.460937-3.300781-8.96875.105469-12.375 3.40625-3.402344 8.910156-3.453125 12.375-.105469l19.289062 19.289063 20.375-27.191407c1.734375-2.109374 4.328125-3.332031 7.058594-3.332031 2.734375 0 5.328125 1.222657 7.0625 3.332031l19.421875 25.890626 19.421875-25.890626c1.734375-2.109374 4.328125-3.332031 7.0625-3.332031s5.324219 1.222657 7.0625 3.332031l20.371094 27.171876 19.289062-19.289063c3.464844-3.34375 8.96875-3.296875 12.375.109375s3.453125 8.910156.109375 12.375l-26.484375 26.480469c-1.796875 1.832031-4.3125 2.773437-6.867187 2.570312-2.558594-.1875-4.90625-1.476562-6.4375-3.53125l-19.417969-25.875-19.421875 25.894531c-1.667969 2.222657-4.285156 3.527344-7.0625 3.527344zm0 0"/><path d="m325.296875 221.394531c18.796875 3.238281 33.386719 18.183594 36.171875 37.054688 2.785156 18.867187-6.867188 37.390625-23.925781 45.921875-17.058594 8.53125-37.667969 5.136718-51.09375-8.414063-13.425781-13.546875-16.625-34.1875-7.9375-51.167969"/></g><path d="m273.65625 256c-4.101562.007812-7.664062-2.808594-8.609375-6.796875-.941406-3.988281.984375-8.101563 4.652344-9.929687l70.621093-35.3125c2.824219-1.410157 6.183594-1.207032 8.816407.535156 2.632812 1.738281 4.136719 4.75 3.945312 7.898437-.191406 3.148438-2.046875 5.957031-4.867187 7.367188l-70.621094 35.3125c-1.222656.609375-2.570312.925781-3.9375.925781zm0 0" fill="#d25627"/><path d="m96 169.371094c-16.285156-7.765625-42.25 12.691406-57.988281 45.695312-15.742188 33-15.300781 66.054688.984375 73.820313 16.285156 7.769531 42.25-12.6875 57.992187-45.691407 15.738281-33.003906 15.300781-66.054687-.988281-73.824218zm0 0" fill="#f29c1f"/><path d="m473.996094 215.0625c-15.742188-33.003906-41.707032-53.460938-57.992188-45.695312-16.285156 7.769531-16.726562 40.820312-.984375 73.824218 15.742188 33.003906 41.703125 53.460938 57.988281 45.691406 16.289063-7.769531 16.726563-40.820312.988282-73.820312zm0 0" fill="#f29c1f"/><path d="m233.488281 244.789062c3.199219 6.195313 4.863281 13.066407 4.855469 20.039063.035156 23.410156-18.210938 42.773437-41.582031 44.128906-23.371094 1.351563-43.734375-15.773437-46.402344-39.027343-2.671875-23.257813 13.277344-44.554688 36.34375-48.535157" fill="#2c3e50"/><path d="m238.34375 256c-1.363281 0-2.714844-.316406-3.9375-.925781l-70.617188-35.3125c-4.367187-2.179688-6.136718-7.480469-3.957031-11.84375 2.179688-4.363281 7.484375-6.136719 11.847657-3.957031l70.621093 35.3125c3.667969 1.828124 5.59375 5.941406 4.652344 9.929687-.945313 3.988281-4.507813 6.804687-8.609375 6.796875zm0 0" fill="#d25627"/></svg>