<svg height="512pt" viewBox="-91 0 512 512.00001" width="512pt" xmlns="http://www.w3.org/2000/svg"><path d="m165.691406 512h67.757813c17.007812 0 31.597656-12.128906 34.710937-28.847656l62.605469-336.613282c1.679687-9.046874-.234375-18.390624-5.339844-26.042968l-69.808593-104.773438c-6.550782-9.824218-17.574219-15.722656-29.378907-15.722656h-121.097656c-11.804687 0-22.828125 5.898438-29.378906 15.722656l-69.851563 104.757813c-5.089844 7.65625-6.988281 17-5.296875 26.039062l62.632813 336.632813c3.109375 16.710937 17.6875 28.832031 34.683594 28.847656zm0 0" fill="#59474e"/><path d="m330.765625 146.539062-51.816406 278.863282c0 .046875-.039063.085937-.089844.085937-6.878906 10.398438-18.703125 16.429688-31.160156 15.890625h-164.015625c-12.457032.539063-24.285156-5.492187-31.164063-15.890625-.046875 0-.085937-.039062-.085937-.085937l-51.820313-278.863282c-1.710937-9.039062.191407-18.390624 5.296875-26.042968l69.828125-104.78125c6.554688-9.824219 17.585938-15.7226565 29.394531-15.714844h121.113282c11.8125-.0078125 22.84375 5.890625 29.398437 15.714844l69.824219 104.78125c5.109375 7.652344 7.011719 17.003906 5.296875 26.042968zm0 0" fill="#7f5b53"/><path d="m86.242188 406.070312-50.933594-266.003906 69.832031-104.757812h121.097656l69.835938 104.75-50.9375 266.011718zm0 0" fill="#2c3e50"/><path d="m97.277344 388.414062-46.347656-242.519531 61.832031-92.929687h105.859375l61.828125 92.917968-46.34375 242.53125zm0 0" fill="#35495e"/><g fill="#95a5a5"><path d="m220.007812 114.757812h-20.597656c-4.199218.007813-7.820312-2.949218-8.660156-7.0625l-5.984375-30.011718c-.839844-4.113282-4.460937-7.066406-8.660156-7.0625h-20.832031c-4.199219-.003906-7.820313 2.949218-8.660157 7.0625l-5.984375 30.011718c-.839844 4.113282-4.460937 7.070313-8.660156 7.0625h-20.59375c-4.316406.003907-7.996094 3.125-8.703125 7.378907l-5.890625 35.3125c-.425781 2.558593.296875 5.175781 1.972656 7.152343 1.675782 1.980469 4.136719 3.121094 6.730469 3.121094h24.1875c2.464844-.003906 4.820313 1.015625 6.496094 2.824219 1.675781 1.804687 2.523437 4.226563 2.332031 6.683594l-7.359375 95.746093c-.191406 2.457032.65625 4.878907 2.332031 6.683594 1.675782 1.808594 4.03125 2.828125 6.492188 2.824219h51.554687c2.464844.003906 4.820313-1.015625 6.496094-2.824219 1.675781-1.804687 2.519531-4.226562 2.332031-6.683594l-7.363281-95.746093c-.1875-2.457031.65625-4.878907 2.332031-6.683594 1.675782-1.808594 4.03125-2.828125 6.496094-2.824219h24.1875c2.59375 0 5.054688-1.140625 6.730469-3.121094 1.679687-1.976562 2.398437-4.59375 1.972656-7.152343l-5.886719-35.3125c-.714844-4.292969-4.453125-7.429688-8.808594-7.378907zm0 0"/><path d="m139.207031 326.621094h52.964844c4.875 0 8.828125 3.953125 8.828125 8.828125v17.652343c0 4.878907-3.953125 8.828126-8.828125 8.828126h-52.964844c-4.875 0-8.828125-3.949219-8.828125-8.828126v-17.652343c0-4.875 3.953125-8.828125 8.828125-8.828125zm0 0"/></g></svg>