<svg height="512pt" viewBox="-45 0 512 512.00005" width="512pt" xmlns="http://www.w3.org/2000/svg"><path d="m274.273438 441.378906h63.382812c12.453125.539063 24.28125-5.492187 31.160156-15.890625.046875 0 .085938-.039062.085938-.085937l8.210937-44.226563c.089844 0 .089844-.089843 0-.175781l1.855469-9.269531v-.265625l41.753906-224.925782c1.710938-9.039062-.1875-18.390624-5.296875-26.042968l-69.828125-104.78125c-6.554687-9.824219-17.585937-15.7226565-29.394531-15.714844h-121.113281c-9.476563-.015625-18.550782 3.804688-25.160156 10.59375zm0 0" fill="#7f5b53"/><path d="m288.15625 423.722656-98.167969-405.324218c1.652344-.492188 3.371094-.742188 5.101563-.742188h121.113281c5.90625-.011719 11.425781 2.933594 14.707031 7.847656l69.824219 104.78125c2.578125 3.828125 3.527344 8.519532 2.648437 13.046875l-40.921874 220.1875-2.648438 14.011719-1.917969 9.550781.152344.140625-5.808594 31.203125c-3.976562 3.617188-9.214843 5.519531-14.582031 5.296875zm0 0" fill="#2c3e50"/><path d="m15.799901 6.290201-.009735.009735" fill="none" stroke="#000" stroke-linecap="round" stroke-linejoin="round" stroke-width="2" transform="matrix(8.827586 0 0 8.827586 -.353898 .000053)"/><path d="m142.476562 425.488281.351563 1.945313 10.328125 55.699218c3.105469 16.722657 17.6875 28.855469 34.695312 28.867188h135.589844c17.007813-.011719 31.589844-12.144531 34.691406-28.867188l10.683594-57.644531c-6.878906 10.398438-18.707031 16.429688-31.160156 15.890625h-63.382812" fill="#59474e"/><path d="m303.84375 99.117188 75.386719 273.40625c.019531.046874.003906.101562-.042969.125-1.636719 12.359374-9.632812 22.953124-21.070312 27.914062l-147.492188 71.765625c-10.964844 5.933594-24.242188 5.683594-34.972656-.660156-.015625.015625-.039063.023437-.058594.023437-.023438 0-.042969-.007812-.058594-.023437l-168.578125-228.148438c-5.5-7.378906-7.882812-16.617187-6.632812-25.734375l16.976562-124.769531c1.59375-11.695313 8.929688-21.824219 19.542969-26.984375l108.917969-52.964844c10.613281-5.175781 23.113281-4.695312 33.304687 1.269532l108.625 63.671874c7.941406 4.648438 13.742188 12.226563 16.152344 21.109376zm0 0" fill="#7f8c8d"/><path d="m197.472656 439.453125-162.152344-216.925781 16.972657-124.742188 108.90625-52.976562 108.613281 63.65625 70.550781 261.492187zm0 0" fill="#606060"/><path d="m53.785156 217.75 14.734375-108.226562 91.902344-44.703126 94.226563 55.21875 64.867187 240.425782-116.640625 56.734375zm0 0" fill="#41767f"/><g fill="#95a5a5"><path d="m190.320312 118.976562-18.535156 9.023438c-3.785156 1.839844-8.339844.753906-10.886718-2.59375l-18.484376-24.3125c-2.546874-3.347656-7.101562-4.433594-10.882812-2.59375l-18.707031 9.109375c-3.78125 1.839844-5.738281 6.089844-4.679688 10.160156l7.707031 29.554688c1.058594 4.066406-.898437 8.320312-4.679687 10.160156l-18.535156 9.011719c-3.878907 1.890625-5.824219 6.308594-4.601563 10.445312l10.152344 34.320313c.734375 2.496093 2.53125 4.542969 4.914062 5.59375 2.382813 1.046875 5.109376.992187 7.445313-.15625l21.75-10.59375c2.210937-1.074219 4.769531-1.175781 7.058594-.285157 2.292969.890626 4.105469 2.695313 5.011719 4.984376l35.238281 89.332031c.902343 2.289062 2.71875 4.097656 5.011719 4.988281 2.292968.890625 4.851562.785156 7.0625-.289062l46.363281-22.546876c2.199219-1.078124 3.851562-3.019531 4.566406-5.363281.710937-2.34375.414063-4.878906-.8125-6.996093l-48.5-82.882813c-1.230469-2.117187-1.523437-4.652344-.808594-6.996094.714844-2.34375 2.367188-4.285156 4.570313-5.363281l21.742187-10.589844c2.355469-1.140625 4.085938-3.261718 4.722657-5.800781.640624-2.539063.117187-5.230469-1.421876-7.34375l-20.699218-29.132813c-2.5-3.535156-7.191406-4.738281-11.082032-2.84375zm0 0"/><path d="m210.355469 344.84375 47.628906-23.167969c4.382813-2.132812 9.667969-.304687 11.800781 4.078125l7.722656 15.878906c2.132813 4.382813.304688 9.664063-4.078124 11.796876l-47.628907 23.167968c-4.386719 2.132813-9.667969.308594-11.800781-4.078125l-7.722656-15.875c-2.132813-4.386719-.308594-9.667969 4.078125-11.800781zm0 0"/></g></svg>