<svg height="511pt" viewBox="0 -8 511.88217 511" width="511pt" xmlns="http://www.w3.org/2000/svg"><path d="m460.742188 247.210938c0 113.105468-91.691407 204.800781-204.800782 204.800781s-204.800781-91.695313-204.800781-204.800781c0-113.109376 91.691406-204.800782 204.800781-204.800782s204.800782 91.691406 204.800782 204.800782zm0 0" fill="#3d324c"/><path d="m255.941406 16.808594c-127.246094 0-230.398437 103.15625-230.398437 230.402344 0 127.246093 103.152343 230.398437 230.398437 230.398437s230.398438-103.152344 230.398438-230.398437c0-61.105469-24.273438-119.710938-67.480469-162.917969-43.210937-43.207031-101.8125-67.484375-162.917969-67.484375zm0 418.132812c-103.683594 0-187.734375-84.050781-187.734375-187.730468 0-103.683594 84.050781-187.734376 187.734375-187.734376s187.734375 84.050782 187.734375 187.734376c-.125 103.628906-84.101562 187.609374-187.734375 187.730468zm0 0" fill="#894b9d"/><g fill="#b49aca"><path d="m351.25 55.296875c-1.269531-.011719-2.519531-.300781-3.660156-.855469-58.015625-27.453125-125.28125-27.453125-183.296875 0-4.253907 2.027344-9.347657.21875-11.375-4.035156-2.027344-4.257812-.21875-9.347656 4.035156-11.375 62.660156-29.664062 135.316406-29.664062 197.976563 0 3.570312 1.730469 5.480468 5.695312 4.601562 9.566406s-4.3125 6.628906-8.28125 6.644532zm0 0"/><path d="m36.277344 287.058594c-4.246094-.007813-7.839844-3.132813-8.433594-7.335938-12.136719-85.152344 24.191406-169.96875 94.199219-219.9375 3.835937-2.738281 9.167969-1.847656 11.90625 1.988282 2.738281 3.835937 1.847656 9.164062-1.988281 11.902343-64.820313 46.273438-98.457032 124.8125-87.21875 203.65625.65625 4.667969-2.589844 8.984375-7.253907 9.644531-.402343.058594-.808593.085938-1.210937.082032zm0 0"/><path d="m260.96875 477.523438c-4.714844.050781-8.574219-3.730469-8.625-8.441407-.050781-4.714843 3.730469-8.574219 8.445312-8.625 96.828126-2.074219 180.066407-69.226562 202.570313-163.429687.65625-3.019532 2.894531-5.449219 5.847656-6.351563 2.957031-.902343 6.171875-.136719 8.398438 2.003907 2.230469 2.140624 3.132812 5.316406 2.351562 8.308593-24.308593 101.75-114.210937 174.289063-218.800781 176.535157zm0 0"/><path d="m475.605469 287.058594c-.40625.003906-.808594-.023438-1.210938-.082032-4.664062-.660156-7.914062-4.976562-7.253906-9.644531 11.238281-78.84375-22.398437-157.382812-87.21875-203.65625-3.835937-2.738281-4.726563-8.066406-1.988281-11.902343 2.738281-3.835938 8.066406-4.726563 11.902344-1.988282 70.011718 49.96875 106.339843 134.785156 94.199218 219.9375-.59375 4.203125-4.183594 7.328125-8.429687 7.335938zm0 0"/><path d="m250.652344 477.523438h-.207032c-104.46875-2.4375-194.191406-74.929688-218.519531-176.554688-.78125-2.988281.117188-6.167969 2.347657-8.308594 2.230468-2.136718 5.445312-2.902344 8.398437-2 2.957031.902344 5.195313 3.332032 5.847656 6.351563 22.53125 94.078125 105.589844 161.1875 202.300781 163.453125 4.714844.054687 8.488282 3.921875 8.4375 8.632812-.054687 4.714844-3.921874 8.488282-8.632812 8.433594zm0 0"/><path d="m319.003906 79.027344c-.996094-.003906-1.984375-.179688-2.917968-.519532-38.898438-13.945312-81.425782-13.945312-120.320313 0-4.433594 1.609376-9.328125-.675781-10.941406-5.105468-1.613281-4.429688.671875-9.328125 5.101562-10.9375 42.660157-15.292969 89.304688-15.292969 131.960938 0 3.90625 1.402344 6.238281 5.417968 5.515625 9.507812-.71875 4.089844-4.28125 7.070313-8.433594 7.054688zm0 0"/><path d="m68.378906 254.976562h-8.535156c-.085938-2.449218-.167969-5.121093-.167969-7.765624-.078125-59.15625 26.65625-115.160157 72.703125-152.296876 2.367188-1.917968 5.582032-2.429687 8.429688-1.339843 2.847656 1.09375 4.898437 3.621093 5.375 6.632812.480468 3.011719-.683594 6.046875-3.054688 7.96875-42.039062 33.902344-66.449218 85.027344-66.386718 139.035157 0 2.464843.085937 4.921874.167968 7.390624zm0 0"/><path d="m271.207031 442.792969c-4.710937.1875-8.683593-3.484375-8.871093-8.195313-.183594-4.710937 3.484374-8.683594 8.195312-8.871094 74.195312-6.242187 136.863281-57.566406 157.605469-129.074218.839843-2.929688 3.179687-5.191406 6.140625-5.929688 2.960937-.734375 6.085937.164063 8.203125 2.355469 2.121093 2.195313 2.90625 5.351563 2.0625 8.285156-22.714844 78.335938-91.367188 134.566407-172.644531 141.40625zm0 0"/><path d="m443.503906 263.464844h-.144531c-4.65625-.078125-8.390625-3.875-8.390625-8.53125v-.042969c.085938-2.757813.171875-5.214844.171875-7.679687.0625-54.007813-24.351563-105.132813-66.390625-139.035157-2.367188-1.921875-3.53125-4.957031-3.050781-7.96875.476562-3.011719 2.527343-5.539062 5.375-6.632812 2.847656-1.089844 6.0625-.578125 8.429687 1.339843 46.046875 37.136719 72.78125 93.140626 72.703125 152.296876 0 2.652343-.085937 5.316406-.179687 7.96875-.132813 4.613281-3.910156 8.285156-8.523438 8.285156zm0 0"/><path d="m239.992188 442.792969h-.734376c-80.972656-7.210938-149.226562-63.363281-171.902343-141.429688-.84375-2.933593-.054688-6.089843 2.0625-8.285156 2.117187-2.191406 5.246093-3.089844 8.203125-2.355469 2.960937.738282 5.300781 3 6.144531 5.929688 20.707031 71.261718 83.015625 122.519531 156.933594 129.101562 4.714843.195313 8.375 4.171875 8.179687 8.886719-.195312 4.710937-4.171875 8.375-8.886718 8.179687zm0 0"/></g><path d="m255.941406 494.675781c-3.746094 0-7.054687-2.441406-8.15625-6.023437l-146.648437-477.160156c-1.085938-3.519532.207031-7.339844 3.214843-9.476563 3.003907-2.132813 7.039063-2.0976562 10.003907.089844l210.773437 155.136719c2.558594 1.769531 3.957032 4.789062 3.644532 7.882812-.316407 3.09375-2.285157 5.773438-5.148438 6.992188s-6.160156.785156-8.609375-1.136719l-189.976563-139.808594 130.722657 425.328125 36.019531-122.453125c.832031-2.957031 3.1875-5.238281 6.171875-5.972656 2.980469-.734375 6.125.1875 8.238281 2.417969 2.109375 2.226562 2.863282 5.421874 1.964844 8.355468l-44.03125 149.703125c-1.0625 3.613281-4.367188 6.101563-8.132812 6.125zm0 0" fill="#f0c419"/><path d="m508.46875 292.15625-119.152344-87.691406c-3.792968-2.601563-8.96875-1.730469-11.699218 1.972656-2.726563 3.703125-2.03125 8.90625 1.578124 11.757812l98.21875 72.277344h-239.785156c-4.714844 0-8.535156 3.820313-8.535156 8.535156 0 4.710938 3.820312 8.53125 8.535156 8.53125h265.777344c3.664062-.023437 6.902344-2.382812 8.046875-5.863281 1.144531-3.476562-.054687-7.296875-2.984375-9.496093zm0 0" fill="#f0c419"/><path d="m155.121094 307.558594h-146.648438c-3.660156-.027344-6.898437-2.386719-8.042968-5.863282-1.148438-3.480468.054687-7.300781 2.984374-9.496093l128.316407-94.484375c3.792969-2.691406 9.046875-1.84375 11.804687 1.902344 2.761719 3.746093 2.011719 9.011718-1.683594 11.839843l-107.382812 79.035157h120.652344c4.710937 0 8.53125 3.820312 8.53125 8.53125 0 4.714843-3.820313 8.535156-8.53125 8.535156zm0 0" fill="#e57e25"/><path d="m324.949219 270.140625c-2.710938 0-5.257813-1.285156-6.867188-3.46875-1.609375-2.179687-2.089843-4.992187-1.289062-7.582031l70.050781-227.917969-190.003906 139.816406c-2.449219 1.921875-5.746094 2.355469-8.609375 1.136719-2.859375-1.21875-4.832031-3.898438-5.144531-6.992188s1.082031-6.113281 3.640624-7.882812l210.773438-155.132812c2.964844-2.1875005 7-2.226563 10.007812-.089844 3.003907 2.132812 4.300782 5.953125 3.210938 9.476562l-77.652344 252.585938c-1.089844 3.574218-4.378906 6.027344-8.117187 6.050781zm0 0" fill="#e57e25"/></svg>