<svg height="512pt" viewBox="0 0 512 512.00029" width="512pt" xmlns="http://www.w3.org/2000/svg"><path d="m224.042969 111.933594-13.945313-52.257813c-4.730468-17.816406 1.277344-36.757812 15.410156-48.59375 14.132813-11.835937 33.835938-14.421875 50.542969-6.640625 16.710938 7.78125 27.40625 24.53125 27.441407 42.964844-.011719 4.140625-.546876 8.261719-1.589844 12.269531l-13.945313 52.257813" fill="#4c8056"/><path d="m343.214844 156.390625c15.109375-12.84375 34.203125-20.046875 54.027344-20.382813 63.382812 0 114.757812 77.453126 114.757812 172.957032 0 95.507812-51.375 172.960937-114.757812 172.960937-19.824219-.339843-38.917969-7.542969-54.027344-20.382812h-174.429688c-15.109375 12.839843-34.203125 20.042969-54.027344 20.382812-63.382812 0-114.757812-77.453125-114.757812-172.960937 0-95.503906 51.375-172.957032 114.757812-172.957032 19.824219.335938 38.917969 7.539063 54.027344 20.382813zm0 0" fill="#e57e25"/><g fill="#f29c1f"><path d="m388.414062 308.964844c0-112.132813-59.285156-203.035156-132.414062-203.035156s-132.414062 90.902343-132.414062 203.035156c0 112.132812 59.285156 203.035156 132.414062 203.035156s132.414062-90.902344 132.414062-203.035156zm0 0"/><path d="m96 169.371094c-16.285156-7.765625-42.25 12.691406-57.988281 45.695312-15.742188 33-15.300781 66.054688.984375 73.820313 16.285156 7.769531 42.25-12.6875 57.992187-45.691407 15.738281-33.003906 15.300781-66.054687-.988281-73.824218zm0 0"/><path d="m473.996094 215.0625c-15.742188-33.003906-41.707032-53.460938-57.992188-45.695312-16.285156 7.769531-16.726562 40.820312-.984375 73.824218 15.742188 33.003906 41.703125 53.460938 57.988281 45.691406 16.289063-7.769531 16.726563-40.820312.988282-73.820312zm0 0"/></g><path d="m141.242188 238.539062v26.289063c-.117188 9.628906 7.589843 17.535156 17.222656 17.65625h71.273437c3.355469-.058594 6.386719-2.011719 7.824219-5.042969s1.03125-6.617187-1.042969-9.25c-11.089843-14.855468-35.726562-36.246094-86.511719-38.480468-2.34375-.027344-4.601562.894531-6.253906 2.558593-1.652344 1.664063-2.558594 3.925781-2.511718 6.269531zm0 0" fill="#2c3e50"/><path d="m370.757812 238.539062v26.289063c.117188 9.628906-7.589843 17.535156-17.222656 17.65625h-71.273437c-3.355469-.058594-6.386719-2.011719-7.824219-5.042969s-1.03125-6.617187 1.046875-9.25c11.085937-14.855468 35.722656-36.246094 86.507813-38.480468 2.34375-.027344 4.601562.894531 6.253906 2.558593 1.652344 1.664063 2.558594 3.925781 2.511718 6.269531zm0 0" fill="#2c3e50"/><path d="m256 414.898438c-16.417969.046874-32.761719-2.214844-48.550781-6.71875-14.671875-4.125-28.597657-10.558594-41.253907-19.050782-12.140624-8.066406-22.457031-18.59375-30.277343-30.894531-7.707031-12.433594-3.878907-28.761719 8.554687-36.46875s28.757813-3.878906 36.464844 8.554687c3.960938 5.996094 9.109375 11.117188 15.125 15.050782 8.019531 5.3125 16.824219 9.332031 26.09375 11.917968 22.167969 6.160157 45.597656 6.160157 67.769531 0 9.269531-2.582031 18.078125-6.605468 26.101563-11.917968 6.015625-3.933594 11.164062-9.054688 15.121094-15.050782 7.707031-12.433593 24.035156-16.261718 36.46875-8.554687 12.429687 7.707031 16.261718 24.035156 8.554687 36.46875-7.820313 12.300781-18.136719 22.828125-30.28125 30.894531-12.679687 8.503906-26.636719 14.933594-41.339844 19.050782-15.789062 4.503906-32.132812 6.765624-48.550781 6.71875zm0 0" fill="#2c3e50"/></svg>