<svg height="512pt" viewBox="0 0 512 511" width="512pt" xmlns="http://www.w3.org/2000/svg"><g fill="#3d324c"><path d="m74.476562 342.988281c-1.296874 0-2.585937.0625-3.855468.070313-11.882813.207031-23.742188-1.070313-35.3125-3.796875-9.429688-2.019531-18.289063-6.117188-25.933594-11.996094-5.664062-4.210937-9.113281-10.765625-9.375-17.820313 2.378906-10.886718 7.617188-20.945312 15.175781-29.132812 10.429688-13.320312 21.570313-26.0625 33.375-38.179688 12.140625-12.683593 24.277344-24.550781 33.378907-33.246093 9.101562-8.695313 15.171874-14.203125 15.171874-14.203125s-43.605468 84.417968-22.625 148.304687"/><path d="m437.523438 342.988281c1.296874 0 2.585937.0625 3.855468.070313 11.882813.207031 23.742188-1.070313 35.3125-3.796875 9.429688-2.019531 18.289063-6.117188 25.933594-11.996094 5.664062-4.210937 9.113281-10.765625 9.375-17.820313-2.378906-10.886718-7.617188-20.945312-15.175781-29.132812-10.429688-13.320312-21.570313-26.0625-33.375-38.179688-12.140625-12.695312-24.277344-24.550781-33.378907-33.246093-9.101562-8.695313-15.171874-14.203125-15.171874-14.203125s43.605468 84.410156 22.625 148.304687"/><path d="m374.820312 428.527344-24.011718 65.941406c-4.386719 12.039062-16.535156 19.421875-29.242188 17.773438-12.703125-1.652344-22.5625-11.898438-23.722656-24.65625l-3.53125-39.019532h-76.625l-3.53125 39.019532c-1.160156 12.757812-11.019531 23.003906-23.722656 24.65625-12.707032 1.648437-24.855469-5.734376-29.242188-17.773438l-24.011718-65.941406zm0 0"/></g><path d="m417.191406 156.816406c50.933594-55.703125 9.800782-120.761718-17.742187-153.25-2.566407-2.898437-6.738281-3.75-10.234375-2.09375s-5.480469 5.425782-4.863282 9.246094c2.035157 23.125-6.011718 46-22.066406 62.761719h-212.570312c-16.054688-16.761719-24.101563-39.636719-22.066406-62.761719.617187-3.820312-1.367188-7.589844-4.863282-9.246094-3.496094-1.65625-7.667968-.804687-10.234375 2.09375-27.542969 32.488282-68.675781 97.546875-17.742187 153.25zm0 0" fill="#fdd7ad"/><path d="m443.71875 234.65625c-1.441406-10.6875-3.921875-21.210938-7.40625-31.417969-25.484375-76.167969-74.226562-142.421875-139.351562-189.429687-24.429688-17.730469-57.492188-17.730469-81.921876 0-65.125 47.007812-113.867187 113.261718-139.351562 189.429687-3.484375 10.207031-5.964844 20.730469-7.40625 31.417969l-14.785156 107.625c7.324218 60.644531 95.160156 108.402344 202.503906 108.402344s195.179688-47.757813 202.503906-108.402344zm0 0" fill="#894b9d"/><path d="m419.980469 234.65625c-1.214844-10.628906-3.320313-21.140625-6.292969-31.417969-20.035156-73.402343-61.230469-139.285156-118.457031-189.429687-19.820313-17.746094-49.8125-17.746094-69.632813 0-57.226562 50.144531-98.425781 116.027344-118.457031 189.429687-2.972656 10.277344-5.078125 20.789063-6.292969 31.417969l-12.570312 107.625c6.230468 60.644531 80.886718 108.402344 172.136718 108.402344s165.90625-47.757813 172.136719-108.402344zm0 0" fill="#955ba5"/><path d="m225.269531 370.230469-25.378906 31.25-12.214844-5.148438c-67.292969-28.40625-42.019531-122.90625-40.882812-126.914062l9.136719-32.988281 38.613281 47.539062 30.726562-37.835938 30.730469 37.835938 30.730469-37.835938 30.726562 37.835938 38.613281-47.539062 9.136719 32.988281c1.109375 4.007812 26.410157 98.507812-40.882812 126.914062l-12.214844 5.148438-25.378906-31.25-30.730469 37.835937zm0 0" fill="#894b9d"/><path d="m286.730469 342.230469-30.730469 37.832031-30.730469-37.832031-30.734375 37.832031c-53.777344-22.695312-30.730468-105.929688-30.730468-105.929688l30.730468 37.835938 30.734375-37.835938 30.730469 37.835938 30.730469-37.835938 30.734375 37.835938 30.730468-37.835938s23.046876 83.234376-30.730468 105.929688zm0 0" fill="#3d324c"/><path d="m158.464844 238.636719c-19.375-.140625-34.976563-15.9375-34.878906-35.308594v-26.296875c-.085938-14.515625 11.589843-26.363281 26.101562-26.484375h1.121094c59.242187 2.605469 87.996094 29.660156 99.859375 45.558594 6.09375 8.101562 7.058593 18.960937 2.488281 28.011719-4.410156 8.898437-13.496094 14.515624-23.425781 14.492187zm0 0" fill="#894b9d"/><path d="m141.242188 177.03125v26.285156c-.117188 9.632813 7.589843 17.535156 17.222656 17.65625h71.273437c3.355469-.058594 6.386719-2.011718 7.824219-5.042968s1.03125-6.613282-1.046875-9.25c-11.085937-14.835938-35.722656-36.234376-86.445313-38.476563-2.355468-.046875-4.628906.867187-6.292968 2.535156-1.667969 1.664063-2.582032 3.9375-2.535156 6.292969zm0 0" fill="#2c3e50"/><path d="m282.269531 238.636719c-9.929687.023437-19.015625-5.597657-23.425781-14.496094-4.570312-9.046875-3.605469-19.90625 2.488281-28.007813 11.863281-15.890624 40.605469-42.957031 99.847657-45.558593h1.132812c14.5.121093 26.175781 11.953125 26.101562 26.457031v26.285156c.097657 19.375-15.503906 35.171875-34.878906 35.3125zm0 0" fill="#894b9d"/><path d="m370.757812 177.03125v26.285156c.117188 9.632813-7.589843 17.535156-17.222656 17.65625h-71.273437c-3.355469-.058594-6.386719-2.011718-7.824219-5.042968s-1.03125-6.613282 1.046875-9.25c11.085937-14.835938 35.722656-36.234376 86.445313-38.476563 2.355468-.046875 4.628906.867187 6.292968 2.535156 1.667969 1.664063 2.582032 3.9375 2.535156 6.292969zm0 0" fill="#2c3e50"/></svg>