<svg height="512pt" viewBox="0 0 512 511" width="512pt" xmlns="http://www.w3.org/2000/svg"><path d="m74.476562 342.988281c-1.296874 0-2.585937.0625-3.855468.070313-11.882813.207031-23.742188-1.070313-35.3125-3.796875-9.429688-2.019531-18.289063-6.117188-25.933594-11.996094-5.664062-4.210937-9.113281-10.765625-9.375-17.820313 2.378906-10.886718 7.617188-20.945312 15.175781-29.132812 10.429688-13.320312 21.570313-26.0625 33.375-38.179688 12.140625-12.683593 24.277344-24.550781 33.378907-33.246093 9.101562-8.695313 15.171874-14.203125 15.171874-14.203125s-43.605468 84.417968-22.625 148.304687" fill="#3d324c"/><path d="m437.523438 342.988281c1.296874 0 2.585937.0625 3.855468.070313 11.882813.207031 23.742188-1.070313 35.3125-3.796875 9.429688-2.019531 18.289063-6.117188 25.933594-11.996094 5.664062-4.210937 9.113281-10.765625 9.375-17.820313-2.378906-10.886718-7.617188-20.945312-15.175781-29.132812-10.429688-13.320312-21.570313-26.0625-33.375-38.179688-12.140625-12.695312-24.277344-24.550781-33.378907-33.246093-9.101562-8.695313-15.171874-14.203125-15.171874-14.203125s43.605468 84.410156 22.625 148.304687" fill="#3d324c"/><path d="m374.820312 428.527344-24.011718 65.941406c-4.386719 12.039062-16.535156 19.421875-29.242188 17.773438-12.703125-1.652344-22.5625-11.898438-23.722656-24.65625l-3.53125-39.019532h-76.625l-3.53125 39.019532c-1.160156 12.757812-11.019531 23.003906-23.722656 24.65625-12.707032 1.648437-24.855469-5.734376-29.242188-17.773438l-24.011718-65.941406zm0 0" fill="#3d324c"/><path d="m417.191406 156.816406c50.933594-55.703125 9.800782-120.761718-17.742187-153.25-2.566407-2.898437-6.738281-3.75-10.234375-2.09375s-5.480469 5.425782-4.863282 9.246094c2.035157 23.125-6.011718 46-22.066406 62.761719h-212.570312c-16.054688-16.761719-24.101563-39.636719-22.066406-62.761719.617187-3.820312-1.367188-7.589844-4.863282-9.246094-3.496094-1.65625-7.667968-.804687-10.234375 2.09375-27.542969 32.488282-68.675781 97.546875-17.742187 153.25zm0 0" fill="#fdd7ad"/><path d="m443.71875 234.65625c-1.441406-10.6875-3.921875-21.210938-7.40625-31.417969-25.484375-76.167969-74.226562-142.421875-139.351562-189.429687-24.429688-17.730469-57.492188-17.730469-81.921876 0-65.125 47.007812-113.867187 113.261718-139.351562 189.429687-3.484375 10.207031-5.964844 20.730469-7.40625 31.417969l-14.785156 107.625c7.324218 60.644531 95.160156 108.402344 202.503906 108.402344s195.179688-47.757813 202.503906-108.402344zm0 0" fill="#894b9d"/><path d="m419.980469 234.65625c-1.214844-10.628906-3.320313-21.140625-6.292969-31.417969-20.035156-73.402343-61.230469-139.285156-118.457031-189.429687-19.820313-17.746094-49.8125-17.746094-69.632813 0-57.226562 50.144531-98.425781 116.027344-118.457031 189.429687-2.972656 10.277344-5.078125 20.789063-6.292969 31.417969l-12.570312 107.625c6.230468 60.644531 80.886718 108.402344 172.136718 108.402344s165.90625-47.757813 172.136719-108.402344zm0 0" fill="#955ba5"/><path d="m256 371.238281c-50.195312 0-167.722656 0-167.722656-75.035156 0-56.929687 73.671875-101.519531 167.722656-101.519531s167.722656 44.589844 167.722656 101.519531c0 75.035156-117.527344 75.035156-167.722656 75.035156zm0 0" fill="#3d324c"/><path d="m406.070312 296.203125c0 46.316406-67.1875 57.378906-150.070312 57.378906s-150.070312-11.0625-150.070312-57.378906c0-46.320313 67.1875-83.863281 150.070312-83.863281s150.070312 37.542968 150.070312 83.863281zm0 0" fill="#2c3e50"/><path d="m219.894531 152.929688c.535157 2.105468.804688 4.273437.796875 6.445312.035156 14.128906-11.03125 25.796875-25.140625 26.515625-14.113281.714844-26.300781-9.773437-27.695312-23.832031-1.398438-14.0625 8.492187-26.742188 22.46875-28.8125" fill="#2c3e50"/><path d="m229.515625 168.203125c-1.738281-.003906-3.441406-.519531-4.890625-1.484375l-52.964844-35.308594c-2.621094-1.75-4.113281-4.769531-3.910156-7.917968.203125-3.144532 2.070312-5.945313 4.898438-7.34375 2.828124-1.398438 6.1875-1.179688 8.8125.570312l52.964843 35.3125c3.238281 2.15625 4.679688 6.183594 3.550781 9.90625-1.132812 3.726562-4.566406 6.269531-8.460937 6.265625zm0 0" fill="#3d324c"/><path d="m292.105469 152.929688c-.535157 2.105468-.804688 4.273437-.796875 6.445312-.035156 14.128906 11.03125 25.796875 25.140625 26.515625 14.113281.714844 26.300781-9.773437 27.695312-23.832031 1.398438-14.0625-8.492187-26.742188-22.46875-28.8125" fill="#2c3e50"/><path d="m282.484375 168.203125c-3.894531.003906-7.328125-2.539063-8.460937-6.265625-1.128907-3.722656.3125-7.75 3.550781-9.90625l52.964843-35.3125c4.058594-2.703125 9.539063-1.609375 12.246094 2.445312 2.703125 4.058594 1.609375 9.539063-2.445312 12.246094l-52.964844 35.308594c-1.449219.964844-3.152344 1.480469-4.890625 1.484375zm0 0" fill="#3d324c"/><g fill="#ecf0f1"><path d="m219.628906 214.8125-18.625 43.429688c-1.304687 3.046874-4.207031 5.101562-7.511718 5.328124-3.304688.226563-6.457032-1.417968-8.164063-4.257812l-17.605469-29.316406-20.46875 47.765625c-1.242187 2.898437-3.933594 4.914062-7.0625 5.289062-3.128906.378907-6.21875-.941406-8.113281-3.460937l-13.171875-17.550782c18.628906-23.304687 55.613281-40.960937 100.722656-47.226562zm0 0"/><path d="m290.25 214.546875-26.359375 52.648437c-1.496094 2.984376-4.550781 4.871094-7.890625 4.871094s-6.394531-1.886718-7.890625-4.871094l-26.359375-52.648437c22.738281-2.941406 45.761719-2.941406 68.5 0zm0 0"/><path d="m393.09375 262.039062-13.171875 17.550782c-1.894531 2.519531-4.984375 3.839844-8.113281 3.460937-3.128906-.375-5.820313-2.390625-7.0625-5.289062l-20.46875-47.765625-17.605469 29.332031c-1.707031 2.839844-4.863281 4.480469-8.167969 4.25-3.304687-.226563-6.207031-2.289063-7.507812-5.335937l-18.625-43.429688c45.109375 6.265625 82.09375 23.921875 100.722656 47.226562zm0 0"/><path d="m256 353.582031c-20.25.171875-40.492188-.742187-60.644531-2.738281l18.351562-42.769531c1.324219-3.074219 4.273438-5.132813 7.613281-5.320313 3.34375-.1875 6.503907 1.53125 8.160157 4.4375zm0 0"/><path d="m316.644531 350.84375c-20.152343 1.996094-40.394531 2.910156-60.644531 2.738281l26.484375-46.40625c1.65625-2.90625 4.816406-4.628906 8.160156-4.441406 3.339844.1875 6.289063 2.25 7.613281 5.324219zm0 0"/></g></svg>