<svg height="512pt" viewBox="-42 0 512 512" width="512pt" xmlns="http://www.w3.org/2000/svg"><path d="m178.984375 344.277344h70.617187v70.621094h-70.617187zm0 0" fill="#285680"/><path d="m355.535156 167.722656s0-31.839844 45.347656-57.722656c2.042969-1.195312 4.480469-1.523438 6.773438-.917969 2.289062.609375 4.242188 2.105469 5.425781 4.160157 13.445313 23.585937 45.628907 98.539062-57.546875 142.757812h-282.484375c-103.175781-44.21875-70.992187-119.171875-57.546875-142.757812 1.183594-2.054688 3.136719-3.550782 5.425782-4.160157 2.289062-.605469 4.730468-.277343 6.773437.917969 45.347656 25.882812 45.347656 57.722656 45.347656 57.722656zm0 0" fill="#7ed09e"/><path d="m355.535156 88.277344v35.308594c-32.839844-44.136719-79.449218-83.683594-141.242187-18.625-61.792969-65.058594-108.402344-25.511719-141.242188 18.625v-35.308594c0-48.753906 39.523438-88.277344 88.277344-88.277344h105.929687c23.414063 0 45.867188 9.300781 62.421876 25.855469 16.554687 16.554687 25.855468 39.007812 25.855468 62.421875zm0 0" fill="#2c3e50"/><path d="m355.535156 123.585938v150.070312c0 23.410156-9.300781 45.863281-25.855468 62.417969-16.554688 16.554687-39.007813 25.855469-62.421876 25.855469h-105.929687c-48.753906 0-88.277344-39.519532-88.277344-88.273438v-150.070312c32.839844-44.136719 79.449219-83.683594 141.242188-18.625 61.792969-65.058594 108.402343-25.511719 141.242187 18.625zm0 0" fill="#71c285"/><path d="m337.878906 138.027344v140.976562c0 45.773438-34.605468 82.925782-77.242187 82.925782h-92.6875c-42.636719 0-77.242188-37.152344-77.242188-82.925782v-140.976562c28.734375-41.488282 69.515625-78.566406 123.585938-17.496094 54.070312-61.113281 94.851562-23.964844 123.585937 17.496094zm0 0" fill="#bbd1b5"/><path d="m214.292969 397.242188v44.136718c-5.976563-.003906-11.925781.859375-17.65625 2.558594-19.8125 7.1875-35.78125 22.230469-44.136719 41.578125v-123.585937h35.308594v44.140624zm0 0" fill="#2980ba"/><path d="m214.292969 397.242188v44.136718c5.976562-.003906 11.925781.859375 17.65625 2.558594 19.8125 7.1875 35.78125 22.230469 44.136719 41.578125v-123.585937h-35.308594v44.140624zm0 0" fill="#4482c3"/><path d="m196.636719 443.9375v50.40625c-.027344 9.738281-7.914063 17.628906-17.652344 17.65625h-8.828125c-9.738281-.027344-17.628906-7.917969-17.65625-17.65625v-8.828125c8.355469-19.347656 24.324219-34.390625 44.136719-41.578125zm0 0" fill="#bbd1b5"/><path d="m276.085938 485.515625v8.828125c-.027344 9.738281-7.917969 17.628906-17.65625 17.65625h-8.828126c-9.738281-.027344-17.625-7.917969-17.652343-17.65625v-50.40625c19.8125 7.1875 35.78125 22.230469 44.136719 41.578125zm0 0" fill="#bbd1b5"/><path d="m152.5 414.898438v13.238281c0 12.191406-9.882812 22.070312-22.070312 22.070312s-22.066407-9.878906-22.066407-22.070312v-13.238281zm0 0" fill="#bbd1b5"/><path d="m152.5 361.929688v52.96875h-44.136719v-17.65625c0-19.503907 15.808594-35.3125 35.308594-35.3125zm0 0" fill="#285680"/><path d="m276.085938 414.898438v13.238281c0 12.191406 9.878906 22.070312 22.070312 22.070312 12.1875 0 22.066406-9.878906 22.066406-22.070312v-13.238281zm0 0" fill="#bbd1b5"/><path d="m276.085938 361.929688v52.96875h44.136718v-17.65625c0-19.503907-15.808594-35.3125-35.308594-35.3125zm0 0" fill="#285680"/><path d="m187.808594 194.207031c0 9.75-7.902344 17.65625-17.652344 17.65625-9.753906 0-17.65625-7.90625-17.65625-17.65625s7.902344-17.65625 17.65625-17.65625c9.75 0 17.652344 7.90625 17.652344 17.65625zm0 0" fill="#2c3e50"/><path d="m276.085938 194.207031c0 9.75-7.90625 17.65625-17.65625 17.65625s-17.652344-7.90625-17.652344-17.65625 7.902344-17.65625 17.652344-17.65625 17.65625 7.90625 17.65625 17.65625zm0 0" fill="#2c3e50"/><path d="m134.84375 247.171875 18.589844 37.171875c1.5 2.988281 4.554687 4.875 7.894531 4.875s6.394531-1.886719 7.890625-4.875l18.589844-37.171875zm0 0" fill="#fff"/><path d="m240.777344 247.171875 18.589844 37.171875c1.496093 2.988281 4.550781 4.875 7.890624 4.875 3.339844 0 6.394532-1.886719 7.890626-4.875l18.59375-37.171875zm0 0" fill="#fff"/><g fill="#4c8056"><path d="m28.914062 185.378906c-4.550781-.003906-8.351562-3.464844-8.78125-7.992187-.429687-4.53125 2.652344-8.644531 7.121094-9.503907 1.386719-2.78125 1.960938-5.894531 1.660156-8.984374 0-4.878907 3.953126-8.828126 8.828126-8.828126s8.828124 3.949219 8.828124 8.828126c0 26.179687-16.933593 26.480468-17.65625 26.480468zm0 0"/><path d="m46.570312 203.035156c-4.878906 0-8.828124-3.953125-8.828124-8.828125.390624-7.3125-1.863282-14.519531-6.347657-20.304687-3.300781-3.527344-3.183593-9.042969.265625-12.429688 3.414063-3.402344 8.941406-3.402344 12.355469 0 7.839844 9.054688 11.910156 20.769532 11.378906 32.734375 0 4.875-3.949219 8.828125-8.824219 8.828125zm0 0"/><path d="m399.671875 185.378906c-.722656 0-17.65625-.300781-17.65625-26.480468 0-4.878907 3.953125-8.828126 8.828125-8.828126s8.828125 3.949219 8.828125 8.828126c-.296875 3.089843.277344 6.199218 1.652344 8.984374 4.464843.859376 7.546875 4.96875 7.121093 9.5-.429687 4.527344-4.226562 7.988282-8.773437 7.996094zm0 0"/><path d="m382.015625 203.035156c-4.875 0-8.828125-3.953125-8.828125-8.828125-.515625-11.964843 3.566406-23.675781 11.414062-32.722656 3.464844-3.15625 8.792969-3.054687 12.132813.230469 3.34375 3.285156 3.535156 8.609375.441406 12.125-4.476562 5.816406-6.722656 13.039062-6.332031 20.367187 0 4.875-3.953125 8.828125-8.828125 8.828125zm0 0"/></g><path d="m302.570312 256h-176.554687c-4.875 0-8.828125-3.953125-8.828125-8.828125s3.953125-8.828125 8.828125-8.828125h176.554687c4.875 0 8.824219 3.953125 8.824219 8.828125s-3.949219 8.828125-8.824219 8.828125zm0 0" fill="#2c3e50"/></svg>