<svg height="512pt" viewBox="-115 0 512 512" width="512pt" xmlns="http://www.w3.org/2000/svg"><path d="m282.484375 88.277344v256c-.03125 9.738281-7.917969 17.625-17.65625 17.652344h-247.171875c-9.738281-.027344-17.6289062-7.914063-17.65625-17.652344v-256c0-48.753906 39.523438-88.277344 88.277344-88.277344h105.929687c23.410157 0 45.867188 9.300781 62.421875 25.855469 16.554688 16.554687 25.855469 39.007812 25.855469 62.421875zm0 0" fill="#2c3e50"/><path d="m123.585938 445.175781v49.167969c-.027344 9.738281-7.917969 17.628906-17.65625 17.65625h-8.828126c-9.738281-.027344-17.625-7.917969-17.652343-17.65625v-26.480469" fill="#bbd1b5"/><path d="m203.035156 467.863281v26.480469c-.03125 9.738281-7.917968 17.628906-17.65625 17.65625h-8.828125c-9.738281-.027344-17.625-7.917969-17.652343-17.65625v-49.167969" fill="#bbd1b5"/><path d="m79.449219 361.929688v52.96875h-44.140625v-17.65625c0-19.503907 15.8125-35.3125 35.3125-35.3125zm0 0" fill="#547580"/><path d="m79.449219 414.898438v13.238281c0 12.191406-9.882813 22.070312-22.070313 22.070312s-22.070312-9.878906-22.070312-22.070312v-13.238281zm0 0" fill="#bbd1b5"/><path d="m203.035156 361.929688v52.96875h44.136719v-17.65625c0-19.503907-15.808594-35.3125-35.308594-35.3125zm0 0" fill="#547580"/><path d="m203.035156 414.898438v13.238281c0 12.191406 9.878906 22.070312 22.066406 22.070312 12.191407 0 22.070313-9.878906 22.070313-22.070312v-13.238281zm0 0" fill="#bbd1b5"/><path d="m203.035156 476.691406-61.792968-44.140625-61.792969 44.140625v-114.761718h123.585937zm0 0" fill="#bdc3c7"/><path d="m203.035156 361.929688v114.761718l-61.792968-44.140625v-70.621093zm0 0" fill="#d1d4d1"/><g fill="#556080"><path d="m150.070312 114.757812v247.171876h-17.65625v-247.171876c0-4.875 3.953126-8.828124 8.828126-8.828124s8.828124 3.953124 8.828124 8.828124zm0 0"/><path d="m141.242188 61.792969c-3.273438.003906-6.28125-1.804688-7.8125-4.695313-.476563-.832031-8.078126-12.960937-36.328126-12.960937-4.875 0-8.824218-3.949219-8.824218-8.828125 0-4.875 3.949218-8.824219 8.824218-8.824219 39.621094 0 50.882813 20.230469 52.085938 22.535156 1.371094 2.746094 1.21875 6.003907-.402344 8.609375-1.621094 2.605469-4.476562 4.179688-7.542968 4.164063zm0 0"/><path d="m141.242188 61.652344c-3.027344-.007813-5.832032-1.570313-7.433594-4.136719-1.601563-2.566406-1.765625-5.777344-.441406-8.496094 1.128906-2.304687 12.394531-22.535156 52.011718-22.535156 4.875 0 8.828125 3.949219 8.828125 8.824219 0 4.878906-3.953125 8.828125-8.828125 8.828125-28.59375 0-36.042968 12.457031-36.351562 12.988281-1.605469 2.785156-4.570313 4.511719-7.785156 4.527344zm0 0"/><path d="m114.757812 176.550781v185.378907h-17.65625v-185.378907c0-4.875 3.953126-8.828125 8.828126-8.828125s8.828124 3.953125 8.828124 8.828125zm0 0"/><path d="m185.378906 176.550781v185.378907h-17.65625v-185.378907c0-4.875 3.953125-8.828125 8.828125-8.828125s8.828125 3.953125 8.828125 8.828125zm0 0"/><path d="m79.449219 238.34375v123.585938h-17.65625v-123.585938c0-4.875 3.953125-8.828125 8.828125-8.828125s8.828125 3.953125 8.828125 8.828125zm0 0"/><path d="m220.691406 238.34375v123.585938h-17.65625v-123.585938c0-4.875 3.953125-8.828125 8.828125-8.828125s8.828125 3.953125 8.828125 8.828125zm0 0"/></g></svg>