<svg height="512pt" viewBox="-67 0 512 512.01275" width="512pt" xmlns="http://www.w3.org/2000/svg"><path d="m171.585938 476.703125v17.65625c-.027344 9.738281-7.917969 17.625-17.65625 17.652344h-8.828126c-9.738281-.027344-17.625-7.914063-17.652343-17.652344v-17.65625zm0 0" fill="#fdd7ad"/><path d="m251.035156 476.703125v17.65625c-.03125 9.738281-7.917968 17.625-17.65625 17.652344h-8.828125c-9.738281-.027344-17.625-7.914063-17.65625-17.652344v-17.65625zm0 0" fill="#fdd7ad"/><path d="m251.035156 361.945312v114.757813h-44.140625v-17.65625c-.027343-9.738281-7.914062-17.625-17.652343-17.65625-9.722657.074219-17.585938 7.9375-17.65625 17.65625v17.65625h-44.136719v-114.757813zm0 0" fill="#c03a2b"/><path d="m127.449219 414.910156v13.242188c0 12.1875-9.882813 22.066406-22.070313 22.066406s-22.070312-9.878906-22.070312-22.066406v-13.242188zm0 0" fill="#fdd7ad"/><path d="m127.449219 361.945312v52.964844h-44.140625v-17.65625c0-19.5 15.808594-35.308594 35.3125-35.308594zm0 0" fill="#cc4b4c"/><path d="m251.035156 414.910156v13.242188c0 12.1875 9.878906 22.066406 22.066406 22.066406 12.191407 0 22.070313-9.878906 22.070313-22.066406v-13.242188zm0 0" fill="#fdd7ad"/><path d="m251.035156 361.945312v52.964844h44.136719v-17.65625c0-19.5-15.808594-35.308594-35.308594-35.308594zm0 0" fill="#cc4b4c"/><path d="m215.722656 401.667969c0-21.9375-11.855468-39.722657-26.480468-39.722657-14.628907 0-26.484376 17.785157-26.484376 39.722657s11.855469 39.722656 26.484376 39.722656c14.625 0 26.480468-17.785156 26.480468-39.722656zm0 0" fill="#cc4b4c"/><path d="m93.082031 77.605469-56.144531 56.144531s-56.847656-36.191406-29.484375-127.292969c.820313-2.796875 2.941406-5.019531 5.699219-5.96875 2.753906-.949219 5.796875-.4999998 8.160156 1.203125 1.449219 1.089844 2.53125 2.597656 3.089844 4.324219 8.121094 25.335937 26.75 60.027344 68.679687 71.589844zm0 0" fill="#e4c05c"/><path d="m93.082031 77.605469-39.019531 39.019531s-51.726562-32.839844-32.75-114.933594c1.449219 1.089844 2.53125 2.597656 3.089844 4.324219 8.121094 25.335937 26.75 60.027344 68.679687 71.589844zm0 0" fill="#fdd7ad"/><path d="m285.398438 77.605469 56.144531 56.144531s56.851562-36.191406 29.484375-127.292969c-.816406-2.796875-2.941406-5.019531-5.695313-5.96875-2.753906-.949219-5.800781-.4999998-8.164062 1.203125-1.449219 1.089844-2.527344 2.597656-3.089844 4.324219-8.121094 25.335937-26.746094 60.027344-68.679687 71.589844zm0 0" fill="#e4c05c"/><path d="m285.398438 77.605469 39.019531 39.019531s51.730469-32.839844 32.75-114.933594c-1.449219 1.089844-2.527344 2.597656-3.089844 4.324219-8.121094 25.335937-26.746094 60.027344-68.679687 71.589844zm0 0" fill="#fdd7ad"/><path d="m48.96875 163.5c-.636719 4.324219-.960938 8.691406-.96875 13.066406v97.101563c0 48.753906 39.523438 88.277343 88.277344 88.277343h105.929687c23.410157 0 45.863281-9.300781 62.421875-25.855468 16.554688-16.554688 25.851563-39.007813 25.851563-62.421875v-97.101563c-.007813-4.375-.332031-8.742187-.96875-13.066406l-70.53125-73.621094c-5.527344-1.070312-11.144531-1.601562-16.773438-1.589844h-105.929687c-5.632813-.011718-11.246094.519532-16.773438 1.589844zm0 0" fill="#c03a2b"/><path d="m66.539062 163.5c-.570312 4.332031-.863281 8.695312-.882812 13.066406v97.101563c0 48.726562 34.601562 88.277343 77.238281 88.277343h92.691407c42.636718 0 77.242187-39.550781 77.242187-88.277343v-97.101563c-.019531-4.371094-.316406-8.734375-.882813-13.066406l-61.714843-73.621094c-4.808594-1.066406-9.71875-1.601562-14.644531-1.589844h-92.691407c-4.933593-.011718-9.859375.519532-14.679687 1.589844zm0 0" fill="#e64c3c"/><path d="m33.105469 133.75 56.179687-56.179688c6.894532-6.894531 18.074219-6.894531 24.96875 0 6.894532 6.894532 6.894532 18.074219 0 24.96875l-56.179687 56.179688c-6.894531 6.894531-18.074219 6.894531-24.96875 0s-6.894531-18.074219 0-24.96875zm0 0" fill="#c03a2b"/><path d="m264.226562 77.566406c6.894532-6.894531 18.074219-6.894531 24.96875 0l56.175782 56.179688c6.894531 6.894531 6.894531 18.074218 0 24.96875-6.894532 6.894531-18.074219 6.894531-24.96875 0l-56.175782-56.179688c-6.894531-6.894531-6.894531-18.074218 0-24.96875zm0 0" fill="#c03a2b"/><path d="m161.964844 205.429688c.535156 2.105468.800781 4.273437.792968 6.445312.035157 14.128906-11.027343 25.796875-25.140624 26.515625-14.109376.714844-26.296876-9.773437-27.695313-23.832031-1.394531-14.0625 8.492187-26.742188 22.46875-28.8125" fill="#f0c419"/><path d="m171.585938 220.703125c-1.742188-.003906-3.441407-.519531-4.890626-1.484375l-52.964843-35.308594c-4.058594-2.707031-5.152344-8.1875-2.445313-12.246094 2.707032-4.054687 8.1875-5.148437 12.242188-2.445312l52.964844 35.3125c3.238281 2.15625 4.683593 6.183594 3.550781 9.90625-1.128907 3.726562-4.566407 6.269531-8.457031 6.265625zm0 0" fill="#c03a2b"/><path d="m246.089844 185.746094c13.976562 2.070312 23.867187 14.75 22.46875 28.8125-1.394532 14.058594-13.582032 24.546875-27.695313 23.832031-14.113281-.71875-25.175781-12.386719-25.140625-26.515625-.007812-2.171875.261719-4.339844.796875-6.445312" fill="#f0c419"/><path d="m206.894531 220.703125c-3.890625.003906-7.324219-2.539063-8.457031-6.265625-1.128906-3.722656.3125-7.75 3.550781-9.90625l52.964844-35.3125c2.625-1.75 5.984375-1.964844 8.8125-.570312 2.824219 1.398437 4.695313 4.199218 4.898437 7.34375.203126 3.148437-1.289062 6.167968-3.910156 7.917968l-52.96875 35.308594c-1.445312.964844-3.148437 1.480469-4.890625 1.484375zm0 0" fill="#c03a2b"/><path d="m198.070312 273.667969h-17.65625c-4.875 0-8.828124-3.953125-8.828124-8.828125s3.953124-8.828125 8.828124-8.828125h17.65625c4.875 0 8.824219 3.953125 8.824219 8.828125s-3.949219 8.828125-8.824219 8.828125zm0 0" fill="#c03a2b"/><path d="m189.242188 326.632812c-55.386719 0-90.042969-10.59375-102.949219-31.515624-6.277344-10.371094-7.046875-23.171876-2.054688-34.222657 2.179688-4.363281 7.480469-6.132812 11.84375-3.953125 4.363281 2.175782 6.136719 7.480469 3.957031 11.84375-2.351562 5.644532-1.824218 12.078125 1.410157 17.269532 5.4375 8.5625 24.082031 22.949218 87.792969 22.949218 64.0625 0 82.582031-14.503906 87.929687-23.144531 3.117187-5.15625 3.589844-11.488281 1.273437-17.046875-2.179687-4.363281-.410156-9.667969 3.953126-11.847656 4.363281-2.179688 9.667968-.40625 11.847656 3.957031 4.988281 11.050781 4.21875 23.847656-2.058594 34.222656-12.90625 20.894531-47.5625 31.488281-102.945312 31.488281zm0 0" fill="#2c3e50"/></svg>