<svg height="512pt" viewBox="-42 0 512 512" width="512pt" xmlns="http://www.w3.org/2000/svg"><path d="m178.984375 344.277344h70.617187v70.621094h-70.617187zm0 0" fill="#285680"/><path d="m355.535156 167.722656s0-31.839844 45.347656-57.722656c2.042969-1.195312 4.480469-1.523438 6.773438-.917969 2.289062.609375 4.242188 2.105469 5.425781 4.160157 13.445313 23.585937 45.628907 98.539062-57.546875 142.757812h-282.484375c-103.175781-44.21875-70.992187-119.171875-57.546875-142.757812 1.183594-2.054688 3.136719-3.550782 5.425782-4.160157 2.289062-.605469 4.730468-.277343 6.773437.917969 45.347656 25.882812 45.347656 57.722656 45.347656 57.722656zm0 0" fill="#7ed09e"/><path d="m355.535156 88.277344v35.308594c-32.839844-44.136719-79.449218-83.683594-141.242187-18.625-61.792969-65.058594-108.402344-25.511719-141.242188 18.625v-35.308594c0-48.753906 39.523438-88.277344 88.277344-88.277344h105.929687c23.414063 0 45.867188 9.300781 62.421876 25.855469 16.554687 16.554687 25.855468 39.007812 25.855468 62.421875zm0 0" fill="#2c3e50"/><path d="m355.535156 123.585938v150.070312c0 23.410156-9.300781 45.863281-25.855468 62.417969-16.554688 16.554687-39.007813 25.855469-62.421876 25.855469h-105.929687c-48.753906 0-88.277344-39.519532-88.277344-88.273438v-150.070312c32.839844-44.136719 79.449219-83.683594 141.242188-18.625 61.792969-65.058594 108.402343-25.511719 141.242187 18.625zm0 0" fill="#71c285"/><path d="m337.878906 138.027344v140.976562c0 45.773438-34.605468 82.925782-77.242187 82.925782h-92.6875c-42.636719 0-77.242188-37.152344-77.242188-82.925782v-140.976562c28.734375-41.488282 69.515625-78.566406 123.585938-17.496094 54.070312-61.113281 94.851562-23.964844 123.585937 17.496094zm0 0" fill="#bbd1b5"/><path d="m214.292969 397.242188v44.136718c-5.976563-.003906-11.925781.859375-17.65625 2.558594-19.8125 7.1875-35.78125 22.230469-44.136719 41.578125v-123.585937h35.308594v44.140624zm0 0" fill="#2980ba"/><path d="m214.292969 397.242188v44.136718c5.976562-.003906 11.925781.859375 17.65625 2.558594 19.8125 7.1875 35.78125 22.230469 44.136719 41.578125v-123.585937h-35.308594v44.140624zm0 0" fill="#4482c3"/><path d="m196.636719 443.9375v50.40625c-.027344 9.738281-7.914063 17.628906-17.652344 17.65625h-8.828125c-9.738281-.027344-17.628906-7.917969-17.65625-17.65625v-8.828125c8.355469-19.347656 24.324219-34.390625 44.136719-41.578125zm0 0" fill="#bbd1b5"/><path d="m276.085938 485.515625v8.828125c-.027344 9.738281-7.917969 17.628906-17.65625 17.65625h-8.828126c-9.738281-.027344-17.625-7.917969-17.652343-17.65625v-50.40625c19.8125 7.1875 35.78125 22.230469 44.136719 41.578125zm0 0" fill="#bbd1b5"/><path d="m152.5 414.898438v13.238281c0 12.191406-9.882812 22.070312-22.070312 22.070312s-22.066407-9.878906-22.066407-22.070312v-13.238281zm0 0" fill="#bbd1b5"/><path d="m152.5 361.929688v52.96875h-44.136719v-17.65625c0-19.503907 15.808594-35.3125 35.308594-35.3125zm0 0" fill="#285680"/><path d="m276.085938 414.898438v13.238281c0 12.191406 9.878906 22.070312 22.070312 22.070312 12.1875 0 22.066406-9.878906 22.066406-22.070312v-13.238281zm0 0" fill="#bbd1b5"/><path d="m276.085938 361.929688v52.96875h44.136718v-17.65625c0-19.503907-15.808594-35.3125-35.308594-35.3125zm0 0" fill="#285680"/><g fill="#4c8056"><path d="m28.914062 185.378906c-4.546874-.007812-8.34375-3.46875-8.773437-7.996094-.425781-4.53125 2.65625-8.640624 7.121094-9.5 1.375-2.785156 1.949219-5.894531 1.652343-8.984374 0-4.878907 3.953126-8.828126 8.828126-8.828126s8.828124 3.949219 8.828124 8.828126c0 26.179687-16.933593 26.480468-17.65625 26.480468zm0 0"/><path d="m46.570312 203.035156c-4.878906 0-8.828124-3.953125-8.828124-8.828125.390624-7.3125-1.863282-14.519531-6.347657-20.304687-3.300781-3.527344-3.183593-9.042969.265625-12.429688 3.414063-3.402344 8.941406-3.402344 12.355469 0 7.839844 9.054688 11.910156 20.769532 11.378906 32.734375 0 4.875-3.949219 8.828125-8.824219 8.828125zm0 0"/><path d="m399.671875 185.378906c-.722656 0-17.65625-.300781-17.65625-26.480468 0-4.878907 3.953125-8.828126 8.828125-8.828126s8.828125 3.949219 8.828125 8.828126c-.300781 3.089843.273437 6.203124 1.660156 8.984374 4.46875.859376 7.550781 4.972657 7.121094 9.503907-.429687 4.527343-4.230469 7.988281-8.78125 7.992187zm0 0"/><path d="m382.015625 203.035156c-4.875 0-8.828125-3.953125-8.828125-8.828125-.515625-11.964843 3.566406-23.675781 11.414062-32.722656 3.464844-3.15625 8.792969-3.054687 12.132813.230469 3.34375 3.285156 3.535156 8.609375.441406 12.125-4.476562 5.816406-6.722656 13.039062-6.332031 20.367187 0 4.875-3.953125 8.828125-8.828125 8.828125zm0 0"/></g><path d="m185.25 185.113281c4.132812 6.878907 3.105469 15.675781-2.496094 21.421875-5.601562 5.742188-14.371094 6.988282-21.347656 3.027344-6.980469-3.957031-10.410156-12.125-8.355469-19.878906 2.054688-7.753906 9.082031-13.148438 17.105469-13.132813 1.894531.007813 3.773438.335938 5.558594.972657" fill="#2c3e50"/><path d="m196.636719 203.035156c-2 0-3.945313-.683594-5.507813-1.933594l-44.136718-35.3125c-3.808594-3.046874-4.425782-8.601562-1.378907-12.410156s8.605469-4.421875 12.414063-1.375l44.136718 35.308594c2.929688 2.34375 4.058594 6.28125 2.816407 9.820312-1.246094 3.539063-4.589844 5.90625-8.34375 5.902344zm0 0" fill="#4c8056"/><path d="m252.871094 177.523438c1.785156-.636719 3.664062-.964844 5.558594-.972657 8.074218-.039062 15.15625 5.375 17.234374 13.175781 2.078126 7.796876-1.367187 16.019532-8.390624 20-7.019532 3.984376-15.847657 2.726563-21.472657-3.0625-5.628906-5.785156-6.640625-14.640624-2.464843-21.550781" fill="#2c3e50"/><path d="m231.949219 203.035156c-3.753907.003906-7.097657-2.363281-8.34375-5.902344-1.242188-3.539062-.113281-7.476562 2.816406-9.820312l44.136719-35.308594c2.464844-1.972656 5.792968-2.480468 8.730468-1.332031s5.042969 3.773437 5.515626 6.894531c.476562 3.117188-.746094 6.253906-3.210938 8.222656l-44.136719 35.3125c-1.5625 1.25-3.507812 1.933594-5.507812 1.933594zm0 0" fill="#4c8056"/><path d="m293.742188 286.898438c0-21.941407-35.570313-39.726563-79.449219-39.726563-43.878907 0-79.449219 17.785156-79.449219 39.726563 0 21.9375 35.570312 39.722656 79.449219 39.722656 43.878906 0 79.449219-17.785156 79.449219-39.722656zm0 0" fill="#2c3e50"/><path d="m205.464844 247.261719-21.910156 36.4375c-.863282 1.433593-2.464844 2.253906-4.132813 2.121093-1.667969-.136718-3.117187-1.203124-3.742187-2.753906l-12.941407-32.273437c14.046875-2.902344 28.394531-4.089844 42.726563-3.53125zm0 0" fill="#fff"/><path d="m223.121094 247.261719 21.910156 36.4375c.863281 1.433593 2.464844 2.253906 4.132812 2.121093 1.667969-.136718 3.117188-1.203124 3.742188-2.753906l12.941406-32.273437c-14.046875-2.902344-28.394531-4.089844-42.726562-3.53125zm0 0" fill="#fff"/></svg>