<svg height="512pt" viewBox="0 0 512 512.00063" width="512pt" xmlns="http://www.w3.org/2000/svg"><path d="m401.566406 114.757812h13.332032c25.757812-.011718 50.464843 10.214844 68.675781 28.425782 18.214843 18.214844 28.441406 42.921875 28.425781 68.679687v176.550781c.015625 25.757813-10.210938 50.464844-28.425781 68.679688-18.210938 18.210938-42.917969 28.4375-68.675781 28.425781h-317.792969c-25.757813.011719-50.464844-10.214843-68.679688-28.425781-18.214843-18.214844-28.441406-42.921875-28.425781-68.679688v-176.550781c-.015625-25.757812 10.210938-50.464843 28.425781-68.679687 18.214844-18.210938 42.921875-28.4375 68.679688-28.425782zm0 0" fill="#e57e25"/><path d="m282.128906 94.101562-26.128906 55.96875-23.039062-53.585937c6.621093-26.921875 25.070312-76.09375 73.710937-95.601563 1.484375-.597656 3.074219-.898437 4.675781-.882812 3.179688-.0078125 6.230469 1.253906 8.46875 3.511719 2.242188 2.257812 3.484375 5.316406 3.449219 8.496093.003906 3.128907-1.269531 6.128907-3.53125 8.296876-20.757813 19.460937-34.058594 45.566406-37.605469 73.796874zm0 0" fill="#4c8056"/><path d="m88.277344 176.550781c-.023438-25.757812 10.203125-50.46875 28.417968-68.683593 18.214844-18.214844 42.925782-28.441407 68.683594-28.417969 15.597656-.132813 30.832032 4.722656 43.476563 13.859375 16.3125 10.605468 26.4375 28.488281 27.144531 47.933594.703125-19.441407 10.828125-37.324219 27.136719-47.933594 12.644531-9.136719 27.882812-13.996094 43.484375-13.859375 25.761718-.023438 50.472656 10.203125 68.6875 28.417969 18.214844 18.214843 28.4375 42.925781 28.414062 68.683593l-7.722656 262.179688c-.316406 12.902343-4.71875 25.367187-12.578125 35.601562-3.085937 3.988281-6.480469 7.730469-10.152344 11.1875-18.003906 17.035157-41.859375 26.515625-66.648437 26.480469h-141.242188c-30.03125-.070312-58.359375-13.964844-76.800781-37.667969-7.855469-10.234375-12.261719-22.699219-12.578125-35.601562zm0 0" fill="#f29c1f"/><g fill="#2c3e50"><path d="m139.917969 201.949219 77.136719 23.738281c7.40625 2.277344 12.460937 9.121094 12.460937 16.867188v23.6875c0 9.179687-7.039063 16.828124-16.1875 17.589843l-72.28125 6.023438c-9.664063.804687-18.171875-6.335938-19.050781-15.996094l-4.855469-53.433594c-.53125-5.863281 1.890625-11.605469 6.460937-15.3125 4.570313-3.710937 10.691407-4.894531 16.316407-3.164062zm0 0"/><path d="m372.082031 201.949219-77.132812 23.738281c-7.410157 2.277344-12.464844 9.121094-12.464844 16.867188v23.6875c0 9.179687 7.039063 16.828124 16.1875 17.589843l72.28125 6.023438c9.664063.804687 18.171875-6.335938 19.050781-15.996094l4.855469-53.433594c.53125-5.863281-1.890625-11.605469-6.460937-15.3125-4.570313-3.710937-10.691407-4.894531-16.316407-3.164062zm0 0"/><path d="m312.761719 340.480469 2.558593 15.535156c1.445313 8.488281 8.78125 14.710937 17.390626 14.742187h5.472656c8.613281-.03125 15.949218-6.253906 17.390625-14.742187l4.328125-26.039063 35.664062-7.855468c5.277344-1.164063 10.800782.15625 14.984375 3.582031 4.179688 3.425781 6.5625 8.578125 6.464844 13.984375-.441406 24.363281-9.796875 63.910156-59.675781 91.628906l-1.765625-10.503906c-1.441407-8.488281-8.777344-14.710938-17.390625-14.742188h-5.472656c-8.609376.03125-15.945313 6.253907-17.390626 14.742188l-4.765624 28.601562c-2.972657.527344-5.984376.792969-9.003907.792969h-21.980469l-3.441406-20.566406c-1.445312-8.488281-8.78125-14.710937-17.390625-14.742187h-5.472656c-8.613281.03125-15.949219 6.253906-17.390625 14.742187l-3.445312 20.566406h-21.980469c-3.019531 0-6.03125-.265625-9.003907-.792969l-4.765624-28.601562c-1.441407-8.488281-8.78125-14.710938-17.390626-14.742188h-5.472656c-8.609375.03125-15.949218 6.253907-17.390625 14.742188l-1.765625 10.503906c-49.875-27.71875-59.234375-67.265625-59.675781-91.628906-.097656-5.40625 2.285156-10.558594 6.46875-13.984375 4.179687-3.425781 9.703125-4.746094 14.984375-3.582031l35.664062 7.855468 4.324219 26.039063c1.441407 8.488281 8.78125 14.710937 17.390625 14.742187h5.472656c8.609376-.03125 15.949219-6.253906 17.390626-14.742187l2.558593-15.535156 33.546875 6.003906 3.089844 18.359375c1.441406 8.488281 8.777344 14.710938 17.390625 14.742188h5.472656c8.609375-.03125 15.945313-6.253907 17.390625-14.742188l3.089844-18.359375zm0 0"/></g><path d="m44.324219 167.355469c11.070312 0 20.046875 8.972656 20.046875 20.046875v91.214844c0 11.070312-8.976563 20.046874-20.046875 20.046874-11.074219 0-20.046875-8.976562-20.046875-20.046874v-91.214844c0-11.074219 8.972656-20.046875 20.046875-20.046875zm0 0" fill="#f29c1f"/><path d="m469.371094 167.355469c11.074218 0 20.046875 8.972656 20.046875 20.046875v91.214844c0 11.070312-8.972657 20.046874-20.046875 20.046874-11.070313 0-20.046875-8.976562-20.046875-20.046874v-91.214844c0-11.074219 8.976562-20.046875 20.046875-20.046875zm0 0" fill="#f29c1f"/></svg>