<svg height="512pt" viewBox="-74 0 512 512.1" width="512pt" xmlns="http://www.w3.org/2000/svg"><path d="m120.625 467.898438v26.5c0 9.703124 7.902344 17.601562 17.703125 17.703124h8.796875c9.703125 0 17.601562-7.902343 17.703125-17.703124v-49.199219" fill="#bbd1b5"/><path d="m244.226562 467.898438v26.5c0 9.703124-7.898437 17.601562-17.699218 17.703124h-8.800782c-9.699218 0-17.601562-7.902343-17.699218-17.703124v-49.199219" fill="#bbd1b5"/><path d="m314.828125 313.398438s7.597656 75.902343 43.898437 86.902343c2.398438.699219 4.398438 2.5 5.398438 4.800781 1 2.296876 1 5-.097656 7.296876-7.101563 13.902343-26.199219 34.300781-75.699219 15.800781h-211.800781c-49.402344 18.5-68.601563-1.898438-75.601563-15.800781-1.097656-2.296876-1.199219-4.898438-.097656-7.296876 1-2.300781 3-4.101562 5.398437-4.800781 36.300782-11 43.898438-86.902343 43.898438-86.902343zm0 0" fill="#59474e"/><path d="m182.425781 361.898438v70.703124l-61.800781 44.097657v-114.800781zm0 0" fill="#285680"/><path d="m244.226562 361.898438v114.800781l-61.800781-44.097657v-70.703124zm0 0" fill="#2980ba"/><path d="m120.625 414.898438v13.203124c0 12.199219-9.898438 22.097657-22.097656 22.097657-12.199219 0-22.101563-9.898438-22.101563-22.097657v-13.203124zm0 0" fill="#bbd1b5"/><path d="m120.625 361.898438v53h-44.097656v-17.699219c0-19.5 15.800781-35.300781 35.300781-35.300781zm0 0" fill="#2c3e50"/><path d="m244.226562 414.898438v13.203124c0 12.199219 9.898438 22.097657 22.101563 22.097657 12.199219 0 22.097656-9.898438 22.097656-22.097657v-13.203124zm0 0" fill="#bbd1b5"/><path d="m244.226562 361.898438v53h44.101563v-17.699219c0-19.5-15.800781-35.300781-35.300781-35.300781zm0 0" fill="#2c3e50"/><path d="m315.726562 193.101562c5.300782 11.398438 8 23.796876 7.898438 36.398438v44.101562c0 23.398438-9.296875 45.898438-25.898438 62.398438-16.601562 16.601562-39 25.898438-62.398437 25.898438h-105.902344c-48.800781 0-88.300781-39.5-88.300781-88.296876v-44.101562c0-12.601562 2.703125-25 7.902344-36.398438" fill="#9bc8c2"/><path d="m299.027344 193.101562c4.597656 11.597657 7 23.898438 7 36.398438v44.101562c0 48.699219-34.601563 88.296876-77.199219 88.296876h-92.703125c-42.597656 0-77.199219-39.5-77.199219-88.296876v-44.101562c0-12.5 2.300781-24.800781 6.902344-36.398438" fill="#bbd1b5"/><g fill="#2c3e50"><path d="m156.027344 247.199219c0 9.777343-7.925782 17.699219-17.699219 17.699219-9.777344 0-17.703125-7.921876-17.703125-17.699219 0-9.773438 7.925781-17.699219 17.703125-17.699219 9.773437 0 17.699219 7.925781 17.699219 17.699219zm0 0"/><path d="m244.226562 247.199219c0 9.777343-7.925781 17.699219-17.699218 17.699219-9.777344 0-17.699219-7.921876-17.699219-17.699219 0-9.773438 7.921875-17.699219 17.699219-17.699219 9.773437 0 17.699218 7.925781 17.699218 17.699219zm0 0"/><path d="m191.226562 326.601562h-17.699218c-66.199219 0-77.902344-29.203124-79-32.5-1-3-.300782-6.300781 1.800781-8.703124 2.097656-2.398438 5.296875-3.398438 8.398437-2.796876 3.101563.597657 5.601563 2.898438 6.601563 5.898438 0 0 9.097656 20.398438 62.199219 20.398438h17.699218c53.101563 0 62.199219-20.199219 62.300782-20.398438 1-3 3.5-5.199219 6.597656-5.898438 3.101562-.601562 6.300781.398438 8.402344 2.796876 2.097656 2.402343 2.800781 5.703124 1.800781 8.703124-1.203125 3.296876-12.902344 32.5-79.101563 32.5zm0 0"/></g><path d="m182.425781 335.398438c-7.199219 0-13.699219-4.398438-16.398437-11.097657l-9.699219-30.402343c-1.5-4.597657 1.097656-9.597657 5.699219-11.097657 4.597656-1.5 9.597656 1.097657 11.097656 5.699219l9.5 29.800781 9.101562-29.699219c1-3 3.398438-5.300781 6.5-5.902343 3.101563-.699219 6.300782.300781 8.398438 2.699219 2.101562 2.300781 2.800781 5.601562 1.902344 8.601562l-9.5 29.800781c-2.5 7-9.199219 11.597657-16.601563 11.597657zm0 0" fill="#4c8056"/><path d="m23.527344 141.199219h326.597656v8.800781c0 11.699219-4.699219 22.898438-12.898438 31.199219-8.300781 8.300781-19.5 12.902343-31.199218 12.902343h-247.199219c-24.402344 0-44.101563-19.800781-44.101563-44.101562 0-2.300781.898438-4.601562 2.601563-6.199219 1.597656-1.601562 3.898437-2.601562 6.199219-2.601562zm0 0" fill="#2c3e50"/><path d="m85.328125 141.199219 53-97.097657 52.898437-44.101562 114.800782 70.601562h-70.601563l35.300781 70.597657" fill="#35495e"/></svg>