<svg height="512pt" viewBox="-62 0 512 512" width="512pt" xmlns="http://www.w3.org/2000/svg"><path d="m58.941406 283.277344c-14.070312-36.453125-20.265625-75.472656-18.1875-114.492188 5.210938-90.925781 76.183594-168.785156 171.960938-168.785156 94.988281 0 172.140625 70.089844 172.140625 156.335938 0 44.667968-27.191407 83.066406-52.613281 125.707031l-24.628907 46.871093c-21.273437 48.640626-29.574219 105.757813 7.769531 183.085938-4.152343-1.675781-8.300781-3.355469-12.449218-5.121094-46.21875-18.753906-89.882813-43.28125-129.941406-73.003906-36.835938-27.875-67.820313-62.730469-91.1875-102.574219zm0 0" fill="#7ed09e" fill-rule="evenodd"/><path d="m283.125 478.835938c-35.167969-16.054688-68.511719-35.84375-99.453125-59.023438-34.769531-26.320312-64.066406-59.175781-86.242187-96.722656l-22.230469-46.699219c-13.035157-33.933594-18.753907-70.242187-16.769531-106.539063 4.835937-85.371093 72.621093-152.195312 154.285156-152.195312 85.1875 0 154.484375 62.207031 154.484375 138.679688 0 34.226562-18.828125 65.15625-40.605469 100.96875-3.160156 5.183593-6.339844 10.410156-9.492188 15.695312l-25.386718 48.261719-.257813.574219c-22.839843 49.320312-25.824219 105.539062-8.332031 157zm0 0" fill="#bbd1b5" fill-rule="evenodd"/><path d="m93.28125 319.636719-53.65625 30.660156c-12.699219 7.253906-28.875 2.84375-36.132812-9.851563-7.253907-12.699218-2.84375-28.875 9.851562-36.132812l53.65625-30.65625" fill="#7ed09e"/><path d="m295.722656 319.636719 53.652344 30.660156c12.691406 7.230469 28.839844 2.824219 36.097656-9.851563 7.257813-12.699218 2.84375-28.875-9.851562-36.132812l-53.617188-30.65625" fill="#7ed09e"/><path d="m120.414062 70.621094-18.308593 49.699218 39.238281-4.359374 2.183594 19.621093 56.671875-26.164062zm0 0" fill="#527f72"/><path d="m311.914062 70.621094 18.304688 49.699218-39.238281-4.359374-2.179688 19.621093-56.671875-26.164062zm0 0" fill="#527f72"/><path d="m177.035156 250.878906-27.992187 33.371094-5.957031-2.4375c-60.1875-24.621094-36.777344-109.242188-35.753907-112.835938l4.574219-15.984374 34.523438 41.214843 30.605468-36.519531 30.605469 36.519531 30.605469-36.519531 30.613281 36.519531 34.515625-41.191406 4.574219 15.988281c1.03125 3.59375 24.433593 88.214844-35.742188 112.835938l-5.96875 2.433594-27.992187-33.394532-30.605469 36.519532zm0 0" fill="#71c285"/><path d="m238.246094 237.144531-30.605469 36.511719-30.605469-36.511719-30.605468 36.511719c-53.554688-21.910156-30.605469-102.234375-30.605469-102.234375l30.605469 36.511719 30.605468-36.511719 30.605469 36.511719 30.605469-36.511719 30.605468 36.511719 30.605469-36.511719s22.949219 80.332031-30.605469 102.234375zm0 0" fill="#527f72"/></svg>