<svg height="512pt" viewBox="0 0 512 512.00063" width="512pt" xmlns="http://www.w3.org/2000/svg"><path d="m401.566406 114.757812h13.332032c25.757812-.011718 50.464843 10.214844 68.675781 28.425782 18.214843 18.214844 28.441406 42.921875 28.425781 68.679687v176.550781c.015625 25.757813-10.210938 50.464844-28.425781 68.679688-18.210938 18.210938-42.917969 28.4375-68.675781 28.425781h-317.792969c-25.757813.011719-50.464844-10.214843-68.679688-28.425781-18.214843-18.214844-28.441406-42.921875-28.425781-68.679688v-176.550781c-.015625-25.757812 10.210938-50.464843 28.425781-68.679687 18.214844-18.210938 42.921875-28.4375 68.679688-28.425782zm0 0" fill="#e57e25"/><path d="m282.128906 94.101562-26.128906 55.96875-23.039062-53.585937c6.621093-26.921875 25.070312-76.09375 73.710937-95.601563 1.484375-.597656 3.074219-.898437 4.675781-.882812 3.179688-.0078125 6.230469 1.253906 8.46875 3.511719 2.242188 2.257812 3.484375 5.316406 3.449219 8.496093.003906 3.128907-1.269531 6.128907-3.53125 8.296876-20.757813 19.460937-34.058594 45.566406-37.605469 73.796874zm0 0" fill="#4c8056"/><g fill="#f29c1f"><path d="m88.277344 176.550781c-.023438-25.757812 10.203125-50.46875 28.417968-68.683593 18.214844-18.214844 42.925782-28.441407 68.683594-28.417969 15.597656-.132813 30.832032 4.722656 43.476563 13.859375 16.3125 10.605468 26.4375 28.488281 27.144531 47.933594.703125-19.441407 10.828125-37.324219 27.136719-47.933594 12.644531-9.136719 27.882812-13.996094 43.484375-13.859375 25.761718-.023438 50.472656 10.203125 68.6875 28.417969 18.214844 18.214843 28.4375 42.925781 28.414062 68.683593l-7.722656 262.179688c-.316406 12.902343-4.71875 25.367187-12.578125 35.601562-3.085937 3.988281-6.480469 7.730469-10.152344 11.1875-18.003906 17.035157-41.859375 26.515625-66.648437 26.480469h-141.242188c-30.03125-.070312-58.359375-13.964844-76.800781-37.667969-7.855469-10.234375-12.261719-22.699219-12.578125-35.601562zm0 0"/><path d="m44.324219 167.355469c11.070312 0 20.046875 8.972656 20.046875 20.046875v91.214844c0 11.070312-8.976563 20.046874-20.046875 20.046874-11.074219 0-20.046875-8.976562-20.046875-20.046874v-91.214844c0-11.074219 8.972656-20.046875 20.046875-20.046875zm0 0"/><path d="m469.371094 167.355469c11.074218 0 20.046875 8.972656 20.046875 20.046875v91.214844c0 11.070312-8.972657 20.046874-20.046875 20.046874-11.070313 0-20.046875-8.976562-20.046875-20.046874v-91.214844c0-11.074219 8.976562-20.046875 20.046875-20.046875zm0 0"/></g><path d="m238.34375 211.863281v97.101563c0 9.75-7.902344 17.65625-17.652344 17.65625-9.753906 0-17.65625-7.90625-17.65625-17.65625s-7.90625-17.652344-17.65625-17.652344-17.65625 7.902344-17.65625 17.652344v17.65625c0 9.75-7.902344 17.65625-17.652344 17.65625s-17.65625-7.90625-17.65625-17.65625v-105.929688h.792969zm0 0" fill="#c03a2b"/><path d="m273.65625 211.863281v97.101563c0 9.75 7.902344 17.65625 17.65625 17.65625 9.75 0 17.652344-7.90625 17.652344-17.65625s7.90625-17.652344 17.65625-17.652344 17.65625 7.902344 17.65625 17.652344v17.65625c0 9.75 7.902344 17.65625 17.652344 17.65625 9.753906 0 17.65625-7.90625 17.65625-17.65625v-105.929688h-.792969zm0 0" fill="#c03a2b"/><path d="m232.429688 370.757812h-47.050782c-24.375 0-44.136718 19.761719-44.136718 44.140626 0 24.375 19.761718 44.136718 44.136718 44.136718h2.914063l3.441406-20.570312c1.441406-8.488282 8.78125-14.707032 17.390625-14.738282h5.472656c8.609375.03125 15.949219 6.25 17.390625 14.738282l3.445313 20.570312h39.722656l4.855469-29.394531c1.441406-8.488281 8.78125-14.710937 17.390625-14.742187h5.472656c8.609375.03125 15.949219 6.253906 17.390625 14.742187l4.855469 29.394531h1.5c24.375 0 44.136718-19.761718 44.136718-44.136718 0-24.378907-19.761718-44.140626-44.136718-44.140626zm0 0" fill="#2c3e50"/><path d="m238.34375 211.863281c0 29.25-23.710938 52.964844-52.964844 52.964844-29.25 0-52.964844-23.714844-52.964844-52.964844 0-29.253906 23.714844-52.964843 52.964844-52.964843 29.253906 0 52.964844 23.710937 52.964844 52.964843zm0 0" fill="#2c3e50"/><path d="m379.585938 211.863281c0 29.25-23.710938 52.964844-52.964844 52.964844s-52.964844-23.714844-52.964844-52.964844c0-29.253906 23.710938-52.964843 52.964844-52.964843s52.964844 23.710937 52.964844 52.964843zm0 0" fill="#2c3e50"/></svg>