<svg height="512pt" viewBox="0 0 512 512" width="512pt" xmlns="http://www.w3.org/2000/svg"><path d="m370.757812 203.035156c-2.835937 0-5.5-1.363281-7.160156-3.664062-1.660156-2.300782-2.113281-5.261719-1.214844-7.953125 11.996094-35.972657 48.671876-45.628907 63.890626-48.128907 1.882812-.308593 3.789062-.589843 5.703124-.882812 6.152344-.679688 12.214844-2.003906 18.089844-3.953125 17.34375-6.570313 18.359375-25.117187 17.902344-50.601563-.054688-2.878906-.105469-5.691406-.105469-8.402343 0-4.875 3.949219-8.828125 8.828125-8.828125 4.875 0 8.824219 3.953125 8.824219 8.828125 0 2.601562.054687 5.296875.097656 8.101562.433594 23.625 1.015625 55.96875-29.289062 67.425781-7.050781 2.421876-14.34375 4.0625-21.75 4.898438-1.828125.285156-3.636719.546875-5.4375.839844-12.058594 1.976562-41.058594 9.445312-50 36.28125-1.203125 3.605468-4.578125 6.039062-8.378907 6.039062zm0 0" fill="#35495e"/><path d="m379.585938 291.308594c79.449218-8.824219 61.792968-88.273438 61.792968-88.273438s52.964844 0 70.621094 88.273438c0 0-52.964844-17.652344-35.308594 44.140625 0 0-61.792968-26.484375-44.140625 61.792969 0 0-39.371093-39.371094-73.53125-13.859376h-206.039062c-34.160157-25.511718-73.53125 13.859376-73.53125 13.859376 17.652343-88.277344-44.140625-61.792969-44.140625-61.792969 17.65625-61.792969-35.308594-44.140625-35.308594-44.140625 17.65625-88.273438 70.621094-88.273438 70.621094-88.273438s-17.65625 79.449219 61.792968 88.273438zm0 0" fill="#2c3e50"/><path d="m220.691406 344.277344h70.617188v70.621094h-70.617188zm0 0" fill="#285680"/><path d="m256 397.242188v44.136718c-5.976562-.003906-11.925781.859375-17.65625 2.558594-19.8125 7.1875-35.78125 22.230469-44.136719 41.578125v-123.585937h35.308594v44.140624zm0 0" fill="#2980ba"/><path d="m256 397.242188v44.136718c5.976562-.003906 11.925781.859375 17.65625 2.558594 19.8125 7.1875 35.78125 22.230469 44.136719 41.578125v-123.585937h-35.308594v44.140624zm0 0" fill="#4482c3"/><g fill="#bbd1b5"><path d="m238.34375 443.9375v50.40625c-.027344 9.738281-7.914062 17.628906-17.652344 17.65625h-8.828125c-9.738281-.027344-17.628906-7.917969-17.65625-17.65625v-8.828125c8.355469-19.347656 24.324219-34.390625 44.136719-41.578125zm0 0"/><path d="m317.792969 485.515625v8.828125c-.027344 9.738281-7.917969 17.628906-17.65625 17.65625h-8.828125c-9.738282-.027344-17.625-7.917969-17.652344-17.65625v-50.40625c19.8125 7.1875 35.78125 22.230469 44.136719 41.578125zm0 0"/><path d="m194.207031 414.898438v13.238281c0 12.191406-9.878906 22.070312-22.070312 22.070312-12.1875 0-22.066407-9.878906-22.066407-22.070312v-13.238281zm0 0"/></g><path d="m194.207031 361.929688v52.96875h-44.136719v-17.65625c0-19.503907 15.808594-35.3125 35.308594-35.3125zm0 0" fill="#285680"/><path d="m317.792969 414.898438v13.238281c0 12.191406 9.878906 22.070312 22.070312 22.070312 12.1875 0 22.066407-9.878906 22.066407-22.070312v-13.238281zm0 0" fill="#bbd1b5"/><path d="m317.792969 361.929688v52.96875h44.136719v-17.65625c0-19.503907-15.808594-35.3125-35.308594-35.3125zm0 0" fill="#285680"/><path d="m220.691406 0h70.617188c48.753906 0 88.277344 39.523438 88.277344 88.277344v185.378906c0 48.753906-39.523438 88.273438-88.277344 88.273438h-70.617188c-48.753906 0-88.277344-39.519532-88.277344-88.273438v-185.378906c0-48.753906 39.523438-88.277344 88.277344-88.277344zm0 0" fill="#7ed09e"/><path d="m238.34375 0h35.3125c48.753906 0 88.273438 39.523438 88.273438 88.277344v167.722656c0 48.753906-39.519532 88.277344-88.273438 88.277344h-35.3125c-48.753906 0-88.273438-39.523438-88.273438-88.277344v-167.722656c0-48.753906 39.519532-88.277344 88.273438-88.277344zm0 0" fill="#bbd1b5"/><path d="m229.515625 194.207031c0 9.75-7.902344 17.65625-17.652344 17.65625s-17.65625-7.90625-17.65625-17.65625 7.90625-17.65625 17.65625-17.65625 17.652344 7.90625 17.652344 17.65625zm0 0" fill="#2c3e50"/><path d="m317.792969 194.207031c0 9.75-7.90625 17.65625-17.65625 17.65625s-17.652344-7.90625-17.652344-17.65625 7.902344-17.65625 17.652344-17.65625 17.65625 7.90625 17.65625 17.65625zm0 0" fill="#2c3e50"/><path d="m176.550781 247.171875 22.539063 45.074219c.746094 1.492187 2.273437 2.4375 3.945312 2.4375 1.667969 0 3.195313-.945313 3.945313-2.4375l22.535156-45.074219zm0 0" fill="#fff"/><path d="m282.484375 247.171875 22.535156 45.074219c.75 1.492187 2.277344 2.4375 3.945313 2.4375 1.671875 0 3.199218-.945313 3.945312-2.4375l22.539063-45.074219zm0 0" fill="#fff"/><path d="m512 97.101562-35.308594-17.652343-35.3125 17.652343 35.3125-97.101562zm0 0" fill="#2c3e50"/><path d="m379.585938 105.929688v35.3125c-28.6875-44.140626-69.472657-83.6875-123.585938-18.628907-54.023438-65.058593-94.898438-25.511719-123.585938 18.628907v-35.3125c0-48.753907 39.523438-88.273438 88.277344-88.273438h70.617188c48.753906 0 88.277344 39.519531 88.277344 88.273438zm0 0" fill="#7ed09e"/><path d="m344.277344 256h-176.554688c-4.875 0-8.824218-3.953125-8.824218-8.828125s3.949218-8.828125 8.824218-8.828125h176.554688c4.875 0 8.824218 3.953125 8.824218 8.828125s-3.949218 8.828125-8.824218 8.828125zm0 0" fill="#2c3e50"/><path d="m379.585938 88.277344v35.308594c-28.6875-44.136719-69.472657-83.683594-123.585938-18.625-54.023438-65.058594-94.898438-25.511719-123.585938 18.625v-35.308594c0-48.753906 39.523438-88.277344 88.277344-88.277344h70.617188c48.753906 0 88.277344 39.523438 88.277344 88.277344zm0 0" fill="#2c3e50"/></svg>