<svg height="512pt" viewBox="-44 0 512 512" width="512pt" xmlns="http://www.w3.org/2000/svg"><path d="m392.652344 254.058594c18.488281-5.730469 31.085937-22.839844 31.070312-42.195313v-8.828125c0-24.378906-19.757812-44.136718-44.136718-44.136718h-26.484376v43.605468h-282.480468v-43.605468h-26.484375c-24.375 0-44.136719 19.757812-44.136719 44.136718v8.828125c-.015625 19.355469 12.582031 36.464844 31.074219 42.195313zm0 0" fill="#4c8056"/><path d="m397.242188 273.65625v150.066406c0 48.753906-39.523438 88.277344-88.277344 88.277344h-79.449219c-9.738281-.027344-17.625-7.917969-17.652344-17.65625-.03125 9.738281-7.917969 17.628906-17.65625 17.65625h-79.449219c-48.753906 0-88.273437-39.523438-88.273437-88.277344v-150.066406c.011719-16.605469 9.316406-31.808594 24.097656-39.371094 12.144531-5.960937 19.894531-18.253906 20.039063-31.78125v-158.367187c0-24.375 19.761718-44.136719 44.136718-44.136719h194.207032c11.707031 0 22.933594 4.648438 31.210937 12.925781 8.277344 8.28125 12.925781 19.507813 12.925781 31.210938v158.367187c.148438 13.527344 7.898438 25.820313 20.039063 31.78125 14.785156 7.5625 24.089844 22.765625 24.101563 39.371094zm0 0" fill="#4fba6f"/><path d="m379.585938 273.65625v150.066406c0 48.730469-35.75 88.277344-79.890626 88.277344h-70.179687c-9.738281-.027344-17.625-7.917969-17.652344-17.65625-.03125 9.738281-7.917969 17.628906-17.65625 17.65625h-70.179687c-44.136719 0-79.890625-39.546875-79.890625-88.277344v-150.066406c-.304688-16.082031 8.011719-31.101562 21.804687-39.371094 11.320313-6.558594 18.234375-18.699218 18.097656-31.78125v-158.367187c-1.074218-23.203125 16.789063-42.921875 39.988282-44.136719h175.667968c23.199219 1.214844 41.066407 20.933594 39.988282 44.136719v158.367187c-.136719 13.082032 6.777344 25.222656 18.097656 31.78125 13.796875 8.269532 22.113281 23.289063 21.804688 39.371094zm0 0" fill="#71c285"/><path d="m300.136719 207.449219c0 17.0625-13.832031 30.894531-30.894531 30.894531-17.066407 0-30.898438-13.832031-30.898438-30.894531 0-17.066407 13.832031-30.898438 30.898438-30.898438 17.0625 0 30.894531 13.832031 30.894531 30.898438zm0 0" fill="#f0c419"/><path d="m308.964844 185.378906h-79.449219c-4.875 0-8.824219-3.953125-8.824219-8.828125s3.949219-8.828125 8.824219-8.828125h79.449219c4.875 0 8.828125 3.953125 8.828125 8.828125s-3.953125 8.828125-8.828125 8.828125zm0 0" fill="#4c8056"/><path d="m185.378906 207.449219c0 17.0625-13.832031 30.894531-30.894531 30.894531-17.066406 0-30.898437-13.832031-30.898437-30.894531 0-17.066407 13.832031-30.898438 30.898437-30.898438 17.0625 0 30.894531 13.832031 30.894531 30.898438zm0 0" fill="#f0c419"/><path d="m194.207031 185.378906h-79.449219c-4.875 0-8.828124-3.953125-8.828124-8.828125s3.953124-8.828125 8.828124-8.828125h79.449219c4.875 0 8.828125 3.953125 8.828125 8.828125s-3.953125 8.828125-8.828125 8.828125zm0 0" fill="#4c8056"/><path d="m220.691406 308.964844h-17.65625c-14.625 0-26.484375-11.855469-26.484375-26.480469v-17.65625c0-4.875 3.953125-8.828125 8.828125-8.828125s8.828125 3.953125 8.828125 8.828125v17.65625c0 4.875 3.953125 8.824219 8.828125 8.824219h17.65625c4.875 0 8.824219-3.949219 8.824219-8.824219v-17.65625c0-4.875 3.953125-8.828125 8.828125-8.828125s8.828125 3.953125 8.828125 8.828125v17.65625c0 14.625-11.855469 26.480469-26.480469 26.480469zm0 0" fill="#4c8056"/><path d="m141.242188 308.964844c-4.875 0-8.828126-3.953125-8.828126-8.828125 0-14.625 11.855469-26.480469 26.484376-26.480469h26.480468c4.875 0 8.828125 3.949219 8.828125 8.828125 0 4.875-3.953125 8.824219-8.828125 8.824219h-26.480468c-4.878907 0-8.828126 3.953125-8.828126 8.828125s-3.953124 8.828125-8.828124 8.828125zm0 0" fill="#4c8056"/><path d="m282.484375 308.964844c-4.875 0-8.828125-3.953125-8.828125-8.828125s-3.953125-8.828125-8.828125-8.828125h-26.484375c-4.875 0-8.828125-3.949219-8.828125-8.824219 0-4.878906 3.953125-8.828125 8.828125-8.828125h26.484375c14.625 0 26.480469 11.855469 26.480469 26.480469 0 4.875-3.949219 8.828125-8.824219 8.828125zm0 0" fill="#4c8056"/><path d="m308.964844 353.101562h-194.207032c-4.875 0-8.828124-3.949218-8.828124-8.824218s3.953124-8.828125 8.828124-8.828125h194.207032c4.875 0 8.828125 3.953125 8.828125 8.828125s-3.953125 8.824218-8.828125 8.824218zm0 0" fill="#4c8056"/><path d="m229.515625 397.242188h-35.308594c-14.625 0-26.484375-11.859376-26.484375-26.484376 0-4.875 3.953125-8.828124 8.828125-8.828124s8.828125 3.953124 8.828125 8.828124 3.953125 8.828126 8.828125 8.828126h35.308594c2.34375 0 4.589844-.929688 6.242187-2.585938 1.65625-1.65625 2.585938-3.898438 2.585938-6.242188 0-4.875 3.953125-8.828124 8.828125-8.828124s8.828125 3.953124 8.828125 8.828124c0 14.625-11.855469 26.484376-26.484375 26.484376zm0 0" fill="#4c8056"/><path d="m211.863281 485.515625v8.828125c-.03125 9.738281-7.917969 17.628906-17.65625 17.65625h-44.136719zm0 0" fill="#71c285"/><path d="m273.65625 512h-44.140625c-9.738281-.027344-17.625-7.917969-17.652344-17.65625v-8.828125zm0 0" fill="#71c285"/><g fill="#4c8056"><path d="m70.621094 105.929688h282.480468v17.65625h-282.480468zm0 0"/><path d="m105.929688 97.101562c-1.152344-.011718-2.292969-.253906-3.351563-.703124-1.070313-.449219-2.054687-1.074219-2.914063-1.855469-1.660156-1.660157-2.585937-3.917969-2.5625-6.265625-.027343-1.160156.214844-2.308594.707032-3.355469.425781-1.082031 1.058594-2.070313 1.855468-2.914063 3.539063-3.265624 8.996094-3.265624 12.535157 0 .777343.859376 1.40625 1.84375 1.851562 2.914063 1.164063 2.714844.878907 5.832031-.757812 8.289063-1.640625 2.457031-4.410157 3.921874-7.363281 3.890624zm0 0"/><path d="m105.929688 150.070312c-1.152344-.015624-2.292969-.253906-3.351563-.707031-1.070313-.449219-2.054687-1.074219-2.914063-1.855469-1.660156-1.660156-2.585937-3.917968-2.5625-6.265624-.027343-1.160157.214844-2.308594.707032-3.355469.425781-1.082031 1.058594-2.070313 1.855468-2.914063 3.539063-3.265625 8.996094-3.265625 12.535157 0 .777343.859375 1.40625 1.84375 1.851562 2.914063 1.164063 2.714843.878907 5.832031-.757812 8.292969-1.640625 2.457031-4.410157 3.917968-7.363281 3.890624zm0 0"/><path d="m141.242188 97.101562c-1.15625-.011718-2.292969-.253906-3.355469-.703124-1.070313-.449219-2.054688-1.074219-2.914063-1.855469-1.660156-1.660157-2.582031-3.917969-2.558594-6.265625-.03125-1.160156.210938-2.308594.707032-3.355469.425781-1.082031 1.054687-2.070313 1.851562-2.914063 3.542969-3.265624 8.996094-3.265624 12.535156 0 .78125.859376 1.40625 1.84375 1.855469 2.914063 1.164063 2.714844.875 5.832031-.761719 8.289063-1.636718 2.457031-4.40625 3.921874-7.359374 3.890624zm0 0"/><path d="m141.242188 150.070312c-1.15625-.015624-2.292969-.253906-3.355469-.707031-1.070313-.449219-2.054688-1.074219-2.914063-1.855469-1.660156-1.660156-2.582031-3.917968-2.558594-6.265624-.03125-1.160157.210938-2.308594.707032-3.355469.425781-1.082031 1.054687-2.070313 1.851562-2.914063 3.542969-3.265625 8.996094-3.265625 12.535156 0 .78125.859375 1.40625 1.84375 1.855469 2.914063 1.164063 2.714843.875 5.832031-.761719 8.292969-1.636718 2.457031-4.40625 3.917968-7.359374 3.890624zm0 0"/><path d="m176.550781 97.101562c-1.152343-.011718-2.292969-.253906-3.355469-.703124-1.066406-.449219-2.050781-1.074219-2.910156-1.855469-1.660156-1.660157-2.585937-3.917969-2.5625-6.265625-.027344-1.160156.214844-2.308594.707032-3.355469.425781-1.082031 1.054687-2.070313 1.855468-2.914063 3.539063-3.265624 8.992188-3.265624 12.535156 0 .777344.859376 1.40625 1.84375 1.851563 2.914063 1.164063 2.714844.878906 5.832031-.757813 8.289063-1.640624 2.457031-4.410156 3.921874-7.363281 3.890624zm0 0"/><path d="m176.550781 150.070312c-1.152343-.015624-2.292969-.253906-3.355469-.707031-1.066406-.449219-2.050781-1.074219-2.910156-1.855469-1.660156-1.660156-2.585937-3.917968-2.5625-6.265624-.027344-1.160157.214844-2.308594.707032-3.355469.425781-1.082031 1.054687-2.070313 1.855468-2.914063 3.539063-3.265625 8.992188-3.265625 12.535156 0 .777344.859375 1.40625 1.84375 1.851563 2.914063 1.164063 2.714843.878906 5.832031-.757813 8.292969-1.640624 2.457031-4.410156 3.917968-7.363281 3.890624zm0 0"/><path d="m211.863281 97.101562c-1.15625-.011718-2.292969-.253906-3.355469-.703124-1.070312-.449219-2.054687-1.074219-2.914062-1.855469-1.660156-1.660157-2.582031-3.917969-2.558594-6.265625-.03125-1.160156.210938-2.308594.707032-3.355469.425781-1.082031 1.054687-2.070313 1.851562-2.914063 3.539062-3.265624 8.996094-3.265624 12.535156 0 .78125.859376 1.40625 1.84375 1.855469 2.914063 1.164063 2.714844.875 5.832031-.761719 8.289063-1.636718 2.457031-4.40625 3.921874-7.359375 3.890624zm0 0"/><path d="m211.863281 150.070312c-1.15625-.015624-2.292969-.253906-3.355469-.707031-1.070312-.449219-2.054687-1.074219-2.914062-1.855469-1.660156-1.660156-2.582031-3.917968-2.558594-6.265624-.03125-1.160157.210938-2.308594.707032-3.355469.425781-1.082031 1.054687-2.070313 1.851562-2.914063 3.539062-3.265625 8.996094-3.265625 12.535156 0 .78125.859375 1.40625 1.84375 1.855469 2.914063 1.164063 2.714843.875 5.832031-.761719 8.292969-1.636718 2.457031-4.40625 3.917968-7.359375 3.890624zm0 0"/><path d="m247.171875 97.101562c-1.152344-.011718-2.292969-.253906-3.355469-.703124-1.066406-.449219-2.054687-1.074219-2.910156-1.855469-1.664062-1.660157-2.585938-3.917969-2.5625-6.265625-.03125-1.160156.210938-2.308594.707031-3.355469.425781-1.082031 1.054688-2.070313 1.855469-2.914063 3.539062-3.265624 8.992188-3.265624 12.535156 0 .777344.859376 1.40625 1.84375 1.851563 2.914063 1.164062 2.714844.878906 5.832031-.761719 8.289063-1.636719 2.457031-4.40625 3.921874-7.359375 3.890624zm0 0"/><path d="m247.171875 150.070312c-1.152344-.015624-2.292969-.253906-3.355469-.707031-1.066406-.449219-2.054687-1.074219-2.910156-1.855469-1.664062-1.660156-2.585938-3.917968-2.5625-6.265624-.03125-1.160157.210938-2.308594.707031-3.355469.425781-1.082031 1.054688-2.070313 1.855469-2.914063 3.539062-3.265625 8.992188-3.265625 12.535156 0 .777344.859375 1.40625 1.84375 1.851563 2.914063 1.164062 2.714843.878906 5.832031-.761719 8.292969-1.636719 2.457031-4.40625 3.917968-7.359375 3.890624zm0 0"/><path d="m282.484375 97.101562c-1.15625-.011718-2.292969-.253906-3.355469-.703124-1.070312-.449219-2.054687-1.074219-2.914062-1.855469-1.660156-1.660157-2.582032-3.917969-2.558594-6.265625-.03125-1.160156.210938-2.308594.707031-3.355469.425781-1.082031 1.054688-2.070313 1.851563-2.914063 3.539062-3.265624 8.996094-3.265624 12.535156 0 .78125.859376 1.40625 1.84375 1.855469 2.914063 1.164062 2.714844.875 5.832031-.761719 8.289063-1.640625 2.457031-4.40625 3.921874-7.359375 3.890624zm0 0"/><path d="m282.484375 150.070312c-1.15625-.015624-2.292969-.253906-3.355469-.707031-1.070312-.449219-2.054687-1.074219-2.914062-1.855469-1.660156-1.660156-2.582032-3.917968-2.558594-6.265624-.03125-1.160157.210938-2.308594.707031-3.355469.425781-1.082031 1.054688-2.070313 1.851563-2.914063 3.539062-3.265625 8.996094-3.265625 12.535156 0 .78125.859375 1.40625 1.84375 1.855469 2.914063 1.164062 2.714843.875 5.832031-.761719 8.292969-1.640625 2.457031-4.40625 3.917968-7.359375 3.890624zm0 0"/><path d="m317.792969 97.101562c-1.152344-.011718-2.292969-.253906-3.355469-.703124-1.066406-.449219-2.054688-1.074219-2.910156-1.855469-1.664063-1.660157-2.585938-3.917969-2.5625-6.265625-.03125-1.160156.210937-2.308594.707031-3.355469.425781-1.082031 1.054687-2.070313 1.855469-2.914063 3.539062-3.265624 8.992187-3.265624 12.535156 0 .777344.859376 1.402344 1.84375 1.851562 2.914063 1.164063 2.714844.878907 5.832031-.761718 8.289063-1.636719 2.457031-4.40625 3.921874-7.359375 3.890624zm0 0"/><path d="m317.792969 150.070312c-1.152344-.015624-2.292969-.253906-3.355469-.707031-1.066406-.449219-2.054688-1.074219-2.910156-1.855469-1.664063-1.660156-2.585938-3.917968-2.5625-6.265624-.03125-1.160157.210937-2.308594.707031-3.355469.425781-1.082031 1.054687-2.070313 1.855469-2.914063 3.539062-3.265625 8.992187-3.265625 12.535156 0 .777344.859375 1.402344 1.84375 1.851562 2.914063 1.164063 2.714843.878907 5.832031-.761718 8.292969-1.636719 2.457031-4.40625 3.917968-7.359375 3.890624zm0 0"/></g><path d="m26.484375 220.691406c-3.257813-.003906-6.246094-1.796875-7.78125-4.667968-1.53125-2.871094-1.363281-6.351563.445313-9.0625l17.652343-26.480469c2.707031-4.058594 8.1875-5.152344 12.246094-2.445313 4.054687 2.707032 5.148437 8.1875 2.445313 12.242188l-17.65625 26.484375c-1.640626 2.457031-4.398438 3.929687-7.351563 3.929687zm0 0" fill="#2c3e50"/><path d="m44.136719 220.691406c-2.339844-.003906-4.585938-.933594-6.238281-2.589844l-10.59375-10.589843c-3.347657-3.464844-3.296876-8.972657.105468-12.375 3.40625-3.40625 8.910156-3.453125 12.375-.109375l10.59375 10.59375c2.523438 2.523437 3.277344 6.320312 1.914063 9.617187-1.367188 3.300781-4.585938 5.449219-8.15625 5.453125zm0 0" fill="#2c3e50"/><path d="m397.242188 220.691406c-2.953126 0-5.714844-1.472656-7.355469-3.929687l-17.652344-26.484375c-2.707031-4.054688-1.613281-9.535156 2.445313-12.242188 4.054687-2.707031 9.535156-1.613281 12.242187 2.445313l17.65625 26.480469c1.804687 2.710937 1.976563 6.191406.441406 9.0625-1.535156 2.871093-4.523437 4.664062-7.777343 4.667968zm0 0" fill="#2c3e50"/><path d="m379.585938 220.691406c-3.570313-.003906-6.789063-2.152344-8.152344-5.453125-1.367188-3.296875-.613282-7.09375 1.910156-9.617187l10.59375-10.59375c2.21875-2.292969 5.5-3.214844 8.585938-2.40625 3.085937.808594 5.496093 3.21875 6.304687 6.304687.808594 3.085938-.113281 6.367188-2.40625 8.585938l-10.59375 10.589843c-1.65625 1.65625-3.902344 2.585938-6.242187 2.589844zm0 0" fill="#2c3e50"/><path d="m353.101562 44.136719v17.65625s-17.652343-26.484375-61.792968-26.484375c-27.421875.285156-54.484375 6.296875-79.445313 17.65625-24.964843-11.359375-52.027343-17.371094-79.449219-17.65625-44.136718 0-61.792968 26.484375-61.792968 26.484375v-17.65625c0-24.375 19.761718-44.136719 44.136718-44.136719h194.207032c11.707031 0 22.933594 4.648438 31.210937 12.925781 8.277344 8.28125 12.925781 19.507813 12.925781 31.210938zm0 0" fill="#59474e"/></svg>