<svg height="511pt" viewBox="-39 0 511 511.95615" width="511pt" xmlns="http://www.w3.org/2000/svg"><path d="m373.628906 303.511719c1.476563.085937 2.867188.171875 4.339844.171875 31.15625 0 56.40625-31.066406 56.40625-69.421875s-25.25-69.425781-56.40625-69.425781c-4.464844.019531-8.902344.664062-13.191406 1.910156h-294.703125c-4.285157-1.246094-8.726563-1.890625-13.1875-1.910156-31.15625 0-56.410157 31.070312-56.410157 69.425781s25.253907 69.421875 56.410157 69.421875c1.472656 0 2.863281-.085938 4.335937-.171875zm0 0" fill="#547580"/><path d="m356.273438 104.089844c-.082032 13.117187-9.90625 24.121094-22.925782 25.683594-13.019531 1.566406-25.171875-6.800782-28.359375-19.519532-4.40625 1.683594-9.082031 2.535156-13.796875 2.515625-17.636718.054688-33.101562-11.773437-37.664062-28.8125-4.574219 1.863281-9.46875 2.804688-14.40625 2.777344-10.359375.015625-20.300782-4.09375-27.628906-11.421875-7.324219-7.324219-11.433594-17.265625-11.421876-27.628906-.03125-3.792969.527344-7.570313 1.648438-11.191406 5.019531-16.679688 20.476562-28.019532 37.894531-27.800782 17.414063.222656 32.578125 11.953125 37.171875 28.753906 4.574219-1.859374 9.46875-2.804687 14.40625-2.777343 10.359375-.015625 20.300782 4.097656 27.625 11.421875 7.328125 7.328125 11.4375 17.269531 11.425782 27.628906 0 1.449219-.085938 2.898438-.261719 4.339844h.261719c14.375 0 26.03125 11.65625 26.03125 26.03125zm0 0" fill="#fb7b76"/><path d="m239.121094 95.414062c-26.34375-.035156-47.695313-21.382812-47.726563-47.730468-.03125-4.6875.664063-9.351563 2.054688-13.832032 6.1875-20.359374 25.101562-34.164062 46.375-33.84765575 21.277343.31640575 39.773437 14.67968775 45.351562 35.21093775.796875 2.996094-.066406 6.191406-2.265625 8.382812-2.195312 2.1875-5.394531 3.039063-8.390625 2.230469-2.992187-.808594-5.328125-3.15625-6.125-6.152344-3.597656-13.039062-15.378906-22.128906-28.902343-22.300781-13.523438-.167969-25.53125 8.625-29.449219 21.570312-.886719 2.828126-1.324219 5.777344-1.292969 8.738282 0 16.777344 13.597656 30.375 30.371094 30.375 3.804687.027344 7.578125-.695313 11.101562-2.125 2.875-1.226563 6.183594-.8125 8.667969 1.085937 2.484375 1.898438 3.753906 4.980469 3.328125 8.078125-.425781 3.09375-2.480469 5.722656-5.386719 6.878906-5.617187 2.300782-11.636719 3.46875-17.710937 3.4375zm0 0" fill="#ff5364"/><path d="m328 95.414062c-2.808594-.003906-5.445312-1.371093-7.066406-3.664062-1.625-2.296875-2.035156-5.234375-1.105469-7.886719.761719-2.191406 1.277344-4.460937 1.535156-6.769531.136719-1.117188.203125-2.246094.199219-3.375 0-16.773438-13.597656-30.371094-30.371094-30.371094-3.804687-.03125-7.578125.691406-11.101562 2.125-2.902344 1.414063-6.347656 1.101563-8.949219-.8125-2.597656-1.917968-3.921875-5.117187-3.429687-8.308594.492187-3.191406 2.710937-5.84375 5.765624-6.890624 5.621094-2.308594 11.640626-3.488282 17.714844-3.472657 26.34375.035157 47.695313 21.382813 47.726563 47.730469.003906 1.820312-.109375 3.636719-.328125 5.441406-.410156 3.550782-1.214844 7.042969-2.394532 10.414063-1.210937 3.492187-4.496093 5.835937-8.195312 5.839843zm0 0" fill="#ff5364"/><path d="m330.242188 138.804688c-16.058594.082031-30.039063-10.941407-33.707032-26.574219-.742187-3.027344.203125-6.222657 2.46875-8.367188 2.265625-2.140625 5.511719-2.902343 8.492188-1.992187 2.984375.910156 5.25 3.351562 5.933594 6.394531 1.847656 7.777344 8.820312 13.246094 16.8125 13.183594 9.585937 0 17.355468-7.773438 17.355468-17.359375 0-9.582032-7.769531-17.355469-17.355468-17.355469-4.824219.015625-8.757813-3.855469-8.816407-8.675781-.03125-2.289063.855469-4.496094 2.464844-6.128906 1.605469-1.628907 3.800781-2.546876 6.089844-2.550782h.261719c19.167968 0 34.710937 15.542969 34.710937 34.710938 0 19.171875-15.542969 34.714844-34.710937 34.714844zm0 0" fill="#ff5364"/><path d="m373.628906 295.007812v121.492188c.015625 25.320312-10.039062 49.609375-27.941406 67.511719-17.90625 17.90625-42.191406 27.957031-67.515625 27.945312h-121.492187c-25.320313.011719-49.609376-10.039062-67.511719-27.945312-17.90625-17.902344-27.957031-42.191407-27.945313-67.511719v-121.492188c-.03125-21.148437 6.992188-41.699218 19.960938-58.402343-7.511719-20.183594-11.332032-41.554688-11.28125-63.089844 0-77.839844 48.335937-143.1875 113.332031-160.367187 1.460937 10.203124 7.085937 19.347656 15.535156 25.25.691407.515624 1.414063.976562 2.167969 1.390624-.597656 2.589844-.886719 5.238282-.867188 7.894532-.011718 10.363281 4.097657 20.304687 11.421876 27.628906 7.328124 7.328125 17.269531 11.4375 27.628906 11.421875 4.9375.027344 9.832031-.914063 14.40625-2.777344 4.5625 17.039063 20.027344 28.867188 37.664062 28.8125 4.714844.019531 9.390625-.832031 13.796875-2.515625 2.765625 11.691406 13.234375 19.933594 25.253907 19.871094 6.226562.039062 12.25-2.214844 16.921874-6.335938 8.035157 3.3125 13.804688 10.523438 15.273438 19.09375 1.671875 10.125 2.515625 20.371094 2.515625 30.632813.050781 21.535156-3.769531 42.90625-11.28125 63.089844 12.964844 16.703125 19.992187 37.253906 19.957031 58.402343zm0 0" fill="#bbd1b5"/><path d="m207.4375 274.179688-14.371094 22c-2.050781 3.433593-2.019531 7.722656.082032 11.125 2.101562 3.402343 5.921874 5.351562 9.90625 5.058593h28.742187c3.996094.296875 7.820313-1.65625 9.921875-5.0625 2.101562-3.410156 2.128906-7.707031.066406-11.140625l-14.371094-21.980468c-2.285156-3.25-6.011718-5.1875-9.988281-5.1875-3.972656 0-7.699219 1.9375-9.988281 5.1875zm0 0" fill="#2c3e50"/><path d="m182.367188 196.339844c5.855468 6.976562 9.050781 15.796875 9.027343 24.90625-.007812 18.972656-13.652343 35.199218-32.34375 38.457031-18.695312 3.257813-37.023437-7.390625-43.449219-25.246094-6.429687-17.851562.90625-37.742187 17.390626-47.144531" fill="#d1d4d1"/><path d="m301.863281 187.3125c14.304688 8.117188 22.003907 24.320312 19.257813 40.535156-2.746094 16.21875-15.34375 28.984375-31.523438 31.941406-16.179687 2.957032-32.480468-4.527343-40.785156-18.722656-8.304688-14.199218-6.835938-32.074218 3.671875-44.726562" fill="#d1d4d1"/><path d="m104.613281 338.398438c-41.132812 0-43.300781-23-43.390625-26.035157v31.5c12.769532 8.613281 28.015625 12.789063 43.390625 11.890625 36.359375 0 42.78125 8.675782 43.476563 9.804688.640625 4.492187 4.628906 7.734375 9.15625 7.4375 4.53125-.292969 8.066406-4.027344 8.113281-8.566406 0-6.074219-4.339844-26.03125-60.746094-26.03125zm0 0" fill="#527f72"/><path d="m330.242188 338.398438c-56.40625 0-60.746094 19.957031-60.746094 26.03125.046875 4.539062 3.582031 8.273437 8.109375 8.566406 4.527343.296875 8.519531-2.945313 9.160156-7.4375.691406-1.128906 7.113281-9.804688 43.476563-9.804688 15.375.898438 30.621093-3.277344 43.386718-11.890625v-31.5c-.085937 2.949219-2.253906 26.035157-43.386718 26.035157zm0 0" fill="#527f72"/><path d="m35.433594 251.617188c-1.785156.003906-3.527344-.554688-4.980469-1.589844-3.914063-2.757813-4.851563-8.160156-2.101563-12.078125 3.210938-4.871094 3.210938-11.183594 0-16.054688-2.566406-3.914062-1.566406-9.160156 2.265626-11.855469 3.828124-2.695312 9.105468-1.863281 11.921874 1.875 7.53125 10.824219 7.53125 25.191407 0 36.015626-1.625 2.3125-4.277343 3.691406-7.105468 3.6875zm0 0" fill="#2c3e50"/><path d="m399.664062 251.617188c-2.828124.007812-5.480468-1.371094-7.097656-3.6875-7.53125-10.824219-7.53125-25.191407 0-36.015626 2.8125-3.714843 8.054688-4.546874 11.878906-1.882812 3.824219 2.660156 4.863282 7.867188 2.351563 11.792969-3.269531 4.871093-3.289063 11.234375-.050781 16.125 1.859375 2.648437 2.09375 6.109375.605468 8.980469-1.488281 2.875-4.453124 4.679687-7.6875 4.6875zm0 0" fill="#2c3e50"/><g fill="#527f72"><path d="m321.5625 459.886719h-208.269531c-4.792969 0-8.679688-3.882813-8.679688-8.675781 0-4.792969 3.886719-8.679688 8.679688-8.679688h208.269531c4.792969 0 8.679688 3.886719 8.679688 8.679688 0 4.792968-3.886719 8.675781-8.679688 8.675781zm0 0"/><path d="m121.96875 459.886719h-8.675781c-4.792969 0-8.679688-3.882813-8.679688-8.675781 0-4.792969 3.886719-8.679688 8.679688-8.679688h8.675781c4.792969 0 8.679688-3.882812 8.679688-8.675781v-17.355469c0-4.792969 3.882812-8.679688 8.675781-8.679688s8.679687 3.886719 8.679687 8.679688v17.355469c0 14.378906-11.65625 26.03125-26.035156 26.03125zm0 0"/><path d="m165.359375 459.886719h-8.679687c-14.375 0-26.03125-11.652344-26.03125-26.03125v-17.355469c0-4.792969 3.882812-8.679688 8.675781-8.679688s8.679687 3.886719 8.679687 8.679688v17.355469c0 4.792969 3.886719 8.675781 8.675782 8.675781h8.679687c4.792969 0 8.679687 3.886719 8.679687 8.679688 0 4.792968-3.886718 8.675781-8.679687 8.675781zm0 0"/><path d="m174.039062 459.886719h-8.679687c-4.792969 0-8.679687-3.882813-8.679687-8.675781 0-4.792969 3.886718-8.679688 8.679687-8.679688h8.679687c4.792969 0 8.675782-3.882812 8.675782-8.675781v-17.355469c0-4.792969 3.886718-8.679688 8.679687-8.679688s8.675781 3.886719 8.675781 8.679688v17.355469c0 14.378906-11.65625 26.03125-26.03125 26.03125zm0 0"/><path d="m217.425781 459.886719h-8.675781c-14.378906 0-26.035156-11.652344-26.035156-26.03125v-17.355469c0-4.792969 3.886718-8.679688 8.679687-8.679688s8.675781 3.886719 8.675781 8.679688v17.355469c0 4.792969 3.886719 8.675781 8.679688 8.675781h8.675781c4.792969 0 8.679688 3.886719 8.679688 8.679688 0 4.792968-3.886719 8.675781-8.679688 8.675781zm0 0"/><path d="m226.105469 459.886719h-8.679688c-4.792969 0-8.675781-3.882813-8.675781-8.675781 0-4.792969 3.882812-8.679688 8.675781-8.679688h8.679688c4.792969 0 8.675781-3.882812 8.675781-8.675781v-17.355469c0-4.792969 3.886719-8.679688 8.679688-8.679688 4.792968 0 8.679687 3.886719 8.679687 8.679688v17.355469c0 14.378906-11.65625 26.03125-26.035156 26.03125zm0 0"/><path d="m269.496094 459.886719h-8.679688c-14.378906 0-26.035156-11.652344-26.035156-26.03125v-17.355469c0-4.792969 3.886719-8.679688 8.679688-8.679688 4.792968 0 8.679687 3.886719 8.679687 8.679688v17.355469c0 4.792969 3.882813 8.675781 8.675781 8.675781h8.679688c4.792968 0 8.675781 3.886719 8.675781 8.679688 0 4.792968-3.882813 8.675781-8.675781 8.675781zm0 0"/><path d="m278.171875 459.886719h-8.675781c-4.792969 0-8.679688-3.882813-8.679688-8.675781 0-4.792969 3.886719-8.679688 8.679688-8.679688h8.675781c4.792969 0 8.679687-3.882812 8.679687-8.675781v-17.355469c0-4.792969 3.882813-8.679688 8.675782-8.679688 4.792968 0 8.679687 3.886719 8.679687 8.679688v17.355469c0 14.378906-11.65625 26.03125-26.035156 26.03125zm0 0"/><path d="m321.5625 459.886719h-8.675781c-14.378907 0-26.035157-11.652344-26.035157-26.03125v-17.355469c0-4.792969 3.882813-8.679688 8.675782-8.679688 4.792968 0 8.679687 3.886719 8.679687 8.679688v17.355469c0 4.792969 3.886719 8.675781 8.679688 8.675781h8.675781c4.792969 0 8.679688 3.886719 8.679688 8.679688 0 4.792968-3.886719 8.675781-8.679688 8.675781zm0 0"/></g><path d="m178.375 221.246094c0 14.375-11.65625 26.03125-26.03125 26.03125-14.378906 0-26.035156-11.65625-26.035156-26.03125 0-14.378906 11.65625-26.035156 26.035156-26.035156 14.375 0 26.03125 11.65625 26.03125 26.035156zm0 0" fill="#fff"/><path d="m308.546875 221.246094c0 14.375-11.65625 26.03125-26.035156 26.03125-14.378907 0-26.035157-11.65625-26.035157-26.03125 0-14.378906 11.65625-26.035156 26.035157-26.035156 14.378906 0 26.035156 11.65625 26.035156 26.035156zm0 0" fill="#fff"/><path d="m200.070312 208.226562c-.523437.003907-1.046874-.046874-1.5625-.148437l-95.457031-17.355469c-3.152343-.441406-5.8125-2.574218-6.925781-5.558594-1.113281-2.984374-.503906-6.339843 1.589844-8.738281 2.097656-2.402343 5.335937-3.460937 8.445312-2.761719l95.457032 17.355469c4.394531.820313 7.449218 4.851563 7.050781 9.304688-.402344 4.457031-4.125 7.878906-8.597657 7.902343zm0 0" fill="#527f72"/><path d="m234.78125 208.226562c-4.472656-.023437-8.195312-3.445312-8.59375-7.902343-.398438-4.453125 2.652344-8.484375 7.050781-9.304688l95.457031-17.355469c3.109376-.699218 6.347657.359376 8.441407 2.761719 2.09375 2.398438 2.707031 5.753907 1.59375 8.738281-1.113281 2.984376-3.773438 5.117188-6.925781 5.558594l-95.460938 17.355469c-.511719.101563-1.035156.152344-1.5625.148437zm0 0" fill="#527f72"/></svg>