<svg height="512pt" viewBox="0 0 512 512.01688" width="512pt" xmlns="http://www.w3.org/2000/svg"><path d="m61.96875 422.929688h.085938l82.003906-82.007813 242.003906-242.003906 36.867188-36.863281 24.660156 23.464843-362.070313 362.070313zm0 0" fill="#d1d4d1"/><path d="m471.585938 40.449219c8.519531-.226563 16.757812 3.070312 22.765624 9.113281 7.902344 7.433594 11.132813 18.578125 8.433594 29.085938-2.703125 10.507812-10.90625 18.714843-21.414062 21.417968-10.507813 2.703125-21.652344-.527344-29.089844-8.425781-5.980469-6.050781-9.265625-14.261719-9.113281-22.769531.085937-4.042969 1.015625-8.019532 2.730469-11.679688" fill="#d1d4d1"/><path d="m471.585938 40.449219c.234374-8.519531-3.0625-16.757813-9.113282-22.761719-5.578125-5.734375-13.210937-9.023438-21.210937-9.132812-8.003907-.109376-15.722657 2.964843-21.457031 8.546874-5.582032 5.734376-8.652344 13.453126-8.539063 21.457032.109375 8 3.398437 15.628906 9.136719 21.207031 1.90625 1.941406 4.070312 3.605469 6.433594 4.949219 4.9375 2.910156 10.597656 4.355468 16.324218 4.164062" fill="#d1d4d1"/><path d="m474.171875 109.3125c10.148437.03125 19.882813-4.023438 27.003906-11.253906 7.121094-7.230469 11.027344-17.027344 10.839844-27.171875-.144531-10.289063-4.324219-20.113281-11.640625-27.351563-7.707031-7.621094-18.171875-11.808594-29.011719-11.613281-2.265625.066406-4.410156 1.027344-5.964843 2.675781-1.554688 1.648438-2.390626 3.847656-2.320313 6.113282.292969 4.644531 4.136719 8.265624 8.789063 8.277343 12.480468-.246093 22.808593 9.65625 23.082031 22.136719.128906 5.582031-2.011719 10.976562-5.925781 14.957031-3.917969 3.976563-9.277344 6.203125-14.859376 6.164063h-.324218c-5.847656-.09375-11.417969-2.480469-15.523438-6.640625-.824218-.820313-1.582031-1.707031-2.261718-2.652344-2.984376-3.976563-4.527344-8.847656-4.367188-13.816406.058594-2.902344.730469-5.757813 1.96875-8.378907 1.976562-4.28125.105469-9.355468-4.175781-11.328124-4.28125-1.976563-9.355469-.105469-11.328125 4.175781-2.210938 4.75-3.410156 9.902343-3.523438 15.136719-.210937 8.707031 2.492188 17.234374 7.679688 24.226562 1.199218 1.675781 2.539062 3.242188 4 4.695312 7.234375 7.292969 17.035156 11.464844 27.308594 11.613282zm0 0" fill="#a5a5a4"/><path d="m442.238281 77.421875h1.171875c4.710938-.066406 8.476563-3.9375 8.410156-8.652344-.0625-4.710937-3.9375-8.480469-8.652343-8.414062-.324219 0-.621094 0-.921875 0-5.9375-.039063-11.621094-2.421875-15.8125-6.628907-4.15625-4.109374-6.535156-9.679687-6.628906-15.523437-.132813-5.632813 2.046874-11.078125 6.023437-15.070313 3.90625-4.113281 9.414063-6.324218 15.078125-6.050781 6.003906.125 11.710938 2.628907 15.863281 6.964844 4.15625 4.332031 6.414063 10.140625 6.28125 16.144531-.066406 2.261719.769531 4.460938 2.324219 6.109375 1.554688 1.644531 3.699219 2.605469 5.960938 2.671875h.257812c4.613281 0 8.394531-3.664062 8.535156-8.277344.261719-10.566406-3.699218-20.800781-11.007812-28.4375-7.3125-7.636718-17.363282-12.042968-27.929688-12.242187-10.289062-.308594-20.234375 3.714844-27.410156 11.09375-7.246094 7.21875-11.234375 17.082031-11.042969 27.308594.144531 10.289062 4.320313 20.109375 11.632813 27.347656 2.457031 2.492187 5.246094 4.632813 8.292968 6.359375 5.933594 3.480469 12.695313 5.308594 19.574219 5.296875zm0 0" fill="#a5a5a4"/><path d="m68.871094 443.160156c8.523437-.230468 16.765625 3.070313 22.765625 9.125 7.902343 7.433594 11.132812 18.578125 8.429687 29.085938-2.703125 10.507812-10.910156 18.714844-21.417968 21.414062-10.507813 2.699219-21.652344-.53125-29.085938-8.433594-1.144531-1.144531-2.191406-2.378906-3.132812-3.695312-4.082032-5.5-6.1875-12.214844-5.972657-19.0625.09375-4.023438 1.023438-7.984375 2.730469-11.628906" fill="#d1d4d1"/><path d="m68.871094 443.160156c.234375-8.523437-3.066406-16.761718-9.121094-22.765625-5.578125-5.738281-13.210938-9.023437-21.210938-9.132812-8.003906-.113281-15.722656 2.960937-21.457031 8.542969-5.582031 5.734374-8.65625 13.453124-8.542969 21.457031.109376 8 3.394532 15.632812 9.132813 21.210937 1.910156 1.933594 4.078125 3.597656 6.441406 4.941406 4.933594 2.90625 10.59375 4.351563 16.316407 4.171876" fill="#d1d4d1"/><path d="m71.457031 512.015625c10.144531.035156 19.875-4.019531 26.996094-11.242187 7.121094-7.226563 11.03125-17.015626 10.847656-27.15625-.140625-10.292969-4.320312-20.117188-11.636719-27.359376-7.710937-7.621093-18.175781-11.804687-29.015624-11.605468-2.261719.066406-4.40625 1.027344-5.960938 2.675781-1.554688 1.644531-2.390625 3.84375-2.324219 6.105469.292969 4.644531 4.136719 8.269531 8.789063 8.285156 12.492187-.265625 22.839844 9.644531 23.109375 22.136719.121093 5.582031-2.023438 10.972656-5.945313 14.949219-3.921875 3.972656-9.285156 6.191406-14.867187 6.144531h-.324219c-5.84375-.089844-11.417969-2.472657-15.523438-6.628907-.824218-.824218-1.578124-1.714843-2.261718-2.664062-2.964844-3.957031-4.507813-8.800781-4.367188-13.746094.058594-2.902344.730469-5.757812 1.96875-8.378906 1.972656-4.28125.101563-9.351562-4.179687-11.324219-4.28125-1.972656-9.351563-.101562-11.324219 4.179688-2.210938 4.746093-3.410156 9.898437-3.523438 15.128906-.210937 8.710937 2.492188 17.238281 7.679688 24.238281 1.203125 1.671875 2.546875 3.242188 4.011719 4.691406 7.230469 7.273438 17.023437 11.425782 27.28125 11.570313zm0 0" fill="#a5a5a4"/><path d="m39.527344 480.136719h1.175781c4.710937-.070313 8.476563-3.945313 8.410156-8.65625-.070312-4.714844-3.945312-8.480469-8.65625-8.410157-.324219 0-.625 0-.921875 0-5.941406-.046874-11.621094-2.433593-15.8125-6.640624-4.164062-4.101563-6.546875-9.675782-6.640625-15.519532-.125-5.644531 2.058594-11.089844 6.050781-15.082031 3.910157-4.101563 9.40625-6.308594 15.070313-6.039063 12.492187.269532 22.402344 10.613282 22.136719 23.109376-.070313 2.261718.765625 4.460937 2.320312 6.109374 1.554688 1.652344 3.699219 2.613282 5.964844 2.679688h.253906c4.621094 0 8.402344-3.671875 8.535156-8.289062.253907-10.574219-3.71875-20.8125-11.039062-28.445313-7.320312-7.636719-17.382812-12.035156-27.957031-12.222656-10.246094-.289063-20.144531 3.714843-27.308594 11.042969-7.292969 7.234374-11.300781 17.144531-11.09375 27.417968.160156 10.269532 4.335937 20.074219 11.632813 27.304688 2.457031 2.492187 5.25 4.636718 8.292968 6.367187 5.941406 3.472657 12.703125 5.292969 19.585938 5.273438zm0 0" fill="#a5a5a4"/><path d="m450.0625 422.929688h-.082031l-360.875-360.875-24.664063 23.464843 362.070313 362.070313zm0 0" fill="#d1d4d1"/><path d="m40.445312 40.449219c-8.515624-.230469-16.75 3.066406-22.757812 9.113281-5.738281 5.578125-9.023438 13.207031-9.132812 21.210938-.109376 8 2.964843 15.71875 8.546874 21.453124 6.390626 6.070313 15.089844 9.085938 23.867188 8.269532 8.777344-.820313 16.769531-5.386719 21.929688-12.535156 4.082031-5.503907 6.1875-12.222657 5.972656-19.070313-.078125-4.050781-1.011719-8.035156-2.738282-11.699219" fill="#d1d4d1"/><path d="m40.445312 40.449219c-.226562-8.519531 3.070313-16.753907 9.117188-22.761719 5.578125-5.734375 13.207031-9.023438 21.210938-9.132812 8-.109376 15.71875 2.964843 21.453124 8.546874 5.582032 5.734376 8.65625 13.453126 8.546876 21.453126-.109376 8.003906-3.398438 15.632812-9.136719 21.210937-1.90625 1.941406-4.074219 3.605469-6.441407 4.949219-4.933593 2.910156-10.597656 4.355468-16.324218 4.164062" fill="#d1d4d1"/><path d="m37.871094 109.3125c-10.152344.035156-19.886719-4.019531-27.011719-11.25-7.121094-7.230469-11.03125-17.027344-10.84375-27.175781.152344-10.289063 4.332031-20.109375 11.640625-27.351563 7.710938-7.621094 18.171875-11.808594 29.011719-11.613281 2.265625.066406 4.410156 1.03125 5.960937 2.679687 1.554688 1.648438 2.386719 3.847657 2.316406 6.109376-.285156 4.644531-4.128906 8.265624-8.78125 8.277343-12.484374-.257812-22.816406 9.652344-23.082031 22.136719-.125 5.582031 2.011719 10.976562 5.929688 14.957031 3.914062 3.976563 9.277343 6.203125 14.859375 6.164063h.324218c5.84375-.097656 11.414063-2.480469 15.519532-6.640625.824218-.820313 1.582031-1.707031 2.261718-2.652344 2.988282-3.976563 4.527344-8.847656 4.371094-13.816406-.0625-2.898438-.730468-5.753907-1.964844-8.378907-1.972656-4.28125-.105468-9.351562 4.175782-11.324218 4.277344-1.976563 9.347656-.105469 11.320312 4.171875 2.21875 4.746093 3.421875 9.902343 3.527344 15.136719.238281 8.722656-2.445312 17.269531-7.628906 24.289062-1.207032 1.671875-2.546875 3.242188-4.011719 4.691406-7.230469 7.296875-17.035156 11.464844-27.308594 11.613282zm0 0" fill="#a5a5a4"/><path d="m69.800781 77.421875h-1.175781c-4.714844-.066406-8.480469-3.9375-8.414062-8.652344.066406-4.710937 3.9375-8.480469 8.652343-8.414062h.929688c5.9375-.035157 11.621093-2.417969 15.804687-6.628907 4.160156-4.105468 6.542969-9.679687 6.636719-15.523437.121094-5.632813-2.054687-11.074219-6.03125-15.070313-3.90625-4.113281-9.410156-6.324218-15.078125-6.050781-6.003906.125-11.710938 2.632813-15.863281 6.96875-4.15625 4.335938-6.414063 10.144531-6.28125 16.148438.140625 4.710937-3.566407 8.640625-8.277344 8.78125h-.265625c-4.613281.003906-8.394531-3.664063-8.53125-8.277344-.261719-10.574219 3.707031-20.816406 11.023438-28.453125 7.316406-7.636719 17.378906-12.042969 27.957031-12.234375 10.273437-.300781 20.207031 3.726563 27.375 11.09375 7.238281 7.222656 11.226562 17.082031 11.039062 27.308594-.144531 10.289062-4.324219 20.109375-11.636719 27.347656-2.457031 2.492187-5.242187 4.632813-8.285156 6.359375-5.9375 3.476562-12.695312 5.308594-19.578125 5.296875zm0 0" fill="#a5a5a4"/><path d="m366.949219 341.351562v76.796876c0 47.128906-38.203125 85.335937-85.332031 85.335937h-51.199219c-47.128907 0-85.335938-38.207031-85.335938-85.335937v-76.796876zm0 0" fill="#7f8c8d"/><path d="m409.617188 290.148438v17.066406s0 34.136718-51.199219 34.136718c-31.320313 0-43.4375 6.398438-48.214844 11.347657-3.164063 3.523437-7.640625 5.589843-12.375 5.71875h-83.625c-4.734375-.128907-9.210937-2.195313-12.375-5.71875-4.777344-4.949219-16.894531-11.347657-48.210937-11.347657-51.199219 0-51.199219-34.136718-51.199219-34.136718v-17.066406c-.03125-20.792969 6.875-41.003907 19.625-57.429688-7.386719-19.84375-11.144531-40.859375-11.09375-62.035156-.40625-42.683594 15.144531-83.980469 43.605469-115.796875 3.625-3.96875 7.472656-7.730469 11.519531-11.265625 24.601562-22.429688 56.652343-34.929688 89.941406-35.070313 80.128906 0 145.066406 72.617188 145.066406 162.132813.050781 21.175781-3.707031 42.191406-11.09375 62.035156 12.753907 16.425781 19.660157 36.636719 19.628907 57.429688zm0 0" fill="#7f8c8d"/><path d="m384.015625 290.148438v17.066406s0 34.136718-42.667969 34.136718c-26.09375 0-36.195312 6.398438-40.171875 11.347657-2.382812 3.382812-6.183593 5.492187-10.316406 5.71875h-69.683594c-4.132812-.226563-7.933593-2.335938-10.316406-5.71875-3.976563-4.949219-14.082031-11.347657-40.175781-11.347657-42.667969 0-42.667969-34.136718-42.667969-34.136718v-17.066406c-.164063-20.3125 5.511719-40.25 16.359375-57.429688-6.195312-20.09375-9.3125-41.007812-9.25-62.035156-.726562-41.511719 12.027344-82.144532 36.34375-115.796875 2.984375-3.933594 6.191406-7.691407 9.597656-11.265625 18.941406-21.707032 46.148438-34.4375 74.949219-35.070313 66.773437 0 120.890625 72.617188 120.890625 162.132813.066406 21.027344-3.054688 41.941406-9.25 62.035156 10.847656 17.179688 16.527344 37.117188 16.359375 57.429688zm0 0" fill="#95a5a5"/><g fill="#2c3e50"><path d="m246.195312 269.671875-14.132812 21.628906c-2.015625 3.375-1.984375 7.59375.078125 10.941407 2.066406 3.34375 5.824219 5.261718 9.746094 4.972656h28.261719c3.925781.296875 7.6875-1.625 9.753906-4.976563 2.066406-3.351562 2.09375-7.578125.066406-10.953125l-14.128906-21.613281c-2.25-3.199219-5.914063-5.101563-9.824219-5.101563s-7.574219 1.902344-9.820313 5.101563zm0 0"/><path d="m230.417969 221.882812c0-18.851562-17.195313-34.132812-38.402344-34.132812s-38.398437 15.28125-38.398437 34.132812c0 18.851563 17.191406 34.132813 38.398437 34.132813s38.402344-15.28125 38.402344-34.132813zm0 0"/><path d="m358.417969 221.882812c0-18.851562-17.195313-34.132812-38.402344-34.132812s-38.398437 15.28125-38.398437 34.132812c0 18.851563 17.191406 34.132813 38.398437 34.132813s38.402344-15.28125 38.402344-34.132813zm0 0"/><path d="m201.402344 160.441406c-1.484375 1.09375-3.277344 1.691406-5.121094 1.707032-2.679688-.015626-5.203125-1.277344-6.824219-3.410157l-25.601562-34.136719c-2.167969-2.878906-2.269531-6.820312-.253907-9.8125l14.078126-21.160156-22.867188-38.058594c-.085938-.257812-.257812-.429687-.257812-.683593 3.625-3.96875 7.472656-7.730469 11.519531-11.265625 1.429687.730468 2.613281 1.855468 3.414062 3.242187l25.601563 42.667969c1.710937 2.800781 1.613281 6.347656-.257813 9.046875l-13.738281 20.648437 22.015625 29.269532c1.359375 1.8125 1.941406 4.085937 1.621094 6.328125-.320313 2.238281-1.515625 4.261719-3.328125 5.617187zm0 0"/><path d="m332.816406 426.683594h-25.601562v-8.535156c0-4.710938-3.820313-8.53125-8.53125-8.53125-4.714844 0-8.535156 3.820312-8.535156 8.53125v8.535156h-25.597657v-8.535156c0-4.710938-3.820312-8.53125-8.535156-8.53125-4.710937 0-8.53125 3.820312-8.53125 8.53125v8.535156h-25.601563v-8.535156c0-4.710938-3.820312-8.53125-8.535156-8.53125-4.710937 0-8.53125 3.820312-8.53125 8.53125v8.535156h-25.601562c-4.710938 0-8.53125 3.820312-8.53125 8.53125 0 4.714844 3.820312 8.535156 8.53125 8.535156h25.601562v8.535156c0 4.710938 3.820313 8.53125 8.53125 8.53125 4.714844 0 8.535156-3.820312 8.535156-8.53125v-8.535156h25.601563v8.535156c0 4.710938 3.820313 8.53125 8.53125 8.53125 4.714844 0 8.535156-3.820312 8.535156-8.53125v-8.535156h25.597657v8.535156c0 4.710938 3.820312 8.53125 8.535156 8.53125 4.710937 0 8.53125-3.820312 8.53125-8.53125v-8.535156h25.601562c4.710938 0 8.53125-3.820312 8.53125-8.535156 0-4.710938-3.820312-8.53125-8.53125-8.53125zm0 0"/></g><path d="m443.160156 443.160156c-8.519531-.230468-16.757812 3.070313-22.757812 9.125-7.8125 7.453125-10.972656 18.550782-8.261719 29.003906 2.714844 10.449219 10.875 18.613282 21.324219 21.324219 10.453125 2.714844 21.554687-.449219 29.007812-8.261719 1.144532-1.144531 2.195313-2.378906 3.140625-3.695312 4.082031-5.5 6.183594-12.214844 5.972657-19.0625-.085938-4.035156-1.019532-8.011719-2.738282-11.664062" fill="#d1d4d1"/><path d="m443.160156 443.160156c-.230468-8.519531 3.070313-16.761718 9.121094-22.765625 7.449219-7.855469 18.570312-11.050781 29.050781-8.34375s18.664063 10.890625 21.371094 21.371094c2.710937 10.480469-.484375 21.605469-8.34375 29.050781-1.910156 1.933594-4.078125 3.597656-6.441406 4.941406-4.9375 2.90625-10.597657 4.355469-16.324219 4.171876" fill="#d1d4d1"/><path d="m440.574219 512.015625c-10.140625.03125-19.871094-4.019531-26.988281-11.246094-7.117188-7.226562-11.027344-17.011719-10.847657-27.152343.140625-10.292969 4.316407-20.117188 11.632813-27.359376 7.710937-7.621093 18.171875-11.804687 29.011718-11.605468 2.261719.066406 4.410157 1.027344 5.960938 2.675781 1.554688 1.644531 2.390625 3.84375 2.324219 6.105469-.28125 4.644531-4.125 8.273437-8.78125 8.285156-6-.132812-11.808594 2.128906-16.140625 6.277344-4.335938 4.152344-6.839844 9.859375-6.964844 15.859375-.121094 5.582031 2.023438 10.972656 5.941406 14.945312 3.917969 3.972657 9.28125 6.191407 14.859375 6.148438h.324219c7.0625-.117188 13.65625-3.5625 17.785156-9.292969 2.980469-3.960938 4.523438-8.824219 4.367188-13.78125-.058594-2.898438-.726563-5.753906-1.960938-8.378906-1.347656-2.777344-1.089844-6.070313.675782-8.605469 1.765624-2.53125 4.765624-3.914063 7.839843-3.613281 3.074219.304687 5.742188 2.246094 6.980469 5.078125 2.214844 4.742187 3.414062 9.894531 3.523438 15.128906.222656 8.699219-2.460938 17.226563-7.628907 24.234375-1.207031 1.671875-2.546875 3.238281-4.007812 4.691406-7.230469 7.289063-17.027344 11.457032-27.289063 11.605469zm0 0" fill="#a5a5a4"/><path d="m472.515625 480.136719h-1.179687c-3.046876-.042969-5.839844-1.710938-7.328126-4.371094-1.488281-2.660156-1.441406-5.914063.117188-8.53125 1.5625-2.621094 4.402344-4.207031 7.453125-4.164063h.929687c3.898438.015626 7.730469-1.023437 11.09375-3.003906 1.738282-.984375 3.332032-2.210937 4.734376-3.636718 4.152343-4.109376 6.527343-9.679688 6.613281-15.519532.121093-5.636718-2.0625-11.078125-6.042969-15.070312-3.90625-4.105469-9.40625-6.3125-15.066406-6.042969-6.007813.117187-11.722656 2.621094-15.886719 6.957031-4.160156 4.332032-6.425781 10.144532-6.300781 16.152344.066406 2.265625-.765625 4.464844-2.320313 6.113281-1.554687 1.648438-3.703125 2.609375-5.964843 2.675781h-.257813c-4.617187 0-8.398437-3.671874-8.53125-8.285156-.253906-10.582031 3.722656-20.828125 11.050781-28.464844 7.332032-7.636718 17.402344-12.035156 27.988282-12.214843 10.265624-.304688 20.191406 3.699219 27.375 11.042969 7.257812 7.253906 11.242187 17.15625 11.023437 27.417968-.15625 10.273438-4.335937 20.078125-11.640625 27.304688-7.378906 7.414062-17.398438 11.601562-27.859375 11.640625zm0 0" fill="#a5a5a4"/></svg>