<svg height="504pt" viewBox="-39 0 504 504.11957" width="504pt" xmlns="http://www.w3.org/2000/svg"><path d="m322.695312 332.757812c-3.628906 15.785157-5.890624 31.851563-6.765624 48.023438-.183594 15.804688 1.714843 31.566406 5.648437 46.875 4.042969 13.210938 3.652344 27.382812-1.109375 40.355469-5.214844 10.359375-13.285156 19.011719-23.261719 24.933593-1.34375.847657-2.703125 1.644532-4.085937 2.386719-13.914063 7.203125-29.667969 10.078125-45.226563 8.253907-6.410156-.640626-12.75-1.863282-18.9375-3.660157-5.289062-1.535156-10.488281-3.375-15.5625-5.511719-5.082031 2.136719-10.28125 3.976563-15.574219 5.511719-6.1875 1.796875-12.527343 3.019531-18.9375 3.660157-15.558593 1.824218-31.3125-1.050782-45.226562-8.253907-1.382812-.75-2.742188-1.546875-4.085938-2.386719-9.976562-5.921874-18.046874-14.574218-23.261718-24.933593-4.761719-12.972657-5.152344-27.144531-1.109375-40.355469 3.933593-15.308594 5.832031-31.070312 5.648437-46.875-.871094-16.171875-3.132812-32.238281-6.757812-48.023438zm0 0" fill="#527f72"/><path d="m349.925781 102.355469c-.082031 12.898437-9.742187 23.71875-22.546875 25.257812-12.800781 1.535157-24.75-6.6875-27.882812-19.199219-4.332032 1.65625-8.933594 2.496094-13.570313 2.476563-17.34375.050781-32.546875-11.578125-37.035156-28.332031-4.496094 1.828125-9.308594 2.757812-14.164063 2.730468-10.1875.015626-19.964843-4.027343-27.167968-11.230468s-11.246094-16.980469-11.230469-27.167969c-.03125-3.730469.515625-7.445313 1.621094-11.007813 4.933593-16.402343 20.132812-27.550781 37.257812-27.335937 17.128907.21875 32.039063 11.753906 36.554688 28.273437 4.496093-1.828124 9.308593-2.757812 14.164062-2.730468 10.1875-.011719 19.964844 4.027344 27.167969 11.234375 7.203125 7.203125 11.246094 16.976562 11.234375 27.164062 0 1.429688-.085937 2.851563-.257813 4.269531h.257813c14.136719 0 25.597656 11.460938 25.597656 25.597657zm0 0" fill="#fb7b76"/><g fill="#ff5364"><path d="m234.726562 93.824219c-25.90625-.035157-46.902343-21.027344-46.933593-46.933594-.027344-4.613281.652343-9.199219 2.023437-13.601563 6.082032-20.019531 24.683594-33.59375 45.601563-33.28515575 20.921875.31249975 39.109375 14.43359375 44.59375 34.62499975.785156 2.945313-.0625 6.089844-2.226563 8.242188-2.160156 2.152344-5.304687 2.988281-8.25 2.191406-2.945312-.792969-5.242187-3.101562-6.027344-6.046875-3.53125-12.824219-15.121093-21.761719-28.417968-21.929687-13.296875-.164063-25.105469 8.480468-28.957032 21.210937-.871093 2.78125-1.300781 5.679687-1.273437 8.59375 0 16.496094 13.371094 29.867187 29.867187 29.867187 3.738282.027344 7.449219-.683593 10.914063-2.089843 2.828125-1.207031 6.082031-.796875 8.523437 1.066406 2.441407 1.867187 3.691407 4.902344 3.273438 7.945313-.417969 3.042968-2.441406 5.628906-5.292969 6.765624-5.527343 2.257813-11.445312 3.40625-17.417969 3.378907zm0 0"/><path d="m322.125 93.824219c-2.765625-.003907-5.355469-1.347657-6.953125-3.605469-1.59375-2.253906-2-5.144531-1.085937-7.753906.75-2.15625 1.257812-4.386719 1.511718-6.65625.132813-1.101563.199219-2.207032.195313-3.320313 0-16.492187-13.371094-29.863281-29.867188-29.863281-3.738281-.03125-7.449219.679688-10.914062 2.089844-2.851563 1.390625-6.242188 1.082031-8.800781-.800782-2.554688-1.882812-3.855469-5.027343-3.371094-8.167968.480468-3.136719 2.667968-5.746094 5.671875-6.777344 5.523437-2.269531 11.441406-3.429688 17.414062-3.410156 25.90625.03125 46.902344 21.023437 46.933594 46.929687 0 1.789063-.105469 3.578125-.324219 5.351563-.402344 3.492187-1.191406 6.925781-2.355468 10.242187-1.1875 3.433594-4.421876 5.738281-8.054688 5.742188zm0 0"/><path d="m324.328125 136.488281c-15.789063.085938-29.539063-10.753906-33.144531-26.128906-.730469-2.976563.199218-6.121094 2.425781-8.226563 2.230469-2.105468 5.417969-2.855468 8.351563-1.960937 2.933593.894531 5.164062 3.296875 5.835937 6.289063 1.816406 7.644531 8.671875 13.023437 16.53125 12.960937 9.425781 0 17.066406-7.640625 17.066406-17.066406s-7.640625-17.066407-17.066406-17.066407c-4.742187.015626-8.609375-3.792968-8.671875-8.53125-.03125-2.253906.84375-4.421874 2.425781-6.023437 1.578125-1.605469 3.738281-2.507813 5.988281-2.511719h.257813c18.851563 0 34.132813 15.28125 34.132813 34.132813 0 18.851562-15.28125 34.132812-34.132813 34.132812zm0 0"/></g><path d="m366.992188 298.453125c1.453124.085937 2.816406.171875 4.269531.171875 30.632812 0 55.464843-30.550781 55.464843-68.269531 0-37.714844-24.832031-68.265625-55.464843-68.265625-4.390625.019531-8.757813.652344-12.972657 1.878906h-289.792968c-4.214844-1.226562-8.578125-1.859375-12.96875-1.878906-30.636719 0-55.4687502 30.550781-55.4687502 68.265625 0 37.71875 24.8320312 68.269531 55.4687502 68.269531 1.449218 0 2.816406-.085938 4.265625-.171875zm0 0" fill="#547580"/><path d="m34.433594 247.421875c-1.757813.003906-3.46875-.542969-4.898438-1.558594-3.847656-2.714843-4.773437-8.027343-2.066406-11.878906 3.160156-4.789063 3.160156-11 0-15.789063-2.523438-3.847656-1.539062-9.007812 2.226562-11.65625 3.765626-2.648437 8.953126-1.832031 11.726563 1.84375 7.402344 10.644532 7.402344 24.769532 0 35.414063-1.601563 2.277344-4.207031 3.628906-6.988281 3.625zm0 0" fill="#2c3e50"/><path d="m392.59375 247.421875c-2.78125.011719-5.390625-1.34375-6.980469-3.625-7.40625-10.644531-7.40625-24.769531 0-35.414063 2.765625-3.652343 7.921875-4.472656 11.679688-1.851562 3.761719 2.617188 4.78125 7.738281 2.316406 11.597656-3.21875 4.789063-3.238281 11.042969-.054687 15.855469 1.832031 2.601563 2.058593 6.007813.597656 8.832031-1.464844 2.824219-4.378906 4.601563-7.558594 4.605469zm0 0" fill="#2c3e50"/><path d="m281.660156 345.121094c11.140625-2.867188 22.632813-4.160156 34.132813-3.832032 51.199219 0 51.199219-34.132812 51.199219-34.132812v-17.066406c.03125-20.792969-6.875-41.003906-19.625-57.429688 7.386718-19.847656 11.144531-40.859375 11.09375-62.035156-.003907-10.09375-.828126-20.167969-2.476563-30.125-1.441406-8.425781-7.113281-15.515625-15.019531-18.773438-4.589844 4.050782-10.515625 6.269532-16.636719 6.230469-11.816406.058594-22.113281-8.042969-24.832031-19.542969-4.332032 1.65625-8.933594 2.496094-13.570313 2.476563-17.34375.050781-32.546875-11.578125-37.035156-28.332031-4.496094 1.828125-9.308594 2.757812-14.164063 2.730468-10.1875.015626-19.964843-4.027343-27.167968-11.230468s-11.246094-16.980469-11.230469-27.167969c-.023437-2.613281.265625-5.21875.851563-7.765625-.742188-.40625-1.453126-.859375-2.132813-1.367188-8.308594-5.804687-13.839844-14.796874-15.273437-24.832031-63.917969 16.898438-111.445313 81.152344-111.445313 157.699219-.050781 21.175781 3.703125 42.1875 11.089844 62.035156-12.75 16.425782-19.65625 36.636719-19.625 57.429688v17.066406s0 34.132812 51.199219 34.132812c11.503906-.328124 22.992187.964844 34.132812 3.832032zm0 0" fill="#527f72"/><path d="m274.074219 345.121094c9.851562-2.859375 20.089843-4.152344 30.34375-3.832032 45.507812 0 45.507812-34.132812 45.507812-34.132812v-17.066406c.132813-20.46875-5.949219-40.492188-17.441406-57.429688 6.589844-20.015625 9.917969-40.964844 9.855469-62.035156 0-10.082031-.734375-20.148438-2.199219-30.125-1.039063-8.09375-6.042969-15.136719-13.347656-18.773438-3.898438 3.972657-9.222657 6.214844-14.789063 6.230469-11.070312-.429687-20.304687-8.605469-22.074218-19.542969-3.808594 1.648438-7.910157 2.488282-12.058594 2.476563-16.222656-.644531-29.859375-12.386719-32.90625-28.332031-3.949219 1.820312-8.246094 2.75-12.59375 2.730468-20.007813-1.222656-35.265625-18.386718-34.132813-38.398437-.019531-2.609375.234375-5.210937.757813-7.765625-.664063-.410156-1.296875-.863281-1.894532-1.367188-7.578124-6.199218-12.445312-15.105468-13.574218-24.832031-56.832032 16.898438-99.082032 81.152344-99.082032 157.699219-.058593 21.070312 3.269532 42.019531 9.855469 62.035156-11.492187 16.9375-17.574219 36.960938-17.441406 57.429688v17.066406s0 34.132812 45.507813 34.132812c10.253906-.320312 20.496093.972657 30.34375 3.832032zm0 0" fill="#bbd1b5"/><path d="m203.570312 269.609375-14.128906 21.632813c-2.019531 3.375-1.988281 7.59375.078125 10.9375 2.066407 3.347656 5.820313 5.265624 9.742188 4.976562h28.261719c3.925781.292969 7.691406-1.625 9.757812-4.976562 2.066406-3.355469 2.089844-7.578126.066406-10.953126l-14.132812-21.617187c-2.25-3.195313-5.914063-5.101563-9.820313-5.101563-3.910156 0-7.574219 1.90625-9.824219 5.101563zm0 0" fill="#2c2f38"/><path d="m179.855469 179.582031c17.582031 13.6875 21.675781 38.59375 9.398437 57.183594s-36.789062 24.605469-56.277344 13.808594c-19.488281-10.792969-27.390624-34.765625-18.144531-55.035157" fill="#d1d4d1"/><path d="m315.792969 213.289062c0 23.566407-19.101563 42.667969-42.667969 42.667969-23.5625 0-42.664062-19.101562-42.664062-42.667969 0-23.5625 19.101562-42.664062 42.664062-42.664062 23.566406 0 42.667969 19.101562 42.667969 42.664062zm0 0" fill="#2c2f38"/><path d="m183.527344 213.289062c0 16.496094-13.371094 29.867188-29.867188 29.867188s-29.867187-13.371094-29.867187-29.867188c0-16.492187 13.371093-29.867187 29.867187-29.867187s29.867188 13.375 29.867188 29.867187zm0 0" fill="#fff"/><path d="m102.460938 204.757812c-4.714844 0-8.535157-3.820312-8.535157-8.535156 0-4.710937 3.820313-8.53125 8.535157-8.53125.527343 0 52.761718-.351562 89.199218-24.210937 2.550782-1.675781 5.804688-1.863281 8.53125-.492188 2.726563 1.371094 4.515625 4.09375 4.691406 7.140625.175782 3.050782-1.285156 5.960938-3.835937 7.636719-40.808594 26.683594-96.25 26.992187-98.585937 26.992187zm0 0" fill="#527f72"/><path d="m297.472656 341.289062c-2.796875 15.074219-4.535156 30.324219-5.207031 45.636719-.144531 14.957031 1.3125 29.886719 4.34375 44.535157 3.109375 12.632812 2.816406 25.867187-.851563 38.351562-3.675781 9.394531-9.878906 17.59375-17.921874 23.6875-1.03125.792969-2.074219 1.550781-3.140626 2.261719-10.253906 6.75-22.617187 9.539062-34.78125 7.839843-4.96875-.613281-9.855468-1.777343-14.566406-3.472656-4.097656-1.472656-8.09375-3.226562-11.953125-5.238281-3.859375 2.011719-7.851562 3.765625-11.949219 5.238281-4.710937 1.695313-9.597656 2.859375-14.566406 3.472656-12.160156 1.699219-24.523437-1.089843-34.78125-7.839843-1.066406-.710938-2.105468-1.46875-3.140625-2.261719-8.042969-6.09375-14.246093-14.292969-17.917969-23.6875-3.671874-12.484375-3.964843-25.71875-.855468-38.351562 3.035156-14.648438 4.492187-29.578126 4.34375-44.535157-.671875-15.3125-2.414063-30.5625-5.214844-45.636719zm0 0" fill="#bbd1b5"/><path d="m213.394531 349.824219c28.277344 0 51.199219 22.921875 51.199219 51.199219v8.535156c0 14.136718-11.460938 25.597656-25.601562 25.597656h-51.199219c-14.136719 0-25.601563-11.460938-25.601563-25.597656v-8.535156c0-28.277344 22.925782-51.199219 51.203125-51.199219zm0 0" fill="#2c2f38"/></svg>