<svg height="512pt" viewBox="0 -4 512.0001 512" width="512pt" xmlns="http://www.w3.org/2000/svg"><path d="m0 456.984375h512v46.480469h-512zm0 0" fill="#71c285"/><path d="m443.734375 128v51.199219c0 9.425781-7.640625 17.066406-17.066406 17.066406h-85.335938c-9.425781 0-17.066406 7.640625-17.066406 17.066406v247.46875h-85.332031v-247.46875c0-9.425781-7.640625-17.066406-17.066406-17.066406h-85.332032c-9.425781 0-17.070312-7.640625-17.070312-17.066406v-51.199219c0-9.425781 7.644531-17.066406 17.070312-17.066406h85.332032c9.425781 0 17.066406-7.640625 17.066406-17.066406v-76.800782c0-9.425781 7.640625-17.066406 17.066406-17.066406h51.199219c9.425781 0 17.066406 7.640625 17.066406 17.066406v76.800782c0 9.425781 7.640625 17.066406 17.066406 17.066406h85.335938c9.425781 0 17.066406 7.640625 17.066406 17.066406zm0 0" fill="#547580"/><g fill="#4c8056"><path d="m76.800781 503.464844c-2.6875 0-5.214843-1.261719-6.828125-3.410156l-25.597656-34.132813c-1.832031-2.441406-2.21875-5.671875-1.023438-8.472656 1.199219-2.804688 3.800782-4.757813 6.828126-5.121094 3.027343-.363281 6.019531.914063 7.847656 3.351563l25.597656 34.132812c1.941406 2.585938 2.253906 6.046875.808594 8.9375-1.445313 2.890625-4.402344 4.714844-7.632813 4.714844zm0 0"/><path d="m119.464844 503.464844c-2.683594 0-5.214844-1.261719-6.824219-3.410156l-25.601563-34.132813c-2.828124-3.773437-2.0625-9.121094 1.707032-11.949219 3.769531-2.828125 9.121094-2.0625 11.949218 1.707032l25.597657 34.132812c1.941406 2.585938 2.25 6.046875.804687 8.9375-1.445312 2.890625-4.398437 4.714844-7.632812 4.714844zm0 0"/><path d="m162.132812 503.464844c-2.683593 0-5.214843-1.261719-6.824218-3.410156l-25.601563-34.132813c-1.828125-2.441406-2.21875-5.671875-1.019531-8.472656 1.195312-2.804688 3.796875-4.757813 6.824219-5.121094 3.027343-.363281 6.019531.914063 7.847656 3.351563l25.601563 34.132812c1.9375 2.585938 2.25 6.046875.804687 8.9375s-4.398437 4.714844-7.632813 4.714844zm0 0"/><path d="m204.800781 503.464844c-2.6875 0-5.214843-1.261719-6.828125-3.410156l-25.597656-34.132813c-2.828125-3.773437-2.066406-9.121094 1.703125-11.949219 3.773437-2.828125 9.121094-2.0625 11.949219 1.707032l25.597656 34.132812c1.941406 2.585938 2.253906 6.046875.808594 8.9375-1.445313 2.890625-4.402344 4.714844-7.632813 4.714844zm0 0"/><path d="m247.464844 503.464844c-2.683594 0-5.214844-1.261719-6.824219-3.410156l-25.601563-34.132813c-1.828124-2.441406-2.21875-5.671875-1.019531-8.472656 1.199219-2.804688 3.800781-4.757813 6.828125-5.121094 3.023438-.363281 6.015625.914063 7.847656 3.351563l25.597657 34.132812c1.941406 2.585938 2.25 6.046875.804687 8.9375-1.445312 2.890625-4.398437 4.714844-7.632812 4.714844zm0 0"/><path d="m290.132812 503.464844c-2.683593 0-5.214843-1.261719-6.824218-3.410156l-25.601563-34.132813c-2.828125-3.773437-2.0625-9.121094 1.707031-11.949219 3.769532-2.828125 9.117188-2.0625 11.945313 1.707032l25.601563 34.132812c1.9375 2.585938 2.25 6.046875.804687 8.9375s-4.398437 4.714844-7.632813 4.714844zm0 0"/><path d="m332.800781 503.464844c-2.6875 0-5.214843-1.261719-6.828125-3.410156l-25.597656-34.132813c-2.828125-3.773437-2.066406-9.121094 1.703125-11.949219 3.773437-2.828125 9.121094-2.0625 11.949219 1.707032l25.597656 34.132812c1.941406 2.585938 2.253906 6.046875.808594 8.9375-1.445313 2.890625-4.402344 4.714844-7.632813 4.714844zm0 0"/><path d="m375.464844 503.464844c-2.683594 0-5.214844-1.261719-6.824219-3.410156l-25.601563-34.132813c-1.828124-2.441406-2.21875-5.671875-1.019531-8.472656 1.199219-2.804688 3.800781-4.757813 6.828125-5.121094 3.023438-.363281 6.015625.914063 7.847656 3.351563l25.597657 34.132812c1.941406 2.585938 2.25 6.046875.804687 8.9375-1.445312 2.890625-4.398437 4.714844-7.632812 4.714844zm0 0"/><path d="m418.132812 503.464844c-2.683593 0-5.214843-1.261719-6.824218-3.410156l-25.601563-34.132813c-1.828125-2.441406-2.21875-5.671875-1.019531-8.472656 1.195312-2.804688 3.796875-4.757813 6.824219-5.121094 3.027343-.363281 6.019531.914063 7.847656 3.351563l25.601563 34.132812c1.9375 2.585938 2.25 6.046875.804687 8.9375s-4.398437 4.714844-7.632813 4.714844zm0 0"/><path d="m460.800781 503.464844c-2.6875 0-5.214843-1.261719-6.828125-3.410156l-25.597656-34.132813c-1.832031-2.441406-2.21875-5.671875-1.023438-8.472656 1.199219-2.804688 3.800782-4.757813 6.828126-5.121094 3.027343-.363281 6.019531.914063 7.847656 3.351563l25.597656 34.132812c1.941406 2.585938 2.253906 6.046875.808594 8.9375-1.445313 2.890625-4.402344 4.714844-7.632813 4.714844zm0 0"/><path d="m503.464844 503.464844c-2.683594 0-5.214844-1.261719-6.824219-3.410156l-25.601563-34.132813c-2.828124-3.773437-2.0625-9.121094 1.707032-11.949219 3.769531-2.828125 9.121094-2.0625 11.949218 1.707032l25.597657 34.132812c1.941406 2.585938 2.25 6.046875.804687 8.9375-1.445312 2.890625-4.398437 4.714844-7.632812 4.714844zm0 0"/></g><path d="m392.535156 128v51.199219c0 9.425781-7.644531 17.066406-17.070312 17.066406h-85.332032c-9.425781 0-17.066406 7.640625-17.066406 17.066406v247.46875h-85.332031v-247.46875c0-9.425781-7.640625-17.066406-17.066406-17.066406h-85.335938c-9.425781 0-17.066406-7.640625-17.066406-17.066406v-51.199219c0-9.425781 7.640625-17.066406 17.066406-17.066406h85.335938c9.425781 0 17.066406-7.640625 17.066406-17.066406v-76.800782c0-9.425781 7.640625-17.066406 17.066406-17.066406h51.199219c9.425781 0 17.066406 7.640625 17.066406 17.066406v76.800782c0 9.425781 7.640625 17.066406 17.066406 17.066406h85.332032c9.425781 0 17.070312 7.640625 17.070312 17.066406zm0 0" fill="#95a5a5"/><path d="m187.734375 469.332031c-2.265625 0-4.433594-.898437-6.035156-2.5l-42.664063-42.664062c-3.234375-3.351563-3.1875-8.671875.101563-11.964844 3.292969-3.289063 8.613281-3.335937 11.964843-.101563l35.921876 35.925782 28.160156-35.226563c2.945312-3.679687 8.320312-4.277343 12-1.332031 3.679687 2.945312 4.277344 8.316406 1.332031 11.996094l-34.136719 42.667968c-1.515625 1.894532-3.769531 3.050782-6.191406 3.183594zm0 0" fill="#71c285"/><path d="m324.265625 469.332031c-2.683594 0-5.214844-1.261719-6.824219-3.410156l-25.601562-34.136719c-1.828125-2.4375-2.21875-5.667968-1.019532-8.46875 1.195313-2.804687 3.800782-4.757812 6.824219-5.121094 3.027344-.367187 6.019531.914063 7.847657 3.351563l18.773437 25.027344 18.773437-25.027344c2.828126-3.769531 8.175782-4.535156 11.949219-1.707031 3.769531 2.828125 4.53125 8.175781 1.707031 11.945312l-25.601562 34.136719c-1.613281 2.148437-4.140625 3.410156-6.828125 3.410156zm0 0" fill="#71c285"/><path d="m34.132812 503.464844c-2.683593 0-5.214843-1.261719-6.824218-3.410156l-25.601563-34.132813c-1.941406-2.585937-2.25-6.046875-.804687-8.9375 1.445312-2.890625 4.398437-4.71875 7.632812-4.71875h494.929688c4.714844 0 8.535156 3.820313 8.535156 8.535156 0 4.710938-3.820312 8.53125-8.535156 8.53125h-477.863282l15.359376 20.480469c1.9375 2.585938 2.25 6.046875.804687 8.9375s-4.398437 4.714844-7.632813 4.714844zm0 0" fill="#4c8056"/></svg>