<svg height="512pt" viewBox="0 0 512 511" width="512pt" xmlns="http://www.w3.org/2000/svg"><g fill="#3d324c"><path d="m74.476562 342.988281c-1.296874 0-2.585937.0625-3.855468.070313-11.882813.207031-23.742188-1.070313-35.3125-3.796875-9.429688-2.019531-18.289063-6.117188-25.933594-11.996094-5.664062-4.210937-9.113281-10.765625-9.375-17.820313 2.378906-10.886718 7.617188-20.945312 15.175781-29.132812 10.429688-13.320312 21.570313-26.0625 33.375-38.179688 12.140625-12.683593 24.277344-24.550781 33.378907-33.246093 9.101562-8.695313 15.171874-14.203125 15.171874-14.203125s-43.605468 84.417968-22.625 148.304687"/><path d="m437.523438 342.988281c1.296874 0 2.585937.0625 3.855468.070313 11.882813.207031 23.742188-1.070313 35.3125-3.796875 9.429688-2.019531 18.289063-6.117188 25.933594-11.996094 5.664062-4.210937 9.113281-10.765625 9.375-17.820313-2.378906-10.886718-7.617188-20.945312-15.175781-29.132812-10.429688-13.320312-21.570313-26.0625-33.375-38.179688-12.140625-12.695312-24.277344-24.550781-33.378907-33.246093-9.101562-8.695313-15.171874-14.203125-15.171874-14.203125s43.605468 84.410156 22.625 148.304687"/><path d="m374.820312 428.527344-24.011718 65.941406c-4.386719 12.039062-16.535156 19.421875-29.242188 17.773438-12.703125-1.652344-22.5625-11.898438-23.722656-24.65625l-3.53125-39.019532h-76.625l-3.53125 39.019532c-1.160156 12.757812-11.019531 23.003906-23.722656 24.65625-12.707032 1.648437-24.855469-5.734376-29.242188-17.773438l-24.011718-65.941406zm0 0"/></g><path d="m417.191406 156.816406c50.933594-55.703125 9.800782-120.761718-17.742187-153.25-2.566407-2.898437-6.738281-3.75-10.234375-2.09375s-5.480469 5.425782-4.863282 9.246094c2.035157 23.125-6.011718 46-22.066406 62.761719h-212.570312c-16.054688-16.761719-24.101563-39.636719-22.066406-62.761719.617187-3.820312-1.367188-7.589844-4.863282-9.246094-3.496094-1.65625-7.667968-.804687-10.234375 2.09375-27.542969 32.488282-68.675781 97.546875-17.742187 153.25zm0 0" fill="#fdd7ad"/><path d="m443.71875 234.65625c-1.441406-10.6875-3.921875-21.210938-7.40625-31.417969-25.484375-76.167969-74.226562-142.421875-139.351562-189.429687-24.429688-17.730469-57.492188-17.730469-81.921876 0-65.125 47.007812-113.867187 113.261718-139.351562 189.429687-3.484375 10.207031-5.964844 20.730469-7.40625 31.417969l-14.785156 107.625c7.324218 60.644531 95.160156 108.402344 202.503906 108.402344s195.179688-47.757813 202.503906-108.402344zm0 0" fill="#894b9d"/><path d="m419.980469 234.65625c-1.214844-10.628906-3.320313-21.140625-6.292969-31.417969-20.035156-73.402343-61.230469-139.285156-118.457031-189.429687-19.820313-17.746094-49.8125-17.746094-69.632813 0-57.226562 50.144531-98.425781 116.027344-118.457031 189.429687-2.972656 10.277344-5.078125 20.789063-6.292969 31.417969l-12.570312 107.625c6.230468 60.644531 80.886718 108.402344 172.136718 108.402344s165.90625-47.757813 172.136719-108.402344zm0 0" fill="#955ba5"/><path d="m371.640625 229.378906c-27.277344 28.511719-115.640625 124.910156-115.640625 177.167969 0-52.257813-88.363281-148.65625-115.640625-177.167969 94.191406-60.027344 115.640625-167.109375 115.640625-167.109375s21.449219 107.082031 115.640625 167.109375zm0 0" fill="#35495e"/><path d="m205.152344 169.085938c2.183594-.609376 4.441406-.90625 6.710937-.882813 14.625 0 26.480469 11.855469 26.480469 26.480469 0 14.628906-11.855469 26.484375-26.480469 26.484375-14.628906 0-26.484375-11.855469-26.484375-26.484375-.027344-.855469.03125-1.714844.175782-2.558594" fill="#ff5364"/><path d="m326.445312 192.125c.144532.84375.203126 1.703125.175782 2.558594 0 14.628906-11.855469 26.484375-26.484375 26.484375-14.625 0-26.480469-11.855469-26.480469-26.484375 0-14.625 11.855469-26.480469 26.480469-26.480469 2.269531-.023437 4.527343.273437 6.710937.882813" fill="#ff5364"/><path d="m409.546875 239.539062c-117.6875-50.441406-144.632813-177.726562-144.894531-179.035156-.238282-1.136718-.691406-2.214844-1.34375-3.175781-.292969-.34375-.609375-.667969-.953125-.960937-.425781-.535157-.914063-1.015626-1.457031-1.433594-.957032-.640625-2.03125-1.089844-3.160157-1.324219-3.503906-.726563-7.101562.761719-9.066406 3.753906-.636719.953125-1.085937 2.023438-1.3125 3.152344-.265625 1.269531-26.945313 128.441406-144.898437 178.996094-3.882813 1.628906-6.074219 5.78125-5.230469 9.90625.84375 4.128906 4.488281 7.085937 8.699219 7.058593 1.199218.007813 2.382812-.238281 3.480468-.714843 10.148438-4.363281 20-9.398438 29.484375-15.066407 53.246094 56.476563 108.277344 128.121094 108.277344 165.851563 0 4.875 3.953125 8.828125 8.828125 8.828125s8.828125-3.953125 8.828125-8.828125c0-37.730469 55.03125-109.375 108.277344-165.851563 9.484375 5.667969 19.335937 10.703126 29.484375 15.066407 1.097656.476562 2.28125.722656 3.480468.714843 4.1875 0 7.800782-2.945312 8.644532-7.050781.839844-4.105469-1.316406-8.234375-5.167969-9.886719zm-153.546875 131.070313c-20.417969-48.339844-71.742188-107.351563-101.976562-139.632813 47.261718-34.273437 82.855468-82.226562 101.976562-137.386718 19.121094 55.160156 54.714844 103.113281 101.976562 137.386718-30.234374 32.28125-81.558593 91.292969-101.976562 139.632813zm0 0" fill="#3d324c"/><path d="m264.828125 274.132812h-17.65625c-4.875 0-8.828125-3.953124-8.828125-8.828124s3.953125-8.828126 8.828125-8.828126h17.65625c4.875 0 8.828125 3.953126 8.828125 8.828126s-3.953125 8.828124-8.828125 8.828124zm0 0" fill="#2c2f38"/></svg>