<svg height="512pt" viewBox="-40 0 512 512.00002" width="512pt" xmlns="http://www.w3.org/2000/svg"><path d="m409.316406 351.78125c-11.84375 17.355469-29.101562 30.300781-49.082031 36.808594-16.257813 5.304687-33.304687 7.785156-50.402344 7.328125v-42.816407c20.78125-6.347656 38.640625-19.859374 50.402344-38.132812 10.332031-17.832031 14.480469-43.078125.882813-78.210938-1.660157-4.367187-1.503907-9.214843.4375-13.460937 1.941406-4.25 5.503906-7.539063 9.894531-9.140625l33.632812-12.621094c4.941407-1.871094 10.460938-1.429687 15.039063 1.203125 4.582031 2.632813 7.742187 7.179688 8.617187 12.390625 5.121094 32.132813 9.796875 94.277344-19.421875 136.652344zm0 0" fill="#f9eab0"/><path d="m428.738281 488.429688c-.875 5.210937-4.035156 9.757812-8.617187 12.390624-4.578125 2.632813-10.097656 3.074219-15.039063 1.203126l-33.632812-12.621094c-4.390625-1.601563-7.953125-4.890625-9.894531-9.140625-1.941407-4.246094-2.097657-9.09375-.4375-13.457031 13.597656-35.136719 9.449218-60.382813-.882813-78.214844 19.980469-6.507813 37.238281-19.453125 49.082031-36.808594 29.21875 42.371094 24.542969 104.515625 19.421875 136.648438zm0 0" fill="#cbb292"/><path d="m360.234375 314.96875c-11.753906 18.269531-29.609375 31.78125-50.386719 38.132812v-45.460937c17.09375-.453125 34.132813 2.023437 50.386719 7.328125zm0 0" fill="#cbb292"/><path d="m176.726562 133.386719-167.898437 32.570312c.074219-37.472656 11.933594-73.976562 33.898437-104.339843l1.410157 1.058593s49.699219-6.355469 89.25 15.273438c21.367187 11.320312 37.023437 31.074219 43.164062 54.464843zm0 0" fill="#f9eab0"/><path d="m236.492188 24.1875c-40.597657 1.90625-78.300782 21.566406-103.105469 53.761719-39.550781-21.628907-89.25-15.273438-89.25-15.273438l-1.410157-1.058593c26.566407-38.019532 69.792969-60.949219 116.171876-61.617188 27.710937.0507812 54.761718 8.480469 77.59375 24.1875zm0 0" fill="#fdd7ad"/><path d="m299.609375 109.460938-122.882813 23.925781-.175781-.972657c-6.140625-23.390624-21.796875-43.144531-43.164062-54.464843 24.804687-32.195313 62.507812-51.855469 103.105469-53.761719 29.855468 20.699219 52.042968 50.675781 63.117187 85.273438zm0 0" fill="#cbb292"/><path d="m317.792969 395.917969v18.980469c.011719 5.949218-.519531 11.886718-1.589844 17.742187h-.085937l-105.492188 3-201.796875 5.738281-4.765625 1.234375c-2.707031-8.988281-4.0742188-18.328125-4.0625-27.714843v-43.433594zm0 0" fill="#f9eab0"/><path d="m210.625 435.640625c-16.757812 40.203125-52.9375 69.019531-95.867188 76.359375h-17.652343c-42.921875.003906-80.753907-28.171875-93.042969-69.296875v-.089844l4.765625-1.234375zm0 0" fill="#fdd7ad"/><path d="m316.117188 432.640625c-8.503907 46.007813-48.640626 79.386719-95.425782 79.359375h-105.933594c42.929688-7.339844 79.109376-36.15625 95.867188-76.359375zm0 0" fill="#cbb292"/><path d="m317.792969 291.308594v42.816406l-317.792969-24.453125v-18.363281c-.0234375-14.410156 3.175781-28.644532 9.355469-41.664063 3.140625-6.683593 4.96875-13.90625 5.386719-21.273437l294.136718-57.203125c-.1875 12.234375-1.609375 24.417969-4.238281 36.367187-3.457031 14.070313-2.121094 28.886719 3.796875 42.109375 6.183594 13.019531 9.378906 27.253907 9.355469 41.664063zm0 0" fill="#71c285"/><path d="m291.308594 295.574219.003906 48.703125-273.65625-27.816406v-20.886719c-.066406-16.148438 2.660156-32.183594 8.058594-47.402344 2.738281-7.792969 4.300781-15.949219 4.632812-24.199219l253.28125-65.074218c-.152344 13.863281-1.371094 27.695312-3.644531 41.371093-2.976563 15.988281-1.851563 32.464844 3.265625 47.902344 5.398438 15.21875 8.125 31.253906 8.058594 47.402344zm0 0" fill="#bbd1b5"/><path d="m127.734375 206.390625c5.144531 9.625 6.097656 20.945313 2.644531 31.296875-3.457031 10.351562-11.023437 18.828125-20.917968 23.433594l-16.769532 3.707031c-10.542968.011719-20.652344-4.167969-28.105468-11.621094-7.453126-7.453125-11.632813-17.5625-11.621094-28.105469 0-1.410156.089844-2.824218.175781-4.234374zm0 0" fill="#cc4b4c"/><path d="m232.34375 186.085938c20.082031 3.835937 33.972656 22.292968 32.101562 42.65625-1.871093 20.359374-18.894531 35.972656-39.339843 36.085937l-16.773438-3.707031c-13.164062-6.132813-21.9375-18.957032-22.875-33.445313-.9375-14.492187 6.109375-28.339843 18.371094-36.117187zm0 0" fill="#cc4b4c"/><g fill="#4c8056"><path d="m158.898438 330.769531c-4.878907 0-8.828126-3.953125-8.828126-8.828125v-48.285156c0-4.875 3.949219-8.828125 8.828126-8.828125 4.875 0 8.824218 3.953125 8.824218 8.828125v48.285156c0 4.875-3.949218 8.828125-8.824218 8.828125zm0 0"/><path d="m52.964844 282.484375c-4.511719.011719-8.308594-3.382813-8.800782-7.871094-.488281-4.484375 2.484376-8.621093 6.894532-9.582031l79.449218-17.65625c4.761719-1.058594 9.480469 1.945312 10.539063 6.710938 1.058594 4.761718-1.945313 9.480468-6.707031 10.539062l-79.449219 17.65625c-.632813.132812-1.277344.199219-1.925781.203125zm0 0"/><path d="m264.828125 282.484375c-.648437-.003906-1.292969-.070313-1.925781-.203125l-79.449219-17.65625c-4.761719-1.058594-7.765625-5.777344-6.707031-10.539062 1.058594-4.765626 5.777344-7.769532 10.539062-6.710938l79.449219 17.65625c4.410156.960938 7.382813 5.097656 6.894531 9.582031-.492187 4.488281-4.289062 7.882813-8.800781 7.871094zm0 0"/></g><path d="m317.792969 334.125v61.792969l-317.792969-24.453125v-61.792969zm0 0" fill="#af8066"/><path d="m308.964844 167.722656c0 1.148438 0 2.296875-.085938 3.445313l-294.136718 57.203125c.484374-6.984375-.054688-14.003906-1.589844-20.835938-2.878906-13.074218-4.332032-26.421875-4.324219-39.8125v-1.765625l167.898437-32.570312 122.882813-23.925781c6.246094 18.789062 9.40625 38.464843 9.355469 58.261718zm0 0" fill="#af8066"/></svg>