<svg height="504pt" viewBox="-55 0 504 504.7734" width="504pt" xmlns="http://www.w3.org/2000/svg"><path d="m353.0625 313.519531c8.5-5.199219 16.398438-11.398437 23.398438-18.5 13.800781-12.296875 15.902343-33 4.902343-47.796875-16.699219-20.402344-28.402343-13.800781-40-2.703125h-287.601562c-11.597657-11.097656-23.300781-17.699219-40 2.703125-11 14.796875-8.898438 35.5 4.902343 47.796875 7.097657 7.101563 14.898438 13.300781 23.398438 18.5zm0 0" fill="#7ed09e"/><path d="m351.5625 364.320312c-1 21.402344 3.199219 57.300782 38.5 75.101563 4 2.097656 5.699219 7 3.898438 11.097656-11 24.300781-53.199219 91.800781-161.699219 26.703125h-69.398438c-108.5 65.097656-150.699219-2.5-161.699219-26.703125-1.902343-4.097656-.203124-9 3.898438-11.097656 35.300781-17.800781 39.5-53.699219 38.5-75.101563zm0 0" fill="#4c8056"/><path d="m301.664062 422.222656c-51.402343 29.199219-70 50.398438-76.402343 63.796875-5.199219 10.601563-16 17.402344-27.800781 17.402344-11.796876 0-22.597657-6.699219-27.796876-17.402344-6.300781-13.398437-25-34.597656-76.402343-63.796875-95.300781-54.101562-34.5-153.203125-34.5-153.203125l6.601562-5.699219c5.699219 3.5 12.199219 5.5 18.898438 5.800782 5 .398437 10.101562-.398438 14.800781-2.199219 90.199219-34.402344 98.5-76 98.5-76s8.300781 41.699219 98.5 76c4.699219 1.800781 9.800781 2.5 14.800781 2.199219 6.898438-.300782 13.597657-2.5 19.398438-6.199219l6.101562 6.097656s60.800781 99.101563-34.699219 153.203125zm0 0" fill="#9bc8c2"/><path d="m289.164062 413.519531c-45.203124 29.203125-61.601562 50.402344-67.203124 63.800781-3.597657 10.402344-13.398438 17.300782-24.398438 17.300782s-20.800781-7-24.398438-17.300782c-5.601562-13.398437-22-34.597656-67.203124-63.800781-83.898438-54.097656-30.5-153.199219-30.5-153.199219l5.800781-5.699218c4.902343 3.398437 10.699219 5.398437 16.601562 5.800781 4.5.398437 8.898438-.402344 13-2.199219 79.300781-34.402344 86.597657-76 86.597657-76s7.300781 41.699219 86.601562 76c4.101562 1.796875 8.601562 2.5 13 2.199219 6.199219-.402344 12.101562-2.5 17.101562-6.199219l5.296876 6.097656c.203124 0 53.601562 99.101563-30.296876 153.199219zm0 0" fill="#bbd1b5"/><path d="m67.363281 190.921875h130.199219s-8.300781 41.699219-98.5 76c-4.699219 1.800781-9.800781 2.5-14.800781 2.199219-6.699219-.300782-13.199219-2.300782-18.898438-5.800782-12.699219-8.300781-20.402343-27.597656 2-72.398437zm0 0" fill="#4c8056"/><path d="m330.363281 262.921875c-5.800781 3.699219-12.5 5.800781-19.402343 6.199219-5 .398437-10.097657-.398438-14.796876-2.199219-90.203124-34.402344-98.5-76-98.5-76h130.199219c21.898438 44.097656 14.800781 63.5 2.5 72zm0 0" fill="#4c8056"/><path d="m197.5625 377.722656c-9.898438 0-18.898438-5.5-23.300781-14.402344l-10.5-21c-1.398438-2.800781-1.199219-6.097656.5-8.699218 1.699219-2.601563 4.699219-4.101563 7.800781-3.898438 3.101562.199219 5.898438 2 7.199219 4.796875l10.5 21c1.601562 2.800781 4.601562 4.5 7.800781 4.5s6.199219-1.699219 7.800781-4.5l10.5-21c2.097657-4.296875 7.398438-6 11.597657-3.898437 4.300781 2.101562 6 7.398437 3.902343 11.601562l-10.5 21c-4.402343 9-13.402343 14.597656-23.300781 14.5zm0 0" fill="#35495e"/><path d="m275.664062 347.121094c-4.800781 0-8.703124 3.898437-8.703124 8.699218 0 1.402344-.296876 34.699219-26 34.699219h-86.796876c-25.5 0-26-33.097656-26-34.699219 0-4.800781-3.902343-8.699218-8.703124-8.699218-4.796876 0-8.699219 3.898437-8.699219 8.699218 0 18 9.101562 52.101563 43.402343 52.101563h86.796876c34.300781 0 43.402343-34.101563 43.402343-52.101563 0-4.800781-3.902343-8.699218-8.699219-8.699218zm0 0" fill="#35495e"/><path d="m223.664062 442.621094c0 4.804687-3.898437 8.699218-8.703124 8.699218-4.804688 0-8.699219-3.894531-8.699219-8.699218 0-4.804688 3.894531-8.699219 8.699219-8.699219 4.804687 0 8.703124 3.894531 8.703124 8.699219zm0 0" fill="#59474e"/><path d="m132.5625 252.019531c1.398438-.199219 2.800781-.398437 4.300781-.296875 14.398438 0 34.699219 26 34.699219 34.699219 0 14.398437-20.300781 17.398437-34.699219 17.398437-14.402343 0-26-11.699218-26-26 0-7.300781 3.097657-14.300781 8.5-19.199218" fill="#2fa8cc"/><path d="m275.863281 258.519531c5.398438 4.902344 8.5 11.902344 8.5 19.203125 0 14.398438-11.699219 26-26 26-14.402343 0-34.699219-3-34.699219-17.402344 0-8.699218 20.296876-34.699218 34.699219-34.699218 1.398438 0 2.800781.101562 4.300781.300781" fill="#2fa8cc"/><path d="m362.460938 138.820312v8.699219c0 11.5-4.597657 22.5-12.699219 30.703125-8.097657 8.097656-19.199219 12.699219-30.699219 12.699219h-243c-24 0-43.398438-19.402344-43.398438-43.402344 0-4.796875 3.898438-8.699219 8.699219-8.699219zm0 0" fill="#35495e"/><path d="m289.164062 69.421875h-25.402343c-3 0-5.800781 1.5-7.398438 4.097656-1.601562 2.601563-1.699219 5.800781-.402343 8.5l11.101562 22.101563h-146l30.898438-56.699219c1.5-2.699219 3.402343-5.101563 5.703124-7.101563l43.796876-38.300781c2.902343-2.398437 6.902343-2.699219 10.101562-.699219l82.300781 52.199219c3.199219 2.101563 4.699219 6 3.597657 9.703125-1.097657 3.699219-4.5 6.199219-8.296876 6.199219zm0 0" fill="#35495e"/><path d="m284.363281 138.820312h-60.800781v-34.699218h43.398438zm0 0" fill="#bdc3c7"/><path d="m171.5625 104.121094v34.699218h-69.5l19-34.699218zm0 0" fill="#bdc3c7"/><path d="m171.5625 104.121094h52.101562v34.699218h-52.101562zm0 0" fill="#f0c419"/></svg>