<svg height="504pt" viewBox="-55 0 504 504.7734" width="504pt" xmlns="http://www.w3.org/2000/svg"><path d="m353.0625 313.519531c8.5-5.199219 16.398438-11.398437 23.398438-18.5 13.800781-12.296875 15.902343-33 4.902343-47.796875-16.699219-20.402344-28.402343-13.800781-40-2.703125h-287.601562c-11.597657-11.097656-23.300781-17.699219-40 2.703125-11 14.796875-8.898438 35.5 4.902343 47.796875 7.097657 7.101563 14.898438 13.300781 23.398438 18.5zm0 0" fill="#7ed09e"/><path d="m351.5625 364.320312c-1 21.402344 3.199219 57.300782 38.5 75.101563 4 2.097656 5.699219 7 3.898438 11.097656-11 24.300781-53.199219 91.800781-161.699219 26.703125h-69.398438c-108.5 65.097656-150.699219-2.5-161.699219-26.703125-1.902343-4.097656-.203124-9 3.898438-11.097656 35.300781-17.800781 39.5-53.699219 38.5-75.101563zm0 0" fill="#4c8056"/><path d="m301.664062 422.222656c-51.402343 29.199219-70 50.398438-76.402343 63.796875-5.199219 10.601563-16 17.402344-27.800781 17.402344-11.796876 0-22.597657-6.699219-27.796876-17.402344-6.300781-13.398437-25-34.597656-76.402343-63.796875-95.300781-54.101562-34.5-153.203125-34.5-153.203125l6.601562-5.699219c5.699219 3.5 12.199219 5.5 18.898438 5.800782 5 .398437 10.101562-.398438 14.800781-2.199219 90.199219-34.402344 98.5-76 98.5-76s8.300781 41.699219 98.5 76c4.699219 1.800781 9.800781 2.5 14.800781 2.199219 6.898438-.300782 13.597657-2.5 19.398438-6.199219l6.101562 6.097656s60.800781 99.101563-34.699219 153.203125zm0 0" fill="#9bc8c2"/><path d="m289.164062 413.519531c-45.203124 29.203125-61.601562 50.402344-67.203124 63.800781-3.597657 10.402344-13.398438 17.300782-24.398438 17.300782s-20.800781-7-24.398438-17.300782c-5.601562-13.398437-22-34.597656-67.203124-63.800781-83.898438-54.097656-30.5-153.199219-30.5-153.199219l5.800781-5.699218c4.902343 3.398437 10.699219 5.398437 16.601562 5.800781 4.5.398437 8.898438-.402344 13-2.199219 79.300781-34.402344 86.597657-76 86.597657-76s7.300781 41.699219 86.601562 76c4.101562 1.796875 8.601562 2.5 13 2.199219 6.199219-.402344 12.101562-2.5 17.101562-6.199219l5.296876 6.097656c.203124 0 53.601562 99.101563-30.296876 153.199219zm0 0" fill="#bbd1b5"/><path d="m67.363281 190.921875h130.199219s-8.300781 41.699219-98.5 76c-4.699219 1.800781-9.800781 2.5-14.800781 2.199219-6.699219-.300782-13.199219-2.300782-18.898438-5.800782-12.699219-8.300781-20.402343-27.597656 2-72.398437zm0 0" fill="#4c8056"/><path d="m330.363281 262.921875c-5.800781 3.699219-12.5 5.800781-19.402343 6.199219-5 .398437-10.097657-.398438-14.796876-2.199219-90.203124-34.402344-98.5-76-98.5-76h130.199219c21.898438 44.097656 14.800781 63.5 2.5 72zm0 0" fill="#4c8056"/><path d="m178.460938 294.421875c1.203124 3 1.703124 6.097656 1.703124 9.300781 0 12.5-8.800781 23.296875-21.101562 25.597656-12.300781 2.402344-24.5-4.398437-29.101562-16-4.597657-11.597656-.296876-24.898437 10.300781-31.597656" fill="#2fa8cc"/><path d="m254.960938 281.820312c10.5 6.699219 14.800781 20 10.203124 31.601563-4.601562 11.597656-16.800781 18.300781-29.101562 16s-21.101562-13.101563-21.101562-25.601563c0-3.199218.601562-6.300781 1.703124-9.300781" fill="#2fa8cc"/><g fill="#35495e"><path d="m180.164062 303.722656c-.902343 0-1.902343-.203125-2.703124-.5l-52.097657-17.402344c-4.601562-1.5-7-6.398437-5.5-11 1.5-4.597656 6.398438-7 11-5.5l52.097657 17.402344c4.101562 1.296875 6.601562 5.398438 5.902343 9.597656-.699219 4.402344-4.402343 7.5-8.699219 7.402344zm0 0"/><path d="m214.960938 303.722656c-4.199219 0-7.898438-3.101562-8.5-7.300781-.699219-4.199219 1.800781-8.300781 5.800781-9.601563l52.101562-17.398437c4.597657-1.5 9.5.898437 11 5.5 1.5 4.597656-.902343 9.5-5.5 11l-52.101562 17.398437c-1 .300782-1.898438.402344-2.800781.402344zm0 0"/><path d="m284.363281 407.921875c-4.800781 0-8.699219-3.902344-8.699219-8.699219v-8.703125c0-4.796875-3.902343-8.699219-8.703124-8.699219h-57.898438c-4.800781 0-8.699219-3.898437-8.699219-8.699218 0-4.800782 3.898438-8.699219 8.699219-8.699219h57.898438c14.402343 0 26 11.699219 26 26v8.699219c.101562 4.898437-3.796876 8.800781-8.597657 8.800781zm0 0"/><path d="m119.460938 407.921875c-4.796876 0-8.699219-3.902344-8.699219-8.699219v-8.703125c0-14.398437 11.699219-26 26-26h49.199219c4.800781 0 8.703124 3.902344 8.703124 8.703125 0 4.796875-3.902343 8.699219-8.703124 8.699219h-49.199219c-4.800781 0-8.699219 3.898437-8.699219 8.699219v8.699218c.101562 4.699219-3.800781 8.601563-8.601562 8.601563zm0 0"/></g><path d="m197.5625 397.820312c-7.5.101563-14.199219-4.699218-16.5-11.898437l-9.101562-27.402344c-1.5-4.597656.902343-9.5 5.5-11 4.601562-1.5 9.5.902344 11 5.5l9.101562 27.402344 9.101562-27.402344c1-2.898437 3.5-5.097656 6.5-5.796875 3-.601562 6.199219.398438 8.199219 2.699219 2.097657 2.300781 2.699219 5.597656 1.699219 8.5l-9.101562 27.398437c-2.199219 7.300782-8.898438 12.101563-16.398438 12zm0 0" fill="#4c8056"/><path d="m362.460938 138.820312v8.699219c0 11.5-4.597657 22.5-12.699219 30.703125-8.097657 8.097656-19.199219 12.699219-30.699219 12.699219h-243c-24 0-43.398438-19.402344-43.398438-43.402344 0-4.796875 3.898438-8.699219 8.699219-8.699219zm0 0" fill="#35495e"/><path d="m289.164062 69.421875h-25.402343c-3 0-5.800781 1.5-7.398438 4.097656-1.601562 2.601563-1.699219 5.800781-.402343 8.5l11.101562 22.101563h-146l30.898438-56.699219c1.5-2.699219 3.402343-5.101563 5.703124-7.101563l43.796876-38.300781c2.902343-2.398437 6.902343-2.699219 10.101562-.699219l82.300781 52.199219c3.199219 2.101563 4.699219 6 3.597657 9.703125-1.097657 3.699219-4.5 6.199219-8.296876 6.199219zm0 0" fill="#35495e"/><path d="m284.363281 138.820312h-60.800781v-34.699218h43.398438zm0 0" fill="#bdc3c7"/><path d="m171.5625 104.121094v34.699218h-69.5l19-34.699218zm0 0" fill="#bdc3c7"/><path d="m171.5625 104.121094h52.101562v34.699218h-52.101562zm0 0" fill="#f0c419"/></svg>