<svg height="512pt" viewBox="-44 0 512 512" width="512pt" xmlns="http://www.w3.org/2000/svg"><path d="m367.273438 309.761719h-310.90625c-100.195313-54.113281-36.28125-142.039063-36.28125-142.039063 2.207031 1.148438 4.414062 2.296875 6.441406 3.445313h.089844c13.949218 7.339843 26.078124 17.71875 35.488281 30.367187h299.429687c9.425782-12.671875 21.585938-23.050781 35.574219-30.367187v-.089844l6.445313-3.355469s63.914062 87.925782-36.28125 142.039063zm0 0" fill="#547580"/><path d="m65.890625 259.441406c-2.070313-.003906-4.074219-.734375-5.65625-2.0625-11.121094-8.351562-23.46875-14.925781-36.601563-19.492187-4.628906-1.550781-7.128906-6.558594-5.582031-11.191407 1.546875-4.628906 6.558594-7.128906 11.1875-5.582031 15.234375 5.238281 29.527344 12.902344 42.320313 22.695313 2.847656 2.382812 3.902344 6.296875 2.632812 9.785156-1.269531 3.492188-4.585937 5.816406-8.300781 5.8125zm0 0" fill="#35495e"/><path d="m357.75 259.441406c-3.714844.003906-7.03125-2.320312-8.300781-5.8125-1.269531-3.488281-.214844-7.402344 2.632812-9.785156 12.792969-9.792969 27.082031-17.457031 42.320313-22.695312 4.628906-1.546876 9.640625.953124 11.1875 5.582031 1.546875 4.632812-.953125 9.644531-5.582032 11.191406-13.136718 4.566406-25.480468 11.140625-36.601562 19.492187-1.589844 1.316407-3.589844 2.035157-5.65625 2.027344zm0 0" fill="#35495e"/><path d="m370.628906 353.808594v.441406c1.410156 14.566406 8.738282 42.195312 43.960938 63.117188 3.261718 1.992187 4.871094 5.859374 3.984375 9.578124-.882813 3.714844-4.058594 6.441407-7.867188 6.753907-40.960937 3.707031-106.640625 16.859375-161.546875 60.734375h-74.679687c-54.910157-43.875-120.585938-57.027344-161.546875-60.734375-3.808594-.3125-6.984375-3.039063-7.867188-6.753907-.886718-3.71875.722656-7.585937 3.984375-9.578124 35.75-21.097657 42.8125-49.34375 43.871094-63.734376zm0 0" fill="#3d324c"/><path d="m397.199219 165.339844c0 1.941406 0 3.796875-.089844 5.738281v.089844c-13.988281 7.316406-26.148437 17.695312-35.574219 30.367187-27.101562-130.207031-149.714844-33.8125-149.714844-33.8125s-122.617187-96.394531-149.714843 33.8125c-9.410157-12.648437-21.539063-23.027344-35.488281-30.367187h-.089844c-.085938-1.941407-.085938-3.886719-.085938-5.828125 0-91.277344 83.066406-165.339844 185.378906-165.339844s185.378907 74.0625 185.378907 165.339844zm0 0" fill="#2c3e50"/><path d="m370.714844 335.449219v17.652343s0 27.015626-35.484375 33.8125c-15.464844 2.542969-29.566407 10.375-39.902344 22.15625-4.238281 5.121094-8.207031 10.417969-12.003906 15.625-15.457031 19.742188-26.75 42.417969-33.191407 66.648438-2.757812 12.03125-13.433593 20.585938-25.777343 20.65625h-25.070313c-12.34375-.070312-23.019531-8.625-25.777344-20.65625-6.445312-24.230469-17.734374-46.90625-33.191406-66.648438-3.796875-5.207031-7.769531-10.503906-12.003906-15.625-10.335938-11.78125-24.4375-19.613281-39.902344-22.15625-35.488281-6.796874-35.488281-33.8125-35.488281-33.8125v-17.652343c.011719-8.679688 1.171875-17.316407 3.445313-25.6875 3.320312-12.25 9.054687-23.714844 16.859374-33.722657-7.640624-20.53125-11.527343-42.269531-11.476562-64.175781 0-3.355469.089844-6.710937.265625-10.066406-.011719-.09375.019531-.191406.089844-.261719 27.097656-130.207031 149.714843-33.8125 149.714843-33.8125s122.613282-96.394531 149.714844 33.8125c.066406.070313.101563.167969.089844.261719v.089844c.175781 3.355469.265625 6.621093.265625 9.976562.050781 21.90625-3.835937 43.644531-11.476563 64.175781 7.804688 10.007813 13.539063 21.472657 16.859376 33.722657 2.273437 8.371093 3.429687 17.007812 3.441406 25.6875zm0 0" fill="#547580"/><path d="m353.0625 335.449219v17.652343c-1.074219 17.363282-14.296875 31.535157-31.542969 33.8125-14.136719 2.785157-26.761719 10.671876-35.46875 22.15625-3.769531 5.121094-7.300781 10.417969-10.671875 15.625-13.925781 20.171876-23.933594 42.777344-29.503906 66.648438-1.785156 11.457031-11.371094 20.082031-22.949219 20.65625h-22.246093c-11.582032-.574219-21.167969-9.199219-22.953126-20.65625-5.558593-23.867188-15.554687-46.476562-29.464843-66.648438-3.371094-5.207031-6.902344-10.503906-10.671875-15.625-8.707032-11.484374-21.332032-19.371093-35.46875-22.15625-17.246094-2.277343-30.46875-16.449218-31.542969-33.8125v-17.652343c.003906-8.65625 1.035156-17.277344 3.0625-25.6875 2.878906-12.074219 7.964844-23.507813 15.007813-33.722657-6.824219-20.707031-10.277344-42.375-10.222657-64.175781 0-3.355469.078125-6.710937.238281-10.066406-.007812-.09375.015626-.1875.070313-.261719 24.089844-130.207031 133.085937-33.8125 133.085937-33.8125s108.992188-96.394531 133.085938 33.8125c.054688.074219.078125.167969.070312.261719v.089844c.15625 3.355469.238282 6.621093.238282 9.976562.0625 21.800781-3.382813 43.46875-10.195313 64.175781 7.039063 10.214844 12.128907 21.648438 15.003907 33.722657 2.023437 8.410156 3.042968 17.035156 3.039062 25.6875zm0 0" fill="#b0d3f0"/><path d="m174.921875 241.964844c1.070313 3.09375 1.605469 6.347656 1.585937 9.621094.027344 15.773437-11.832031 29.035156-27.511718 30.761718-15.679688 1.730469-30.144532-8.632812-33.550782-24.035156s5.335938-30.898438 20.28125-35.945312" fill="#ff5364"/><path d="m185.335938 256c-1.363282 0-2.710938-.316406-3.9375-.925781l-70.617188-35.3125c-2.824219-1.410157-4.679688-4.21875-4.871094-7.367188-.191406-3.148437 1.3125-6.160156 3.945313-7.898437 2.632812-1.742188 5.992187-1.945313 8.816406-.535156l70.621094 35.3125c3.667969 1.828124 5.59375 5.941406 4.652343 9.929687-.941406 3.988281-4.507812 6.804687-8.609374 6.796875zm0 0" fill="#547580"/><path d="m287.914062 222.367188c14.945313 5.046874 23.6875 20.542968 20.28125 35.945312-3.410156 15.402344-17.871093 25.765625-33.550781 24.035156-15.679687-1.726562-27.539062-14.988281-27.515625-30.761718-.015625-3.273438.519532-6.527344 1.589844-9.621094" fill="#ff5364"/><g fill="#547580"><path d="m238.304688 256c-4.101563.007812-7.667969-2.808594-8.609376-6.796875-.945312-3.988281.984376-8.101563 4.652344-9.929687l70.621094-35.3125c4.363281-2.179688 9.667969-.410157 11.847656 3.957031 2.179688 4.363281.40625 9.664062-3.957031 11.84375l-70.621094 35.3125c-1.222656.609375-2.570312.925781-3.933593.925781zm0 0"/><path d="m211.820312 330.152344c-6.972656-.003906-13.789062-2.070313-19.589843-5.941406l-11.792969-7.867188c-2.625-1.75-4.113281-4.765625-3.910156-7.914062.203125-3.148438 2.070312-5.945313 4.898437-7.34375 2.828125-1.398438 6.1875-1.179688 8.8125.570312l11.792969 7.867188c5.921875 3.964843 13.652344 3.964843 19.578125 0l11.792969-7.867188c4.058594-2.707031 9.539062-1.609375 12.246094 2.445312 2.703124 4.054688 1.609374 9.539063-2.445313 12.242188l-11.792969 7.867188c-5.800781 3.871093-12.617187 5.9375-19.589844 5.941406zm0 0"/><path d="m211.820312 467.863281c-4.875 0-8.828124-3.953125-8.828124-8.828125v-17.65625c0-4.875 3.953124-8.828125 8.828124-8.828125s8.828126 3.953125 8.828126 8.828125v17.65625c0 4.875-3.953126 8.828125-8.828126 8.828125zm0 0"/><path d="m194.164062 211.863281c-.390624 0-.785156-.027343-1.171874-.082031-31.621094-3.167969-61.355469-16.507812-84.746094-38.019531-3.34375-3.550781-3.171875-9.140625.378906-12.480469 3.550781-3.34375 9.140625-3.171875 12.484375.378906 20.679687 18.390625 46.621094 29.816406 74.148437 32.660156 4.492188.714844 7.707032 4.730469 7.421876 9.269532-.28125 4.539062-3.96875 8.121094-8.515626 8.273437zm0 0"/><path d="m229.476562 211.863281c-4.640624-.015625-8.480468-3.617187-8.785156-8.25-.304687-4.628906 3.027344-8.707031 7.628906-9.328125 27.550782-2.71875 53.519532-14.136718 74.148438-32.597656 2.136719-2.398438 5.402344-3.449219 8.535156-2.746094 3.128906.703125 5.632813 3.050782 6.535156 6.132813.902344 3.078125.058594 6.40625-2.199218 8.6875-23.386719 21.511719-53.125 34.851562-84.742188 38.019531-.371094.050781-.746094.078125-1.121094.082031zm0 0"/></g><path d="m194.164062 353.101562-17.742187 47.316407c-1.339844 3.46875-4.707031 5.722656-8.421875 5.644531s-6.984375-2.476562-8.175781-5.996094l-16.417969-56.851562c10.832031 6.480468 23.21875 9.898437 35.839844 9.886718zm0 0" fill="#fff"/><path d="m280.234375 343.214844-16.417969 56.851562c-1.191406 3.519532-4.460937 5.917969-8.175781 5.996094s-7.082031-2.175781-8.421875-5.644531l-17.742188-47.316407h14.917969c12.621094.011719 25.007813-3.40625 35.839844-9.886718zm0 0" fill="#fff"/><path d="m315.164062 311.550781c-3.445312-3.445312-9.035156-3.445312-12.480468 0l-14.628906 14.628907c-11.5625 11.621093-27.292969 18.136718-43.6875 18.097656h-65.09375c-16.394532.039062-32.125-6.476563-43.6875-18.097656l-14.628907-14.628907c-3.464843-3.34375-8.96875-3.296875-12.375.109375-3.402343 3.40625-3.453125 8.910156-.105469 12.375l14.625 14.625c14.863282 14.949219 35.089844 23.332032 56.171876 23.269532h65.09375c21.082031.0625 41.308593-8.320313 56.171874-23.269532l14.625-14.625c3.445313-3.449218 3.445313-9.035156 0-12.484375zm0 0" fill="#35495e"/></svg>