<svg height="511pt" viewBox="-30 0 511 511.84602" width="511pt" xmlns="http://www.w3.org/2000/svg"><path d="m430.417969 277.019531c2.191406-5.914062 4.074219-11.9375 5.640625-18.050781 8.453125-31.613281 9.195312-64.796875 2.167968-96.757812-14.308593-62.777344-56.445312-115.613282-114.460937-143.535157-16.25-8.429687-34.707031-11.644531-52.851563-9.199219-21.957031 2.664063-39.898437 18.796876-44.863281 40.355469-4.96875-21.558593-22.90625-37.691406-44.867187-40.355469-18.140625-2.445312-36.597656.769532-52.847656 9.199219-58.019532 27.921875-100.152344 80.757813-114.460938 143.535157-8.390625 38.230468-5.679688 78.066406 7.808594 114.808593zm0 0" fill="#e6e7e8"/><g fill="#bdc3c7"><path d="m430.417969 285.699219c-2.835938 0-5.492188-1.386719-7.117188-3.710938-1.621093-2.320312-2.007812-5.292969-1.03125-7.953125 2.085938-5.640625 3.882813-11.382812 5.378907-17.207031 8.117187-30.304687 8.839843-62.113281 2.109374-92.75-13.582031-60.277344-54.054687-110.992187-109.8125-137.609375-14.628906-7.644531-31.261718-10.585938-47.625-8.417969-18.644531 2.058594-33.902343 15.78125-37.914062 34.105469-1.046875 3.75-4.464844 6.339844-8.355469 6.339844s-7.308593-2.589844-8.355469-6.339844c-4.027343-18.316406-19.285156-32.027344-37.925781-34.085938-16.371093-2.144531-33.007812.804688-47.648437 8.441407-55.738282 26.617187-96.199219 77.316406-109.777344 137.574219-8.035156 36.625-5.4375 74.785156 7.488281 109.984374 1.65625 4.496094-.648437 9.484376-5.144531 11.140626-4.5 1.65625-9.488281-.648438-11.144531-5.144532-14.0625-38.300781-16.890625-79.824218-8.148438-119.679687 14.691407-65.460938 58.597657-120.566407 119.125-149.511719 17.871094-9.21875 38.148438-12.699219 58.070313-9.960938 17.816406 2.273438 33.722656 12.296876 43.460937 27.386719 9.734375-15.089843 25.636719-25.109375 43.449219-27.378906 19.921875-2.761719 40.210938.714844 58.082031 9.945313 60.515625 28.933593 104.421875 84.023437 119.121094 149.46875 7.324219 33.324218 6.550781 67.917968-2.261719 100.882812-1.636718 6.363281-3.597656 12.636719-5.886718 18.796875-1.253907 3.410156-4.503907 5.679687-8.136719 5.683594zm0 0"/><path d="m226.050781 164.726562c-4.792969 0-8.679687-3.882812-8.679687-8.675781v-104.136719c0-4.792968 3.886718-8.679687 8.679687-8.679687s8.675781 3.886719 8.675781 8.679687v104.136719c0 4.792969-3.882812 8.675781-8.675781 8.675781zm0 0"/><path d="m191.339844 112.660156c-.585938-.003906-1.167969-.0625-1.738282-.183594-86.65625-17.761718-116.570312-53.570312-117.800781-55.085937-3.039062-3.710937-2.492187-9.179687 1.21875-12.214844 3.707031-3.035156 9.175781-2.492187 12.214844 1.21875.234375.3125 28.003906 32.707031 107.839844 49.089844 4.347656.90625 7.3125 4.949219 6.863281 9.371094-.445312 4.417969-4.15625 7.785156-8.597656 7.804687zm0 0"/><path d="m121.914062 156.050781c-.703124-.003906-1.40625-.089843-2.089843-.253906-61.109375-15.097656-82.347657-45.664063-83.214844-46.957031-1.742187-2.5625-1.988281-5.863282-.636719-8.65625 1.347656-2.789063 4.082032-4.652344 7.175782-4.878906 3.09375-.230469 6.070312 1.210937 7.816406 3.773437.25.375 19.089844 26.546875 73.023437 39.867187 4.261719 1.046876 7.070313 5.113282 6.539063 9.46875-.527344 4.359376-4.222656 7.636719-8.613282 7.636719zm0 0"/><path d="m94.761719 216.535156c-.773438 0-1.542969-.101562-2.292969-.304687-48.59375-13.257813-74.160156-35.925781-85.09375-48.265625-3.179688-3.59375-2.839844-9.085938.753906-12.261719 3.59375-3.179687 9.085938-2.839844 12.261719.753906 9.640625 10.890625 32.421875 30.953125 76.660156 43.023438 4.199219 1.140625 6.902344 5.210937 6.328125 9.523437-.574218 4.308594-4.25 7.53125-8.601562 7.53125zm0 0"/><path d="m260.761719 112.660156c-4.441407-.019531-8.152344-3.386718-8.601563-7.804687-.445312-4.421875 2.515625-8.464844 6.867188-9.371094 79.835937-16.382813 107.605468-48.777344 107.847656-49.089844 1.964844-2.398437 5.058594-3.570312 8.121094-3.066406 3.058594.5 5.621094 2.59375 6.714844 5.496094 1.097656 2.898437.5625 6.164062-1.402344 8.566406-1.230469 1.515625-31.144532 37.3125-117.800782 55.085937-.574218.121094-1.160156.179688-1.746093.183594zm0 0"/><path d="m330.1875 156.050781c-4.390625 0-8.085938-3.277343-8.617188-7.636719-.527343-4.355468 2.28125-8.421874 6.542969-9.46875 54.035157-13.347656 72.839844-39.605468 73.023438-39.867187 2.695312-3.964844 8.09375-4.992187 12.058593-2.296875 3.964844 2.699219 4.992188 8.097656 2.296876 12.058594-.871094 1.292968-22.105469 31.859375-83.214844 46.957031-.683594.164063-1.386719.25-2.089844.253906zm0 0"/><path d="m357.339844 216.535156c-4.347656 0-8.027344-3.222656-8.601563-7.53125-.574219-4.3125 2.132813-8.382812 6.328125-9.523437 44.257813-12.070313 67.019532-32.105469 76.660156-43.023438 2.054688-2.324219 5.195313-3.378906 8.238282-2.757812 3.039062.617187 5.519531 2.808593 6.507812 5.75.984375 2.945312.328125 6.191406-1.730468 8.515625-10.933594 12.339844-36.515626 35.007812-85.09375 48.265625-.753907.203125-1.53125.308593-2.308594.304687zm0 0"/></g><path d="m382.253906 380.636719c55.539063-31.675781 56.582032-74.199219 48.164063-103.617188-3.445313-12.167969-8.808594-23.707031-15.882813-34.191406-2.167968 1.128906-4.339844 2.257813-6.335937 3.386719h-.085938c-13.714843 7.214844-25.632812 17.417968-34.882812 29.851562h-294.359375c-9.25-12.433594-21.171875-22.636718-34.882813-29.851562h-.089843c-1.996094-1.128906-4.164063-2.257813-6.332032-3.386719-7.074218 10.484375-12.4375 22.023437-15.882812 34.191406-8.417969 29.417969-7.375 71.941407 48.164062 103.617188zm0 0" fill="#547580"/><path d="m369.238281 341.410156c-3.140625-.003906-6.03125-1.699218-7.566406-4.4375-1.53125-2.738281-1.46875-6.09375.171875-8.769531 12.382812-20.195313 41.976562-32.1875 43.234375-32.691406 4.449219-1.78125 9.503906.386719 11.285156 4.839843 1.78125 4.453126-.386719 9.503907-4.839843 11.285157-13.671876 5.335937-25.699219 14.179687-34.875 25.632812-1.582032 2.578125-4.390626 4.144531-7.410157 4.140625zm0 0" fill="#35495e"/><path d="m82.863281 341.410156c-3.023437.003906-5.828125-1.5625-7.410156-4.140625-9.15625-11.46875-21.1875-20.3125-34.867187-25.632812-2.882813-1.152344-4.929688-3.75-5.375-6.820313-.441407-3.070312.785156-6.140625 3.222656-8.0625 2.433594-1.917968 5.710937-2.390625 8.589844-1.242187 1.257812.503906 30.851562 12.496093 43.234374 32.691406 1.636719 2.675781 1.703126 6.03125.171876 8.769531-1.535157 2.738282-4.425782 4.433594-7.566407 4.4375zm0 0" fill="#35495e"/><path d="m382.253906 380.722656v17.355469s0 27.855469-37.488281 33.671875c-14.097656 2.203125-26.890625 9.523438-35.925781 20.566406-2.34375 2.777344-4.863282 5.726563-7.378906 8.675782-3.910157 4.667968-6.03125 10.574218-5.988282 16.664062.035156 9.078125-3.558594 17.792969-9.976562 24.210938-6.417969 6.417968-15.136719 10.011718-24.214844 9.980468h-17.875c-9.574219-.03125-17.328125-7.785156-17.355469-17.359375-.027343 9.574219-7.78125 17.328125-17.355469 17.359375h-17.878906c-9.070312.007813-17.773437-3.589844-24.1875-10.003906-6.414062-6.414062-10.015625-15.117188-10.003906-24.1875.046875-6.089844-2.074219-11.996094-5.984375-16.664062-2.519531-2.949219-5.035156-5.898438-7.378906-8.675782-9.039063-11.042968-21.828125-18.363281-35.925781-20.566406-37.488282-5.816406-37.488282-33.671875-37.488282-33.671875v-17.355469c-.03125-21.148437 6.992188-41.699218 19.957032-58.402344-7.511719-20.183593-11.332032-41.554687-11.28125-63.089843 0-3.296875.089843-6.59375.261718-9.894531 26.554688-128.347657 147.265625-33.496094 147.265625-33.496094s120.710938-94.851563 147.265625 33.496094v.089843c.171875 3.296875.257813 6.507813.257813 9.804688.054687 21.535156-3.769531 42.90625-11.28125 63.089843 12.96875 16.703126 19.992187 37.253907 19.960937 58.402344zm0 0" fill="#547580"/><path d="m364.898438 387.621094v16.4375s0 26.398437-33.324219 31.898437c-12.730469 2.210938-24.144531 9.171875-31.933594 19.480469-2.082031 2.605469-4.339844 5.425781-6.5625 8.21875-3.503906 4.511719-5.378906 10.074219-5.320313 15.785156.0625 8.496094-3.105468 16.695313-8.867187 22.9375-5.546875 6.007813-13.34375 9.4375-21.523437 9.46875h-15.886719c-8.785157-.316406-15.675781-7.660156-15.429688-16.445312.242188 8.785156-6.644531 16.128906-15.429687 16.445312h-15.890625c-8.324219-.269531-16.199219-3.832031-21.894531-9.90625-5.695313-6.078125-8.746094-14.167968-8.476563-22.492187.058594-5.710938-1.816406-11.273438-5.320313-15.785157-2.238281-2.792968-4.476562-5.585937-6.5625-8.214843-7.785156-10.3125-19.203124-17.28125-31.933593-19.492188-33.339844-5.5-33.339844-31.898437-33.339844-31.898437v-16.4375c-.089844-19.855469 6.121094-39.226563 17.738281-55.332032-6.6875-19.214843-10.078125-39.425781-10.023437-59.773437 0-3.125.078125-6.246094.234375-9.371094 23.605468-121.597656 130.898437-31.734375 130.898437-31.734375s107.292969-89.863281 130.898438 31.734375v.078125c.15625 3.125.234375 6.167969.234375 9.292969.054687 20.347656-3.335938 40.558594-10.023438 59.773437 11.617188 16.105469 17.828125 35.476563 17.738282 55.332032zm0 0" fill="#b0d3f0"/><path d="m243.40625 373h-34.710938c-4.792968 0-8.679687-3.886719-8.679687-8.679688 0-4.792968 3.886719-8.679687 8.679687-8.679687h34.710938c4.792969 0 8.679688 3.886719 8.679688 8.679687 0 4.792969-3.886719 8.679688-8.679688 8.679688zm0 0" fill="#547580"/><path d="m200.015625 312.253906c0 14.375-11.65625 26.03125-26.03125 26.03125-14.378906 0-26.035156-11.65625-26.035156-26.03125 0-14.378906 11.65625-26.035156 26.035156-26.035156 14.375 0 26.03125 11.65625 26.03125 26.035156zm0 0" fill="#ff5364"/><path d="m304.152344 312.253906c0 14.375-11.65625 26.03125-26.035156 26.03125-14.378907 0-26.03125-11.65625-26.03125-26.03125 0-14.378906 11.652343-26.035156 26.03125-26.035156 14.378906 0 26.035156 11.65625 26.035156 26.035156zm0 0" fill="#ff5364"/><path d="m200.015625 260.183594c-2.242187 0-4.398437-.867188-6.011719-2.421875-17.625-16.9375-33.332031-25.242188-44.085937-23.351563-4.886719.914063-9.105469 3.96875-11.496094 8.324219-2.09375 4.285156-7.253906 6.078125-11.550781 4.015625-4.28125-2.015625-6.136719-7.105469-4.15625-11.402344 4.734375-9.316406 13.496094-15.9375 23.75-17.953125 17.007812-3.210937 37.027344 6.1875 59.566406 27.855469 2.550781 2.453125 3.359375 6.214844 2.035156 9.5-1.324218 3.285156-4.507812 5.433594-8.050781 5.433594zm0 0" fill="#547580"/><path d="m252.085938 260.183594c-3.542969 0-6.730469-2.148438-8.050782-5.433594-1.324218-3.285156-.519531-7.046875 2.035156-9.5 22.5625-21.695312 42.523438-31.050781 59.566407-27.855469 10.253906 2.015625 19.011719 8.636719 23.75 17.953125 2.035156 4.339844.167969 9.507813-4.171875 11.542969s-9.507813.164063-11.542969-4.175781c-2.398437-4.34375-6.613281-7.386719-11.488281-8.304688-10.78125-1.882812-26.460938 6.414063-44.085938 23.351563-1.617187 1.554687-3.769531 2.421875-6.011718 2.421875zm0 0" fill="#547580"/><path d="m214.160156 399.03125-14.230468 37.835938c-1.316407 3.410156-4.625 5.625-8.277344 5.546874-3.652344-.074218-6.867188-2.433593-8.039063-5.894531l-10.84375-37.488281" fill="#ecf0f1"/><path d="m281.503906 399.03125-2.777344 9.546875-8.070312 27.941406c-1.144531 3.5-4.394531 5.875-8.070312 5.902344-3.667969.15625-7.011719-2.09375-8.246094-5.554687l-8.765625-23.257813-5.464844-14.578125" fill="#ecf0f1"/><path d="m208.695312 294.898438c-70.96875 0-90.886718-17.871094-92.914062-19.898438-3.371094-3.355469-3.414062-8.796875-.097656-12.207031 3.316406-3.40625 8.757812-3.507813 12.203125-.230469.710937.597656 18.550781 14.976562 80.808593 14.976562 4.792969 0 8.675782 3.886719 8.675782 8.679688s-3.882813 8.679688-8.675782 8.679688zm0 0" fill="#35495e"/><path d="m243.40625 294.898438c-4.792969 0-8.679688-3.886719-8.679688-8.679688s3.886719-8.679688 8.679688-8.679688c63.234375 0 80.703125-14.835937 80.828125-14.992187 3.511719-3.140625 8.878906-2.941406 12.148437.449219 3.246094 3.355468 3.207032 8.695312-.085937 12.003906-2.007813 2.027344-21.921875 19.898438-92.890625 19.898438zm0 0" fill="#35495e"/><path d="m295.472656 407.710938h-138.847656c-4.792969 0-8.675781-3.886719-8.675781-8.679688s3.882812-8.675781 8.675781-8.675781h138.847656c4.792969 0 8.679688 3.882812 8.679688 8.675781s-3.886719 8.679688-8.679688 8.679688zm0 0" fill="#35495e"/></svg>