<svg height="512pt" viewBox="0 0 512 512.00008" width="512pt" xmlns="http://www.w3.org/2000/svg"><path d="m289.367188 64.53125 8.917968.527344c13.222656 1.917968 26.273438 4.898437 39.015625 8.917968 32.601563 9.761719 62.9375 25.90625 89.25 47.492188 53.421875 42.363281 84.832031 106.605469 85.449219 174.785156 0 129.589844-114.582031 180.4375-256 180.4375s-256-50.847656-256-180.4375c.617188-68.179687 32.027344-132.421875 85.449219-174.785156 26.3125-21.585938 56.648437-37.730469 89.25-47.492188 22.851562-7.0625 46.539062-11.070312 70.441406-11.917968" fill="#e57e25"/><path d="m282.484375 64.53125 7.058594.527344c10.570312 1.949218 20.917969 4.933594 30.898437 8.917968 26.816406 10.40625 50.992188 26.625 70.789063 47.492188 44.339843 47.308594 68.640625 109.949219 67.804687 174.785156 0 129.589844-90.871094 180.4375-203.035156 180.4375s-203.035156-50.847656-203.035156-180.4375c-.84375-64.832031 23.441406-127.472656 67.769531-174.785156 19.808594-20.871094 43.996094-37.09375 70.824219-47.492188 17.84375-7.003906 36.714844-11.03125 55.859375-11.917968" fill="#f29c1f"/><path d="m274.792969 64.53125 3.851562.527344c6.027344 2.09375 11.699219 5.101562 16.816407 8.917968 16.375 12.585938 29.554687 28.855469 38.46875 47.492188 22.597656 42.902344 36.828124 105.3125 36.828124 174.785156 0 129.589844-49.390624 180.4375-110.34375 180.4375-60.953124 0-110.34375-50.847656-110.34375-180.4375 0-69.472656 14.230469-131.882812 36.828126-174.785156 8.914062-18.636719 22.09375-34.90625 38.46875-47.492188 8.847656-6.671874 19.347656-10.792968 30.367187-11.917968" fill="#e57e25"/><path d="m335.449219 453.914062c58.171875 4.980469 98.160156 15.40625 98.160156 27.4375 0 16.929688-79.269531 30.648438-177.078125 30.648438-97.8125 0-177.082031-13.71875-177.082031-30.648438 0-11.953124 39.457031-22.300781 97.101562-27.367187" fill="#d25627"/><path d="m281.863281 98.957031c14.054688 1.238281 27.539063 6.136719 39.109375 14.210938 3.308594 2.484375 5.375 6.289062 5.648438 10.417969 0 14.652343-31.601563 26.484374-70.621094 26.484374s-70.621094-11.832031-70.621094-26.484374c.273438-4.128907 2.339844-7.933594 5.648438-10.417969 12.234375-8.488281 26.546875-13.492188 41.402344-14.476563" fill="#59474e"/><path d="m239.890625 114.757812c-2.652344 0-5.160156-1.191406-6.832031-3.246093-1.675782-2.054688-2.339844-4.75-1.8125-7.347657 4.804687-23.9375 21.726562-81.6875 75.46875-103.28125 1.476562-.582031 3.046875-.882812 4.632812-.882812 4.820313-.015625 9.171875 2.878906 11.015625 7.332031s.8125 9.578125-2.609375 12.972657c-18.054687 18.121093-39.25 47.667968-37.960937 85.53125.054687 2.367187-.855469 4.652343-2.519531 6.339843-1.664063 1.683594-3.9375 2.621094-6.308594 2.601563zm0 0" fill="#4c8056"/><path d="m195.707031 203.210938c.972657-.089844 1.941407-.175782 2.914063-.175782 9.9375-.050781 18.695312 6.507813 21.4375 16.058594 2.742187 9.550781-1.199219 19.757812-9.648438 24.988281-8.449218 5.226563-19.34375 4.199219-26.667968-2.515625-7.324219-6.714844-9.285157-17.480468-4.808594-26.351562" fill="#2c3e50"/><path d="m158.898438 238.34375c-3.835938 0-7.234376-2.476562-8.40625-6.128906-1.171876-3.652344.148437-7.640625 3.265624-9.875l61.792969-44.136719c3.964844-2.609375 9.277344-1.617187 12.035157 2.242187 2.757812 3.859376 1.972656 9.207032-1.777344 12.109376l-61.792969 44.140624c-1.492187 1.070313-3.28125 1.648438-5.117187 1.648438zm0 0" fill="#59474e"/><path d="m333.066406 215.214844c4.421875 8.828125 2.445313 19.515625-4.839844 26.175781-7.289062 6.660156-18.109374 7.675781-26.503906 2.480469-8.394531-5.195313-12.320312-15.332032-9.609375-24.824219 2.710938-9.496094 11.394531-16.03125 21.265625-16.011719.972656 0 1.941406.085938 2.914063.175782" fill="#2c3e50"/><path d="m353.101562 238.34375c-1.835937 0-3.625-.578125-5.117187-1.648438l-61.792969-44.140624c-3.75-2.902344-4.535156-8.25-1.777344-12.109376 2.757813-3.859374 8.070313-4.851562 12.035157-2.242187l61.792969 44.136719c3.117187 2.234375 4.4375 6.222656 3.265624 9.875-1.171874 3.652344-4.570312 6.128906-8.40625 6.128906zm0 0" fill="#59474e"/><path d="m335.449219 408.804688c4.855469-.707032 9.710937-1.589844 14.566406-2.558594 22.863281-4.503906 48.816406-10.152344 68.5-23.394532 20.832031-14.125 26.570313-40.871093 20.746094-64.265624-7.503907-30.1875-32.574219-41.753907-60.46875-42.636719l-12.800781 38.578125c-2.417969 7.210937-9.167969 12.074218-16.773438 12.09375h-9.886719c-7.605469-.019532-14.351562-4.882813-16.773437-12.09375l-9.972656-30.015625c-18.617188 3.984375-37.558594 6.261719-56.585938 6.796875h-.53125c-18.847656-.550782-37.605469-2.796875-56.054688-6.707032l-9.972656 29.925782c-2.421875 7.210937-9.167968 12.074218-16.773437 12.09375h-9.886719c-7.605469-.019532-14.355469-4.882813-16.773438-12.09375l-12.800781-38.578125c-28.070312.707031-53.316406 12.273437-60.910156 42.636719-5.824219 23.394531-.175781 50.140624 20.746094 64.265624 19.597656 13.242188 45.550781 18.890626 68.414062 23.394532 5.03125.96875 10.0625 1.941406 15.09375 2.648437zm0 0" fill="#2c3e50"/><path d="m335.449219 459.035156v-79.449218c0-9.75-7.90625-17.65625-17.65625-17.65625h-123.585938c-9.75 0-17.65625 7.90625-17.65625 17.65625v79.449218c.152344 7.066406-2.589843 13.890625-7.589843 18.890625s-11.824219 7.742188-18.890626 7.589844h211.859376c-7.066407.152344-13.890626-2.589844-18.890626-7.589844s-7.742187-11.824219-7.589843-18.890625zm0 0" fill="#f3d55b"/><g fill="#f18d46"><path d="m211.863281 423.722656c-4.875 0-8.828125-3.949218-8.828125-8.824218v-26.484376c0-4.875 3.953125-8.828124 8.828125-8.828124s8.828125 3.953124 8.828125 8.828124v26.484376c0 4.875-3.953125 8.824218-8.828125 8.824218zm0 0"/><path d="m211.863281 467.863281c-4.875 0-8.828125-3.953125-8.828125-8.828125v-8.828125c0-4.875 3.953125-8.828125 8.828125-8.828125s8.828125 3.953125 8.828125 8.828125v8.828125c0 4.875-3.953125 8.828125-8.828125 8.828125zm0 0"/><path d="m300.136719 423.722656c-4.875 0-8.828125-3.949218-8.828125-8.824218v-26.484376c0-4.875 3.953125-8.828124 8.828125-8.828124s8.828125 3.953124 8.828125 8.828124v26.484376c0 4.875-3.953125 8.824218-8.828125 8.824218zm0 0"/><path d="m300.136719 467.863281c-4.875 0-8.828125-3.953125-8.828125-8.828125v-8.828125c0-4.875 3.953125-8.828125 8.828125-8.828125s8.828125 3.953125 8.828125 8.828125v8.828125c0 4.875-3.953125 8.828125-8.828125 8.828125zm0 0"/><path d="m256 467.863281c-4.875 0-8.828125-3.953125-8.828125-8.828125v-26.484375c0-4.875 3.953125-8.828125 8.828125-8.828125s8.828125 3.953125 8.828125 8.828125v26.484375c0 4.875-3.953125 8.828125-8.828125 8.828125zm0 0"/><path d="m256 406.070312c-4.875 0-8.828125-3.953124-8.828125-8.828124v-8.828126c0-4.875 3.953125-8.828124 8.828125-8.828124s8.828125 3.953124 8.828125 8.828124v8.828126c0 4.875-3.953125 8.828124-8.828125 8.828124zm0 0"/></g></svg>