<svg height="512pt" viewBox="0 0 512 512.00063" width="512pt" xmlns="http://www.w3.org/2000/svg"><path d="m401.566406 114.757812h13.332032c25.757812-.011718 50.464843 10.214844 68.675781 28.425782 18.214843 18.214844 28.441406 42.921875 28.425781 68.679687v176.550781c.015625 25.757813-10.210938 50.464844-28.425781 68.679688-18.210938 18.210938-42.917969 28.4375-68.675781 28.425781h-317.792969c-25.757813.011719-50.464844-10.214843-68.679688-28.425781-18.214843-18.214844-28.441406-42.921875-28.425781-68.679688v-176.550781c-.015625-25.757812 10.210938-50.464843 28.425781-68.679687 18.214844-18.210938 42.921875-28.4375 68.679688-28.425782zm0 0" fill="#e57e25"/><path d="m282.128906 94.101562-26.128906 55.96875-23.039062-53.585937c6.621093-26.921875 25.070312-76.09375 73.710937-95.601563 1.484375-.597656 3.074219-.898437 4.675781-.882812 3.179688-.0078125 6.230469 1.253906 8.46875 3.511719 2.242188 2.257812 3.484375 5.316406 3.449219 8.496093.003906 3.128907-1.269531 6.128907-3.53125 8.296876-20.757813 19.460937-34.058594 45.566406-37.605469 73.796874zm0 0" fill="#4c8056"/><g fill="#f29c1f"><path d="m88.277344 176.550781c-.023438-25.757812 10.203125-50.46875 28.417968-68.683593 18.214844-18.214844 42.925782-28.441407 68.683594-28.417969 15.597656-.132813 30.832032 4.722656 43.476563 13.859375 16.3125 10.605468 26.4375 28.488281 27.144531 47.933594.703125-19.441407 10.828125-37.324219 27.136719-47.933594 12.644531-9.136719 27.882812-13.996094 43.484375-13.859375 25.761718-.023438 50.472656 10.203125 68.6875 28.417969 18.214844 18.214843 28.4375 42.925781 28.414062 68.683593l-7.722656 262.179688c-.316406 12.902343-4.71875 25.367187-12.578125 35.601562-3.085937 3.988281-6.480469 7.730469-10.152344 11.1875-18.003906 17.035157-41.859375 26.515625-66.648437 26.480469h-141.242188c-30.03125-.070312-58.359375-13.964844-76.800781-37.667969-7.855469-10.234375-12.261719-22.699219-12.578125-35.601562zm0 0"/><path d="m44.324219 167.355469c11.070312 0 20.046875 8.972656 20.046875 20.046875v91.214844c0 11.070312-8.976563 20.046874-20.046875 20.046874-11.074219 0-20.046875-8.976562-20.046875-20.046874v-91.214844c0-11.074219 8.972656-20.046875 20.046875-20.046875zm0 0"/><path d="m469.371094 167.355469c11.074218 0 20.046875 8.972656 20.046875 20.046875v91.214844c0 11.070312-8.972657 20.046874-20.046875 20.046874-11.070313 0-20.046875-8.976562-20.046875-20.046874v-91.214844c0-11.074219 8.976562-20.046875 20.046875-20.046875zm0 0"/></g><path d="m170.371094 178.972656-45.726563 84.902344c-1.273437 2.371094-1.402343 5.191406-.339843 7.664062 1.058593 2.476563 3.191406 4.328126 5.789062 5.039063l71.847656 19.597656c3.023438.824219 6.257813-.019531 8.5-2.210937 2.238282-2.195313 3.144532-5.414063 2.382813-8.453125l-26.121094-104.5c-.886719-3.535157-3.851563-6.160157-7.46875-6.609375-3.613281-.453125-7.132813 1.363281-8.863281 4.570312zm0 0" fill="#2c3e50"/><path d="m341.628906 178.972656 45.71875 84.902344c1.273438 2.371094 1.402344 5.191406.339844 7.664062-1.058594 2.476563-3.191406 4.328126-5.789062 5.039063l-71.847657 19.597656c-3.023437.824219-6.257812-.019531-8.5-2.210937-2.238281-2.195313-3.144531-5.414063-2.382812-8.453125l26.128906-104.5c.886719-3.535157 3.855469-6.160157 7.46875-6.609375 3.613281-.453125 7.132813 1.363281 8.863281 4.570312zm0 0" fill="#2c3e50"/><path d="m263.0625 353.695312 13.3125 17.753907c1.535156 2.046875 3.882812 3.324219 6.433594 3.507812 2.554687.179688 5.058594-.753906 6.867187-2.566406l20.921875-20.917969c1.8125-1.8125 4.316406-2.746094 6.867188-2.566406 2.554687.183594 4.902344 1.460938 6.4375 3.507812l13.3125 17.753907c1.667968 2.222656 4.28125 3.53125 7.0625 3.53125 2.777344 0 5.394531-1.308594 7.0625-3.53125l17.652344-23.515625c1.160156-1.539063 2.785156-2.65625 4.636718-3.1875l37.429688-10.664063c3.476562-.996093 7.210937.230469 9.417968 3.097657 2.210938 2.863281 2.445313 6.785156.601563 9.894531l-62.941406 104.847656c-1.285157 2.140625-3.417969 3.640625-5.871094 4.121094s-4.992187-.097657-6.992187-1.597657l-22.183594-16.640624c-3.136719-2.351563-7.453125-2.351563-10.59375 0l-23.886719 17.921874c-3.515625 2.632813-8.429687 2.285157-11.539063-.820312l-14.828124-14.832031c-3.449219-3.445313-9.035157-3.445313-12.484376 0l-14.828124 14.832031c-3.105469 3.105469-8.023438 3.453125-11.539063.820312l-23.886719-17.921874c-3.140625-2.351563-7.453125-2.351563-10.59375 0l-22.183594 16.640624c-2 1.5-4.539062 2.078126-6.992187 1.597657-2.449219-.480469-4.585937-1.980469-5.871094-4.121094l-62.9375-104.847656c-1.847656-3.109375-1.609375-7.03125.597657-9.894531 2.210937-2.867188 5.941406-4.09375 9.421874-3.097657l37.445313 10.699219c1.847656.53125 3.476563 1.648438 4.632813 3.1875l17.65625 23.515625c1.667968 2.222656 4.285156 3.53125 7.0625 3.53125 2.777343 0 5.394531-1.308594 7.0625-3.53125l13.3125-17.753906c1.535156-2.046875 3.882812-3.324219 6.433593-3.507813 2.554688-.179687 5.058594.753906 6.867188 2.566406l20.921875 20.917969c1.808594 1.8125 4.316406 2.746094 6.867187 2.566407 2.554688-.183594 4.902344-1.460938 6.4375-3.507813l13.292969-17.789063c1.667969-2.222656 4.285156-3.53125 7.0625-3.53125s5.394531 1.308594 7.0625 3.53125zm0 0" fill="#2c3e50"/></svg>