<svg height="511pt" viewBox="-49 0 511 511.97439" width="511pt" xmlns="http://www.w3.org/2000/svg"><path d="m316.195312 103.699219c42.722657-18.183594 50.847657-61 50.40625-93.042969-.074218-4.785156 3.097657-9.011719 7.710938-10.28125 4.613281-1.265625 9.503906.746094 11.882812 4.894531 16.9375 26.695313 25.03125 58.046875 23.128907 89.601563-5.472657 54.289062-59.9375 106.109375-114.316407 95.074218h-176.375c-54.378906 11.035157-108.84375-40.785156-114.316406-95.074218-1.902344-31.554688 6.191406-62.90625 23.128906-89.601563 2.382813-4.148437 7.269532-6.160156 11.882813-4.894531 4.613281 1.269531 7.785156 5.496094 7.714844 10.28125-.441407 32.042969 7.679687 74.859375 50.402343 93.042969zm0 0" fill="#cbb292"/><path d="m408.707031 66.886719v.175781c-8.03125 52.527344-60.910156 100.988281-113.699219 90.308594h-176.375c-52.789062 10.679687-105.667968-37.78125-113.699218-90.308594v-.175781c3.382812-21.816407 11.03125-42.753907 22.511718-61.617188 2.15625-3.742187 6.386719-5.785156 10.660157-5.140625 4.273437.644532 7.714843 3.839844 8.671875 8.054688.183594.8125.273437 1.640625.265625 2.472656-.441407 32.042969 7.679687 74.859375 50.402343 93.042969h218.75c42.722657-18.183594 50.847657-61 50.40625-93.042969-.011718-.832031.078126-1.660156.261719-2.472656.957031-4.214844 4.398438-7.410156 8.671875-8.054688 4.273438-.644531 8.507813 1.398438 10.660156 5.140625 11.480469 18.863281 19.128907 39.800781 22.511719 61.617188zm0 0" fill="#fdd7ad"/><path d="m409.679688 326.683594c-6.09375 3.175781-202.683594 106.988281-202.859376 185.203125-.175781-78.214844-196.765624-182.027344-202.859374-185.203125 42.375 13.949218 84.660156-17.125 99.839843-30.015625h206.039063c15.183594 12.890625 57.464844 43.964843 99.839844 30.015625zm0 0" fill="#d25627"/><path d="m294.257812 247.148438s34.964844 80.285156 8.738282 104.367187c-26.226563 24.082031-78.6875 24.082031-96.21875 8.023437-17.488282 16.058594-69.949219 16.058594-96.175782-8.023437-26.226562-24.082031 8.824219-104.367187 8.824219-104.367187zm0 0" fill="#c03a2b"/><path d="m279.683594 247.148438s29.132812 68.855468 7.28125 89.457031c-21.847656 20.605469-65.570313 20.640625-80.144532 6.875-14.574218 13.765625-58.261718 13.765625-80.144531-6.875-21.882812-20.640625 7.28125-89.457031 7.28125-89.457031zm0 0" fill="#d25627"/><path d="m206.820312 282.457031h-39.449218c-6.554688.164063-12.703125-3.171875-16.136719-8.757812-8.175781-14.300781-32.691406-26.550781-32.691406-26.550781 5.519531-71.742188-9.664063-119.332032-21.820313-144.933594-4.355468-8.808594-4.839844-19.035156-1.339844-28.222656 3.496094-9.183594 10.667969-16.492188 19.78125-20.167969 19.921876-7.65625 49.847657-8.316407 91.65625 16.769531 41.808594-25.085938 71.734376-24.425781 91.65625-16.769531 9.121094 3.675781 16.292969 10.988281 19.792969 20.175781s3.011719 19.421875-1.351562 28.234375c-12.109375 25.582031-27.339844 73.171875-21.820313 144.914063 0 0-24.515625 12.25-32.664062 26.550781-3.4375 5.59375-9.597656 8.929687-16.164063 8.757812zm0 0" fill="#c03a2b"/><path d="m206.820312 282.457031h-33.703124c-5.898438-.023437-11.261719-3.425781-13.789063-8.757812-7.089844-10.921875-16.65625-20.019531-27.921875-26.550781 4.714844-71.742188-8.261719-119.332032-18.644531-144.933594-7.527344-18.539063-.644531-41.046875 15.75-48.410156 17.027343-7.636719 42.59375-8.296876 78.308593 16.789062 35.714844-25.085938 61.28125-24.425781 78.300782-16.769531 16.402344 7.359375 23.289062 29.835937 15.757812 48.410156-10.382812 25.597656-23.359375 73.1875-18.644531 144.929687-11.265625 6.535157-20.828125 15.632813-27.921875 26.554688-2.535156 5.320312-7.894531 8.71875-13.789062 8.738281zm0 0" fill="#d25627"/><path d="m177.777344 149.777344c4.132812 6.878906 3.109375 15.675781-2.496094 21.421875-5.601562 5.742187-14.371094 6.988281-21.347656 3.027343-6.980469-3.957031-10.410156-12.125-8.355469-19.878906s9.082031-13.148437 17.105469-13.132812c1.894531.007812 3.773437.335937 5.558594.972656" fill="#f3d55b"/><path d="m245.398438 142.1875c1.785156-.636719 3.664062-.964844 5.558593-.972656 8.074219-.039063 15.15625 5.375 17.234375 13.175781 2.078125 7.796875-1.367187 16.019531-8.390625 20-7.019531 3.984375-15.84375 2.726563-21.472656-3.0625-5.628906-5.785156-6.640625-14.640625-2.464844-21.550781" fill="#f3d55b"/><path d="m189.164062 167.699219c-2.003906 0-3.949218-.679688-5.515624-1.933594l-44.136719-35.3125c-3.808594-3.046875-4.425781-8.601563-1.378907-12.410156 3.046876-3.808594 8.605469-4.421875 12.410157-1.375l44.140625 35.308593c2.929687 2.34375 4.058594 6.277344 2.816406 9.816407-1.242188 3.539062-4.585938 5.90625-8.335938 5.90625zm0 0" fill="#802f34"/><path d="m224.476562 167.699219c-3.75 0-7.09375-2.367188-8.335937-5.90625-1.242187-3.539063-.109375-7.472657 2.816406-9.816407l44.140625-35.308593c3.804688-3.046875 9.363282-2.433594 12.410156 1.375 3.046876 3.808593 2.429688 9.363281-1.375 12.410156l-44.140624 35.3125c-1.566407 1.253906-3.511719 1.933594-5.515626 1.933594zm0 0" fill="#802f34"/><path d="m197.109375 282.457031-29.925781 40.605469c-2.164063 2.875-5.851563 4.15625-9.332032 3.246094-3.480468-.910156-6.070312-3.828125-6.554687-7.394532l-5.386719-52.171874c2.054688 2.09375 3.832032 4.4375 5.296875 6.976562 3.449219 5.574219 9.597657 8.902344 16.152344 8.738281zm0 0" fill="#fdd7ad"/><path d="m267.730469 266.742188-5.382813 52.171874c-.488281 3.566407-3.074218 6.484376-6.558594 7.394532-3.480468.910156-7.167968-.371094-9.332031-3.246094l-29.925781-40.605469h29.75c6.554688.164063 12.703125-3.164062 16.152344-8.738281 1.464844-2.539062 3.246094-4.882812 5.296875-6.976562zm0 0" fill="#fdd7ad"/><path d="m206.820312 132.386719c-3.5625 0-6.777343-2.140625-8.148437-5.425781-4.933594-11.847657-35.671875-24.78125-55.921875-30.183594-3.09375-.769532-5.53125-3.152344-6.378906-6.226563-.84375-3.074219.035156-6.367187 2.300781-8.609375 2.265625-2.246094 5.566406-3.09375 8.632813-2.21875 9.542968 2.542969 57.671874 16.445313 67.664062 40.4375 1.136719 2.726563.835938 5.839844-.800781 8.296875s-4.394531 3.929688-7.347657 3.929688zm0 0" fill="#802f34"/><path d="m206.820312 132.386719c-2.953124 0-5.710937-1.472657-7.347656-3.929688-1.636718-2.457031-1.9375-5.570312-.800781-8.296875 9.992187-23.992187 58.121094-37.894531 67.664063-40.4375 3.066406-.875 6.367187-.027344 8.632812 2.21875 2.265625 2.242188 3.144531 5.535156 2.300781 8.609375-.847656 3.074219-3.285156 5.457031-6.378906 6.226563-20.304687 5.421875-50.996094 18.363281-55.921875 30.183594-1.371094 3.285156-4.585938 5.425781-8.148438 5.425781zm0 0" fill="#802f34"/><path d="m206.820312 511.886719v.085937s-35.308593-35.308594-132.414062-44.136718c-97.101562-8.828126-70.621094-141.242188-70.621094-141.242188s.089844 0 .175782.089844c6.09375 3.175781 202.683593 106.988281 202.859374 185.203125zm0 0" fill="#c03a2b"/><path d="m339.234375 467.835938c-97.101563 8.828124-132.414063 44.136718-132.414063 44.136718v-.085937c.175782-78.214844 196.765626-182.027344 202.859376-185.203125.042968-.050782.109374-.082032.175781-.089844 0 0 26.480469 132.414062-70.621094 141.242188zm0 0" fill="#c03a2b"/><g fill="#802f34"><path d="m215.648438 220.664062h-17.65625c-4.875 0-8.828126-3.953124-8.828126-8.828124s3.953126-8.828126 8.828126-8.828126h17.65625c4.875 0 8.828124 3.953126 8.828124 8.828126s-3.953124 8.828124-8.828124 8.828124zm0 0"/><path d="m206.820312 220.664062c-4.875 0-8.828124-3.953124-8.828124-8.828124v-26.480469c0-4.878907 3.953124-8.828125 8.828124-8.828125s8.828126 3.949218 8.828126 8.828125v26.480469c0 4.875-3.953126 8.828124-8.828126 8.828124zm0 0"/><path d="m246.269531 291.285156h-78.898437c-9.734375.183594-18.820313-4.847656-23.835938-13.1875-7.800781-9.738281-17.691406-17.601562-28.9375-23.007812-4.363281-2.175782-6.132812-7.480469-3.953125-11.84375 2.179688-4.363282 7.484375-6.136719 11.847657-3.957032 2.753906 1.386719 27.167968 13.929688 36.402343 30.085938 1.882813 2.8125 5.09375 4.441406 8.476563 4.296875h78.898437c3.382813.140625 6.59375-1.492187 8.476563-4.304687 9.234375-16.148438 33.648437-28.691407 36.40625-30.078126 4.363281-2.191406 9.675781-.433593 11.871094 3.929688 2.195312 4.363281.433593 9.679688-3.929688 11.871094-11.285156 5.378906-21.195312 13.257812-28.980469 23.042968-5.023437 8.332032-14.113281 13.347657-23.84375 13.152344zm0 0"/></g></svg>