<svg height="512pt" viewBox="-62 0 512 512" width="512pt" xmlns="http://www.w3.org/2000/svg"><path d="m388.414062 141.242188v70.621093c.027344 47.824219-24.160156 92.410157-64.265624 118.464844-9.632813 6.460937-15.34375 17.355469-15.183594 28.953125v46.789062c.03125 9.738282 7.917968 17.625 17.65625 17.652344 9.71875.074219 17.582031 7.9375 17.65625 17.65625v8.828125c0 34.128907-27.667969 61.792969-61.792969 61.792969h-176.554687c-16.386719 0-32.105469-6.511719-43.691407-18.097656-11.589843-11.589844-18.101562-27.308594-18.101562-43.695313v-8.828125c.03125-9.738281 7.917969-17.625 17.65625-17.65625 9.722656-.070312 17.582031-7.933594 17.65625-17.652344v-46.789062c.160156-11.597656-5.550781-22.492188-15.183594-28.953125-40.105469-26.054687-64.2929688-70.640625-64.265625-118.464844v-70.621093c0-78.007813 63.234375-141.242188 141.242188-141.242188h105.929687c78.007813 0 141.242187 63.234375 141.242187 141.242188zm0 0" fill="#7f6e5d"/><path d="m361.929688 141.242188v70.621093c.953124 45.96875-19.566407 89.757813-55.496094 118.449219-8.609375 7.113281-13.453125 17.804688-13.121094 28.96875v46.789062c-.613281 9.070313 6.191406 16.945313 15.253906 17.652344 9.050782.738282 15.835938 8.597656 15.246094 17.65625v8.828125c0 34.128907-23.894531 61.792969-53.371094 61.792969h-152.46875c-29.476562 0-53.371094-27.664062-53.371094-61.792969v-8.828125c-.589843-9.058594 6.195313-16.917968 15.242188-17.65625 9.066406-.707031 15.867188-8.582031 15.257812-17.652344v-46.789062c.339844-11.175781-4.5-21.882812-13.121093-29.007812-35.921875-28.679688-56.4375-72.453126-55.496094-118.410157v-70.621093c0-78.011719 54.613281-141.242188 121.976563-141.242188h91.492187c67.363281 0 121.976563 63.230469 121.976563 141.242188zm0 0" fill="#cbb292"/><path d="m150.246094 172.667969c11.152344 9.972656 17.511718 24.234375 17.476562 39.195312.03125 28.433594-22.390625 51.816407-50.800781 52.980469-28.410156 1.160156-52.667969-20.320312-54.957031-48.660156-2.289063-28.34375 18.210937-53.433594 46.4375-56.84375" fill="#2c2f38"/><path d="m280.011719 159.339844c24.800781 2.945312 44.191406 22.789062 46.5625 47.652344 2.371093 24.863281-12.917969 48.015624-36.714844 55.597656-23.800781 7.582031-49.664063-2.460938-62.109375-24.113282-12.449219-21.65625-8.109375-49.058593 10.417969-65.808593" fill="#2c2f38"/><path d="m187.019531 268.949219-26.984375 42.109375c-2.003906 2.894531-2.328125 6.636718-.851562 9.832031 1.476562 3.199219 4.53125 5.378906 8.039062 5.730469h53.96875c3.507813-.351563 6.5625-2.53125 8.039063-5.730469 1.476562-3.195313 1.152343-6.9375-.851563-9.832031l-26.988281-42.109375c-1.492187-2.550781-4.226563-4.121094-7.183594-4.121094s-5.691406 1.570313-7.1875 4.121094zm0 0" fill="#2c2f38"/><g fill="#7f6e5d"><path d="m79.449219 379.585938h229.515625v17.65625h-229.515625zm0 0"/><path d="m123.585938 423.722656c-4.875 0-8.828126-3.949218-8.828126-8.824218v-52.96875c0-4.875 3.953126-8.828126 8.828126-8.828126s8.828124 3.953126 8.828124 8.828126v52.96875c0 4.875-3.953124 8.824218-8.828124 8.824218zm0 0"/><path d="m167.722656 423.722656c-4.875 0-8.824218-3.949218-8.824218-8.824218v-52.96875c0-4.875 3.949218-8.828126 8.824218-8.828126s8.828125 3.953126 8.828125 8.828126v52.96875c0 4.875-3.953125 8.824218-8.828125 8.824218zm0 0"/><path d="m220.691406 423.722656c-4.878906 0-8.828125-3.949218-8.828125-8.824218v-52.96875c0-4.875 3.949219-8.828126 8.828125-8.828126 4.875 0 8.824219 3.953126 8.824219 8.828126v52.96875c0 4.875-3.949219 8.824218-8.824219 8.824218zm0 0"/><path d="m264.828125 423.722656c-4.875 0-8.828125-3.949218-8.828125-8.824218v-52.96875c0-4.875 3.953125-8.828126 8.828125-8.828126s8.828125 3.953126 8.828125 8.828126v52.96875c0 4.875-3.953125 8.824218-8.828125 8.824218zm0 0"/><path d="m194.207031 79.449219c-4.875 0-8.828125-3.953125-8.828125-8.828125v-35.3125c0-4.875 3.953125-8.824219 8.828125-8.824219s8.828125 3.949219 8.828125 8.824219v35.3125c0 4.875-3.953125 8.828125-8.828125 8.828125zm0 0"/><path d="m160.910156 182.128906c-45.074218 0-101.15625-40.289062-104.308594-42.574218-2.550781-1.855469-3.917968-4.929688-3.589843-8.066407.332031-3.136719 2.308593-5.859375 5.191406-7.140625s6.230469-.929687 8.78125.925782c24.496094 17.785156 92.210937 56.847656 118.394531 30.285156v-40.800782c0-4.875 3.953125-8.828124 8.828125-8.828124s8.828125 3.953124 8.828125 8.828124v44.140626c0 2.003906-.679687 3.949218-1.933594 5.515624-9.832031 11.941407-24.742187 18.515626-40.191406 17.714844zm0 0"/><path d="m227.503906 182.128906c-15.449218.800782-30.359375-5.773437-40.191406-17.714844-1.253906-1.566406-1.933594-3.511718-1.933594-5.515624v-44.140626c0-4.875 3.953125-8.828124 8.828125-8.828124s8.828125 3.953124 8.828125 8.828124v40.800782c26.183594 26.5625 93.898438-12.507813 118.394532-30.285156 3.945312-2.867188 9.464843-1.996094 12.332031 1.949218 2.867187 3.945313 1.992187 9.464844-1.949219 12.332032-3.152344 2.285156-59.234375 42.574218-104.308594 42.574218zm0 0"/><path d="m220.691406 459.035156h-52.96875c-4.875 0-8.824218-3.953125-8.824218-8.828125s3.949218-8.828125 8.824218-8.828125h52.96875c4.875 0 8.824219 3.953125 8.824219 8.828125s-3.949219 8.828125-8.824219 8.828125zm0 0"/><path d="m194.207031 485.515625c-4.875 0-8.828125-3.949219-8.828125-8.824219v-26.484375c0-4.875 3.953125-8.828125 8.828125-8.828125s8.828125 3.953125 8.828125 8.828125v26.484375c0 4.875-3.953125 8.824219-8.828125 8.824219zm0 0"/></g></svg>