<svg height="512pt" viewBox="-60 0 512 512.00391" width="512pt" xmlns="http://www.w3.org/2000/svg"><path d="m59.734375 110.933594h332.800781v366.933594c0 18.851562-15.28125 34.132812-34.132812 34.132812h-298.667969zm0 0" fill="#e64c3c"/><path d="m384.003906 25.601562v85.332032h-324.269531c-28.277344 0-51.199219-22.921875-51.199219-51.199219.042969-28.261719 22.941406-51.160156 51.199219-51.199219h307.199219c9.414062.027344 17.039062 7.652344 17.070312 17.066406zm0 0" fill="#cbb292"/><path d="m93.867188 51.199219h-34.132813c-4.710937 0-8.53125-3.820313-8.53125-8.53125 0-4.714844 3.820313-8.535157 8.53125-8.535157h34.132813c4.714843 0 8.535156 3.820313 8.535156 8.535157 0 4.710937-3.820313 8.53125-8.535156 8.53125zm0 0" fill="#7f6e5d"/><path d="m384.003906 51.199219h-256c-4.714844 0-8.535156-3.820313-8.535156-8.53125 0-4.714844 3.820312-8.535157 8.535156-8.535157h256c4.710938 0 8.53125 3.820313 8.53125 8.535157 0 4.710937-3.820312 8.53125-8.53125 8.53125zm0 0" fill="#7f6e5d"/><path d="m307.203125 238.933594v204.800781l-28.417969-34.132813-28.5 34.132813-28.417968-34.132813-28.414063 34.132813-28.5-34.132813-28.417969 34.132813v-204.800781c0-47.128906 38.207032-85.332032 85.332032-85.332032 47.128906 0 85.335937 38.203126 85.335937 85.332032zm0 0" fill="#ecf0f1"/><path d="m204.800781 256c0 9.425781-7.640625 17.066406-17.066406 17.066406s-17.066406-7.640625-17.066406-17.066406 7.640625-17.066406 17.066406-17.066406 17.066406 7.640625 17.066406 17.066406zm0 0" fill="#2c3e50"/><path d="m273.070312 256c0 9.425781-7.644531 17.066406-17.066406 17.066406-9.425781 0-17.070312-7.640625-17.070312-17.066406s7.644531-17.066406 17.070312-17.066406c9.421875 0 17.066406 7.640625 17.066406 17.066406zm0 0" fill="#2c3e50"/><path d="m247.46875 346.324219c-4.527344.007812-8.867188-1.789063-12.066406-4.992188l-13.535156-13.53125-13.53125 13.53125c-6.664063 6.664063-17.46875 6.664063-24.132813 0l-19.566406-19.566406c-3.234375-3.347656-3.1875-8.667969.101562-11.960937 3.292969-3.292969 8.613281-3.339844 11.964844-.105469l19.566406 19.566406 13.53125-13.53125c6.667969-6.664063 17.46875-6.664063 24.132813 0l13.535156 13.53125 19.566406-19.566406c3.347656-3.234375 8.671875-3.1875 11.960938.105469 3.292968 3.292968 3.339844 8.613281.105468 11.960937l-19.566406 19.566406c-3.199218 3.203125-7.539062 5-12.066406 4.992188zm0 0" fill="#2c3e50"/><path d="m384.003906 85.332031h-332.800781c-4.714844 0-8.535156-3.820312-8.535156-8.53125 0-4.714843 3.820312-8.535156 8.535156-8.535156h332.800781c4.710938 0 8.53125 3.820313 8.53125 8.535156 0 4.710938-3.820312 8.53125-8.53125 8.53125zm0 0" fill="#7f6e5d"/><path d="m366.933594 0h-307.199219c-32.972656.0429688-59.6914062 26.761719-59.73046875 59.734375v392.53125c.01953125 17.328125 7.55078175 33.792969 20.64843775 45.136719 13.09375 11.34375 30.464844 16.449218 47.617187 14v-374.867188c0-9.425781 7.640625-17.070312 17.066407-17.070312h307.199218v-93.863282c0-14.140624-11.460937-25.601562-25.601562-25.601562zm8.535156 102.398438h-315.734375c-23.550781-.027344-42.636719-19.113282-42.664063-42.664063.039063-23.546875 19.117188-42.625 42.664063-42.667969h307.199219c4.714844 0 8.535156 3.820313 8.535156 8.535156zm0 0" fill="#802f34"/><g fill="#f0c419"><path d="m384.003906 213.332031c-2.265625 0-4.433594-.898437-6.035156-2.5l-76.800781-76.800781c-2.4375-2.4375-3.167969-6.109375-1.847657-9.296875 1.320313-3.1875 4.429688-5.265625 7.882813-5.269531h85.332031v85.335937c0 3.449219-2.078125 6.5625-5.265625 7.882813-1.035156.433594-2.144531.652344-3.265625.648437zm0 0"/><path d="m76.800781 213.332031c-1.121093.003907-2.230469-.214843-3.265625-.648437-3.1875-1.320313-5.265625-4.433594-5.265625-7.882813v-76.800781c0-4.710938 3.820313-8.535156 8.53125-8.535156h76.800781c3.453126.003906 6.5625 2.082031 7.882813 5.269531s.589844 6.859375-1.847656 9.296875l-76.800781 76.800781c-1.601563 1.601563-3.769532 2.5-6.035157 2.5zm0 0"/><path d="m366.933594 512h-59.730469c-3.453125 0-6.5625-2.078125-7.882813-5.269531-1.320312-3.1875-.589843-6.855469 1.847657-9.296875l76.800781-76.800782c2.441406-2.4375 6.109375-3.167968 9.296875-1.847656 3.191406 1.320313 5.269531 4.429688 5.269531 7.882813v59.730469c0 14.140624-11.460937 25.601562-25.601562 25.601562zm0 0"/><path d="m153.601562 512h-85.332031v-85.332031c0-3.453125 2.078125-6.5625 5.265625-7.882813 3.191406-1.320312 6.859375-.589844 9.300782 1.847656l76.800781 76.800782c2.4375 2.441406 3.167969 6.109375 1.847656 9.296875-1.320313 3.191406-4.429687 5.269531-7.882813 5.269531zm0 0"/></g></svg>