<svg height="512pt" viewBox="-60 0 512 512.00391" width="512pt" xmlns="http://www.w3.org/2000/svg"><path d="m59.734375 110.933594h332.800781v366.933594c0 18.851562-15.28125 34.132812-34.132812 34.132812h-298.667969zm0 0" fill="#4482c3"/><path d="m384.003906 25.601562v85.332032h-324.269531c-28.277344 0-51.199219-22.921875-51.199219-51.199219.042969-28.261719 22.941406-51.160156 51.199219-51.199219h307.199219c9.414062.027344 17.039062 7.652344 17.070312 17.066406zm0 0" fill="#cbb292"/><path d="m93.867188 51.199219h-34.132813c-4.710937 0-8.53125-3.820313-8.53125-8.53125 0-4.714844 3.820313-8.535157 8.53125-8.535157h34.132813c4.714843 0 8.535156 3.820313 8.535156 8.535157 0 4.710937-3.820313 8.53125-8.535156 8.53125zm0 0" fill="#7f6e5d"/><path d="m384.003906 51.199219h-256c-4.714844 0-8.535156-3.820313-8.535156-8.53125 0-4.714844 3.820312-8.535157 8.535156-8.535157h256c4.710938 0 8.53125 3.820313 8.53125 8.535157 0 4.710937-3.820312 8.53125-8.53125 8.53125zm0 0" fill="#7f6e5d"/><path d="m384.003906 85.332031h-332.800781c-4.714844 0-8.535156-3.820312-8.535156-8.53125 0-4.714843 3.820312-8.535156 8.535156-8.535156h332.800781c4.710938 0 8.53125 3.820313 8.53125 8.535156 0 4.710938-3.820312 8.53125-8.53125 8.53125zm0 0" fill="#7f6e5d"/><path d="m366.933594 0h-307.199219c-32.972656.0429688-59.6914062 26.761719-59.73046875 59.734375v392.53125c.01953125 17.328125 7.55078175 33.792969 20.64843775 45.136719 13.09375 11.34375 30.464844 16.449218 47.617187 14v-374.867188c0-9.425781 7.640625-17.070312 17.066407-17.070312h307.199218v-93.863282c0-14.140624-11.460937-25.601562-25.601562-25.601562zm8.535156 102.398438h-315.734375c-23.550781-.027344-42.636719-19.113282-42.664063-42.664063.039063-23.546875 19.117188-42.625 42.664063-42.667969h307.199219c4.714844 0 8.535156 3.820313 8.535156 8.535156zm0 0" fill="#285680"/><g fill="#f0c419"><path d="m384.003906 213.332031c-2.265625 0-4.433594-.898437-6.035156-2.5l-76.800781-76.800781c-2.4375-2.4375-3.167969-6.109375-1.847657-9.296875 1.320313-3.1875 4.429688-5.265625 7.882813-5.269531h85.332031v85.335937c0 3.449219-2.078125 6.5625-5.265625 7.882813-1.035156.433594-2.144531.652344-3.265625.648437zm0 0"/><path d="m76.800781 213.332031c-1.121093.003907-2.230469-.214843-3.265625-.648437-3.1875-1.320313-5.265625-4.433594-5.265625-7.882813v-76.800781c0-4.710938 3.820313-8.535156 8.53125-8.535156h76.800781c3.453126.003906 6.5625 2.082031 7.882813 5.269531s.589844 6.859375-1.847656 9.296875l-76.800781 76.800781c-1.601563 1.601563-3.769532 2.5-6.035157 2.5zm0 0"/><path d="m366.933594 512h-59.730469c-3.453125 0-6.5625-2.078125-7.882813-5.269531-1.320312-3.1875-.589843-6.855469 1.847657-9.296875l76.800781-76.800782c2.441406-2.4375 6.109375-3.167968 9.296875-1.847656 3.191406 1.320313 5.269531 4.429688 5.269531 7.882813v59.730469c0 14.140624-11.460937 25.601562-25.601562 25.601562zm0 0"/><path d="m153.601562 512h-85.332031v-85.332031c0-3.453125 2.078125-6.5625 5.265625-7.882813 3.191406-1.320312 6.859375-.589844 9.300782 1.847656l76.800781 76.800782c2.4375 2.441406 3.167969 6.109375 1.847656 9.296875-1.320313 3.191406-4.429687 5.269531-7.882813 5.269531zm0 0"/><path d="m354.816406 334.550781-7.097656-5.0625c1.375-7.351562 2.09375-14.808593 2.148438-22.289062-.152344-38.3125-17.402344-74.554688-47.035157-98.839844l3.023438-9.507813c1.105469-3.496093-.144531-7.3125-3.109375-9.476562-2.96875-2.160156-6.984375-2.183594-9.972656-.054688l-8.621094 6.136719c-38.699219-21.679687-85.886719-21.679687-124.585938 0l-8.617187-6.136719c-2.988281-2.105468-6.984375-2.074218-9.9375.074219-2.953125 2.152344-4.210938 5.941407-3.128907 9.433594l3.023438 9.503906c-36.195312 29.003907-53.453125 75.59375-44.886719 121.175781l-7.101562 5.058594c-3.011719 2.15625-4.285157 6.011719-3.15625 9.539063 1.128906 3.527343 4.402343 5.921875 8.105469 5.933593h7.484374c16.878907 47.960938 60.691407 81.265626 111.421876 84.699219l.964843 3.046875c1.125 3.542969 4.414063 5.949219 8.128907 5.949219h.050781c3.742187-.023437 7.03125-2.480469 8.117187-6.058594l.851563-2.9375c50.753906-3.417969 94.597656-36.722656 111.5-84.699219h7.480469c3.714843 0 7.003906-2.398437 8.132812-5.9375 1.132812-3.539062-.15625-7.398437-3.183594-9.550781zm-22.015625-27.351562c-.011719 3.75-.222656 7.496093-.621093 11.222656l-52.429688-37.351563 17.511719-55.148437c22.585937 21.003906 35.453125 50.433594 35.539062 81.277344zm-111.113281 99.226562-17.917969-56.386719h35.335938zm-23.320312-73.457031-14.351563-45.226562 37.851563-26.953126 37.863281 26.972657-10.238281 32.210937-4.488282 12.996094zm-19.78125-62.292969-16.699219-52.613281 45.277343 32.253906zm1.871093 62.292969h-59.90625l48.863281-34.8125zm56.113281-82.660156 45.277344-32.257813-16.699218 52.617188zm37.753907 47.847656 48.859375 34.8125h-60.117188zm-5.855469-91.523438-46.601562 33.195313-46.597657-33.195313c29.632813-13.34375 63.566407-13.34375 93.199219 0zm-157.535156 100.566407c.085937-30.84375 12.957031-60.273438 35.542968-81.277344l17.511719 55.148437-52.429687 37.351563c-.398438-3.726563-.605469-7.472656-.625-11.222656zm8.671875 42.839843h66.277343l21.273438 67.011719c-39.0625-5.085937-72.441406-30.632812-87.550781-67.011719zm116.675781 67.042969 16.410156-54.058593 4.480469-12.984376h66.960937c-15.164062 36.46875-48.671874 62.042969-87.851562 67.042969zm0 0"/></g></svg>