<svg height="512pt" viewBox="0 -2 512 512" width="512pt" xmlns="http://www.w3.org/2000/svg"><path d="m209.390625 144.652344v-.089844c-.699219-3.058594-1.230469-6.152344-1.589844-9.269531-1.710937-16.476563-.878906-33.121094 2.472657-49.34375 1.832031-9.335938 4.234374-18.546875 7.195312-27.585938 1.785156-5.636719.679688-11.789062-2.957031-16.449219-11.535157-15.40625-27.253907-27.179687-45.285157-33.914062-19.664062-6.933594-40.617187-9.40625-61.351562-7.238281-37.738281 4.351562-74.324219 15.726562-107.875 33.542969 0 0 59.234375 52.171874 34.605469 92.074218.09375.011719.183593.039063.261719.085938 8.523437 2.027344 16.785156 5.019531 24.628906 8.917968 21.71875 10.417969 47.9375 31.425782 36.105468 69.03125 17.210938-1.667968 34.578126.503907 50.847657 6.355469zm0 0" fill="#285680"/><path d="m146.625 127.085938c-10.859375 29.34375-28.316406 55.800781-51.023438 77.328124 11.832032-37.605468-14.386718-58.613281-36.105468-69.03125-7.84375-3.898437-16.105469-6.890624-24.628906-8.917968 0 0 32.3125-43.429688 79.183593-46.871094 10.636719-.699219 20.640625 5.085938 25.335938 14.652344l6.003906 12.09375c3.261719 6.445312 3.710937 13.957031 1.234375 20.746094zm0 0" fill="#2c3e50"/><path d="m302.609375 144.652344v-.089844c.699219-3.058594 1.230469-6.152344 1.589844-9.269531 1.710937-16.476563.878906-33.121094-2.472657-49.34375-1.832031-9.335938-4.234374-18.546875-7.195312-27.585938-1.785156-5.636719-.679688-11.789062 2.957031-16.449219 11.535157-15.40625 27.253907-27.179687 45.285157-33.914062 19.664062-6.933594 40.617187-9.40625 61.351562-7.238281 37.738281 4.351562 74.324219 15.726562 107.875 33.542969 0 0-59.234375 52.171874-34.605469 92.074218-.09375.011719-.183593.039063-.261719.085938-8.523437 2.027344-16.785156 5.019531-24.628906 8.917968-21.71875 10.417969-47.9375 31.425782-36.105468 69.03125-17.210938-1.667968-34.578126.503907-50.847657 6.355469zm0 0" fill="#285680"/><g fill="#2c3e50"><path d="m365.375 127.085938c10.859375 29.34375 28.316406 55.800781 51.023438 77.328124-11.832032-37.605468 14.386718-58.613281 36.105468-69.03125 7.84375-3.898437 16.105469-6.890624 24.628906-8.917968 0 0-32.3125-43.429688-79.183593-46.871094-10.636719-.699219-20.640625 5.085938-25.335938 14.652344l-6.003906 12.09375c-3.261719 6.445312-3.710937 13.957031-1.234375 20.746094zm0 0"/><path d="m349.042969 397.121094-22.421875 67.175781h-35.3125l-16.417969-49.34375h-37.78125l-16.417969 49.34375h-35.3125l-22.421875-67.175781zm0 0"/><path d="m344.964844 398.972656c25.425781-10.964844 45.253906-31.863281 54.871094-57.832031 9.617187-25.964844 8.1875-54.738281-3.960938-79.621094-23.894531-49.660156-59.644531-92.679687-104.097656-125.253906-21.246094-15.769531-50.308594-15.769531-71.554688 0-44.453125 32.574219-80.203125 75.59375-104.097656 125.253906-12.148438 24.882813-13.578125 53.65625-3.960938 79.621094 9.617188 25.96875 29.445313 46.867187 54.871094 57.832031 28.277344 11.335938 58.5 17.03125 88.964844 16.773438 30.464844.257812 60.6875-5.4375 88.964844-16.773438zm0 0"/></g><path d="m329.269531 398.972656c43.574219-21.953125 62.675781-85.527344 41.929688-137.453125-18.46875-47.839843-47.820313-90.722656-85.734375-125.253906-16.476563-15.773437-42.453125-15.773437-58.929688 0-37.910156 34.53125-67.257812 77.414063-85.726562 125.253906-20.753906 51.925781-1.640625 115.5 41.921875 137.453125 46.285156 22.371094 100.253906 22.371094 146.539062 0zm0 0" fill="#35495e"/><path d="m185.378906 464.296875h35.3125v26.484375c0 9.75-7.90625 17.65625-17.65625 17.65625s-17.65625-7.90625-17.65625-17.65625zm0 0" fill="#cb9080"/><path d="m291.308594 464.296875h35.3125v26.484375c0 9.75-7.90625 17.65625-17.65625 17.65625s-17.65625-7.90625-17.65625-17.65625zm0 0" fill="#cb9080"/><path d="m227.664062 224.804688c1.207032 3.128906 1.835938 6.449218 1.851563 9.800781-.078125 14.066406-11.140625 25.617187-25.191406 26.300781s-26.183594-9.738281-27.632813-23.730469c-1.445312-13.992187 8.300782-26.671875 22.195313-28.878906" fill="#65ddb9"/><path d="m192 199.46875c10.09375 15.976562 27.457031 25.898438 46.34375 26.484375" fill="#2c2f38"/><path d="m238.34375 234.78125c-22.039062-.574219-42.316406-12.179688-53.972656-30.898438-2.460938-4.207031-1.050782-9.613281 3.15625-12.078124 4.207031-2.464844 9.617187-1.050782 12.082031 3.15625 8.441406 13.347656 22.949219 21.648437 38.734375 22.164062 4.875 0 8.828125 3.953125 8.828125 8.828125s-3.953125 8.828125-8.828125 8.828125zm0 0" fill="#2c2f38"/><path d="m313.113281 208.296875c14.03125 2.132813 23.929688 14.890625 22.5 29.011719-1.429687 14.121094-13.675781 24.640625-27.851562 23.917968-14.175781-.71875-25.292969-12.429687-25.277344-26.621093.015625-3.351563.644531-6.671875 1.851563-9.800781" fill="#65ddb9"/><path d="m320 199.46875c-10.09375 15.976562-27.457031 25.898438-46.34375 26.484375" fill="#2c2f38"/><path d="m273.65625 234.78125c-4.875 0-8.828125-3.953125-8.828125-8.828125s3.953125-8.828125 8.828125-8.828125c15.753906-.527344 30.234375-8.78125 38.714844-22.066406 1.472656-2.933594 4.445312-4.804688 7.726562-4.867188 3.277344-.058594 6.320313 1.699219 7.898438 4.574219 1.582031 2.871094 1.4375 6.382813-.367188 9.117187-11.65625 18.71875-31.933594 30.324219-53.972656 30.898438zm0 0" fill="#2c2f38"/><path d="m175.050781 347.652344-11.300781-39.8125c-.902344-3.199219.0625-6.636719 2.503906-8.890625 2.445313-2.257813 5.945313-2.949219 9.0625-1.792969l44.84375 16.859375h.089844zm0 0" fill="#e6e7e8"/><path d="m333.859375 343.359375 10.0625-35.484375c.90625-3.199219-.0625-6.636719-2.503906-8.890625-2.441407-2.257813-5.941407-2.949219-9.058594-1.792969l-42.902344 16.066406zm0 0" fill="#e6e7e8"/><path d="m352.644531 358.808594c-.804687-2.410156-20.53125-59.003906-96.644531-59.003906s-95.839844 56.59375-96.644531 59.003906c-1.535157 4.621094.960937 9.613281 5.578125 11.15625.898437.308594 1.839844.464844 2.789062.460937 3.796875 0 7.167969-2.429687 8.371094-6.03125.167969-.476562 16.382812-46.933593 79.90625-46.933593 62.914062 0 79.210938 44.921874 79.917969 46.972656 1.210937 3.582031 4.574219 5.992187 8.359375 5.992187.949218.003907 1.890625-.152343 2.789062-.460937 4.617188-1.542969 7.113282-6.535156 5.578125-11.15625zm0 0" fill="#2c2f38"/></svg>