<svg height="512pt" viewBox="-27 0 512 512.02536" width="512pt" xmlns="http://www.w3.org/2000/svg"><path d="m339.246094 389.210938c12.621094 21.804687 21.890625 58.441406 4.675781 115.554687-1.257813 4.050781-4.863281 6.917969-9.097656 7.230469-4.230469.3125-8.21875-1.996094-10.058594-5.820313-13.503906-29.128906-39.8125-77.238281-73.707031-100.632812h-.089844l-43.695312-.089844c-33.898438 23.484375-60.207032 71.59375-73.710938 100.722656-1.839844 3.824219-5.828125 6.132813-10.058594 5.820313-4.230468-.3125-7.839844-3.179688-9.097656-7.230469-17.214844-57.113281-7.945312-93.660156 4.679688-115.464844zm0 0" fill="#fdd7ad"/><path d="m229.527344 70.800781c0-70.621093 79.445312-70.621093 79.445312-70.621093s114.761719-8.828126 141.242188 97.105468c26.484375 105.929688-17.652344 167.722656-17.652344 167.722656s44.136719 150.070313-97.105469 123.585938c-34.027343 11.953125-69.867187 17.925781-105.929687 17.65625h-.363282c-36.0625.269531-71.902343-5.703125-105.929687-17.65625-141.242187 26.484375-97.105469-123.585938-97.105469-123.585938s-44.136718-61.792968-17.652344-167.722656c26.480469-105.933594 141.238282-97.105468 141.238282-97.105468s79.449218 0 79.449218 70.621093" fill="#2c3e50"/><path d="m229.324219 82.277344c0-64.441406 70.335937-64.441406 70.335937-64.441406s101.640625-8.070313 125.042969 88.609374c23.402344 96.679688-15.625 153.070313-15.625 153.070313s39.070313 136.960937-85.96875 112.792969c-30.058594 10.890625-61.816406 16.34375-93.785156 16.109375h-.320313c-31.96875.234375-63.722656-5.21875-93.78125-16.109375-125.042968 24.167968-85.972656-112.773438-85.972656-112.773438s-39.070312-56.398437-15.625-153.070312 125.042969-88.636719 125.042969-88.636719 70.335937 0 70.335937 64.441406" fill="#35495e"/><path d="m184.144531 197.503906c-19.332031 53.714844-69.304687 67.152344-98.5625 53.980469-37.605469-16.949219-62.019531-72-45.195312-118.75 24.371093-67.734375 82.175781-81.046875 119.789062-64.097656 37.617188 16.949219 40.738281 82.105469 23.96875 128.867187zm0 0" fill="#e4c05c"/><path d="m126.261719 134.050781c-6.773438 3.660157-12.382813 9.144531-16.199219 15.828125-2.125 3.765625-6.632812 5.484375-10.726562 4.078125l-17.054688-6.179687c-2.332031-.851563-4.199219-2.640625-5.160156-4.929688-.957032-2.292968-.917969-4.878906.113281-7.136718 12.066406-26.261719 29.339844-34.835938 41.539063-37.429688 2.457031-.511719 5.011718.039062 7.035156 1.523438 2.019531 1.484374 3.316406 3.757812 3.558594 6.253906l1.953124 19.101562c.40625 3.746094-1.632812 7.328125-5.058593 8.890625zm0 0" fill="#f9eab0"/><path d="m274.183594 197.503906c19.332031 53.714844 69.308594 67.152344 98.5625 53.980469 37.605468-16.949219 62.023437-72 45.195312-118.75-24.371094-67.734375-82.175781-81.046875-119.789062-64.097656-37.613282 16.949219-40.738282 82.105469-23.96875 128.867187zm0 0" fill="#e4c05c"/><path d="m332.066406 134.050781c6.773438 3.660157 12.382813 9.144531 16.199219 15.828125 2.125 3.765625 6.636719 5.484375 10.726563 4.078125l17.054687-6.179687c2.332031-.851563 4.203125-2.640625 5.160156-4.929688.957031-2.292968.917969-4.878906-.109375-7.136718-12.070312-26.261719-29.34375-34.835938-41.542968-37.429688-2.457032-.511719-5.011719.039062-7.035157 1.523438-2.019531 1.484374-3.3125 3.757812-3.558593 6.253906l-1.953126 19.101562c-.40625 3.746094 1.632813 7.328125 5.058594 8.890625zm0 0" fill="#f9eab0"/><path d="m188.21875 269.074219c-16.636719-3.945313-33.613281 7.582031-37.921875 25.746093-4.308594 18.164063 5.6875 36.085938 22.324219 40.03125 16.636718 3.945313 33.613281-7.582031 37.921875-25.746093 4.308593-18.160157-5.6875-36.085938-22.324219-40.03125zm0 0" fill="#e4c05c"/><path d="m114.40625 331.214844c0-12.1875-7.90625-22.070313-17.65625-22.070313s-17.65625 9.882813-17.65625 22.070313 7.90625 22.070312 17.65625 22.070312 17.65625-9.882812 17.65625-22.070312zm0 0" fill="#e4c05c"/><path d="m94.585938 317.929688c-4.597657-1.621094-9.636719.796874-11.257813 5.394531-1.621094 4.597656.792969 9.636719 5.394531 11.257812 4.597656 1.621094 9.636719-.792969 11.257813-5.394531 1.621093-4.597656-.792969-9.636719-5.394531-11.257812zm0 0" fill="#f9eab0"/><path d="m171.476562 281.9375c-4.597656-1.621094-10.441406 3.074219-13.050781 10.480469s-.996093 14.726562 3.601563 16.347656c4.597656 1.617187 10.441406-3.074219 13.050781-10.480469 2.609375-7.410156.996094-14.726562-3.601563-16.347656zm0 0" fill="#f9eab0"/><path d="m308.070312 294.828125c-4.308593-18.164063-21.285156-29.691406-37.921874-25.746094-16.636719 3.945313-26.632813 21.871094-22.324219 40.035157 4.308593 18.164062 21.285156 29.6875 37.921875 25.742187 16.636718-3.945313 26.632812-21.867187 22.324218-40.03125zm0 0" fill="#e4c05c"/><path d="m379.269531 331.214844c0-12.1875-7.90625-22.070313-17.65625-22.070313s-17.65625 9.882813-17.65625 22.070313 7.90625 22.070312 17.65625 22.070312 17.65625-9.882812 17.65625-22.070312zm0 0" fill="#e4c05c"/><g fill="#f9eab0"><path d="m375.035156 323.320312c-1.617187-4.601562-6.660156-7.015624-11.257812-5.394531-4.597656 1.621094-7.011719 6.660157-5.394532 11.257813 1.621094 4.597656 6.660157 7.015625 11.261719 5.394531 4.597657-1.621094 7.011719-6.660156 5.390625-11.257813zm0 0"/><path d="m299.941406 292.417969c-2.609375-7.410157-8.453125-12.101563-13.050781-10.480469-4.601563 1.621094-6.210937 8.9375-3.601563 16.34375 2.609376 7.410156 8.453126 12.101562 13.050782 10.480469 4.597656-1.617188 6.210937-8.9375 3.601562-16.34375zm0 0"/></g></svg>