<svg height="512pt" viewBox="0 0 512 512" width="512pt" xmlns="http://www.w3.org/2000/svg"><path d="m326.53125 114.230469 9.015625 72.03125c1.277344 10.355469 8.546875 18.980469 18.535156 21.988281 92.761719 27.597656 157.917969 93.316406 157.917969 169.921875 0 101.609375-114.582031 133.828125-256 133.828125s-256-32.21875-256-133.828125c0-76.605469 65.15625-142.324219 157.890625-169.9375 9.988281-3.011719 17.261719-11.636719 18.539063-21.988281l9.039062-72.015625" fill="#2980ba"/><path d="m316.804688 114.230469 8.457031 78.40625c.789062 6.753906 5.46875 12.414062 11.953125 14.46875 81.734375 26.921875 139.476562 93.402343 139.476562 171.066406 0 101.609375-98.78125 133.828125-220.691406 133.828125s-220.691406-32.21875-220.691406-133.828125c0-77.679687 57.742187-144.144531 139.476562-171.066406 6.496094-2.042969 11.183594-7.707031 11.980469-14.46875l8.457031-78.40625" fill="#3b97d3"/><path d="m370.757812 44.136719c0-24.375-51.378906-44.136719-114.757812-44.136719s-114.757812 19.761719-114.757812 44.136719c0 24.378906 51.378906 44.140625 114.757812 44.140625s114.757812-19.761719 114.757812-44.140625zm0 0" fill="#3b97d3"/><path d="m370.757812 44.136719v35.3125c0 14.125-17.300781 26.746093-44.226562 34.78125-22.9375 6.488281-46.691406 9.640625-70.53125 9.355469-23.839844.285156-47.59375-2.867188-70.53125-9.355469-26.925781-8.035157-44.226562-20.65625-44.226562-34.78125v-35.3125c0 24.367187 51.375 44.140625 114.757812 44.140625s114.757812-19.773438 114.757812-44.140625zm0 0" fill="#285680"/><path d="m317.792969 44.136719c0-9.75-27.664063-17.652344-61.792969-17.652344s-61.792969 7.902344-61.792969 17.652344 27.664063 17.65625 61.792969 17.65625 61.792969-7.90625 61.792969-17.65625zm0 0" fill="#285680"/><path d="m238.34375 339.863281c0 46.316407-37.546875 83.859375-83.859375 83.859375-46.316406 0-83.863281-37.542968-83.863281-83.859375 0-46.316406 37.546875-83.863281 83.863281-83.863281 46.3125 0 83.859375 37.546875 83.859375 83.863281zm0 0" fill="#b0d3f0"/><path d="m185.378906 331.035156c0 21.9375-17.785156 39.722656-39.722656 39.722656-21.941406 0-39.726562-17.785156-39.726562-39.722656 0-21.941406 17.785156-39.726562 39.726562-39.726562 21.9375 0 39.722656 17.785156 39.722656 39.726562zm0 0" fill="#59474e"/><path d="m158.898438 322.207031c0 12.1875-9.882813 22.070313-22.070313 22.070313s-22.070313-9.882813-22.070313-22.070313 9.882813-22.070312 22.070313-22.070312 22.070313 9.882812 22.070313 22.070312zm0 0" fill="#2c2f38"/><path d="m132.414062 326.621094c-1.152343-.015625-2.292968-.253906-3.355468-.707032-1.070313-.449218-2.054688-1.074218-2.914063-1.851562-2.527343-2.527344-3.257812-6.339844-1.851562-9.625.425781-1.078125 1.054687-2.066406 1.851562-2.910156l1.324219-1.0625c.492188-.332032 1.027344-.601563 1.589844-.792969.5-.253906 1.035156-.433594 1.589844-.53125 2.90625-.59375 5.917968.300781 8.03125 2.386719 1.613281 1.691406 2.527343 3.929687 2.5625 6.265625.023437 2.347656-.898438 4.609375-2.558594 6.269531-1.664063 1.660156-3.921875 2.582031-6.269532 2.558594zm0 0" fill="#ecf0f1"/><path d="m459.035156 375.171875c0 46.316406-37.546875 83.863281-83.863281 83.863281s-83.863281-37.546875-83.863281-83.863281 37.546875-83.863281 83.863281-83.863281 83.863281 37.546875 83.863281 83.863281zm0 0" fill="#b0d3f0"/><path d="m423.722656 384c0 21.9375-17.785156 39.722656-39.722656 39.722656s-39.722656-17.785156-39.722656-39.722656 17.785156-39.722656 39.722656-39.722656 39.722656 17.785156 39.722656 39.722656zm0 0" fill="#285680"/><g fill="#90bae1"><path d="m291.308594 264.828125c0 9.75-7.902344 17.65625-17.652344 17.65625s-17.65625-7.90625-17.65625-17.65625 7.90625-17.65625 17.65625-17.65625 17.652344 7.90625 17.652344 17.65625zm0 0"/><path d="m256 450.207031c0 9.75-7.90625 17.65625-17.65625 17.65625s-17.652344-7.90625-17.652344-17.65625 7.902344-17.65625 17.652344-17.65625 17.65625 7.90625 17.65625 17.65625zm0 0"/><path d="m264.828125 194.207031c0 14.625-11.855469 26.484375-26.484375 26.484375-14.625 0-26.480469-11.859375-26.480469-26.484375s11.855469-26.484375 26.480469-26.484375c14.628906 0 26.484375 11.859375 26.484375 26.484375zm0 0"/></g><path d="m414.898438 392.828125c0 12.1875-9.882813 22.070313-22.070313 22.070313s-22.070313-9.882813-22.070313-22.070313 9.882813-22.070313 22.070313-22.070313 22.070313 9.882813 22.070313 22.070313zm0 0" fill="#2c2f38"/><path d="m397.242188 388.414062c1.152343.015626 2.292968.253907 3.355468.707032 1.066406.445312 2.050782 1.074218 2.910156 1.851562 2.527344 2.527344 3.261719 6.339844 1.855469 9.625-.425781 1.078125-1.054687 2.066406-1.855469 2.910156l-1.324218 1.058594c-.492188.335938-1.023438.601563-1.585938.796875-.503906.253907-1.039062.433594-1.589844.527344-2.910156.59375-5.921874-.296875-8.035156-2.382813-1.609375-1.691406-2.523437-3.929687-2.558594-6.265624-.023437-2.347657.898438-4.609376 2.558594-6.269532s3.921875-2.582031 6.269532-2.558594zm0 0" fill="#ecf0f1"/></svg>