<svg height="512pt" viewBox="-49 0 512 512.00438" width="512pt" xmlns="http://www.w3.org/2000/svg"><path d="m352.417969 406.691406c62.445312-75.195312 59.347656-185.0625-7.238281-256.621094h-284.25c-66.582032 71.558594-69.683594 181.425782-7.238282 256.621094l98.691406 63.292969c33.191407 8.945313 68.15625 8.945313 101.34375 0zm0 0" fill="#3d324c"/><path d="m57.398438 105.933594h291.3125c12.1875 0 22.066406 9.882812 22.066406 22.070312s-9.878906 22.066406-22.066406 22.066406h-291.3125c-12.1875 0-22.066407-9.878906-22.066407-22.066406s9.878907-22.070312 22.066407-22.070312zm0 0" fill="#894b9d"/><path d="m152.382812 469.984375c2.9375-7.972656 4.894532-16.273437 5.828126-24.71875.730468-7.253906-3.148438-14.191406-9.710938-17.371094-19.019531-9.546875-36.253906-22.304687-50.933594-37.710937-6-6.367188-15.746094-7.40625-22.953125-2.445313-7.832031 5.289063-14.875 11.660157-20.921875 18.925781-10.679687 11.792969-14.308594 28.367188-9.53125 43.546876 5.292969 15.890624-8.476562 22.246093-20.304687 24.804687-8.652344 1.726563-14.910157 9.277344-15.007813 18.097656v.441407c.046875 10.167968 8.28125 18.398437 18.449219 18.449218h81.566406c10.507813.082032 20.484375-4.589844 27.144531-12.710937 7.042969-8.796875 12.578126-18.703125 16.375-29.308594" fill="#f29c1f"/><path d="m253.726562 469.984375c-2.9375-7.972656-4.894531-16.273437-5.828124-24.71875-.730469-7.253906 3.148437-14.191406 9.710937-17.371094 19.023437-9.546875 36.253906-22.304687 50.933594-37.710937 6-6.367188 15.746093-7.40625 22.953125-2.445313 7.832031 5.289063 14.875 11.660157 20.921875 18.925781 10.679687 11.792969 14.308593 28.367188 9.535156 43.546876-5.296875 15.890624 8.472656 22.246093 20.300781 24.804687 8.652344 1.726563 14.910156 9.277344 15.007813 18.097656v.441407c-.046875 10.167968-8.28125 18.398437-18.449219 18.449218h-81.566406c-10.488282.070313-20.449219-4.601562-27.101563-12.710937-7.042969-8.796875-12.574219-18.703125-16.375-29.308594" fill="#f29c1f"/><path d="m100.71875 190.449219c-13.820312-4.777344-32.777344 13.757812-42.335938 41.40625-9.558593 27.644531-6.101562 53.933593 7.722657 58.710937s32.777343-13.757812 42.335937-41.40625c9.558594-27.644531 6.101563-53.929687-7.722656-58.710937zm0 0" fill="#7d6599"/><path d="m194.226562 44.140625h17.65625c14.625 0 26.484376 11.855469 26.484376 26.484375v35.308594h-70.621094v-35.308594c0-14.628906 11.855468-26.484375 26.480468-26.484375zm0 0" fill="#f0c419"/><path d="m203.054688 44.140625c24.957031 0 32.742187-20.902344 35.167968-33.941406.410156-2.589844-.355468-5.230469-2.089844-7.199219-1.730468-1.96875-4.246093-3.0664062-6.867187-2.99609375h-52.417969c-2.625-.07031245-5.140625 1.02734375-6.871094 2.99609375-1.734374 1.96875-2.5 4.609375-2.089843 7.199219 2.425781 13.039062 10.210937 33.941406 35.167969 33.941406zm0 0" fill="#f29c1f"/><path d="m150.089844 105.933594-53.9375-58.703125c-10.117188-10.550781-26.871094-10.90625-37.429688-.792969l-5.738281 5.472656c-.085937.265625-.351563.441406-.617187.707032-.152344.171874-.332032.320312-.527344.441406l-5.828125 5.648437c-10.546875 10.117188-10.90625 26.871094-.792969 37.429688l9.445312 9.796875zm0 0" fill="#ff5364"/><path d="m21.789062 20.765625 18.898438-18.113281c1.84375-1.867188 4.417969-2.820313 7.03125-2.5976565s4.992188 1.5937505 6.496094 3.7460935c7.28125 11.03125 16.152344 31.511719-1.847656 48.796875" fill="#c03a2b"/><path d="m21.789062 20.765625-18.898437 18.160156c-1.941406 1.761719-2.996094 4.296875-2.8789062 6.917969.1132812 2.621094 1.3906252 5.054688 3.4765622 6.640625 10.789063 7.722656 30.898438 17.40625 48.878907.113281" fill="#c03a2b"/><path d="m264.847656 105.933594 53.9375-58.703125c10.117188-10.550781 26.871094-10.90625 37.429688-.792969l5.738281 5.472656c.085937.265625.351563.441406.617187.707032.152344.171874.332032.320312.527344.441406l5.828125 5.648437c10.550781 10.117188 10.90625 26.871094.792969 37.429688l-9.445312 9.796875zm0 0" fill="#ff5364"/><g fill="#c03a2b"><path d="m393.148438 20.765625-18.898438-18.113281c-1.84375-1.867188-4.417969-2.820313-7.03125-2.5976565s-4.992188 1.5937505-6.496094 3.7460935c-7.28125 11.03125-16.152344 31.511719 1.847656 48.796875"/><path d="m393.148438 20.765625 18.898437 18.160156c1.941406 1.761719 2.996094 4.296875 2.878906 6.917969-.113281 2.621094-1.390625 5.054688-3.476562 6.640625-10.789063 7.722656-30.898438 17.40625-48.878907.113281"/></g></svg>