<svg height="511pt" viewBox="0 0 511 511.9008" width="511pt" xmlns="http://www.w3.org/2000/svg"><path d="m180.949219 488.378906c-19.53125 15.652344-46.039063 19.417969-69.15625 9.824219-23.113281-9.59375-39.164063-31.023437-41.871094-55.902344-26.582031-2.925781-49.042969-21.03125-57.542969-46.386719-8.5-25.355468-1.492187-53.339843 17.953125-71.699218 19.445313-18.359375 47.789063-23.742188 72.613281-13.796875 15.9375 6.808593 34.40625 3.398437 46.863282-8.652344l152.414062-152.40625c12.050782-12.457031 15.460938-30.925781 8.652344-46.863281-9.972656-24.832032-4.601562-53.199219 13.761719-72.664063 18.363281-19.46875 46.371093-26.480469 71.742187-17.964843 25.371094 8.511718 43.476563 31 46.378906 57.601562 26.582032 2.929688 49.042969 21.035156 57.542969 46.390625s1.492188 53.339844-17.953125 71.695313c-19.449218 18.359374-47.789062 23.746093-72.613281 13.796874-15.9375-6.808593-34.40625-3.398437-46.863281 8.65625l-152.414063 152.410157c-12.054687 12.460937-15.464843 30.925781-8.652343 46.867187 11.230468 28.082032 2.761718 60.203125-20.855469 79.09375zm0 0" fill="#bdc3c7"/><path d="m497.882812 92.570312c-11.394531-15.902343-28.4375-26.847656-47.640624-30.59375-3.738282-19.199218-14.683594-36.242187-30.59375-47.632812-28.175782-19.984375-66.160157-19-93.265626 2.417969-26.617187 21.207031-36.144531 57.375-23.425781 88.941406 5.476563 12.777344 2.816407 27.585937-6.765625 37.65625l-152.414062 152.382813c-10.066406 9.59375-24.882813 12.257812-37.660156 6.765624-31.554688-12.699218-67.703126-3.179687-88.90625 23.414063-21.414063 27.113281-22.402344 65.09375-2.425782 93.277344 11.394532 15.910156 28.445313 26.859375 47.652344 30.601562 5.707031 28.699219 27.15625 51.695313 55.386719 59.386719 28.230469 7.6875 58.382812-1.253906 77.851562-23.09375 19.472657-21.839844 24.910157-52.816406 14.046875-79.984375-5.480468-12.773437-2.816406-27.585937 6.765625-37.65625l152.414063-152.414063c10.011718-9.695312 24.894531-12.371093 37.65625-6.765624 31.5625 12.6875 67.707031 3.167968 88.917968-23.425782 21.40625-27.117187 22.386719-65.09375 2.40625-93.277344zm-15.691406 82.558594c-16.511718 20.746094-44.6875 28.1875-69.289062 18.296875-19.117188-8.015625-41.171875-3.867187-56.066406 10.546875l-152.414063 152.414063c-14.425781 14.890625-18.570313 36.953125-10.539063 56.0625 8.734376 21.746093 4.027344 46.578125-12.050781 63.621093-16.078125 17.042969-40.597656 23.1875-62.808593 15.734376-22.214844-7.449219-38.070313-27.132813-40.621094-50.425782-2.066406-18.117187 4.269531-36.1875 17.203125-49.042968 3.339843-3.332032 3.347656-8.738282.015625-12.082032-3.332032-3.339844-8.742188-3.347656-12.082032-.015625-13.769531 13.730469-21.792968 32.195313-22.433593 51.632813-13.101563-3.652344-24.566407-11.660156-32.503907-22.707032-15.585937-21.699218-14.96875-51.085937 1.511719-72.113281 16.480469-21.027343 44.867188-28.648437 69.664063-18.695312 19.113281 8.023437 41.175781 3.875 56.066406-10.550781l152.414062-152.410157c14.421876-14.894531 18.570313-36.953125 10.546876-56.066406-8.378907-20.636719-4.648438-44.21875 9.699218-61.257813 14.34375-17.042968 36.941406-24.742187 58.707032-20.007812 21.765624 4.738281 39.121093 21.132812 45.085937 42.59375-19.433594.640625-37.894531 8.664062-51.625 22.433594-2.21875 2.140625-3.109375 5.316406-2.328125 8.296875.78125 2.984375 3.109375 5.316406 6.09375 6.097656s6.15625-.109375 8.296875-2.328125c12.847656-12.953125 30.929687-19.296875 49.050781-17.203125 16.957032 1.808594 32.332032 10.78125 42.25 24.652344 15.546875 21.90625 14.796875 51.4375-1.84375 72.523437zm0 0" fill="#7f8c8d"/><g fill="#fff"><path d="m458.484375 115.339844c-9.539063-4.863282-22.269531 1-28.4375 13.097656-6.164063 12.097656-3.429687 25.84375 6.109375 30.707031s22.273438-1 28.4375-13.097656 3.429688-25.847656-6.109375-30.707031zm0 0"/><path d="m135.234375 405.84375c-9.542969-4.863281-22.273437 1.003906-28.4375 13.101562-6.167969 12.09375-3.433594 25.84375 6.109375 30.707032 9.539062 4.863281 22.269531-1.003906 28.4375-13.101563 6.164062-12.09375 3.429688-25.84375-6.109375-30.707031zm0 0"/></g></svg>