<svg height="511pt" viewBox="0 0 511 511.99773" width="511pt" xmlns="http://www.w3.org/2000/svg"><path d="m331.773438 488.378906c19.53125 15.652344 46.039062 19.414063 69.15625 9.824219 23.117187-9.59375 39.171874-31.023437 41.882812-55.902344 26.578125-2.929687 49.03125-21.039062 57.53125-46.394531 8.496094-25.355469 1.488281-53.335938-17.957031-71.691406-19.445313-18.355469-47.785157-23.742188-72.609375-13.796875-15.9375 6.808593-34.402344 3.398437-46.855469-8.652344l-152.421875-152.40625c-12.046875-12.460937-15.457031-30.925781-8.652344-46.863281 9.957032-24.828125 4.582032-53.179688-13.777344-72.636719-18.359374-19.453125-46.355468-26.464844-71.714843-17.957031-25.363281 8.507812-43.46875 30.976562-46.382813 57.566406-26.582031 2.929688-49.042968 21.035156-57.542968 46.390625-8.5 25.355469-1.492188 53.339844 17.953124 71.695313 19.449219 18.359374 47.789063 23.746093 72.613282 13.796874 15.941406-6.804687 34.40625-3.394531 46.867187 8.65625l152.410157 152.410157c12.054687 12.460937 15.464843 30.925781 8.65625 46.867187-11.238282 28.078125-2.769532 60.203125 20.84375 79.09375zm0 0" fill="#bdc3c7"/><path d="m17.253906 185.847656c21.214844 26.609375 57.382813 36.132813 88.949219 23.425782 12.761719-5.605469 27.648437-2.929688 37.660156 6.765624l152.378907 152.414063c9.582031 10.070313 12.246093 24.882813 6.765624 37.65625-10.90625 27.179687-5.484374 58.1875 13.992188 80.054687 19.480469 21.867188 49.660156 30.820313 77.914062 23.109376 28.25-7.707032 49.703126-30.742188 55.378907-59.472657 19.207031-3.742187 36.253906-14.691406 47.644531-30.601562 19.984375-28.179688 19-66.164063-2.417969-93.277344-21.207031-26.609375-57.378906-36.132813-88.941406-23.414063-12.773437 5.492188-27.59375 2.828126-37.65625-6.765624l-152.390625-152.414063c-9.582031-10.070313-12.242188-24.886719-6.757812-37.660156 12.703124-31.558594 3.171874-67.710938-23.433594-88.90625-27.105469-21.417969-65.089844-22.402344-93.269532-2.417969-15.898437 11.390625-26.84375 28.433594-30.582031 47.632812-19.203125 3.742188-36.25 14.6875-47.640625 30.59375-19.988281 28.179688-19.007812 66.164063 2.40625 93.277344zm11.398438-83.242187c9.917968-13.871094 25.289062-22.839844 42.242187-24.652344 18.121094-2.089844 36.199219 4.25 49.039063 17.203125 3.332031 3.339844 8.742187 3.347656 12.085937.015625 3.339844-3.332031 3.347657-8.742187.015625-12.082031-13.730468-13.769532-32.191406-21.792969-51.625-22.433594 3.652344-13.097656 11.660156-24.5625 22.695313-32.503906 21.707031-15.566406 51.078125-14.941406 72.097656 1.535156 21.023437 16.476562 28.652344 44.847656 18.722656 69.640625-8.023437 19.113281-3.875 41.167969 10.539063 56.066406l152.421875 152.410157c14.890625 14.425781 36.945312 18.574218 56.058593 10.550781 20.648438-8.4375 44.273438-4.730469 61.351563 9.621093 17.074219 14.351563 24.789063 36.988282 20.03125 58.78125-4.753906 21.792969-21.199219 39.15625-42.703125 45.089844-.644531-19.4375-8.664062-37.898437-22.433594-51.636718-2.140625-2.21875-5.316406-3.105469-8.296875-2.324219-2.984375.777343-5.316406 3.109375-6.097656 6.09375-.78125 2.980469.109375 6.15625 2.328125 8.296875 12.929688 12.859375 19.269531 30.925781 17.203125 49.042968-1.808594 16.957032-10.777344 32.335938-24.652344 42.253907-21.707031 15.554687-51.074219 14.925781-72.089843-1.550781-21.019532-16.472657-28.648438-44.835938-18.730469-69.632813 8.023437-19.113281 3.878906-41.167969-10.539063-56.0625l-152.421875-152.355469c-14.894531-14.414062-36.949219-18.5625-56.0625-10.546875-24.796875 9.925781-53.167969 2.300781-69.644531-18.722656-16.472656-21.023437-17.097656-50.394531-1.535156-72.097656zm0 0" fill="#7f8c8d"/><path d="m181 488.378906c-19.53125 15.652344-46.039062 19.417969-69.152344 9.824219-23.117187-9.59375-39.167968-31.023437-41.875-55.902344-26.582031-2.925781-49.042968-21.03125-57.542968-46.386719-8.5-25.355468-1.492188-53.339843 17.953124-71.699218 19.449219-18.359375 47.789063-23.742188 72.613282-13.796875 15.941406 6.808593 34.40625 3.398437 46.867187-8.652344l152.410157-152.40625c12.054687-12.457031 15.464843-30.925781 8.65625-46.863281-9.976563-24.832032-4.605469-53.199219 13.757812-72.664063 18.367188-19.46875 46.371094-26.480469 71.742188-17.964843 25.371093 8.511718 43.476562 31 46.382812 57.601562 26.582031 2.929688 49.039062 21.035156 57.539062 46.390625s1.492188 53.339844-17.953124 71.695313c-19.445313 18.359374-47.789063 23.746093-72.613282 13.796874-15.9375-6.808593-34.40625-3.398437-46.863281 8.65625l-152.414063 152.410157c-12.050781 12.460937-15.460937 30.925781-8.652343 46.867187 11.230469 28.082032 2.761719 60.203125-20.855469 79.09375zm0 0" fill="#bdc3c7"/><path d="m497.9375 92.570312c-11.394531-15.902343-28.441406-26.847656-47.644531-30.59375-3.738281-19.199218-14.683594-36.242187-30.589844-47.632812-28.179687-19.984375-66.164063-19-93.269531 2.417969-26.617188 21.207031-36.140625 57.375-23.425782 88.941406 5.480469 12.777344 2.816407 27.585937-6.765624 37.65625l-152.414063 152.382813c-10.0625 9.59375-24.882813 12.257812-37.65625 6.765624-31.554687-12.699218-67.703125-3.179687-88.910156 23.414063-21.414063 27.113281-22.398438 65.09375-2.421875 93.277344 11.394531 15.910156 28.441406 26.859375 47.648437 30.601562 5.707031 28.699219 27.15625 51.695313 55.386719 59.386719 28.230469 7.6875 58.382812-1.253906 77.855469-23.09375 19.46875-21.839844 24.910156-52.816406 14.042969-79.984375-5.476563-12.773437-2.816407-27.585937 6.765624-37.65625l152.414063-152.414063c10.015625-9.695312 24.898437-12.371093 37.660156-6.765624 31.558594 12.6875 67.707031 3.167968 88.917969-23.425782 21.402344-27.117187 22.382812-65.09375 2.40625-93.277344zm-15.695312 82.558594c-16.511719 20.746094-44.6875 28.1875-69.289063 18.296875-19.117187-8.015625-41.167969-3.867187-56.066406 10.546875l-152.410157 152.414063c-14.425781 14.890625-18.574218 36.953125-10.539062 56.0625 8.730469 21.746093 4.027344 46.578125-12.050781 63.621093-16.078125 17.042969-40.597657 23.1875-62.8125 15.734376-22.214844-7.449219-38.070313-27.132813-40.621094-50.425782-2.066406-18.117187 4.269531-36.1875 17.203125-49.042968 3.34375-3.332032 3.351562-8.738282.019531-12.082032-3.332031-3.339844-8.742187-3.347656-12.085937-.015625-13.769532 13.730469-21.792969 32.195313-22.433594 51.632813-13.097656-3.652344-24.5625-11.660156-32.503906-22.707032-15.585938-21.699218-14.96875-51.085937 1.511718-72.113281 16.484376-21.027343 44.871094-28.648437 69.667969-18.695312 19.113281 8.023437 41.171875 3.875 56.0625-10.550781l152.414063-152.410157c14.421875-14.894531 18.574218-36.953125 10.546875-56.066406-8.378907-20.636719-4.644531-44.21875 9.699219-61.257813 14.34375-17.042968 36.941406-24.742187 58.707031-20.007812 21.765625 4.738281 39.121093 21.132812 45.085937 42.59375-19.433594.640625-37.894531 8.664062-51.625 22.433594-2.21875 2.140625-3.109375 5.316406-2.328125 8.296875.78125 2.984375 3.113281 5.316406 6.09375 6.097656 2.984375.78125 6.15625-.109375 8.300781-2.328125 12.84375-12.953125 30.925782-19.296875 49.050782-17.203125 16.953125 1.808594 32.328125 10.78125 42.246094 24.652344 15.546874 21.90625 14.796874 51.4375-1.84375 72.523437zm0 0" fill="#7f8c8d"/><g fill="#fff"><path d="m459.074219 110.804688c-5.355469-9.273438-19.226563-11.289063-30.984375-4.5-11.757813 6.789062-16.949219 19.808593-11.597656 29.082031 5.355468 9.273437 19.226562 11.289062 30.984374 4.5 11.757813-6.789063 16.953126-19.8125 11.597657-29.082031zm0 0"/><path d="m135.285156 405.84375c-9.539062-4.863281-22.273437 1.003906-28.4375 13.101562-6.164062 12.09375-3.429687 25.84375 6.109375 30.707032 9.539063 4.863281 22.273438-1.003906 28.4375-13.101563 6.164063-12.09375 3.429688-25.84375-6.109375-30.707031zm0 0"/><path d="m82.675781 128.4375c-6.164062-12.097656-18.898437-17.964844-28.4375-13.101562-9.539062 4.863281-12.273437 18.609374-6.109375 30.707031 6.167969 12.097656 18.898438 17.960937 28.4375 13.101562 9.539063-4.863281 12.277344-18.613281 6.109375-30.707031zm0 0"/><path d="m357.820312 403.035156c-10.691406-.597656-19.972656 9.90625-20.730468 23.464844-.761719 13.554688 7.289062 25.03125 17.980468 25.628906 10.691407.597656 19.972657-9.90625 20.734376-23.460937.757812-13.558594-7.292969-25.03125-17.984376-25.632813zm0 0"/></g></svg>