<svg height="512pt" viewBox="-60 0 512 512.00391" width="512pt" xmlns="http://www.w3.org/2000/svg"><path d="m59.734375 110.933594h332.800781v366.933594c0 18.851562-15.28125 34.132812-34.132812 34.132812h-298.667969zm0 0" fill="#7d6599"/><path d="m384.003906 25.601562v85.332032h-324.269531c-28.277344 0-51.199219-22.921875-51.199219-51.199219.042969-28.261719 22.941406-51.160156 51.199219-51.199219h307.199219c9.414062.027344 17.039062 7.652344 17.070312 17.066406zm0 0" fill="#cbb292"/><path d="m93.867188 51.199219h-34.132813c-4.710937 0-8.53125-3.820313-8.53125-8.53125 0-4.714844 3.820313-8.535157 8.53125-8.535157h34.132813c4.714843 0 8.535156 3.820313 8.535156 8.535157 0 4.710937-3.820313 8.53125-8.535156 8.53125zm0 0" fill="#7f6e5d"/><path d="m384.003906 51.199219h-256c-4.714844 0-8.535156-3.820313-8.535156-8.53125 0-4.714844 3.820312-8.535157 8.535156-8.535157h256c4.710938 0 8.53125 3.820313 8.53125 8.535157 0 4.710937-3.820312 8.53125-8.53125 8.53125zm0 0" fill="#7f6e5d"/><path d="m384.003906 85.332031h-332.800781c-4.714844 0-8.535156-3.820312-8.535156-8.53125 0-4.714843 3.820312-8.535156 8.535156-8.535156h332.800781c4.710938 0 8.53125 3.820313 8.53125 8.535156 0 4.710938-3.820312 8.53125-8.53125 8.53125zm0 0" fill="#7f6e5d"/><path d="m366.933594 0h-307.199219c-32.972656.0429688-59.6914062 26.761719-59.73046875 59.734375v392.53125c.01953125 17.328125 7.55078175 33.792969 20.64843775 45.136719 13.09375 11.34375 30.464844 16.449218 47.617187 14v-374.867188c0-9.425781 7.640625-17.070312 17.066407-17.070312h307.199218v-93.863282c0-14.140624-11.460937-25.601562-25.601562-25.601562zm8.535156 102.398438h-315.734375c-23.550781-.027344-42.636719-19.113282-42.664063-42.664063.039063-23.546875 19.117188-42.625 42.664063-42.667969h307.199219c4.714844 0 8.535156 3.820313 8.535156 8.535156zm0 0" fill="#3d324c"/><path d="m384.003906 213.332031c-2.265625 0-4.433594-.898437-6.035156-2.5l-76.800781-76.800781c-2.4375-2.4375-3.167969-6.109375-1.847657-9.296875 1.320313-3.1875 4.429688-5.265625 7.882813-5.269531h85.332031v85.335937c0 3.449219-2.078125 6.5625-5.265625 7.882813-1.035156.433594-2.144531.652344-3.265625.648437zm0 0" fill="#f0c419"/><path d="m76.800781 213.332031c-1.121093.003907-2.230469-.214843-3.265625-.648437-3.1875-1.320313-5.265625-4.433594-5.265625-7.882813v-76.800781c0-4.710938 3.820313-8.535156 8.53125-8.535156h76.800781c3.453126.003906 6.5625 2.082031 7.882813 5.269531s.589844 6.859375-1.847656 9.296875l-76.800781 76.800781c-1.601563 1.601563-3.769532 2.5-6.035157 2.5zm0 0" fill="#f0c419"/><path d="m366.933594 512h-59.730469c-3.453125 0-6.5625-2.078125-7.882813-5.269531-1.320312-3.1875-.589843-6.855469 1.847657-9.296875l76.800781-76.800782c2.441406-2.4375 6.109375-3.167968 9.296875-1.847656 3.191406 1.320313 5.269531 4.429688 5.269531 7.882813v59.730469c0 14.140624-11.460937 25.601562-25.601562 25.601562zm0 0" fill="#f0c419"/><path d="m153.601562 512h-85.332031v-85.332031c0-3.453125 2.078125-6.5625 5.265625-7.882813 3.191406-1.320312 6.859375-.589844 9.300782 1.847656l76.800781 76.800782c2.4375 2.441406 3.167969 6.109375 1.847656 9.296875-1.320313 3.191406-4.429687 5.269531-7.882813 5.269531zm0 0" fill="#f0c419"/><path d="m281.601562 366.933594h8.535157c23.5625 0 42.664062-19.101563 42.664062-42.667969v-76.800781c0-37.699219-30.5625-68.265625-68.265625-68.265625h-85.332031c-37.703125 0-68.269531 30.566406-68.269531 68.265625v76.800781c0 23.566406 19.105468 42.667969 42.667968 42.667969h8.535157" fill="#e6e7e8"/><path d="m290.136719 366.933594v59.734375c-1.441407 20.144531-18.839844 35.371093-39 34.132812h-58.539063c-20.15625 1.238281-37.554687-13.988281-38.996094-34.132812v-59.734375zm0 0" fill="#bdc3c7"/><g fill="#2c3e50"><path d="m153.601562 392.535156h136.535157v17.066406h-136.535157zm0 0"/><path d="m187.734375 426.667969c-4.710937 0-8.53125-3.820313-8.53125-8.535157v-34.132812c0-4.710938 3.820313-8.535156 8.53125-8.535156 4.714844 0 8.535156 3.824218 8.535156 8.535156v34.132812c0 4.714844-3.820312 8.535157-8.535156 8.535157zm0 0"/><path d="m221.867188 426.667969c-4.710938 0-8.53125-3.820313-8.53125-8.535157v-34.132812c0-4.710938 3.820312-8.535156 8.53125-8.535156 4.714843 0 8.535156 3.824218 8.535156 8.535156v34.132812c0 4.714844-3.820313 8.535157-8.535156 8.535157zm0 0"/><path d="m256.003906 426.667969c-4.714844 0-8.535156-3.820313-8.535156-8.535157v-34.132812c0-4.710938 3.820312-8.535156 8.535156-8.535156 4.710938 0 8.53125 3.824218 8.53125 8.535156v34.132812c0 4.714844-3.820312 8.535157-8.53125 8.535157zm0 0"/><path d="m204.800781 270.226562c0 18.847657-15.28125 45.507813-34.132812 45.507813-18.851563 0-34.132813-15.28125-34.132813-34.132813 0-18.851562 15.28125-34.136718 34.132813-34.136718 18.851562 0 34.132812 3.910156 34.132812 22.761718zm0 0"/><path d="m238.933594 270.226562c0 18.847657 15.285156 45.507813 34.136718 45.507813 18.851563 0 34.132813-15.28125 34.132813-34.132813 0-18.851562-15.28125-34.136718-34.132813-34.136718-18.851562 0-34.136718 3.910156-34.136718 22.761718zm0 0"/><path d="m214.554688 319.394531-10.527344 17.550781c-1.582032 2.636719-1.621094 5.917969-.109375 8.589844 1.515625 2.675782 4.347656 4.328125 7.421875 4.332032h21.058594c3.074218-.003907 5.90625-1.65625 7.417968-4.332032 1.515625-2.671875 1.472656-5.953125-.105468-8.589844l-10.527344-17.550781c-1.546875-2.566406-4.320313-4.136719-7.316406-4.136719-2.992188 0-5.769532 1.570313-7.3125 4.136719zm0 0"/></g></svg>