<svg height="511pt" viewBox="0 -8 511.69447 511" width="511pt" xmlns="http://www.w3.org/2000/svg"><g fill="#e64c3c"><path d="m160.1875 40.710938c-30.453125 30.574218-48.066406 71.632812-49.234375 114.773437-4.21875-1.226563-8.582031-1.859375-12.972656-1.878906-16.796875.457031-32.3125 9.09375-41.558594 23.125-7.332031-3.765625-12.402344-10.835938-13.621094-18.988281-1.21875-8.15625 1.566407-16.394532 7.476563-22.140626-2.496094.867188-5.121094 1.296876-7.761719 1.277344-14.140625 0-25.601563-11.460937-25.601563-25.597656-.019531-7.105469 2.953126-13.890625 8.191407-18.6875-8.984375-3.253906-15.410157-11.238281-16.664063-20.714844-1.253906-9.472656 2.871094-18.855468 10.699219-24.332031 7.832031-5.480469 18.058594-6.140625 26.53125-1.71875 5.535156-12.125 17.644531-19.898437 30.976563-19.882813 8.046874.023438 15.835937 2.863282 22.015624 8.023438 6.835938-11.414062 19.695313-17.800781 32.921876-16.351562 13.226562 1.449218 24.398437 10.46875 28.601562 23.09375zm0 0"/><path d="m94.3125 57.691406c-.417969-2.019531-.621094-4.082031-.597656-6.144531-.011719-6.203125 1.699218-12.292969 4.949218-17.578125"/><path d="m45.671875 45.828125c-2.097656 4.457031-3.175781 9.328125-3.15625 14.253906"/><path d="m25.105469 92.59375c2.835937 1.066406 5.84375 1.617188 8.875 1.621094 1.691406.003906 3.378906-.167969 5.035156-.511719"/></g><path d="m168.277344 38.011719c-4.726563-14.285157-16.65625-25.003907-31.367188-28.183594-14.707031-3.183594-30 1.652344-40.210937 12.707031-18.871094-10.269531-42.445313-4.71875-54.75 12.894532-15.488281-3.644532-31.441407 3.898437-38.453125 18.183593-7.015625 14.285157-3.222656 31.523438 9.132812 41.546875-2.738281 4.933594-4.199218 10.476563-4.25 16.121094.011719 16.117188 11.292969 30.03125 27.0625 33.375-4.789062 15.613281 2.433594 32.398438 17.066406 39.660156 1.203126.625 2.542969.953125 3.898438.949219 3.941406.003906 7.371094-2.691406 8.300781-6.519531.929688-3.828125-.882812-7.796875-4.382812-9.601563-4.652344-2.359375-7.960938-6.730469-8.96875-11.847656-1.007813-5.121094.394531-10.417969 3.804687-14.367187 1.703125-.636719 3.335938-1.4375 4.882813-2.398438 2.054687-1.195312 3.964843-2.625 5.691406-4.265625.09375-.085937.136719-.222656.238281-.308594.5625-.542969 1.046875-1.164062 1.441406-1.839843.226563-.296876.4375-.609376.621094-.929688 1.4375-3.199219.769532-6.949219-1.679687-9.457031-2.449219-2.503907-6.179688-3.261719-9.410157-1.902344-.171874.066406-.28125.214844-.445312.289063-.859375.410156-1.644531.960937-2.320312 1.628906l-.085938.070312c-.882812.867188-1.875 1.613282-2.953125 2.21875-.792969.523438-1.65625.9375-2.558594 1.238282-.402343.082031-.800781.1875-1.1875.324218-1.570312.527344-3.222656.78125-4.878906.75-9.425781 0-17.070313-7.640625-17.070313-17.066406.003907-3.21875.9375-6.367188 2.691407-9.0625 1.929687.347656 3.882812.523438 5.84375.527344 2.292969.007812 4.582031-.222656 6.828125-.691406 4.609375-.972657 7.558594-5.503907 6.582031-10.113282-.976563-4.613281-5.503906-7.5625-10.117187-6.585937-5.003907.964843-10.175782-.351563-14.109376-3.589844-3.9375-3.234375-6.226562-8.054687-6.25-13.152344 0-9.425781 7.640626-17.066406 17.066407-17.066406.289062 0 .582031.085937.851562.101563-.5625 2.777343-.847656 5.601562-.851562 8.433593 0 3.046875 1.625 5.863281 4.265625 7.386719 2.640625 1.527344 5.894531 1.527344 8.535156 0 2.640625-1.523438 4.265625-4.339844 4.265625-7.386719-.007813-3.703125.808594-7.363281 2.390625-10.710937 2.824219-6.277344 8.089844-11.128906 14.578125-13.433594 6.484375-2.304688 13.632813-1.863281 19.785156 1.222656-1.703125 4.605469-2.589843 9.476563-2.621093 14.386719-.027344 2.683594.242187 5.363281.804687 7.988281 1.027344 4.601563 5.589844 7.5 10.191406 6.472656 4.601563-1.027343 7.5-5.59375 6.472657-10.195312-.285157-1.402344-.417969-2.832031-.402344-4.265625.089844-14.101563 11.5-25.511719 25.601562-25.601563 11.003906-.011718 20.777344 7.027344 24.25 17.46875 1.492188 4.476563 6.332032 6.898438 10.808594 5.40625 4.476562-1.492187 6.898438-6.328124 5.40625-10.808593zm0 0" fill="#802f34"/><path d="m351.507812 40.710938c30.453126 30.574218 48.066407 71.632812 49.234376 114.773437 4.214843-1.226563 8.582031-1.859375 12.972656-1.878906 16.796875.457031 32.3125 9.09375 41.554687 23.125 7.335938-3.765625 12.40625-10.835938 13.625-18.988281 1.21875-8.15625-1.566406-16.394532-7.480469-22.140626 2.496094.867188 5.125 1.296876 7.765626 1.277344 14.140624 0 25.601562-11.460937 25.601562-25.597656.019531-7.105469-2.953125-13.890625-8.191406-18.6875 8.984375-3.253906 15.410156-11.238281 16.664062-20.714844 1.253906-9.472656-2.871094-18.855468-10.703125-24.332031-7.828125-5.480469-18.058593-6.140625-26.527343-1.71875-5.535157-12.125-17.644532-19.898437-30.976563-19.882813-8.050781.023438-15.839844 2.863282-22.015625 8.023438-6.839844-11.414062-19.699219-17.800781-32.921875-16.351562-13.226563 1.449218-24.398437 10.46875-28.601563 23.09375zm0 0" fill="#e64c3c"/><path d="m469.179688 60.082031c.019531-4.925781-1.058594-9.796875-3.15625-14.253906" fill="#e64c3c"/><path d="m472.679688 93.703125c1.65625.34375 3.34375.515625 5.035156.511719 3.03125-.003906 6.035156-.554688 8.875-1.621094" fill="#e64c3c"/><path d="m343.417969 38.011719c4.726562-14.285157 16.65625-25.003907 31.363281-28.183594 14.710938-3.183594 30.003906 1.652344 40.210938 12.707031 18.867187-10.273437 42.441406-4.730468 54.75 12.875 15.492187-3.644531 31.445312 3.902344 38.457031 18.1875s3.222656 31.519532-9.136719 41.546875c2.746094 4.9375 4.207031 10.488281 4.25 16.136719-.007812 16.117188-11.289062 30.03125-27.058594 33.375 4.785156 15.613281-2.4375 32.398438-17.066406 39.660156-1.203125.625-2.542969.953125-3.898438.949219-3.941406.003906-7.371093-2.691406-8.300781-6.519531-.933593-3.828125.878907-7.796875 4.382813-9.601563 4.652344-2.359375 7.960937-6.730469 8.96875-11.847656 1.007812-5.121094-.394532-10.417969-3.804688-14.367187-1.703125-.636719-3.339844-1.4375-4.882812-2.398438-2.054688-1.195312-3.96875-2.625-5.691406-4.265625-.09375-.085937-.136719-.222656-.238282-.308594-1.800781-1.601562-2.835937-3.886719-2.859375-6.296875 0-2.269531.90625-4.445312 2.515625-6.046875 1.609375-1.601562 3.789063-2.496093 6.0625-2.484375 1.152344 0 2.292969.238282 3.351563.699219.171875.066406.28125.214844.445312.289063.859375.410156 1.640625.960937 2.320313 1.628906l.085937.070312c.878907.867188 1.871094 1.613282 2.953125 2.21875.792969.523438 1.652344.9375 2.558594 1.238282.402344.082031.796875.1875 1.1875.324218 1.554688.523438 3.191406.777344 4.835938.75 9.425781 0 17.066406-7.640625 17.066406-17.066406 0-3.21875-.933594-6.367188-2.6875-9.0625-1.929688.347656-3.882813.523438-5.84375.527344-2.292969.007812-4.582032-.222656-6.828125-.691406-4.609375-.972657-7.558594-5.503907-6.582031-10.113282.976562-4.613281 5.503906-7.5625 10.117187-6.585937 5.003906.964843 10.175781-.351563 14.109375-3.589844 3.9375-3.234375 6.226562-8.054687 6.25-13.152344 0-9.425781-7.640625-17.066406-17.066406-17.066406-.292969 0-.582032.085937-.855469.101563.566406 2.777343.851563 5.601562.855469 8.433593 0 4.710938-3.820313 8.53125-8.535156 8.53125-4.710938 0-8.53125-3.820312-8.53125-8.53125.007812-3.703125-.808594-7.363281-2.390626-10.710937-2.828124-6.277344-8.089843-11.128906-14.578124-13.433594-6.484376-2.304688-13.632813-1.863281-19.785157 1.222656 1.703125 4.605469 2.589844 9.476563 2.621094 14.386719.027344 2.683594-.242187 5.363281-.804687 7.988281-1.027344 4.601563-5.589844 7.5-10.191407 6.472656-4.601562-1.027343-7.5-5.59375-6.472656-10.195312.285156-1.402344.417969-2.832031.398437-4.265625-.085937-14.101563-11.496093-25.511719-25.597656-25.601563-11.003906-.011718-20.777344 7.027344-24.253906 17.46875-.964844 2.898438-3.398438 5.058594-6.390625 5.671876-2.992187.613281-6.082031-.417969-8.105469-2.703126-2.027344-2.28125-2.679687-5.472656-1.714844-8.371093zm0 0" fill="#802f34"/><path d="m409.445312 290.011719c1.453126.085937 2.816407.171875 4.269532.171875 30.632812 0 55.464844-30.550782 55.464844-68.269532 0-37.714843-24.832032-68.265624-55.464844-68.265624-4.390625.019531-8.757813.652343-12.972656 1.878906h-289.789063c-4.21875-1.226563-8.582031-1.859375-12.972656-1.878906-30.632813 0-55.464844 30.550781-55.464844 68.265624 0 37.71875 24.832031 68.269532 55.464844 68.269532 1.449219 0 2.816406-.085938 4.265625-.171875zm0 0" fill="#f09372"/><path d="m409.445312 281.605469v17.066406s0 30.976563-44.285156 33.878906v.253907c0 .085937-.085937.257812-.085937.34375-1.28125 5.714843-2.476563 11.433593-3.414063 17.234374-1.761718 9.269532-2.847656 18.652344-3.242187 28.078126-.230469 15.039062 1.664062 30.035156 5.632812 44.542968 4.042969 12.546875 3.648438 26.105469-1.109375 38.398438-5.351562 9.941406-13.433594 18.144531-23.296875 23.636718-1.367187.855469-2.644531 1.539063-4.097656 2.304688-14.035156 6.824219-29.710937 9.542969-45.226563 7.851562-6.375-.613281-12.683593-1.785156-18.855468-3.5-5.300782-1.46875-10.515625-3.234374-15.617188-5.289062-5.101562 2.054688-10.316406 3.820312-15.617187 5.289062-6.171875 1.714844-12.480469 2.886719-18.859375 3.5-15.511719 1.691407-31.1875-1.027343-45.226563-7.851562-1.449219-.765625-2.730469-1.449219-4.09375-2.304688-9.863281-5.492187-17.945312-13.695312-23.296875-23.636718-4.761718-12.292969-5.152344-25.851563-1.109375-38.398438 3.96875-14.507812 5.863281-29.503906 5.632813-44.542968-.398438-9.425782-1.480469-18.808594-3.242188-28.078126-.941406-5.800781-2.132812-11.519531-3.414062-17.234374 0-.085938-.085938-.257813-.085938-.34375v-.253907c-44.289062-2.902343-44.289062-33.878906-44.289062-33.878906v-17.066406c-.046875-20.730469 6.828125-40.882813 19.542968-57.257813-7.324218-19.800781-11.050781-40.753906-11.007812-61.867187-.523438-45.574219 17.277344-89.445313 49.40625-121.769531 1.535156-1.535157 3.074219-2.988282 4.695312-4.4375 6.796876-6.214844 14.199219-11.734376 22.101563-16.46875 1.960937-1.195313 3.925781-2.390626 5.972656-3.414063 2.132813-1.195313 4.265625-2.21875 6.398438-3.242187 1.707031-.855469 3.328125-1.621094 5.035156-2.304688 1.195313-.511719 2.476563-1.023438 3.753906-1.535156 1.453125-.511719 2.902344-1.109375 4.351563-1.539063.171875-.082031.257812-.167969.34375-.167969 1.960937-.683593 3.925781-1.28125 5.886718-1.878906.472657-.179687.957032-.324218 1.453126-.425781 2.132812-.597656 4.265624-1.195313 6.398437-1.621094 2.390625-.597656 4.777344-1.023437 7.167969-1.453125 2.390625-.425781 4.777344-.765625 7.253906-1.023437 1.449219-.167969 2.816406-.339844 4.265625-.425781l3.753906-.253907c2.304688-.085937 4.523438-.171875 6.828125-.171875 80.128906 0 145.066406 72.617188 145.066406 162.132813.042969 21.113281-3.683593 42.066406-11.007812 61.867187 12.710938 16.375 19.589844 36.527344 19.539062 57.257813zm0 0" fill="#d1d4d1"/><path d="m195.773438 348.164062c-1.0625 3.644532-4.398438 6.144532-8.191407 6.144532-.8125.015625-1.617187-.101563-2.390625-.339844-10.371094-2.613281-21.050781-3.789062-31.746094-3.5-1.191406 0-2.300781 0-3.410156-.085938-.941406-5.800781-2.132812-11.519531-3.414062-17.234374h.597656c1.960938.167968 4.09375.253906 6.226562.253906 12.308594-.285156 24.601563 1.121094 36.523438 4.183594 4.527344 1.316406 7.125 6.054687 5.804688 10.578124zm0 0" fill="#7f8c8d"/><path d="m365.074219 333.148438c-1.28125 5.714843-2.476563 11.433593-3.414063 17.234374-1.109375.085938-2.21875.085938-3.414062.085938-10.691406-.289062-21.371094.886719-31.742188 3.5-.773437.238281-1.582031.355469-2.390625.339844-4.246093 0-7.847656-3.121094-8.445312-7.324219-.601563-4.203125 1.980469-8.210937 6.054687-9.398437 11.925782-3.0625 24.214844-4.46875 36.523438-4.183594 2.132812 0 4.269531-.085938 6.230468-.253906zm0 0" fill="#7f8c8d"/><path d="m309.777344 247.8125h31.402344c9.414062-.027344 17.039062-7.652344 17.066406-17.066406v-34.132813c0-33.859375-22.398438-71.457031-37.546875-93.011719-1.96875-2.800781-5.421875-4.15625-8.769531-3.4375-3.347657.71875-5.941407 3.367188-6.589844 6.730469-4.363282 26.539063-23.636719 48.183594-49.492188 55.585938-25.863281-7.40625-45.140625-29.0625-49.492187-55.613281-.648438-3.359376-3.242188-6.011719-6.589844-6.726563-3.351563-.71875-6.800781.632813-8.773437 3.433594-15.144532 21.582031-37.546876 59.179687-37.546876 93.039062v34.132813c.03125 9.414062 7.65625 17.039062 17.070313 17.066406zm0 0" fill="#24ae5f"/><path d="m235.792969 217.179688c1.957031-3.710938 2.980469-7.839844 2.988281-12.03125 0-14.140626-11.460938-25.601563-25.601562-25.601563-14.136719 0-25.597657 11.460937-25.597657 25.601563 0 14.136718 11.460938 25.597656 25.597657 25.597656.316406.015625.632812-.011719.941406-.085938" fill="#2c2f38"/><path d="m297.574219 230.660156c.308593.074219.625.101563.941406.085938 14.136719 0 25.597656-11.460938 25.597656-25.597656 0-14.140626-11.460937-25.601563-25.597656-25.601563-14.140625 0-25.601563 11.460937-25.601563 25.601563.007813 4.191406 1.03125 8.320312 2.988282 12.03125" fill="#2c2f38"/><path d="m232.371094 375.8125c-5.261719.175781-10.457032-1.203125-14.941406-3.964844-6.792969-4.863281-15.796876-5.3125-23.039063-1.152344-7.539063 5.652344-9.070313 16.351563-3.414063 23.890626l17.9375 23.894531c8.058594 10.742187 20.703126 17.066406 34.132813 17.066406h25.601563c13.429687 0 26.074218-6.324219 34.132812-17.066406l17.917969-23.894531c5.65625-7.539063 4.128906-18.238282-3.410157-23.890626-7.246093-4.160156-16.25-3.710937-23.042968 1.152344-4.476563 2.757813-9.667969 4.136719-14.921875 3.964844zm0 0" fill="#e64c3c"/><path d="m76.648438 238.980469c-3.183594-.003907-6.097657-1.78125-7.558594-4.605469-1.464844-2.824219-1.234375-6.230469.59375-8.832031 3.152344-4.789063 3.152344-10.996094 0-15.789063-1.914063-2.484375-2.3125-5.820312-1.035156-8.683594 1.277343-2.867187 4.023437-4.796874 7.152343-5.035156 3.128907-.234375 6.132813 1.265625 7.828125 3.90625 7.40625 10.644532 7.40625 24.773438 0 35.414063-1.597656 2.273437-4.203125 3.625-6.980468 3.625zm0 0" fill="#804537"/><path d="m435.046875 238.980469c-2.777344 0-5.382813-1.351563-6.980469-3.625-7.40625-10.640625-7.40625-24.769531 0-35.414063 2.765625-3.652344 7.921875-4.472656 11.683594-1.851562 3.757812 2.617187 4.78125 7.738281 2.3125 11.597656-3.214844 4.789062-3.238281 11.042969-.050781 15.855469 1.828125 2.601562 2.058593 6.007812.59375 8.832031-1.464844 2.824219-4.375 4.601562-7.558594 4.605469zm0 0" fill="#804537"/><path d="m315.582031 273.414062c0 32.988282-26.746093 59.734376-59.734375 59.734376-32.988281 0-59.734375-26.746094-59.734375-59.734376 0-32.988281 26.746094-59.734374 59.734375-59.734374 32.988282 0 59.734375 26.746093 59.734375 59.734374zm0 0" fill="#c03a2b"/><path d="m230.246094 273.414062c-4.710938 0-8.53125-3.820312-8.53125-8.535156 0-14.136718 11.460937-25.597656 25.597656-25.597656 4.714844 0 8.535156 3.820312 8.535156 8.53125 0 4.714844-3.820312 8.535156-8.535156 8.535156-4.710938 0-8.53125 3.820313-8.53125 8.53125 0 4.714844-3.820312 8.535156-8.535156 8.535156zm0 0" fill="#fb7b76"/><path d="m213.179688 196.613281c0 4.714844-3.820313 8.535157-8.53125 8.535157-4.714844 0-8.535157-3.820313-8.535157-8.535157 0-4.710937 3.820313-8.53125 8.535157-8.53125 4.710937 0 8.53125 3.820313 8.53125 8.53125zm0 0" fill="#ecf0f1"/><path d="m298.515625 196.613281c0 4.714844-3.820313 8.535157-8.535156 8.535157-4.710938 0-8.535157-3.820313-8.535157-8.535157 0-4.710937 3.824219-8.53125 8.535157-8.53125 4.714843 0 8.535156 3.820313 8.535156 8.53125zm0 0" fill="#ecf0f1"/><path d="m281.445312 409.945312h-42.664062c-4.714844 0-8.535156-3.820312-8.535156-8.53125 0-4.714843 3.820312-8.535156 8.535156-8.535156h42.664062c4.714844 0 8.535157 3.820313 8.535157 8.535156 0 4.710938-3.820313 8.53125-8.535157 8.53125zm0 0" fill="#802f34"/></svg>