<svg height="511pt" viewBox="-62 1 511 511.99995" width="511pt" xmlns="http://www.w3.org/2000/svg"><path d="m300.632812 344.277344s52.96875 17.652344 79.449219-26.484375c26.484375-44.136719-17.65625-61.792969-17.65625-61.792969s8.828125-35.308594 17.65625-97.101562c8.828125-61.796876-61.792969-158.898438-185.378906-158.898438h-.363281c-123.585938 0-194.207032 97.101562-185.378906 158.898438 8.828124 61.792968 17.65625 97.101562 17.65625 97.101562s-44.136719 17.65625-17.65625 61.792969c26.484374 44.136719 79.449218 26.484375 79.449218 26.484375" fill="#7f6e5d"/><path d="m290.898438 344.277344s48.199218 17.652344 72.296874-26.484375c24.097657-44.136719-16.066406-61.792969-16.066406-61.792969s8.035156-35.308594 16.066406-97.101562c8.03125-61.796876-56.230468-158.898438-168.6875-158.898438h-.335937c-112.453125 0-176.71875 97.101562-168.683594 158.898438 8.03125 61.792968 16.066407 97.101562 16.066407 97.101562s-40.167969 17.65625-16.066407 61.792969c24.097657 44.136719 72.296875 26.484375 72.296875 26.484375" fill="#cbb292"/><path d="m176.6875 238.34375c0 9.976562-9.800781 15.449219-17.65625 19.246094-10.945312 5.316406-22.3125 9.714844-33.988281 13.152344-16.066407 4.679687-32.835938 5.5625-46.253907-5.648438-10.511718-8.855469-16.664062-21.835938-16.863281-35.578125 0-19.773437 19.777344-34.691406 29.75-40.871094 3.355469-2.117187 5.5625-3.265625 5.5625-3.265625l30.808594 13.769532c10.152344 10.773437 12.09375 12.714843 21.539063 12.714843 1.652343-.039062 3.292968-.335937 4.855468-.882812l9.886719 4.414062c2.347656 1.8125 4.453125 3.917969 6.265625 6.265625 3.882812 4.699219 6.035156 10.589844 6.09375 16.683594zm0 0" fill="#2c2f38"/><path d="m326.753906 229.515625c-.195312 13.742187-6.347656 26.722656-16.859375 35.578125-13.417969 11.210938-30.191406 10.328125-46.257812 5.648438-11.671875-3.4375-23.039063-7.835938-33.984375-13.152344-7.855469-3.796875-17.65625-9.269532-17.65625-19.246094.058594-6.09375 2.207031-11.984375 6.089844-16.683594 1.816406-2.347656 3.921874-4.453125 6.269531-6.265625l9.886719-4.414062c1.5625.546875 3.199218.84375 4.855468.882812 9.445313 0 11.386719-1.941406 21.539063-12.714843l30.808593-13.769532s2.207032 1.148438 5.5625 3.265625c9.972657 6.179688 29.746094 21.097657 29.746094 40.871094zm0 0" fill="#2c2f38"/><path d="m184.179688 278.953125-14.617188 22.375c-2.085938 3.492187-2.054688 7.855469.082031 11.316406 2.136719 3.464844 6.023438 5.449219 10.078125 5.148438h29.238282c4.0625.304687 7.953124-1.683594 10.089843-5.152344 2.140625-3.464844 2.164063-7.835937.070313-11.328125l-14.621094-22.359375c-2.324219-3.308594-6.113281-5.277344-10.160156-5.277344-4.042969 0-7.832032 1.96875-10.160156 5.277344zm0 0" fill="#2c2f38"/><path d="m335.503906 344.277344c.871094 18.75.28125 37.542968-1.765625 56.203125-1.46875 23.738281-7.585937 46.957031-18.007812 68.335937-11.535157 19.582032-30.632813 33.546875-52.789063 38.601563-22.335937 6.109375-45.902344 6.109375-68.238281 0h-.363281c-22.335938 6.109375-45.898438 6.109375-68.234375 0-22.160157-5.054688-41.257813-19.019531-52.789063-38.601563-10.425781-21.378906-16.542968-44.597656-18.007812-68.335937-2.050782-18.660157-2.640625-37.453125-1.765625-56.203125zm0 0" fill="#7f6e5d"/><path d="m326.367188 335.449219c.816406 19.726562.265624 39.492187-1.652344 59.144531-1.324219 24.785156-7.039063 49.136719-16.867188 71.925781-9.976562 19.933594-27.945312 34.691407-49.4375 40.609375-20.816406 6.421875-43.085937 6.421875-63.902344 0h-.335937c-20.816406 6.421875-43.085937 6.421875-63.902344 0-21.488281-5.917968-39.457031-20.675781-49.433593-40.609375-9.832032-22.789062-15.542969-47.140625-16.871094-71.925781-1.914063-19.652344-2.464844-39.417969-1.648438-59.144531zm0 0" fill="#cbb292"/><path d="m292.503906 370.847656c-.738281 5.824219-1.09375 11.695313-1.058594 17.566406 0 0 0 2.824219-.441406 7.328126-1.382812 14.132812-7.65625 27.339843-17.742187 37.339843-2.199219 2.203125-5.1875 3.441407-8.300781 3.441407-3.113282 0-6.097657-1.238282-8.296876-3.441407l-9.886718-9.886719c-2.199219-2.203124-5.183594-3.441406-8.296875-3.441406s-6.101563 1.238282-8.300781 3.441406l-8.121094 8.121094c-2.160156 2.203125-5.121094 3.445313-8.207032 3.441406-3.945312-.027343-7.617187-2.011718-9.800781-5.296874-2.128906-3.203126-5.703125-5.152344-9.550781-5.207032-3.847656-.050781-7.476562 1.796875-9.691406 4.941406-1.9375 2.960938-5.085938 4.910157-8.597656 5.320313-3.511719.40625-7.023438-.765625-9.589844-3.199219l-8.121094-8.121094c-2.199219-2.203124-5.183594-3.441406-8.296875-3.441406s-6.097656 1.238282-8.296875 3.441406l-9.886719 9.886719c-2.199219 2.203125-5.1875 3.441407-8.300781 3.441407s-6.097656-1.238282-8.296875-3.441407c-10.085937-10-16.363281-23.207031-17.742187-37.339843-.441407-4.503907-.441407-7.328126-.441407-7.328126.035157-5.871093-.320312-11.742187-1.058593-17.566406l1.058593-.089844 18.183594-18.183593c2.199219-2.203125 5.183594-3.441407 8.296875-3.441407s6.101562 1.238282 8.300781 3.441407l9.886719 9.886719c2.199219 2.203124 5.183594 3.441406 8.296875 3.441406s6.097656-1.238282 8.296875-3.441406l8.121094-8.121094c2.488281-2.472656 5.957031-3.699219 9.445312-3.339844 3.488282.359375 6.632813 2.265625 8.566406 5.191406 2.15625 3.257813 5.804688 5.214844 9.707032 5.214844 3.90625 0 7.554687-1.957031 9.710937-5.214844 2.183594-3.28125 5.855469-5.265625 9.800781-5.292968 3.085938-.003907 6.046876 1.234374 8.207032 3.441406l8.121094 8.121094c2.199218 2.203124 5.1875 3.441406 8.300781 3.441406s6.097656-1.238282 8.296875-3.441406l9.886718-9.886719c2.199219-2.203125 5.183594-3.441407 8.296876-3.441407 3.113281 0 6.101562 1.238282 8.300781 3.441407l18.183593 18.183593zm0 0" fill="#2c2f38"/><g fill="#7f6e5d"><path d="m291.445312 379.585938c-2.339843 0-4.585937-.929688-6.242187-2.585938l-18.210937-18.203125c-.539063-.539063-1.269532-.839844-2.03125-.839844-.761719 0-1.492188.300781-2.03125.839844l-9.929688 9.929687c-8.027344 8-21.011719 8-29.042969 0l-8.101562-8.109374c-.617188-.605469-1.464844-.910157-2.324219-.832032-.859375.082032-1.636719.550782-2.109375 1.273438-3.808594 5.707031-10.21875 9.136718-17.082031 9.136718-6.863282 0-13.269532-3.429687-17.078125-9.136718-.476563-.71875-1.253907-1.183594-2.113281-1.265625-.855469-.082031-1.707032.222656-2.320313.832031l-8.101563 8.113281c-8.03125 7.996094-21.015624 7.996094-29.042968 0l-9.933594-9.941406c-.539062-.539063-1.269531-.839844-2.03125-.839844s-1.492188.300781-2.027344.839844l-18.210937 18.203125c-3.464844 3.34375-8.972657 3.296875-12.375-.109375-3.40625-3.402344-3.453125-8.910156-.109375-12.375l18.203125-18.210937c8.027343-7.996094 21.011719-7.996094 29.042969 0l9.929687 9.933593c.449219.683594 1.214844 1.097657 2.03125 1.097657.820313 0 1.582031-.414063 2.03125-1.097657l8.113281-8.105469c4.347656-4.347656 10.417969-6.515624 16.535156-5.914062 6.121094.605469 11.648438 3.917969 15.066407 9.03125.53125.800781 1.429687 1.285156 2.390625 1.285156.964844 0 1.863281-.484375 2.394531-1.285156 3.414063-5.117188 8.941406-8.4375 15.0625-9.039062 6.121094-.605469 12.191406 1.5625 16.539063 5.914062l8.113281 8.101562c.449219.6875 1.210937 1.097657 2.03125 1.097657.816406 0 1.582031-.410157 2.027343-1.097657l9.933594-9.929687c8.027344-7.996094 21.011719-7.996094 29.042969 0l18.203125 18.210937c2.527344 2.523438 3.289062 6.324219 1.921875 9.628907-1.367187 3.300781-4.589844 5.453125-8.164063 5.449219zm0 0"/><path d="m264.960938 445.34375c-5.453126.015625-10.691407-2.152344-14.539063-6.019531l-9.886719-9.886719c-1.136718-1.128906-2.972656-1.128906-4.113281 0l-8.121094 8.121094c-3.816406 3.859375-9.019531 6.03125-14.449219 6.027344-6.894531-.011719-13.324218-3.472657-17.136718-9.214844-.507813-.789063-1.375-1.273438-2.3125-1.292969s-1.824219.429687-2.363282 1.195313c-3.640624 5.21875-9.402343 8.5625-15.742187 9.128906-5.902344.519531-11.730469-1.621094-15.890625-5.84375l-8.121094-8.121094c-1.136718-1.128906-2.972656-1.128906-4.113281 0l-9.886719 9.886719c-8.136718 7.765625-20.941406 7.765625-29.078125 0-11.519531-11.445313-18.695312-26.542969-20.300781-42.699219-.496094-5.058594-.496094-8.210938-.496094-8.210938 0-39.273437-15.007812-55.464843-15.148437-55.613281-3.363281-3.496093-3.277344-9.050781.195312-12.4375 3.417969-3.402343 8.941407-3.402343 12.359375 0 .828125.847657 20.25 20.796875 20.25 68.050781 0 .183594 0 2.648438.386719 6.53125 1.214844 12.074219 6.59375 23.351563 15.210937 31.894532.453126.695312 1.226563 1.117187 2.054688 1.117187.832031 0 1.605469-.421875 2.058594-1.117187l9.886718-9.886719c8.035157-8.015625 21.042969-8.015625 29.078126 0l8.121093 8.121094c.511719.527343 1.230469.796875 1.960938.742187 1.144531-.15625 2.167969-.800781 2.804687-1.765625 3.910156-5.503906 10.277344-8.730469 17.027344-8.628906 6.75.105469 13.011719 3.527344 16.75 9.148437.402344.804688 1.179688 1.347657 2.070312 1.445313.890626.101563 1.773438-.257813 2.34375-.949219l8.121094-8.121094c8.035156-8.015624 21.042969-8.015624 29.078125 0l9.886719 9.886719c.453125.695313 1.226562 1.113281 2.054688 1.113281.832031 0 1.605468-.417968 2.058593-1.113281 8.617188-8.546875 13.992188-19.820312 15.210938-31.894531.386719-3.875.386719-6.339844.386719-6.523438 0-47.238281 19.421874-67.1875 20.242187-67.972656 3.464844-3.34375 8.96875-3.296875 12.375.109375 3.402344 3.402344 3.453125 8.910157.105469 12.371094-.0625.027344-15.066406 16.21875-15.066406 55.492187 0 0 0 3.152344-.476563 8.210938-1.609375 16.15625-8.785156 31.253906-20.304687 42.699219-3.847657 3.863281-9.078126 6.03125-14.53125 6.019531zm0 0"/><path d="m114.894531 132.414062c-1.742187 0-3.445312-.519531-4.890625-1.484374-13.28125-9-29.800781-11.839844-45.320312-7.785157-4.632813 1.527344-9.628906-.988281-11.15625-5.617187-1.527344-4.632813.988281-9.625 5.621094-11.15625 20.683593-5.71875 42.839843-2.121094 60.652343 9.851562 3.253907 2.15625 4.710938 6.191406 3.578125 9.925782-1.132812 3.734374-4.582031 6.28125-8.484375 6.265624zm0 0"/><path d="m273.789062 132.414062c-3.890624.003907-7.328124-2.539062-8.457031-6.265624-1.128906-3.722657.3125-7.746094 3.550781-9.90625 17.808594-11.980469 39.964844-15.578126 60.652344-9.851563 4.632813 1.53125 7.144532 6.527344 5.613282 11.15625-1.527344 4.632813-6.523438 7.144531-11.15625 5.617187-15.519532-4.054687-32.035157-1.21875-45.3125 7.785157-1.449219.957031-3.152344 1.46875-4.890626 1.464843zm0 0"/><path d="m181.101562 208.773438c-2.523437 5.007812-6.109374 9.40625-10.507812 12.886718-5.878906 4.980469-13.304688 7.757813-21.007812 7.855469-17.125 0-23.394532-6.617187-34.691407-18.535156-4.769531-5.03125-10.683593-11.300781-19.15625-19.070313-1.289062-1.167968-2.644531-2.257812-4.0625-3.265625-12.847656-8.800781-30.09375-7.4375-41.402343 3.265625-3.605469 3.316406-9.21875 3.078125-12.535157-.527344-3.3125-3.609374-3.078125-9.21875.53125-12.535156 19.425781-18.589844 50.046875-18.589844 69.472657 0 8.917968 8.296875 15.007812 14.742188 19.949218 19.949219l.355469.351563c10.152344 10.773437 12.09375 12.714843 21.539063 12.714843 1.652343-.039062 3.292968-.335937 4.855468-.882812 4.777344-1.960938 8.671875-5.605469 10.945313-10.242188 4.355469-9.199219 2.867187-20.109375-3.796875-27.804687-2.875-3.949219-2.007813-9.484375 1.941406-12.359375s9.484375-2.007813 12.359375 1.941406c10.566406 13.101563 12.59375 31.132813 5.210937 46.257813zm0 0"/><path d="m350.941406 191.382812c-3.308594 3.542969-8.847656 3.78125-12.445312.527344-11.300782-10.804687-28.640625-12.167968-41.488282-3.265625-1.417968 1.007813-2.773437 2.097657-4.0625 3.265625-8.472656 7.769532-14.390624 14.039063-19.15625 19.070313-11.300781 11.917969-17.566406 18.535156-34.691406 18.535156-7.703125-.097656-15.132812-2.875-21.011718-7.855469-4.394532-3.480468-7.980469-7.878906-10.503907-12.886718-7.386719-15.125-5.355469-33.15625 5.207031-46.257813 1.863282-2.554687 4.945313-3.921875 8.085938-3.589844 3.144531.335938 5.871094 2.320313 7.152344 5.210938 1.28125 2.886719.925781 6.242187-.9375 8.796875-6.664063 7.695312-8.152344 18.605468-3.792969 27.804687 2.273437 4.636719 6.167969 8.28125 10.945313 10.242188 1.5625.546875 3.199218.84375 4.855468.882812 9.445313 0 11.386719-1.941406 21.539063-12.714843l.351562-.351563c4.945313-5.207031 11.035157-11.652344 19.953125-19.949219 19.425782-18.589844 50.042969-18.589844 69.472656 0 3.546876 3.34375 3.78125 8.902344.527344 12.535156zm0 0"/></g></svg>