<svg height="512pt" viewBox="0 0 512 512.40551" width="512pt" xmlns="http://www.w3.org/2000/svg"><path d="m440.324219 173.726562c149.277343-44.933593 19.597656-173.726562 19.597656-173.726562 0 42.019531-19.949219 64.175781-42.546875 75.742188h-322.382812c-22.601563-11.566407-42.550782-33.722657-42.550782-75.742188 0 0-129.675781 128.792969 19.597656 173.726562zm0 0" fill="#fdd7ad"/><path d="m84.484375 149.097656c-.992187 0-1.976563-.167968-2.910156-.492187-21.980469-7.691407-36.988281-17.445313-44.617188-28.972657-2.421875-4.054687-1.226562-9.300781 2.71875-11.902343 3.941407-2.597657 9.234375-1.632813 12.007813 2.191406 5.375 8.128906 17.722656 15.746094 35.714844 22.066406 4.078124 1.414063 6.539062 5.566407 5.816406 9.820313s-4.414063 7.363281-8.730469 7.351562zm0 0" fill="#7f6e5d"/><path d="m427.878906 149.097656c-4.316406.011719-8.007812-3.097656-8.730468-7.351562-.71875-4.253906 1.738281-8.40625 5.816406-9.816406 17.992187-6.296876 30.339844-13.914063 35.71875-22.070313 2.769531-3.824219 8.0625-4.789063 12.007812-2.1875 3.941406 2.597656 5.140625 7.84375 2.714844 11.898437-7.625 11.527344-22.632812 21.28125-44.613281 28.972657-.933594.347656-1.917969.535156-2.914063.554687zm0 0" fill="#7f6e5d"/><path d="m394.441406 191.753906c11.183594 3.371094 23.136719 3.191406 34.214844-.511718 4.992188-1.835938 8.929688-5.765626 10.773438-10.753907 1.847656-4.984375 1.414062-10.53125-1.179688-15.175781-14.089844-29.691406-21.253906-62.195312-20.945312-95.0625.273437-4.808594-1.601563-9.492188-5.117188-12.785156-3.519531-3.292969-8.316406-4.851563-13.09375-4.261719-11.210938 2.074219-24.03125 6.445313-28.152344 15.695313h-229.519531c-4.121094-9.25-16.9375-13.621094-28.148437-15.695313-4.78125-.589844-9.578126.96875-13.097657 4.261719-3.515625 3.292968-5.390625 7.976562-5.113281 12.785156.304688 32.867188-6.859375 65.371094-20.949219 95.0625-2.59375 4.644531-3.023437 10.191406-1.179687 15.175781 1.847656 4.988281 5.785156 8.917969 10.773437 10.753907 11.078125 3.703124 23.035157 3.882812 34.21875.511718zm0 0" fill="#c03a2b"/><path d="m386.910156 335.449219c-3.46875 16.269531-24.019531 32.820312-24.65625 49.59375-.191406 16.320312 1.773438 32.59375 5.84375 48.398437 4.179688 13.644532 3.777344 28.285156-1.148437 41.675782-5.390625 10.710937-13.742188 19.644531-24.0625 25.75-1.390625.867187-2.796875 1.6875-4.226563 2.464843-14.398437 7.445313-30.691406 10.410157-46.789062 8.519531-6.628906-.65625-13.1875-1.917968-19.585938-3.769531-5.472656-1.589843-10.851562-3.496093-16.101562-5.703125-5.257813 2.207032-10.636719 4.109375-16.113282 5.703125-6.398437 1.851563-12.957031 3.113281-19.585937 3.769531-16.097656 1.890626-32.390625-1.074218-46.789063-8.519531-1.429687-.777343-2.835937-1.597656-4.226562-2.464843-10.320312-6.105469-18.671875-15.039063-24.0625-25.75-4.929688-13.390626-5.335938-28.03125-1.148438-41.675782 4.070313-15.804687 6.035157-32.078125 5.84375-48.398437-.636718-16.773438-21.1875-33-24.65625-49.269531" fill="#c03a2b"/><path d="m373.855469 63.734375c-26.421875-39.230469-70.378907-63.039063-117.671875-63.734375-47.296875.695312-91.25 24.503906-117.671875 63.734375l-30.632813 130.207031c2.535156 12.757813 5.746094 25.367188 9.621094 37.78125l.089844-.175781-.089844.175781c-13.148438 16.941406-20.265625 37.789063-20.214844 59.234375v17.65625s0 35.664063 35.3125 35.617188c17.722656-.242188 35.441406.984375 52.964844 3.664062h141.242188c17.503906-2.878906 35.226562-4.207031 52.964843-3.972656 35.308594.355469 35.308594-35.308594 35.308594-35.308594v-17.65625c.050781-21.445312-7.0625-42.292969-20.214844-59.234375l-.089843-.175781c0 .089844.089843.089844.089843.175781 3.875-12.414062 7.085938-25.023437 9.621094-37.78125zm0 0" fill="#c03a2b"/><path d="m360.78125 63.734375c-24.410156-38.839844-62.148438-63.734375-104.597656-63.734375-42.453125 0-80.191406 24.894531-104.597656 63.734375l-27.226563 130.207031c2.269531 12.359375 6.117187 30.277344 8.554687 37.78125l.070313-.175781-.070313.175781c-11.855468 17.46875-18.121093 38.125-17.972656 59.234375v17.65625s0 35.664063 31.390625 35.617188c15.773438-.242188 31.53125.984375 47.078125 3.664062h125.546875c15.519531-2.875 31.289063-4.207031 47.074219-3.972656 31.390625.355469 31.390625-35.308594 31.390625-35.308594v-17.65625c.152344-21.109375-6.117187-41.765625-17.972656-59.234375l-.070313-.175781c0 .089844.070313.089844.070313.175781 2.4375-7.503906 6.285156-25.421875 8.554687-37.78125zm0 0" fill="#e64c3c"/><path d="m254.859375 223.691406c-5.480469 23.832032-26.566406 40.8125-51.019531 41.089844s-45.917969-16.222656-51.9375-39.925781c-6.015625-23.703125 4.972656-48.445313 26.597656-59.867188zm0 0" fill="#2c2f38"/><path d="m370.941406 326.621094c-3.046875 17.082031-21.089844 34.425781-21.644531 52.082031-.171875 17.074219 1.546875 34.117187 5.128906 50.8125 3.667969 14.402344 3.320313 29.539063-1.007812 43.757813-4.386719 10.800781-11.703125 20.160156-21.125 27.03125-1.21875.882812-2.453125 1.765624-3.707031 2.585937-12.207032 7.722656-26.75 10.890625-41.066407 8.949219-5.855469-.699219-11.621093-2.027344-17.195312-3.960938-4.835938-1.683594-9.554688-3.683594-14.125-5.988281-4.570313 2.304687-9.289063 4.304687-14.125 5.988281-5.570313 1.933594-11.335938 3.261719-17.195313 3.960938-14.320312 1.945312-28.871094-1.230469-41.082031-8.957032-1.253906-.8125-2.492187-1.671874-3.707031-2.589843-9.421875-6.867188-16.738282-16.226563-21.125-27.027344-4.328125-14.222656-4.675782-29.355469-1.007813-43.757813 3.582031-16.699218 5.300781-33.738281 5.128907-50.8125-.554688-17.65625-18.597657-34.648437-21.644532-51.730468zm0 0" fill="#e64c3c"/><path d="m257.507812 223.691406c5.480469 23.832032 26.566407 40.8125 51.019532 41.089844s45.914062-16.222656 51.933594-39.925781c6.019531-23.703125-4.972657-48.445313-26.597657-59.867188zm0 0" fill="#2c2f38"/><g fill="#802f34"><path d="m170.898438 109.3125c19.714843 5.769531 39.761718 10.339844 60.027343 13.683594 4.371094.578125 7.628907 4.320312 7.601563 8.730468v17.027344c-.015625 2.761719-1.316406 5.359375-3.511719 7.035156-2.199219 1.671876-5.050781 2.230469-7.71875 1.507813-23.628906-7.828125-44.683594-21.9375-60.910156-40.816406-1.292969-1.46875-1.46875-3.613281-.425781-5.273438 1.042968-1.65625 3.054687-2.429687 4.9375-1.894531zm0 0"/><path d="m341.464844 109.3125c-20.859375 6.210938-42.144532 10.910156-63.679688 14.0625-2.265625.214844-3.984375 2.136719-3.949218 4.414062v26.339844c-.019532 1.238282.484374 2.425782 1.390624 3.269532.90625.839843 2.128907 1.257812 3.359376 1.144531 23.753906-3.027344 52.886718-25.027344 67.355468-42.0625 1.28125-1.464844 1.453125-3.59375.421875-5.246094-1.027343-1.652344-3.019531-2.433594-4.898437-1.921875zm0 0"/><path d="m256.183594 344.277344c26.480468 8.824218 26.480468-26.484375 17.652344-44.140625-8.824219-17.652344-17.652344 0-17.652344 0s-8.828125-17.652344-17.65625 0c-8.828125 17.65625-8.828125 52.964843 17.65625 44.140625zm0 0"/><path d="m331.570312 403.949219c-.441406 4.855469-.707031 9.800781-.707031 14.742187 0 0 0 2.382813-.351562 6.179688-.957031 11.632812-5.738281 22.621094-13.597657 31.25-1.609374 1.851562-3.945312 2.914062-6.398437 2.914062s-4.789063-1.0625-6.398437-2.914062l-7.59375-8.296875c-1.632813-1.8125-3.957032-2.847657-6.398438-2.847657s-4.765625 1.035157-6.402344 2.847657l-6.175781 6.882812c-1.855469 2.054688-4.589844 3.089844-7.339844 2.773438-2.75-.316407-5.179687-1.9375-6.519531-4.359375-1.484375-2.679688-4.28125-4.359375-7.339844-4.414063-3.058594-.054687-5.914062 1.527344-7.492187 4.148438-1.328125 2.46875-3.765625 4.148437-6.542969 4.515625-2.78125.367187-5.566406-.621094-7.492188-2.664063l-6.179687-6.882812c-1.632813-1.8125-3.960937-2.847657-6.402344-2.847657-2.4375 0-4.765625 1.035157-6.398437 2.847657l-7.589844 8.296875c-1.613281 1.851562-3.945312 2.914062-6.402344 2.914062-2.453125 0-4.789062-1.0625-6.398437-2.914062-7.859375-8.628906-12.636719-19.617188-13.59375-31.25-.355469-3.796875-.355469-6.179688-.355469-6.179688 0-4.941406-.265625-9.886718-.617188-14.742187l.617188-.085938 14.035156-15.273437c1.59375-1.851563 3.914063-2.914063 6.355469-2.914063 2.445313 0 4.765625 1.0625 6.359375 2.914063l7.589844 8.296875c1.59375 1.851562 3.914062 2.917969 6.355468 2.917969 2.441407 0 4.761719-1.066407 6.355469-2.917969l6.269531-6.796875c1.828126-2.085938 4.558594-3.148438 7.320313-2.847656 2.757813.296874 5.195313 1.921874 6.539063 4.347656 1.515624 2.722656 4.386718 4.410156 7.503906 4.410156 3.113281 0 5.984375-1.6875 7.503906-4.410156 1.535156-2.699219 4.394531-4.378906 7.5-4.410156 2.4375.019531 4.75 1.082031 6.359375 2.910156l6.265625 6.796875c1.59375 1.851562 3.914062 2.917969 6.355469 2.917969 2.441406 0 4.761719-1.066407 6.355469-2.917969l7.59375-8.296875c1.59375-1.851563 3.914062-2.914063 6.355468-2.914063s4.761719 1.0625 6.355469 2.914063l14.035156 15.273437zm0 0"/></g><path d="m346.875 337.074219c-4.609375-1.582031-9.628906.878906-11.210938 5.488281-4.558593 13.707031-8.066406 27.742188-10.496093 41.984375l-1.765625-1.949219c-3.367188-3.496094-8.015625-5.472656-12.875-5.472656-4.855469 0-9.503906 1.976562-12.875 5.472656l-7.351563 8.332032-6.242187-6.796876c-3.6875-4.125-9.125-6.230468-14.628906-5.664062-5.503907.5625-10.402344 3.730469-13.175782 8.515625-2.796875-4.785156-7.710937-7.949219-13.222656-8.515625-5.511719-.5625-10.964844 1.535156-14.671875 5.65625l-5.960937 6.804688-7.636719-8.332032c-3.371094-3.496094-8.019531-5.46875-12.875-5.46875s-9.5 1.972656-12.875 5.46875l-1.765625 1.914063c-2.410156-14.160157-5.898438-28.113281-10.425782-41.746094-1.011718-2.996094-3.546874-5.222656-6.648437-5.84375-3.101563-.617187-6.300781.460937-8.386719 2.839844-2.085937 2.375-2.75 5.683593-1.734375 8.679687 7.628907 22.671875 11.882813 46.34375 12.621094 70.25 0 0 0 2.703125.382813 6.902344 1.128906 13.578125 6.714843 26.402344 15.886718 36.476562 3.363282 3.546876 8.039063 5.554688 12.925782 5.554688 4.886718 0 9.558593-2.007812 12.921874-5.554688l7.300782-8.359374 6.320312 7.0625c3.589844 3.9375 8.820313 5.964843 14.125 5.472656 5.621094-.542969 10.660156-3.699219 13.601563-8.519532 2.910156 4.667969 7.8125 7.726563 13.28125 8.296876 5.472656.566406 10.898437-1.421876 14.703125-5.390626l5.898437-6.824218 7.5625 8.28125c3.3125 3.652344 8.003907 5.746094 12.933594 5.773437 4.917969-.027343 9.601563-2.125 12.898437-5.773437 9.160157-10.050782 14.746094-22.847656 15.890626-36.398438.394531-4.296875.386718-7 .386718-7 .722656-23.96875 5.007813-47.699218 12.710938-70.40625.757812-2.222656.601562-4.648437-.4375-6.753906-1.035156-2.101562-2.867188-3.707031-5.089844-4.457031zm-25.164062 87.074219c-.808594 9.648437-4.691407 18.785156-11.082032 26.058593l-7.660156-8.386719c-3.320312-3.59375-7.980469-5.648437-12.871094-5.675781-4.9375.046875-9.632812 2.144531-12.957031 5.789063l-5.917969 6.621094c-3.171875-5.238282-8.871094-8.417969-15-8.363282-6.125.050782-11.769531 3.328125-14.851562 8.621094l-6.277344-6.984375c-3.316406-3.59375-7.972656-5.652344-12.863281-5.683594-4.914063.039063-9.59375 2.113281-12.921875 5.730469l-7.363282 8.277344c-6.550781-7.210938-10.527343-16.390625-11.308593-26.101563-.289063-3.152343-.316407-5.191406-.316407-5.359375 0-3.707031-.140624-7.40625-.378906-11.070312l11.765625-13.097656 7.636719 8.339843c3.371094 3.496094 8.019531 5.46875 12.875 5.46875s9.503906-1.972656 12.875-5.46875l6.054688-6.691406c3.148437 5.304687 8.839843 8.570313 15.007812 8.609375 6.167969.011719 11.855469-3.332031 14.839844-8.730469l6.238281 6.8125c3.375 3.496094 8.019531 5.46875 12.875 5.46875s9.503906-1.972656 12.875-5.46875l7.355469-8.339843 12.050781 13.152343c-.230469 3.644531-.382813 7.316407-.382813 11 .027344.183594.011719 2.222657-.296874 5.472657zm0 0" fill="#c03a2b"/></svg>