<svg height="512pt" viewBox="0 -21 512.16566 512" width="512pt" xmlns="http://www.w3.org/2000/svg"><path d="m434.691406 170.886719c1.097656 2 19.097656 34 45.699219 34-12.601563 2-25.300781 2.601562-38.101563 1.800781.902344 7.898438 1.402344 15.898438 1.402344 23.800781 0 0 8.5 110.898438 51.199219 128 0 0-34.101563 0-51.199219-8.5 0 0-8.5 59.699219 17.097656 76.796875 0 0-42.699218-8.5-51.199218-34.097656 0 0-8.5 59.699219-34.101563 68.300781 0 0 0-25.601562-17.097656-25.601562 0 0-8.5 25.601562-25.601563 34.101562 0-9.203125-3-18.203125-8.5-25.601562 0 0-17.097656 25.601562-34.097656 25.601562 0 0 0-25.601562-34.101562-25.601562-34.101563 0-34.101563 25.601562-34.101563 25.601562-17.097656 0-34.097656-25.601562-34.097656-25.601562-5.601563 7.398437-8.601563 16.398437-8.5 25.601562-17.101563-8.5-25.601563-34.101562-25.601563-34.101562-17.097656 0-17.097656 25.601562-17.097656 25.601562-25.601562-8.5-34.101562-68.300781-34.101562-68.300781-8.699219 25.597656-51.398438 34.097656-51.398438 34.097656 25.597656-17.097656 17.097656-76.796875 17.097656-76.796875-17.097656 8.5-51.199218 8.5-51.199218 8.5 42.699218-17.101562 51.199218-128 51.199218-128 0-8 .402344-15.902343 1.402344-23.800781-12.703125.800781-25.402344.199219-38-1.800781 26.597656 0 44.699219-32 45.796875-34-27.597656 17-64.296875 8.398437-64.296875 8.398437 9.199219 0 18.398438-25.597656 18.398438-25.597656-45.898438-42.699219-9.199219-145.101562-9.199219-145.101562 36.699219 25.601562 45.898437 8.5 110.199219 25.601562 14.699218 3.300781 28.101562 10.597656 39 21 14.199218-7.601562 29.5-13.199219 45.199218-16.601562 0 0 .101563 0 .101563-.097657 6-9.601562 4.5-22-3.601563-29.902343 42.699219 0 42.699219 42.699218 42.699219 42.699218s0-42.699218 51.203125-42.699218c0 0-14.703125 14.699218-10 30.5 15.097656 3.402343 29.796875 8.902343 43.398438 16.300781 10.800781-10.5 24.300781-17.800781 39-21.199219 64.199218-17.101562 73.300781 0 109.898437-25.601562 0 0 36.703125 102.402343-9.097656 145.101562 0 0 9.097656 25.597656 18.300781 25.597656.097656 0-36.5 8.601563-64-8.398437zm0 0" fill="#59474e"/><path d="m136.488281 153.6875-22.296875 42.699219c-36.703125 17.101562-82.601562 8.5-82.601562 8.5 26.601562 0 44.699218-32 45.800781-34-27.601563 17-64.300781 8.398437-64.300781 8.398437 9.199218 0 18.398437-25.597656 18.398437-25.597656-20.699219-19.300781-24.5-50.902344-22.5-79.699219 23.101563-2.703125 64.203125-3.300781 93.402344 20 42.699219 34.097657 34.097656 59.699219 34.097656 59.699219zm0 0" fill="#df4d60"/><path d="m375.789062 153.6875 22.300782 42.699219c36.699218 17.101562 82.601562 8.5 82.601562 8.5-26.601562 0-44.703125-32-45.800781-34 27.597656 17 64.300781 8.398437 64.300781 8.398437-9.203125 0-18.402344-25.597656-18.402344-25.597656 20.800782-19.402344 24.699219-50.902344 22.601563-79.699219-23.101563-2.703125-64.199219-3.300781-93.402344 20-42.699219 34.097657-34.199219 59.699219-34.199219 59.699219zm0 0" fill="#df4d60"/><path d="m255.988281 59.886719c-4.699219 0-8.5-3.699219-8.5-8.398438v-.101562c.203125-13.101563-7.097656-25.199219-18.699219-31.199219 2.199219 10.597656-1.398437 21.5-9.398437 28.699219-3.300781 3.199219-8.699219 3.199219-12-.101563-3.300781-3.296875-3.300781-8.597656-.101563-12 3.199219-2.796875 5-6.796875 5-11.097656 0-4.199219-1.800781-8.300781-5-11-2.398437-2.5-3.097656-6.101562-1.800781-9.300781 1.300781-3.199219 4.402344-5.199219 7.902344-5.199219 17.597656-1.101562 34.300781 7.699219 43.300781 22.800781 8.597656-12.300781 24.097656-22.800781 50.5-22.800781 3.5 0 6.597656 2.097656 7.898438 5.300781 1.300781 3.199219.601562 6.898438-1.800782 9.296875-.097656.101563-12.597656 13-6.898437 24.300782 2.097656 4.199218.398437 9.300781-3.800781 11.5-4.199219 2.199218-9.300782.402343-11.5-3.800782-4.199219-8.597656-4.398438-18.597656-.601563-27.296875-14.898437 3.597657-25.5 16.796875-25.898437 32.097657-.101563 4.5-3.898438 8.300781-8.601563 8.300781zm0 0" fill="#2c3e50"/><path d="m188.488281 163.488281c-12.398437 3.898438-19.898437 16.5-17.398437 29.199219 2.398437 12.699219 14 21.699219 27 20.699219 12.898437-.898438 23.199218-11.398438 23.800781-24.300781" fill="#bbd1b5"/><path d="m238.890625 204.886719c-.902344 0-1.800781-.199219-2.699219-.398438-32.402344-10.402343-59-33.800781-73.5-64.703125-1.101562-2.796875-.703125-6.097656 1.199219-8.5 1.898437-2.398437 4.898437-3.597656 7.898437-3.199218 3 .402343 5.601563 2.402343 6.699219 5.300781 12.703125 26 35.5 45.800781 63 54.800781 4 1.300781 6.402344 5.300781 5.703125 9.5-.5 4.199219-4.101562 7.199219-8.300781 7.199219zm0 0" fill="#2c3e50"/><path d="m322.988281 247.585938c6.601563-.097657 13 2.5 17.703125 7.101562 31.296875 31.597656 9.097656 61.199219 9.097656 61.199219-17.097656 25.601562-42 42.699219-93.898437 42.699219-51.902344 0-76.902344-20-93.902344-42.699219 0 0-22.199219-29.601563 9.101563-61.199219 4.699218-4.601562 11.101562-7.199219 17.699218-7.101562zm0 0" fill="#7f5b53"/><path d="m323.488281 163.488281c12.402344 3.898438 19.902344 16.5 17.402344 29.199219-2.402344 12.699219-14 21.699219-27 20.699219-12.902344-.898438-23.199219-11.398438-23.800781-24.300781" fill="#bbd1b5"/><g fill="#2c3e50"><path d="m273.089844 204.886719c-4.199219 0-7.699219-3-8.398438-7.199219-.703125-4.101562 1.699219-8.101562 5.699219-9.5 27.597656-9 50.300781-28.800781 63-54.800781 1.800781-4.398438 6.699219-6.5 11.097656-4.699219 4.402344 1.800781 6.5 6.699219 4.703125 11.097656-14.402344 30.800782-41.101562 54.300782-73.5 64.703125-.800781.296875-1.703125.398438-2.601562.398438zm0 0"/><path d="m255.988281 358.488281c4.601563.097657 9-1.703125 12.203125-4.902343 3.199219-3.199219 5-7.597657 4.898438-12.199219 0-17.101563 34.101562-25.601563 25.601562-34.101563-8.601562-8.5-42.703125-8.5-42.703125-8.5s-34.097656 0-42.699219 8.5c-8.5 8.5 25.601563 17.101563 25.601563 34.101563-.101563 4.601562 1.699219 9 4.898437 12.199219 3.199219 3.300781 7.601563 5 12.199219 4.902343zm0 0"/><path d="m136.488281 162.285156c-2.699219 0-5.296875-1.296875-6.898437-3.5-1.601563-2.199218-2-5.097656-1.199219-7.699218 0 0 5.199219-21.097657-31.402344-50.300782-27-21.597656-66.097656-20.597656-87-18.199218-4.699219.5-8.898437-2.800782-9.5-7.5-.4999998-4.699219 2.902344-9 7.5-9.5 23.601563-2.800782 67.800781-3.699219 99.703125 21.800781 46 36.800781 38 65.898437 36.898438 69.101562-1.101563 3.398438-4.398438 5.796875-8.101563 5.796875zm0 0"/><path d="m375.390625 162.1875c-3.601563 0-6.800781-2.300781-8-5.699219-1.101563-3.203125-9.101563-32.300781 36.898437-69.101562 31.699219-25.300781 76-24.601563 99.699219-21.898438 4.703125.5 8 4.796875 7.5 9.5-.5 4.699219-4.796875 8-9.5 7.5-20.898437-2.402343-60.199219-3.203125-87 18.199219-36.597656 29.300781-31.398437 50.300781-31.296875 50.597656 1.199219 4.5-1.300781 9.101563-5.703125 10.5-.898437.203125-1.796875.402344-2.597656.402344zm0 0"/></g><path d="m225.390625 355.6875c-2.199219 2.699219-4.101563 5.5-5.902344 8.5-8.199219 14.699219-13.097656 30.898438-14.296875 47.699219-.101562.898437-.800781 1.699219-1.703125 1.898437-.898437.203125-1.898437-.199218-2.296875-1-10-19.398437-13.101562-41.699218-8.703125-63.097656v-.101562c.300781-1.5.5-3 .800781-4.398438l.5-.902344c9.699219 5.601563 20.5 9.402344 31.601563 11.402344zm0 0" fill="#fdd7ad"/><path d="m193.691406 344.386719-.5.898437c-.300781 1.402344-.5 2.800782-.800781 4.402344v.097656l-34.902344 23.203125c-.699219.5-1.597656.5-2.296875 0-.703125-.402343-1.101562-1.300781-1-2.101562l7.898438-55c8.398437 11.601562 19.199218 21.300781 31.601562 28.5zm0 0" fill="#fac176"/><path d="m255.988281 358.488281-15.296875 45.898438c-.300781.800781-1.101562 1.398437-1.902344 1.5-.898437 0-1.699218-.5-2-1.300781l-17.199218-40.300782c1.699218-3 3.699218-5.796875 5.898437-8.5 10 1.902344 20.203125 2.800782 30.5 2.703125zm0 0" fill="#e6e7e8"/><path d="m310.890625 412.785156c-.5.800782-1.402344 1.203125-2.300781 1-.898438-.199218-1.601563-1-1.699219-1.898437-1.300781-16.699219-6.199219-33-14.300781-47.699219-1.699219-2.902344-3.5-5.601562-5.601563-8.199219 11.203125-1.800781 22-5.402343 31.902344-10.800781v.097656c.300781 1.402344.5 2.800782.800781 4.402344 4.199219 21.398438 1.199219 43.597656-8.800781 63.097656zm0 0" fill="#fdd7ad"/><path d="m357.691406 370.886719c.097656.800781-.300781 1.699219-1 2.101562-.703125.398438-1.601562.398438-2.300781 0l-34.902344-23.300781c-.296875-1.5-.5-3-.796875-4.402344v-.097656c12.597656-7.101562 23.296875-17.101562 31.097656-29.402344zm0 0" fill="#fac176"/><path d="m292.488281 364.285156-17.199219 40.402344c-.300781.800781-1.199218 1.300781-2 1.300781-.800781 0-1.699218-.601562-1.898437-1.5l-15.402344-46c10.300781.097657 20.703125-.703125 30.902344-2.5 2.097656 2.597657 4 5.398438 5.597656 8.296875zm0 0" fill="#e6e7e8"/><path d="m452.988281 215.585938c-20.097656.402343-40.097656-3.5-58.597656-11.5-2.902344-1.199219-4.800781-3.898438-5.101563-7-.300781-3.097657 1.101563-6.097657 3.699219-7.898438 2.601563-1.800781 5.902344-2 8.703125-.601562 14 6.101562 29 9.402343 44.199219 9.699218-7.402344-6.796875-13.699219-14.796875-18.699219-23.5-1.800781-3.398437-1.101562-7.597656 1.699219-10.296875 2.800781-2.601562 7.097656-3.101562 10.300781-1 12.398438 6.898438 26.5 10.199219 40.699219 9.296875-3-5.199218-5.402344-10.597656-7.402344-16.296875-1.097656-3.203125-.296875-6.800781 2.203125-9.101562 33.097656-30.898438 17.597656-99.5 10.199219-125.601563-14 8-29.800781 12-45.902344 11.703125-19.296875.796875-38.398437 3.796875-57 8.898438-55.398437 14.699219-49.097656 56.800781-48.699219 58.601562.5 3-.597656 6.097657-2.898437 8-2.300781 2-5.5 2.5-8.402344 1.5-2.898437-1-5-3.5-5.5-6.5-.097656-.601562-9.699219-59.101562 61.203125-78 19.699219-5.402343 40-8.601562 60.398438-9.402343 16.898437.601562 33.398437-4.699219 46.800781-14.898438 2.199219-1.5 4.898437-1.902344 7.5-1.101562 2.5.800781 4.5 2.699218 5.398437 5.199218 1.5 4.300782 35.800782 102.203125-7.199218 149.902344 2.101562 5.597656 5.199218 10.699219 9.199218 15.097656 4.199219.402344 7.402344 3.800782 7.699219 7.902344.300781 4.199219-2.5 7.898438-6.597656 8.898438-13.101563 2.699218-26.601563 3.101562-39.800781 1.199218 5.5 4.601563 12.398437 7.300782 19.601562 7.601563 4.398438 0 8.097656 3.398437 8.5 7.699219.398438 4.402343-2.601562 8.402343-6.902344 9.199218-9.898437 1.601563-19.597656 2.402344-29.300781 2.300782zm0 0" fill="#2c3e50"/><path d="m59.191406 215.585938c-9.703125.101562-19.5-.699219-29.101562-2.300782-4.300782-.796875-7.300782-4.796875-6.898438-9.199218.398438-4.398438 4.097656-7.699219 8.5-7.699219 7.199219-.300781 14.097656-2.898438 19.597656-7.601563-13.300781 1.902344-26.800781 1.5-39.898437-1.199218-4.101563-.898438-6.800781-4.699219-6.601563-8.898438.300782-4.199219 3.5-7.5 7.699219-7.902344 4-4.398437 7.203125-9.5 9.203125-15.097656-43.203125-47.800781-8.800781-145.699219-7.203125-150 .902344-2.5 2.902344-4.402344 5.402344-5.199219 2.5-.800781 5.300781-.4023435 7.5 1.097657 13.5 10.199218 30 15.5 46.898437 14.902343 20.5.898438 40.800782 4 60.601563 9.398438 71 18.898437 61.398437 77.398437 61.300781 78-.5 3.101562-2.601562 5.601562-5.5 6.699219-2.902344 1.101562-6.203125.5-8.5-1.5-2.300781-2-3.402344-5.097657-2.800781-8.199219.300781-1.699219 6.597656-43.800781-48.902344-58.5-18.699219-5.101563-37.796875-8.101563-57.199219-8.898438-16.097656.296875-32-3.800781-46-11.703125-7.5 26.101563-23 94.800782 10.199219 125.601563 2.5 2.300781 3.402344 5.898437 2.203125 9.101562-2 5.597657-4.5 11-7.402344 16.199219 14.199219.800781 28.402344-2.402344 40.800782-9.300781 3.300781-2 7.5-1.601563 10.300781 1 2.800781 2.601562 3.5 6.898437 1.699219 10.300781-5 8.800781-11.300782 16.699219-18.699219 23.5 15.199219-.300781 30.300781-3.601562 44.300781-9.699219 2.796875-1.300781 6-1 8.5.796875 2.5 1.800782 3.898438 4.703125 3.597656 7.703125-.300781 3-2.097656 5.699219-4.898437 7-18.601563 8.097657-38.601563 12-58.699219 11.597657zm0 0" fill="#2c3e50"/></svg>