<svg height="512pt" viewBox="0 0 512.00009 512" width="512pt" xmlns="http://www.w3.org/2000/svg"><path d="m512 264.828125v238.34375c0 4.875-3.953125 8.828125-8.828125 8.828125h-388.414063c-4.875 0-8.828124-3.953125-8.828124-8.828125v-238.34375c-.082032-54.035156 21.472656-105.855469 59.851562-143.890625h.175781c98.074219-21.097656 207.890625-17.300781 272.421875-12.09375.210938-.019531.421875.011719.617188.089844 4.679687 3.972656 9.179687 8.03125 13.507812 12.359375 38.136719 38.023437 59.546875 89.679687 59.496094 143.535156zm0 0" fill="#2c3e50"/><path d="m450.207031 288.574219c.214844 30.128906-7.746093 59.753906-23.039062 85.714843-2.277344 3.945313-3.464844 8.421876-3.445313 12.976563v45.285156c0 14.628907-11.855468 26.484375-26.480468 26.484375-1.964844-.007812-3.917969-.246094-5.828126-.707031 10.992188-3.253906 18.398438-13.523437 18.007813-24.980469v-44.050781c-.03125-4.351563.96875-8.644531 2.914063-12.535156 13.53125-25.644531 20.476562-54.25 20.214843-83.246094-1.234375-74.328125-57.464843-135.058594-124.378906-134.617187-67.886719.441406-122.792969 61.703124-122.792969 137.179687.222656 28.214844 7.183594 55.96875 20.304688 80.949219 1.984375 3.78125 2.988281 8 2.914062 12.269531v44.050781c-.082031 6.695313 2.34375 13.179688 6.796875 18.183594 2.929688 3.34375 6.808594 5.714844 11.121094 6.796875-1.90625.460937-3.863281.699219-5.824219.707031-14.628906 0-26.484375-11.855468-26.484375-26.484375v-45.285156c.070313-4.453125-1.058593-8.84375-3.265625-12.710937-14.894531-25.238282-22.902344-53.941407-23.21875-83.246094-.488281-50.457032 25.980469-97.347656 69.4375-123 43.457032-25.65625 97.296875-26.175782 141.242188-1.371094 43.945312 24.808594 71.316406 71.175781 71.804687 121.636719zm0 0" fill="#a5a5a4"/><path d="m432.550781 293.515625c.261719 28.996094-6.683593 57.601563-20.214843 83.246094-1.945313 3.890625-2.945313 8.183593-2.914063 12.535156v44.050781c.390625 11.457032-7.015625 21.726563-18.007813 24.980469-4.882812-1.074219-9.355468-3.523437-12.886718-7.0625-4.972656-4.957031-7.769532-11.691406-7.769532-18.714844v-6.355469c-.003906-5.515624-2.597656-10.707031-7.003906-14.023437-4.410156-3.3125-10.117187-4.363281-15.417968-2.835937l-.351563.085937c-.738281.171875-1.449219.441406-2.121094.796875-6.324219 2.75-10.414062 8.992188-10.414062 15.890625v6.441406c.03125 13.429688-10.050781 24.726563-23.394531 26.21875-.105469.0625-.230469.09375-.351563.089844-.882813.085937-1.855469.175781-2.738281.175781-.882813 0-1.851563-.089844-2.734375-.175781-.125.003906-.246094-.027344-.355469-.089844-5.914062-.632812-11.433594-3.28125-15.625-7.503906-4.972656-4.957031-7.769531-11.691406-7.765625-18.714844v-6.441406c0-6.898437-4.09375-13.140625-10.417969-15.890625-.667968-.355469-1.382812-.625-2.117187-.796875l-.355469-.085937c-5.296875-1.527344-11.007812-.476563-15.414062 2.835937-4.410157 3.316406-7.003907 8.507813-7.007813 14.023437v6.355469c.027344 12.378907-8.570313 23.105469-20.65625 25.777344-4.3125-1.082031-8.191406-3.453125-11.121094-6.796875-4.453125-5.003906-6.878906-11.488281-6.796875-18.183594v-44.050781c.074219-4.269531-.929687-8.488281-2.914062-12.269531-13.121094-24.980469-20.082032-52.734375-20.304688-80.949219 0-75.476563 54.90625-136.738281 122.792969-137.179687 66.914063-.441407 123.144531 60.289062 124.378906 134.617187zm0 0" fill="#d1d4d1"/><g fill="#2c2f38"><path d="m308.964844 379.585938c26.484375 0 35.3125-35.308594 17.65625-44.136719s-17.65625 8.828125-17.65625 8.828125 0-17.65625-17.65625-8.828125c-17.652344 8.828125-8.824219 44.136719 17.65625 44.136719zm0 0"/><path d="m285.335938 294.363281c-6.914063 21.347657-24.023438 23.332031-45.367188 16.421875-10.257812-3.320312-18.777344-10.578125-23.675781-20.183594-4.902344-9.605468-5.78125-20.765624-2.445313-31.015624 6.914063-21.339844 24.019532-23.332032 45.367188-16.421876 10.257812 3.316407 18.777344 10.578126 23.675781 20.183594 4.898437 9.605469 5.777344 20.765625 2.445313 31.015625zm0 0"/><path d="m332.597656 294.363281c6.910156 21.347657 24.019532 23.332031 45.363282 16.421875 10.261718-3.320312 18.777343-10.578125 23.679687-20.183594 4.898437-9.605468 5.777344-20.765624 2.441406-31.015624-6.910156-21.339844-24.019531-23.332032-45.363281-16.421876-10.261719 3.316407-18.777344 10.578126-23.679688 20.183594-4.898437 9.605469-5.777343 20.765625-2.441406 31.015625zm0 0"/></g><path d="m457.710938 81.921875c-255.824219-31.164063-413.574219 24.007813-413.574219 24.007813v-88.273438s295.546875-6.886719 413.574219 64.265625zm0 0" fill="#bdc3c7"/><path d="m494.34375 114.757812s-21.273438-3.089843-55.347656-5.824218c-.195313-.078125-.40625-.109375-.617188-.089844-64.53125-5.207031-174.347656-9.003906-272.421875 12.09375h-.175781c-43.011719 8.222656-84.207031 24.066406-121.644531 46.785156v-61.792968s157.75-55.171876 413.574219-24.007813c14.449218 8.15625 26.949218 19.363281 36.632812 32.835937zm0 0" fill="#a5a5a4"/><path d="m44.136719 8.828125v211.863281h-44.136719v-211.863281c0-4.875 3.953125-8.828125 8.828125-8.828125h26.480469c4.878906 0 8.828125 3.953125 8.828125 8.828125zm0 0" fill="#7f8c8d"/><path d="m44.136719 220.691406v273.652344c-.027344 9.738281-7.914063 17.628906-17.652344 17.65625h-8.828125c-9.738281-.027344-17.6289062-7.917969-17.65625-17.65625v-273.652344zm0 0" fill="#2c3e50"/></svg>