<svg height="512pt" viewBox="0 0 512.00114 512" width="512pt" xmlns="http://www.w3.org/2000/svg"><path d="m512 291.3125v203.035156c-.027344 9.738282-7.914062 17.625-17.65625 17.652344h-476.6875c-9.738281-.027344-17.625-7.914062-17.65625-17.652344v-203.035156c.03125-9.738281 7.917969-17.628906 17.65625-17.65625v-132.414062h105.929688v123.585937c0 4.875 3.953124 8.828125 8.828124 8.828125h35.3125c4.875 0 8.824219-3.953125 8.824219-8.828125v-176.550781h158.898438v176.550781c0 4.875 3.953125 8.828125 8.828125 8.828125h35.308594c4.875 0 8.828124-3.953125 8.828124-8.828125v-123.585937h105.929688v132.414062c9.722656.074219 17.585938 7.933594 17.65625 17.65625zm0 0" fill="#35495e"/><g fill="#3d324c"><path d="m353.105469 88.277344h-194.207031c-3.785157.003906-7.148438-2.402344-8.367188-5.984375-1.214844-3.582031-.019531-7.539063 2.980469-9.84375l97.457031-70.832031c3.015625-2.128907 7.035156-2.15625 10.082031-.070313l100.878907 70.902344c6.683593 5.148437-.394532 15.828125-8.824219 15.828125zm0 0"/><path d="m132.414062 141.242188h-123.585937c-3.800781 0-7.171875-2.429688-8.375-6.035157-1.199219-3.605469.039063-7.574219 3.078125-9.855469l61.792969-33.101562c3.140625-2.355469 7.453125-2.355469 10.59375 0l61.792969 33.101562c3.039062 2.28125 4.28125 6.25 3.078124 9.855469-1.203124 3.605469-4.574218 6.035157-8.375 6.035157zm0 0"/><path d="m503.171875 141.242188h-123.585937c-3.796876 0-7.171876-2.429688-8.375-6.035157-1.199219-3.605469.039062-7.574219 3.078124-9.855469l61.792969-33.101562c3.140625-2.355469 7.457031-2.355469 10.59375 0l61.792969 33.101562c3.039062 2.28125 4.28125 6.25 3.078125 9.855469-1.199219 3.605469-4.574219 6.035157-8.375 6.035157zm0 0"/></g><path d="m70.621094 176.554688c9.75 0 17.65625 7.902343 17.65625 17.652343v79.449219h-35.3125v-79.449219c0-9.75 7.90625-17.652343 17.65625-17.652343zm0 0" fill="#b0d3f0"/><path d="m441.378906 176.554688c9.75 0 17.65625 7.902343 17.65625 17.652343v79.449219h-35.308594v-79.449219c0-9.75 7.902344-17.652343 17.652344-17.652343zm0 0" fill="#b0d3f0"/><path d="m256 123.585938c24.378906 0 44.136719 19.761718 44.136719 44.140624v105.929688h-88.273438v-105.929688c0-24.378906 19.761719-44.140624 44.136719-44.140624zm0 0" fill="#b0d3f0"/><path d="m256 114.761719c-29.238281.027343-52.9375 23.722656-52.964844 52.964843v105.929688c0 4.875 3.953125 8.828125 8.828125 8.828125h88.273438c4.878906 0 8.828125-3.953125 8.828125-8.828125v-105.929688c-.027344-29.242187-23.722656-52.9375-52.964844-52.964843zm35.3125 52.964843v26.480469h-26.484375v-60.539062c15.542969 4.011719 26.421875 18.003906 26.484375 34.058593zm-44.140625-34.058593v60.539062h-26.480469v-26.480469c.058594-16.054687 10.9375-30.046874 26.480469-34.058593zm-26.480469 78.195312h26.480469v52.964844h-26.480469zm44.136719 52.964844v-52.964844h26.484375v52.964844zm0 0" fill="#3d324c"/><path d="m167.726562 356.371094c25.824219-38.933594 74.105469-56.351563 118.839844-42.871094s75.351563 54.675781 75.363282 101.398438v88.273437h-211.859376v-61.792969" fill="#cb8252"/><path d="m256 300.140625c-38.496094-.078125-74.441406 19.230469-95.636719 51.367187-2.425781 4.054688-1.226562 9.296876 2.714844 11.898438 3.945313 2.601562 9.238281 1.636719 12.007813-2.1875 16.238281-24.535156 42.777343-40.320312 72.085937-42.878906v176.007812h-88.273437v-52.96875c0-4.875-3.953126-8.824218-8.828126-8.824218s-8.828124 3.949218-8.828124 8.824218v61.792969c0 4.878906 3.953124 8.828125 8.828124 8.828125h211.859376c4.878906 0 8.828124-3.949219 8.828124-8.828125v-88.273437c-.070312-63.351563-51.40625-114.6875-114.757812-114.757813zm97.105469 194.207031h-88.277344v-176.101562c49.960937 4.601562 88.210937 46.476562 88.277344 96.652344zm0 0" fill="#59474e"/><path d="m229.519531 414.898438c0 4.875-3.953125 8.828124-8.828125 8.828124s-8.828125-3.953124-8.828125-8.828124 3.953125-8.828126 8.828125-8.828126 8.828125 3.953126 8.828125 8.828126zm0 0" fill="#f3d55b"/><path d="m300.136719 414.898438c0 4.875-3.949219 8.828124-8.824219 8.828124s-8.828125-3.953124-8.828125-8.828124 3.953125-8.828126 8.828125-8.828126 8.824219 3.953126 8.824219 8.828126zm0 0" fill="#f3d55b"/><path d="m512 317.792969v17.65625h-44.136719v1.589843c-.007812 8.417969-5.957031 15.660157-14.214843 17.300782l-29.921876 6.003906v24.453125l15.09375 15.003906c3.441407 3.472657 3.441407 9.066407 0 12.535157-1.679687 1.636718-3.925781 2.550781-6.269531 2.5625-1.144531.015624-2.285156-.191407-3.351562-.617188-1.074219-.480469-2.058594-1.136719-2.914063-1.945312l-15.007812-15.09375c-3.328125-3.285157-5.203125-7.769532-5.207032-12.445313v-24.453125c.007813-8.417969 5.957032-15.660156 14.210938-17.300781l29.925781-6.003907v-1.589843c.03125-9.738281 7.917969-17.625 17.65625-17.65625zm0 0" fill="#3f5c6c"/><path d="m470.246094 489.402344c-4.847656 6.929687-8.628906 14.546875-11.210938 22.597656h-17.65625c0-4.234375 1.589844-11.738281 13.859375-31.777344l-24.011719-12.007812c-3.386718-1.710938-6.140624-4.464844-7.855468-7.855469l-7.503906-15.007813c-1.0625-2.082031-1.25-4.5-.523438-6.722656.730469-2.222656 2.316406-4.058594 4.410156-5.105468 1.234375-.609376 2.589844-.941407 3.972656-.96875 3.332032-.03125 6.390626 1.855468 7.855469 4.851562l7.589844 15.007812 23.925781 12.007813c4.425782 2.199219 7.722656 6.160156 9.082032 10.914063 1.359374 4.75.660156 9.859374-1.933594 14.066406zm0 0" fill="#3f5c6c"/><path d="m167.726562 353.105469c0-25.804688-20.808593-44.140625-58.644531-43.9375-25.691406-.347657-46.832031 20.140625-47.289062 45.835937v24.582032c0 39 43.316406 70.621093 85.109375 70.621093h37.824218c3.683594.261719 7.136719-1.808593 8.632813-5.183593 1.5-3.375.722656-7.328126-1.941406-9.882813l-8.988281-4.734375c-9.988282-9.832031-15.332032-23.441406-14.703126-37.445312zm0 0" fill="#fff"/><path d="m97.105469 370.761719c-4.875 0-8.828125-3.953125-8.828125-8.828125v-8.828125c0-4.875 3.953125-8.828125 8.828125-8.828125s8.824219 3.953125 8.824219 8.828125v8.828125c0 4.875-3.949219 8.828125-8.824219 8.828125zm0 0" fill="#35495e"/><path d="m132.414062 370.761719c-4.875 0-8.828124-3.953125-8.828124-8.828125v-8.828125c0-4.875 3.953124-8.828125 8.828124-8.828125s8.828126 3.953125 8.828126 8.828125v8.828125c0 4.875-3.953126 8.828125-8.828126 8.828125zm0 0" fill="#35495e"/></svg>