<svg height="512pt" viewBox="-35 0 512 512.02405" width="512pt" xmlns="http://www.w3.org/2000/svg"><g fill="#59474e"><path d="m120.773438 189.550781c-1.121094 0-2.234376-.214843-3.273438-.632812l-32.488281-12.96875c-4.527344-1.808594-6.734375-6.945313-4.925781-11.476563 1.808593-4.527344 6.949218-6.734375 11.476562-4.925781l32.484375 12.976563c3.9375 1.566406 6.203125 5.710937 5.402344 9.867187-.800781 4.160156-4.441407 7.164063-8.675781 7.160156zm0 0"/><path d="m128.726562 186.902344c-3.363281.019531-6.445312-1.878906-7.945312-4.890625l-13.945312-27.980469c-1.4375-2.828125-1.246094-6.207031.496093-8.855469 1.742188-2.644531 4.773438-4.15625 7.9375-3.953125 3.164063.203125 5.972657 2.085938 7.367188 4.933594l13.945312 27.984375c2.167969 4.359375.394531 9.652344-3.960937 11.828125-1.207032.613281-2.539063.933594-3.894532.933594zm0 0"/><path d="m344.289062 361.957031c-2.007812 0-3.953124-.683593-5.519531-1.933593l-26.480469-21.1875c-3.8125-3.046876-4.429687-8.605469-1.382812-12.417969 3.046875-3.808594 8.605469-4.425781 12.417969-1.378907l26.480469 21.183594c2.9375 2.34375 4.070312 6.285156 2.828124 9.828125-1.242187 3.542969-4.589843 5.910157-8.34375 5.90625zm0 0"/><path d="m353.117188 335.472656c-.492188.003906-.984376-.039062-1.46875-.125l-35.308594-5.914062c-4.707032-.902344-7.832032-5.398438-7.039063-10.125.789063-4.726563 5.207031-7.960938 9.953125-7.28125l35.308594 5.914062c4.519531.761719 7.703125 4.859375 7.328125 9.429688-.378906 4.570312-4.191406 8.089844-8.773437 8.101562zm0 0"/><path d="m105.941406 441.402344c-4.453125-.003906-8.207031-3.328125-8.75-7.75-.542968-4.421875 2.292969-8.554688 6.617188-9.640625l17.652344-4.414063c4.714843-1.144531 9.46875 1.730469 10.648437 6.433594 1.179687 4.707031-1.660156 9.480469-6.355469 10.695312l-17.65625 4.410157c-.707031.175781-1.429687.265625-2.15625.265625zm0 0"/><path d="m123.597656 419.335938c-1.910156 0-3.769531-.621094-5.296875-1.765626l-17.652343-13.242187c-2.523438-1.894531-3.847657-4.988281-3.46875-8.117187.375-3.132813 2.394531-5.824219 5.296874-7.0625 2.898438-1.238282 6.238282-.835938 8.761719 1.054687l17.65625 13.242187c3.039063 2.277344 4.28125 6.25 3.078125 9.851563-1.203125 3.605469-4.574218 6.039063-8.375 6.039063zm0 0"/><path d="m335.460938 70.644531h-27.367188c-4.875 0-8.828125-3.953125-8.828125-8.828125s3.953125-8.828125 8.828125-8.828125h27.367188c4.875 0 8.828124 3.953125 8.828124 8.828125s-3.953124 8.828125-8.828124 8.828125zm0 0"/><path d="m304.132812 61.023438c-3.800781 0-7.175781-2.433594-8.375-6.035157-1.203124-3.605469.035157-7.574219 3.078126-9.855469l22.5-16.859374c3.902343-2.925782 9.433593-2.136719 12.359374 1.765624 2.925782 3.898438 2.132813 9.433594-1.765624 12.355469l-22.511719 16.863281c-1.523438 1.144532-3.378907 1.761719-5.285157 1.765626zm0 0"/></g><path d="m415.101562 294.574219-.121093.175781c-11.703125 15.601562-33.835938 18.761719-49.4375 7.0625l-47.738281-35.726562v219.457031c0 14.625-11.855469 26.480469-26.480469 26.480469h-17.65625c-14.625 0-26.484375-11.855469-26.484375-26.480469v-70.621094c0-14.628906-11.855469-26.484375-26.480469-26.484375-14.628906 0-26.484375 11.855469-26.484375 26.484375v70.621094c0 14.625-11.855469 26.480469-26.484375 26.480469h-17.652344c-14.628906 0-26.484375-11.855469-26.484375-26.480469v-220.78125l-49.53125 37.078125c-15.601562 11.699218-37.734375 8.539062-49.433594-7.0625-11.703124-15.601563-8.539062-37.734375 7.0625-49.433594l77.777344-58.175781c9.167969-6.875 20.320313-10.59375 31.78125-10.59375h11.121094c3.597656.011719 6.84375-2.160157 8.203125-5.492188 1.355469-3.332031.558594-7.15625-2.023437-9.664062-28.414063-25.710938-38.078126-66.261719-24.3125-102.023438 13.765624-35.765625 48.121093-59.3710935 86.445312-59.394531 38.320312-.0234375 72.707031 23.535156 86.519531 59.285156 13.8125 35.746094 4.199219 76.304688-24.183593 102.054688-2.605469 2.46875-3.457032 6.273437-2.152344 9.621094 1.308594 3.34375 4.511718 5.566406 8.101562 5.613281h10.984375c11.578125 0 22.84375 3.796875 32.058594 10.804687l76.191406 57.9375c15.4375 11.742188 18.511719 33.730469 6.894531 49.257813zm0 0" fill="#7f5b53"/><path d="m167.734375 97.128906c-3.566406-.003906-6.785156-2.152344-8.152344-5.449218-1.367187-3.300782-.609375-7.097657 1.914063-9.621094l35.308594-35.308594c2.21875-2.296875 5.5-3.214844 8.585937-2.410156 3.085937.808594 5.496094 3.21875 6.304687 6.304687.808594 3.085938-.113281 6.371094-2.40625 8.585938l-35.3125 35.3125c-1.65625 1.652343-3.898437 2.585937-6.242187 2.585937zm0 0" fill="#2c2f38"/><path d="m203.046875 97.128906c-2.339844 0-4.585937-.933594-6.242187-2.585937l-35.308594-35.3125c-3.347656-3.464844-3.296875-8.96875.105468-12.375 3.40625-3.40625 8.910157-3.453125 12.375-.105469l35.3125 35.308594c2.523438 2.523437 3.277344 6.320312 1.910157 9.621094-1.363281 3.296874-4.582031 5.445312-8.152344 5.449218zm0 0" fill="#2c2f38"/><path d="m238.355469 97.128906c-3.570313-.003906-6.785157-2.152344-8.152344-5.449218-1.367187-3.300782-.609375-7.097657 1.914063-9.621094l35.308593-35.308594c2.214844-2.296875 5.5-3.214844 8.585938-2.410156 3.085937.808594 5.496093 3.21875 6.304687 6.304687.808594 3.085938-.113281 6.371094-2.40625 8.585938l-35.3125 35.3125c-1.65625 1.652343-3.898437 2.585937-6.242187 2.585937zm0 0" fill="#2c2f38"/><path d="m273.667969 97.128906c-2.34375 0-4.585938-.933594-6.242188-2.585937l-35.308593-35.3125c-3.347657-3.464844-3.300782-8.96875.105468-12.375s8.910156-3.453125 12.375-.105469l35.3125 35.308594c2.523438 2.523437 3.277344 6.320312 1.910156 9.621094-1.367187 3.296874-4.582031 5.445312-8.152343 5.449218zm0 0" fill="#2c2f38"/><path d="m264.839844 141.265625h-88.277344c-4.875 0-8.828125-3.953125-8.828125-8.828125s3.953125-8.828125 8.828125-8.828125h88.277344c4.875 0 8.828125 3.953125 8.828125 8.828125s-3.953125 8.828125-8.828125 8.828125zm0 0" fill="#2c2f38"/><path d="m220.703125 158.921875c-4.875 0-8.828125-3.953125-8.828125-8.828125v-35.3125c0-4.875 3.953125-8.824219 8.828125-8.824219s8.824219 3.949219 8.824219 8.824219v35.3125c0 4.875-3.949219 8.828125-8.824219 8.828125zm0 0" fill="#2c2f38"/><path d="m185.390625 158.921875c-4.875 0-8.828125-3.953125-8.828125-8.828125v-35.3125c0-4.875 3.953125-8.824219 8.828125-8.824219s8.828125 3.949219 8.828125 8.824219v35.3125c0 4.875-3.953125 8.828125-8.828125 8.828125zm0 0" fill="#2c2f38"/><path d="m256.011719 158.921875c-4.875 0-8.828125-3.953125-8.828125-8.828125v-35.3125c0-4.875 3.953125-8.824219 8.828125-8.824219s8.828125 3.949219 8.828125 8.824219v35.3125c0 4.875-3.953125 8.828125-8.828125 8.828125zm0 0" fill="#2c2f38"/><path d="m35.324219 185.402344c0 9.75-7.90625 17.65625-17.65625 17.65625s-17.6562502-7.90625-17.6562502-17.65625 7.9062502-17.652344 17.6562502-17.652344 17.65625 7.902344 17.65625 17.652344zm0 0" fill="#ff5364"/><path d="m176.5625 247.195312c-.945312 0-1.890625-.15625-2.789062-.457031l-142.210938-47.40625c-4.632812-1.542969-7.136719-6.546875-5.59375-11.179687 1.542969-4.628906 6.550781-7.132813 11.179688-5.589844l142.203124 47.402344c4.15625 1.335937 6.710938 5.507812 6.015626 9.816406-.699219 4.308594-4.4375 7.460938-8.804688 7.414062zm0 0" fill="#bdc3c7"/><path d="m441.390625 370.78125c0 9.753906-7.902344 17.65625-17.65625 17.65625-9.75 0-17.652344-7.902344-17.652344-17.65625 0-9.75 7.902344-17.652344 17.652344-17.652344 9.753906 0 17.65625 7.902344 17.65625 17.652344zm0 0" fill="#ff5364"/><path d="m282.496094 459.058594c-4.019532.007812-7.535156-2.703125-8.554688-6.589844-1.019531-3.882812.714844-7.96875 4.21875-9.933594l125.882813-70.800781c4.253906-2.386719 9.636719-.875 12.027343 3.378906 2.386719 4.253907.875 9.636719-3.378906 12.027344l-125.871094 70.789063c-1.320312.742187-2.8125 1.128906-4.324218 1.128906zm0 0" fill="#bdc3c7"/><path d="m379.597656 132.4375c0 9.75-7.902344 17.65625-17.65625 17.65625-9.75 0-17.652344-7.90625-17.652344-17.65625s7.902344-17.65625 17.652344-17.65625c9.753906 0 17.65625 7.90625 17.65625 17.65625zm0 0" fill="#ff5364"/><path d="m273.667969 264.851562c-3.304688-.007812-6.328125-1.855468-7.835938-4.792968-1.507812-2.941406-1.253906-6.476563.667969-9.164063l78.027344-109.195312c1.796875-2.660157 4.890625-4.132813 8.085937-3.851563 3.195313.285156 5.988281 2.277344 7.292969 5.207032 1.300781 2.933593.914062 6.339843-1.015625 8.902343l-78.039063 109.195313c-1.65625 2.320312-4.332031 3.699218-7.183593 3.699218zm0 0" fill="#bdc3c7"/></svg>