<svg height="512pt" viewBox="0 0 512.00001 512" width="512pt" xmlns="http://www.w3.org/2000/svg"><path d="m361.929688 405.527344c0 58.792968-81.035157 106.460937-180.964844 106.460937-99.925782 0-180.964844-47.667969-180.964844-106.460937 1.089844-19.800782 5.042969-39.335938 11.742188-57.996094 6.53125-20.746094 15.535156-44.050781 26.039062-68.59375 17.921875-42.019531 40.078125-87.566406 61.617188-129.765625 12.003906-23.566406 23.746093-46.167969 34.515624-66.46875 9.167969-17.503906 27.292969-28.46875 47.050782-28.46875 19.757812 0 37.882812 10.964844 47.050781 28.46875 2.824219 5.296875 5.652344 10.769531 8.5625 16.328125 2.914063 5.5625 6.09375 11.476562 9.183594 17.480469 5.472656 10.59375 11.121093 21.539062 16.769531 32.660156 21.539062 42.199219 43.699219 87.746094 61.617188 129.765625 3.796874 8.828125 7.414062 17.570312 10.683593 26.042969h.085938c5.914062 15.007812 11.125 29.308593 15.273437 42.550781 6.695313 18.660156 10.652344 38.195312 11.738282 57.996094zm0 0" fill="#f3d55b"/><path d="m324.148438 278.9375c-33.015626 25.25-84.832032 41.402344-143.183594 41.402344-58.351563 0-110.167969-16.152344-143.183594-41.402344 17.921875-42.019531 40.078125-87.566406 61.617188-129.765625 26.480468 7.8125 53.960937 11.707031 81.566406 11.566406 27.609375.140625 55.085937-3.753906 81.566406-11.566406 21.539062 42.199219 43.699219 87.746094 61.617188 129.765625zm0 0" fill="#f29c1f"/><path d="m350.191406 347.53125h-.089844c-25.863281 40.164062-91.894531 68.675781-169.136718 68.675781-77.242188 0-143.269532-28.511719-169.136719-68.675781h-.085937c6.53125-20.746094 15.535156-44.050781 26.039062-68.59375 33.015625 25.25 84.832031 41.402344 143.183594 41.402344 58.351562 0 110.167968-16.152344 143.183594-41.402344 10.503906 24.542969 19.507812 47.847656 26.042968 68.59375zm0 0" fill="#e57e25"/><path d="m361.929688 405.527344c0 58.792968-81.035157 106.460937-180.964844 106.460937-99.925782 0-180.964844-47.667969-180.964844-106.460937 1.089844-19.800782 5.042969-39.335938 11.742188-57.996094h.085937c25.867187 40.164062 91.894531 68.675781 169.136719 68.675781 77.242187 0 143.273437-28.511719 169.136718-68.675781h.089844c6.695313 18.660156 10.652344 38.195312 11.738282 57.996094zm0 0" fill="#f0c419"/><path d="m134.964844 166.035156c-3.070313 0-5.921875-1.597656-7.527344-4.214844-1.605469-2.621093-1.730469-5.882812-.339844-8.621093 5.5-10.789063 10.710938-20.878907 15.40625-29.898438 5.746094-11.0625 10.789063-20.613281 14.855469-28.300781 2.28125-4.3125 7.621094-5.957031 11.933594-3.679688 4.308593 2.28125 5.953125 7.621094 3.675781 11.933594-4.054688 7.652344-9.085938 17.175782-14.796875 28.183594-4.667969 8.988281-9.867187 19.023438-15.324219 29.769531-1.507812 2.964844-4.554687 4.832031-7.882812 4.828125zm0 0" fill="#f9eab0"/><path d="m35.308594 414.363281c-4.875 0-8.824219-3.953125-8.824219-8.828125.304687-10.148437 1.828125-20.226562 4.527344-30.011718 2.648437-10.769532 6.65625-23.414063 11.765625-37.589844 4.679687-12.96875 10.398437-27.460938 17.011718-43.078125 6.03125-14.230469 12.878907-29.660157 20.382813-45.902344 7.140625-15.433594 14.53125-30.898437 21.847656-45.808594 1.386719-2.835937 4.183594-4.722656 7.332031-4.941406 3.152344-.21875 6.179688 1.261719 7.945313 3.882813 1.765625 2.617187 2 5.980468.613281 8.820312-7.273437 14.835938-14.609375 30.152344-21.699218 45.460938-7.40625 16.023437-14.183594 31.285156-20.136719 45.339843-6.488281 15.324219-12.09375 29.507813-16.664063 42.183594-4.910156 13.613281-8.695312 25.691406-11.253906 35.878906-2.335938 8.402344-3.683594 17.050781-4.019531 25.765625 0 4.875-3.949219 8.828125-8.828125 8.828125zm0 0" fill="#f9eab0"/><path d="m451.089844 60.542969c-58.703125-58.523438-134.179688-77.945313-168.605469-43.519531-10.921875 12.324218-20.019531 26.144531-27.015625 41.050781-6.265625 12.179687-12.621094 26.039062-18.890625 40.957031 3.003906 5.652344 6.09375 11.476562 9.183594 17.480469 5.472656 10.59375 11.121093 21.539062 16.769531 32.660156 21.539062 42.199219 43.699219 87.746094 61.617188 129.765625 3.796874 8.828125 7.414062 17.570312 10.683593 26.042969h.085938c21.980469-7.679688 43.609375-15.714844 63.824219-23.835938 20.480468-8.296875 39.460937-16.683593 55.4375-24.980469v-.089843c14.871093-6.996094 28.640624-16.125 40.871093-27.097657 34.429688-34.515624 14.742188-109.90625-43.960937-168.433593zm0 0" fill="#f0c419"/><path d="m398.742188 281.144531c-20.214844 8.121094-41.84375 16.15625-63.824219 23.835938h-.085938c-3.269531-8.472657-6.886719-17.214844-10.683593-26.042969-17.917969-42.019531-40.078126-87.566406-61.617188-129.765625-5.648438-11.121094-11.296875-22.066406-16.769531-32.660156 35.445312 10.375 67.550781 29.855469 93.128906 56.496093 34.25 34.164063 55.261719 74.0625 59.851563 108.136719zm0 0" fill="#d25627"/><path d="m454.179688 256.074219v.089843c-15.976563 8.296876-34.957032 16.683594-55.4375 24.980469-4.589844-34.074219-25.601563-73.972656-59.851563-108.136719-25.578125-26.640624-57.683594-46.121093-93.128906-56.496093-3.089844-6.003907-6.179688-11.828125-9.183594-17.480469 6.269531-14.917969 12.625-28.777344 18.890625-40.957031 38.753906-8.476563 94.191406 13.417969 139.566406 58.703125s67.441406 100.546875 59.144532 139.296875zm0 0" fill="#e57e25"/><path d="m269.125 121.542969c-2.957031 0-5.71875-1.480469-7.355469-3.941407-1.636719-2.464843-1.929687-5.585937-.78125-8.3125 6.179688-14.742187 12.277344-27.921874 18.070313-39.167968 5.683594-12.449219 13.132812-24.015625 22.121094-34.335938 7.625-6.652344 17.578124-10.003906 27.675781-9.316406 24.433593 0 64.441406 13.878906 103.527343 52.835938 2.351563 2.199218 3.316407 5.507812 2.519532 8.628906-.796875 3.117187-3.230469 5.558594-6.347656 6.359375-3.121094.804687-6.429688-.152344-8.636719-2.5-47.730469-47.578125-96.21875-53.589844-106.230469-43.5625-7.660156 9.0625-14.03125 19.140625-18.925781 29.953125-5.585938 10.855468-11.476563 23.613281-17.496094 37.957031-1.378906 3.273437-4.585937 5.402344-8.140625 5.402344zm0 0" fill="#f9eab0"/></svg>