<svg height="503pt" viewBox="0 0 503.56309 503" width="503pt" xmlns="http://www.w3.org/2000/svg"><path d="m191.15625 434.179688h-.085938c-20.480468 1.824218-43.042968 7.117187-53.457031 26.554687-3.707031 8.53125-8 16.792969-12.84375 24.730469-11.109375 15.015625-28.722656 18.140625-46.425781 18.140625-86.78125 0-78.101562-60.746094-78.101562-60.746094 17.355468 26.03125 78.101562 34.710937 69.421874-43.390625-3.382812-30.808594 2.605469-50.765625 11.195313-63.695312zm0 0" fill="#c03a2b"/><path d="m503.5625 225.910156c0 124.609375-101.015625 225.625-225.625 225.625-124.613281 0-225.628906-101.015625-225.628906-225.625 0-124.613281 101.015625-225.628906 225.628906-225.628906 124.609375 0 225.625 101.015625 225.625 225.628906zm0 0" fill="#f09372"/><path d="m486.207031 225.910156c0 3.902344-.085937 7.894532-.347656 11.714844-.296875 5.957031-.90625 11.894531-1.820313 17.789062-3.09375 22.253907-9.871093 43.839844-20.046874 63.871094-2.605469 5.292969-5.46875 10.410156-8.503907 15.445313-6.589843 10.703125-14.140625 20.78125-22.5625 30.113281-3.820312 4.339844-7.898437 8.503906-12.152343 12.496094-7.972657 7.488281-16.5 14.363281-25.511719 20.566406-4.773438 3.296875-9.632813 6.335938-14.753907 9.199219-15.300781 8.714843-31.664062 15.421875-48.683593 19.957031-5.738281 1.589844-11.5625 2.863281-17.441407 3.820312-12.023437 2.199219-24.222656 3.304688-36.445312 3.296876-6.074219 0-12.0625-.261719-17.964844-.78125-22.609375-1.949219-44.746094-7.605469-65.519531-16.75-5.292969-2.253907-10.585937-4.859376-15.621094-7.546876-15.550781-8.457031-29.957031-18.867187-42.867187-30.980468-4.976563-4.601563-9.699219-9.46875-14.144532-14.578125-11.246093-12.636719-20.867187-26.632813-28.636718-41.65625-3.128906-5.820313-5.910156-11.816407-8.332032-17.964844-9.085937-22.398437-14.167968-46.21875-15.011718-70.375-.089844-2.519531-.175782-5.035156-.175782-7.636719 0-4.425781.175782-8.765625.433594-13.019531.921875-15.105469 3.511719-30.066406 7.722656-44.605469 1.730469-6.246094 3.816407-12.386718 6.25-18.394531 4.574219-11.84375 10.300782-23.207031 17.09375-33.933594 3.566407-5.816406 7.449219-11.4375 11.628907-16.832031 8.773437-11.371094 18.6875-21.8125 29.59375-31.15625 4.511719-3.902344 9.199219-7.636719 14.058593-11.105469 17.179688-12.476562 36.214844-22.167969 56.40625-28.726562 5.460938-1.890625 11.023438-3.484375 16.660157-4.773438 15.859375-3.808593 32.113281-5.730469 48.425781-5.726562 5.378906 0 10.585938.175781 15.878906.609375h.085938c7.078125.515625 14.117187 1.445312 21.089844 2.777344 23.9375 4.234374 46.921874 12.726562 67.859374 25.078124 5.035157 2.863282 9.980469 6.074219 14.667969 9.371094 18.371094 12.921875 34.546875 28.714844 47.902344 46.773438 3.730469 5.035156 7.203125 10.242187 10.5 15.535156 9.644531 15.914062 17.117187 33.042969 22.214844 50.941406 1.648437 5.550782 3.039062 11.191406 4.164062 17.007813 2.621094 13.230469 3.929688 26.6875 3.90625 40.179687zm0 0" fill="#fff"/><path d="m390.75 225.910156c0 62.304688-50.507812 112.8125-112.8125 112.8125-62.308594 0-112.816406-50.507812-112.816406-112.8125 0-62.308594 50.507812-112.816406 112.816406-112.816406 62.304688 0 112.8125 50.507812 112.8125 112.816406zm0 0" fill="#35495e"/><path d="m373.394531 225.910156c0 52.71875-42.738281 95.457032-95.457031 95.457032-52.722656 0-95.460938-42.738282-95.460938-95.457032 0-52.722656 42.738282-95.460937 95.460938-95.460937 52.71875 0 95.457031 42.738281 95.457031 95.460937zm0 0" fill="#4482c3"/><path d="m121.734375 217.230469c0 4.792969-3.886719 8.679687-8.679687 8.679687h-11.976563l-6.335937 12.582032c-1.117188 2.195312-3.097657 3.832031-5.464844 4.511718-.738282.171875-1.496094.261719-2.257813.261719-1.703125.003906-3.367187-.511719-4.773437-1.476563l-12.40625-8.242187c-.089844-2.519531-.175782-5.035156-.175782-7.636719 0-4.425781.175782-8.765625.433594-13.019531l13.539063 9.027344 4.339843-8.59375c1.449219-2.933594 4.449219-4.785157 7.722657-4.773438h17.355469c4.792968 0 8.679687 3.886719 8.679687 8.679688zm0 0" fill="#e64c3c"/><path d="m139.089844 277.976562v26.035157c0 4.792969-3.886719 8.675781-8.679688 8.675781h-30.371094l-6.855468 9.199219c-3.128906-5.820313-5.910156-11.816407-8.332032-17.964844l3.90625-5.117187c1.648438-2.171876 4.214844-3.453126 6.941407-3.472657h26.035156v-17.355469c0-4.792968 3.882813-8.679687 8.675781-8.679687 4.792969 0 8.679688 3.886719 8.679688 8.679687zm0 0" fill="#e64c3c"/><path d="m167.207031 364.496094-29.679687 7.460937-1.5625 6.164063c-4.976563-4.601563-9.699219-9.46875-14.144532-14.578125l.171876-.871094c.773437-3.121094 3.214843-5.558594 6.335937-6.332031l34.710937-8.679688c4.566407-.941406 9.0625 1.890625 10.179688 6.414063 1.121094 4.527343-1.535156 9.128906-6.011719 10.421875zm0 0" fill="#e64c3c"/><path d="m236.628906 381.851562-30.546875 7.636719-11.628906 27.160157c-5.292969-2.253907-10.585937-4.859376-15.621094-7.546876l13.019531-30.375c1.058594-2.515624 3.246094-4.382812 5.898438-5.03125l34.714844-8.679687c4.5625-.941406 9.058594 1.890625 10.179687 6.414063 1.117188 4.527343-1.535156 9.128906-6.015625 10.421874zm0 0" fill="#e64c3c"/><path d="m264.484375 424.546875-8.070313 4.078125 3.558594 4.773438c-8.164062-.691407-16.277344-1.878907-24.296875-3.558594-1.066406-1.929688-1.375-4.1875-.871093-6.332032.554687-2.5 2.214843-4.609374 4.515624-5.730468l17.355469-8.675782c2.785157-1.679687 6.277344-1.65625 9.042969.058594 2.765625 1.710938 4.339844 4.828125 4.082031 8.070313-.261719 3.242187-2.3125 6.066406-5.316406 7.316406zm0 0" fill="#e64c3c"/><path d="m331.824219 427.0625c-5.738281 1.589844-11.5625 2.863281-17.441407 3.820312l-9.457031-18.832031c-.957031-1.84375-1.203125-3.972656-.695312-5.988281l8.675781-34.710938c.644531-3.113281 2.941406-5.628906 5.984375-6.550781 3.046875-.921875 6.351563-.101562 8.613281 2.132813 2.261719 2.234375 3.121094 5.527344 2.238282 8.582031l-7.894532 31.589844zm0 0" fill="#e64c3c"/><path d="m395.261719 397.90625c-4.773438 3.296875-9.632813 6.335938-14.753907 9.199219l-4.597656-9.199219-22.648437-7.550781c-4.554688-1.53125-7-6.46875-5.46875-11.019531 1.535156-4.554688 6.46875-7 11.023437-5.46875l26.03125 8.679687c2.152344.746094 3.925782 2.300781 4.949219 4.339844zm0 0" fill="#e64c3c"/><path d="m432.925781 364.84375c-3.820312 4.339844-7.898437 8.503906-12.152343 12.496094l-18.046876-14.492188c-1.011718-.742187-1.816406-1.726562-2.34375-2.863281l-8.679687-17.355469c-.617187-1.210937-.945313-2.546875-.953125-3.90625v-26.035156c0-4.792969 3.886719-8.675781 8.675781-8.675781 4.792969 0 8.679688 3.882812 8.679688 8.675781v23.953125l6.941406 13.882813zm0 0" fill="#e64c3c"/><path d="m463.992188 319.285156c-2.605469 5.292969-5.46875 10.410156-8.503907 15.445313l-15.449219-5.121094c-2.371093-.8125-4.269531-2.617187-5.207031-4.945313-1-2.316406-.902343-4.964843.261719-7.203124l4.773438-9.546876-9.632813-4.859374c-3.003906-1.25-5.054687-4.074219-5.3125-7.316407-.261719-3.242187 1.3125-6.359375 4.078125-8.070312 2.765625-1.714844 6.257812-1.734375 9.042969-.058594l17.355469 8.675781c2.058593 1.03125 3.617187 2.835938 4.335937 5.019532.714844 2.183593.53125 4.5625-.515625 6.609374l-4.164062 8.417969zm0 0" fill="#e64c3c"/><path d="m485.859375 237.625c-.296875 5.957031-.90625 11.894531-1.820313 17.789062l-30.289062-10.847656-4.769531 4.859375c-3.40625 3.402344-8.921875 3.402344-12.324219 0-3.402344-3.402343-3.402344-8.917969 0-12.324219l8.675781-8.675781c2.410157-2.347656 5.945313-3.125 9.113281-1.996093zm0 0" fill="#e64c3c"/><path d="m482.300781 185.730469-36.445312 13.625c-.976563.347656-2.003907.523437-3.039063.519531-1.292968.011719-2.574218-.285156-3.730468-.867188-2.128907-.992187-3.757813-2.8125-4.511719-5.035156l-8.679688-26.03125c-.992187-2.945312-.335937-6.199218 1.71875-8.53125 2.054688-2.332031 5.195313-3.390625 8.242188-2.773437 3.046875.613281 5.535156 2.804687 6.527343 5.75l5.816407 17.527343 29.9375-11.191406c1.648437 5.550782 3.039062 11.191406 4.164062 17.007813zm0 0" fill="#e64c3c"/><path d="m455.921875 117.78125-5.902344 8.851562c-1.625 2.378907-4.320312 3.808594-7.203125 3.816407h-29.332031l2.34375 4.773437c1.046875 2.046875 1.230469 4.425782.515625 6.609375-.71875 2.183594-2.277344 3.992188-4.332031 5.019531-1.203125.640626-2.546875.96875-3.90625.957032-3.277344.027344-6.28125-1.828125-7.722657-4.773438l-8.679687-17.355468c-1.351563-2.6875-1.21875-5.882813.355469-8.445313 1.574218-2.5625 4.359375-4.128906 7.367187-4.140625h38.707031l7.289063-10.847656c3.730469 5.035156 7.203125 10.242187 10.5 15.535156zm0 0" fill="#e64c3c"/><path d="m397.519531 55.472656-8.679687 10.933594c-1.636719 2.074219-4.128906 3.285156-6.769532 3.300781h-22.648437l4.859375 14.578125c1.492188 4.550782-.941406 9.453125-5.464844 11.019532-.90625.265624-1.839844.410156-2.777344.433593-3.730468.011719-7.050781-2.367187-8.246093-5.898437l-8.675781-26.035156c-.875-2.648438-.421876-5.554688 1.214843-7.8125 1.601563-2.292969 4.230469-3.65625 7.027344-3.644532h30.546875l4.945312-6.246094c5.035157 2.863282 9.980469 6.074219 14.667969 9.371094zm0 0" fill="#e64c3c"/><path d="m320.371094 38.898438-8.679688 17.355468c-1.4375 2.945313-4.441406 4.800782-7.722656 4.773438-1.359375.015625-2.703125-.3125-3.902344-.953125-2.058594-1.03125-3.617187-2.835938-4.332031-5.019531-.71875-2.183594-.535156-4.5625.511719-6.609376l6.59375-13.277343-8.9375-16.921875c7.078125.515625 14.117187 1.445312 21.089844 2.777344l5.292968 9.890624c1.371094 2.476563 1.40625 5.480469.085938 7.984376zm0 0" fill="#e64c3c"/><path d="m258.0625 58.511719-17.355469 17.355469c-3.421875 3.355468-8.898437 3.355468-12.320312 0-3.386719-3.410157-3.386719-8.914063 0-12.324219l7.460937-7.375-12.757812-4.253907c-2.785156-.9375-4.910156-3.222656-5.640625-6.074218 0-.085938-1.90625-7.808594-4.597657-17.703125 5.460938-1.890625 11.023438-3.484375 16.660157-4.773438 1.476562 5.46875 2.691406 10.242188 3.558593 13.539063l21.609376 7.203125c2.84375.953125 4.984374 3.320312 5.640624 6.246093.6875 2.929688-.164062 6.003907-2.257812 8.160157zm0 0" fill="#e64c3c"/><path d="m202.609375 103.984375-26.03125 8.675781c-.902344.265625-1.835937.410156-2.777344.433594-3.730469.011719-7.050781-2.363281-8.246093-5.898438l-7.980469-24.125-15.1875-15.101562c4.511719-3.902344 9.199219-7.636719 14.058593-11.105469v.605469l14.839844 14.753906c.929688.960938 1.640625 2.117188 2.082032 3.382813l5.898437 17.878906 17.792969-5.988281c2.945312-.992188 6.195312-.339844 8.527344 1.714844 2.332031 2.054687 3.390624 5.199218 2.777343 8.246093s-2.808593 5.535157-5.753906 6.527344zm0 0" fill="#e64c3c"/><path d="m147.765625 139.128906v17.355469c0 4.792969-3.882813 8.679687-8.675781 8.679687-4.792969 0-8.679688-3.886718-8.679688-8.679687v-12.667969l-22.128906-14.839844c-1.425781-.925781-2.542969-2.257812-3.210938-3.820312l-3.90625-9.199219c3.566407-5.816406 7.449219-11.4375 11.628907-16.832031l7.203125 16.832031 23.867187 15.96875c2.421875 1.597657 3.886719 4.300781 3.902344 7.203125zm0 0" fill="#e64c3c"/><path d="m93.183594 171.324219c-3.421875 3.355469-8.902344 3.355469-12.324219 0l-3.039063-3.039063c1.730469-6.246094 3.816407-12.386718 6.25-18.394531l9.113282 9.109375c3.382812 3.410156 3.382812 8.914062 0 12.324219zm0 0" fill="#e64c3c"/><g fill="#285680"><path d="m286.613281 160.824219c0-16.773438-3.882812-30.375-8.675781-30.375s-8.679688 13.601562-8.679688 30.375c0 16.773437 3.886719 30.371093 8.679688 30.371093s8.675781-13.597656 8.675781-30.371093zm0 0"/><path d="m286.613281 290.992188c0-16.773438-3.882812-30.371094-8.675781-30.371094s-8.679688 13.597656-8.679688 30.371094c0 16.777343 3.886719 30.375 8.679688 30.375s8.675781-13.597657 8.675781-30.375zm0 0"/><path d="m269.472656 160.800781c-4.339844-16.203125-11.613281-28.332031-16.242187-27.089843-4.628907 1.238281-4.863281 15.378906-.519531 31.582031 4.339843 16.203125 11.613281 28.332031 16.242187 27.09375 4.628906-1.242188 4.863281-15.382813.519531-31.585938zm0 0"/><path d="m303.15625 286.523438c-4.339844-16.203126-11.613281-28.332032-16.242188-27.089844-4.628906 1.238281-4.863281 15.378906-.523437 31.582031 4.34375 16.203125 11.617187 28.332031 16.246094 27.09375 4.628906-1.242187 4.863281-15.382813.519531-31.585937zm0 0"/><path d="m252.90625 165.203125c-8.386719-14.523437-18.550781-24.359375-22.703125-21.960937-4.148437 2.394531-.714844 16.113281 7.671875 30.640624 8.386719 14.527344 18.550781 24.359376 22.703125 21.964844 4.148437-2.394531.714844-16.117187-7.671875-30.644531zm0 0"/><path d="m317.992188 277.9375c-8.386719-14.527344-18.550782-24.359375-22.699219-21.964844-4.152344 2.398438-.71875 16.117188 7.667969 30.644532 8.390624 14.527343 18.550781 24.359374 22.703124 21.964843 4.152344-2.398437.714844-16.117187-7.671874-30.644531zm0 0"/><path d="m238.050781 173.746094c-11.859375-11.859375-24.222656-18.726563-27.613281-15.339844-3.386719 3.390625 3.480469 15.753906 15.339844 27.613281 11.863281 11.863281 24.226562 18.730469 27.613281 15.339844 3.390625-3.386719-3.476563-15.75-15.339844-27.613281zm0 0"/><path d="m330.089844 265.792969c-11.859375-11.859375-24.222656-18.726563-27.613282-15.339844-3.386718 3.390625 3.480469 15.753906 15.34375 27.613281 11.859376 11.863282 24.222657 18.730469 27.613282 15.339844 3.386718-3.386719-3.480469-15.75-15.34375-27.613281zm0 0"/><path d="m225.90625 185.851562c-14.523438-8.386718-28.246094-11.824218-30.640625-7.671874-2.398437 4.152343 7.4375 14.316406 21.964844 22.703124 14.527343 8.386719 28.246093 11.820313 30.640625 7.667969 2.398437-4.148437-7.4375-14.3125-21.964844-22.699219zm0 0"/><path d="m338.636719 250.9375c-14.527344-8.386719-28.246094-11.820312-30.644531-7.671875-2.394532 4.152344 7.4375 14.316406 21.964843 22.703125 14.527344 8.386719 28.246094 11.820312 30.644531 7.671875 2.394532-4.152344-7.4375-14.316406-21.964843-22.703125zm0 0"/><path d="m217.320312 200.675781c-16.203124-4.339843-30.34375-4.105469-31.582031.523438-1.242187 4.628906 10.886719 11.902343 27.089844 16.242187s30.34375 4.109375 31.585937-.519531c1.238282-4.632813-10.890624-11.902344-27.09375-16.246094zm0 0"/><path d="m343.042969 234.375c-16.203125-4.339844-30.34375-4.105469-31.582031.523438-1.242188 4.628906 10.886718 11.902343 27.089843 16.242187 16.203125 4.34375 30.34375 4.109375 31.585938-.519531 1.238281-4.628906-10.890625-11.902344-27.09375-16.246094zm0 0"/><path d="m243.222656 225.910156c0-4.792968-13.597656-8.679687-30.371094-8.679687-16.773437 0-30.375 3.886719-30.375 8.679687 0 4.792969 13.601563 8.675782 30.375 8.675782 16.773438 0 30.371094-3.882813 30.371094-8.675782zm0 0"/><path d="m373.394531 225.910156c0-4.792968-13.597656-8.679687-30.375-8.679687-16.773437 0-30.371093 3.886719-30.371093 8.679687 0 4.792969 13.597656 8.675782 30.371093 8.675782 16.777344 0 30.375-3.882813 30.375-8.675782zm0 0"/><path d="m244.472656 234.863281c-1.238281-4.632812-15.382812-4.863281-31.585937-.519531-16.203125 4.347656-28.335938 11.621094-27.09375 16.25 1.242187 4.632812 15.382812 4.863281 31.589843.515625 16.203126-4.34375 28.332032-11.617187 27.089844-16.246094zm0 0"/><path d="m370.140625 201.207031c-1.238281-4.628906-15.378906-4.863281-31.582031-.523437-16.203125 4.34375-28.332032 11.613281-27.09375 16.242187 1.242187 4.632813 15.382812 4.863281 31.585937.523438 16.203125-4.34375 28.332031-11.613281 27.089844-16.242188zm0 0"/><path d="m247.875 243.261719c-2.394531-4.148438-16.113281-.714844-30.640625 7.671875-14.527344 8.386718-24.363281 18.550781-21.964844 22.703125 2.394531 4.148437 16.113281.714843 30.640625-7.671875 14.527344-8.386719 24.363282-18.550782 21.964844-22.703125zm0 0"/><path d="m360.601562 178.183594c-2.398437-4.148438-16.117187-.714844-30.644531 7.671875-14.527343 8.386719-24.359375 18.550781-21.964843 22.703125 2.398437 4.148437 16.117187.714844 30.644531-7.671875 14.527343-8.386719 24.359375-18.550781 21.964843-22.703125zm0 0"/><path d="m253.386719 250.449219c-3.386719-3.386719-15.75 3.480469-27.613281 15.34375-11.859376 11.859375-18.726563 24.222656-15.339844 27.609375 3.390625 3.390625 15.753906-3.476563 27.613281-15.339844 11.863281-11.859375 18.730469-24.222656 15.339844-27.613281zm0 0"/><path d="m345.4375 158.410156c-3.390625-3.386718-15.753906 3.480469-27.613281 15.339844-11.863281 11.863281-18.730469 24.226562-15.34375 27.613281 3.390625 3.390625 15.753906-3.476562 27.613281-15.339843 11.863281-11.859376 18.730469-24.222657 15.34375-27.613282zm0 0"/><path d="m260.574219 255.96875c-4.148438-2.394531-14.3125 7.4375-22.699219 21.964844s-11.824219 28.246094-7.671875 30.644531c4.152344 2.394531 14.3125-7.4375 22.703125-21.964844 8.386719-14.527343 11.820312-28.246093 7.667969-30.644531zm0 0"/><path d="m325.664062 143.242188c-4.152343-2.394532-14.316406 7.4375-22.703124 21.964843-8.386719 14.527344-11.820313 28.246094-7.671876 30.640625 4.152344 2.398438 14.316407-7.4375 22.703126-21.960937 8.386718-14.527344 11.820312-28.25 7.671874-30.644531zm0 0"/><path d="m268.953125 259.4375c-4.632813-1.242188-11.902344 10.886719-16.246094 27.089844-4.339843 16.203125-4.105469 30.34375.523438 31.585937 4.628906 1.238281 11.902343-10.890625 16.242187-27.09375s4.109375-30.34375-.519531-31.582031zm0 0"/><path d="m302.644531 133.707031c-4.632812-1.242187-11.902343 10.886719-16.246093 27.089844-4.339844 16.203125-4.105469 30.34375.523437 31.585937 4.628906 1.238282 11.902344-10.890624 16.242187-27.09375 4.339844-16.203124 4.109376-30.34375-.519531-31.582031zm0 0"/></g><path d="m321.324219 225.910156c0 23.960938-19.425781 43.386719-43.386719 43.386719-23.964844 0-43.390625-19.425781-43.390625-43.386719 0-23.964844 19.425781-43.390625 43.390625-43.390625 23.960938 0 43.386719 19.425781 43.386719 43.390625zm0 0" fill="#2c2f38"/><path d="m269.257812 173.839844c0 14.378906-11.65625 26.035156-26.035156 26.035156-14.375 0-26.03125-11.65625-26.03125-26.035156s11.65625-26.03125 26.03125-26.03125c14.378906 0 26.035156 11.652344 26.035156 26.03125zm0 0" fill="#fff"/><path d="m356.039062 273.636719c0 16.773437-13.601562 30.375-30.375 30.375-16.773437 0-30.371093-13.601563-30.371093-30.375 0-16.773438 13.597656-30.371094 30.371093-30.371094 16.773438 0 30.375 13.597656 30.375 30.371094zm0 0" fill="#fff"/></svg>