<svg height="499pt" viewBox="0 0 499.23909 499" width="499pt" xmlns="http://www.w3.org/2000/svg"><path d="m137.355469 275.804688 85.785156 85.628906-30.726563 118.289062c-2.296874 10.058594-10.703124 17.566406-20.957031 18.714844-6.429687.570312-12.789062-1.683594-17.417969-6.179688-9.144531-10.53125-8.078124-26.460937 2.382813-35.683593-6.796875 6.8125-16.710937 9.480469-26.011719 6.996093-9.296875-2.480468-16.5625-9.734374-19.0625-19.027343-2.496094-9.292969.148438-19.210938 6.949219-26.023438-10.507813 10.539063-27.570313 10.5625-38.109375.054688-10.539062-10.511719-10.5625-27.570313-.054688-38.109375-6.757812 7.011718-16.773437 9.832031-26.195312 7.375-9.425781-2.457032-16.789062-9.808594-19.261719-19.230469-2.472656-9.417969.328125-19.441406 7.332031-26.210937-9.253906 10.449218-25.183593 11.511718-35.742187 2.382812-4.488281-4.605469-6.746094-10.9375-6.1796875-17.34375 1.1445315-10.261719 8.6640625-18.671875 18.7304685-20.957031zm0 0" fill="#c03a2b"/><path d="m276.105469 137.210938 85.789062 85.628906 118.527344-30.675782c10.066406-2.285156 17.585937-10.695312 18.730469-20.957031.566406-6.40625-1.691406-12.742187-6.179688-17.347656-10.554687-9.125-26.488281-8.0625-35.742187 2.382813 10.097656-10.59375 9.890625-27.308594-.464844-37.648438s-27.070313-10.527344-37.652344-.414062c6.796875-6.8125 9.445313-16.730469 6.949219-26.023438-2.5-9.292969-9.769531-16.546875-19.066406-19.027344-9.296875-2.484375-19.210938.183594-26.007813 6.996094 6.796875-6.8125 9.445313-16.730469 6.945313-26.023438-2.5-9.292968-9.765625-16.546874-19.0625-19.027343-9.296875-2.484375-19.210938.183593-26.011719 6.992187 10.464844-9.21875 11.527344-25.152344 2.386719-35.679687-4.632813-4.496094-10.992188-6.753907-17.417969-6.179688-10.269531 1.132813-18.695313 8.644531-20.992187 18.714844zm0 0" fill="#c03a2b"/><g fill="#802f34"><path d="m108.761719 398.808594c-3.570313 0-6.792969-2.15625-8.15625-5.457032-1.363281-3.300781-.605469-7.097656 1.925781-9.621093l71.503906-71.363281c3.464844-3.339844 8.972656-3.285157 12.375.125 3.398438 3.410156 3.4375 8.917968.085938 12.375l-71.5 71.363281c-1.65625 1.648437-3.898438 2.578125-6.234375 2.578125zm0 0"/><path d="m161.199219 413.074219c-.648438-.003907-1.292969-.070313-1.925781-.203125-2.289063-.507813-4.28125-1.902344-5.539063-3.878906-1.257813-1.976563-1.679687-4.375-1.167969-6.660157l16.046875-72.097656-72.226562 16.03125c-4.761719 1.058594-9.480469-1.941406-10.535157-6.703125-1.058593-4.761719 1.941407-9.480469 6.703126-10.535156l85.777343-19.035156c2.949219-.652344 6.027344.242187 8.160157 2.378906 2.136718 2.136718 3.027343 5.214844 2.371093 8.164062l-19.058593 85.625c-.898438 4.035156-4.472657 6.910156-8.605469 6.914063zm0 0"/><path d="m319 188.851562c-3.570312 0-6.792969-2.152343-8.15625-5.453124-1.363281-3.300782-.605469-7.101563 1.925781-9.625l71.5-71.359376c3.46875-3.34375 8.976563-3.285156 12.375.125 3.402344 3.410157 3.441407 8.914063.089844 12.375l-71.503906 71.359376c-1.648438 1.660156-3.890625 2.585937-6.230469 2.578124zm0 0"/><path d="m319 188.851562c-2.679688.003907-5.214844-1.210937-6.890625-3.300781-1.675781-2.089843-2.316406-4.824219-1.734375-7.441406l19.066406-85.628906c.6875-3.085938 2.964844-5.574219 5.980469-6.523438 3.015625-.953125 6.3125-.222656 8.644531 1.914063 2.332032 2.136718 3.34375 5.355468 2.660156 8.441406l-16.054687 72.09375 72.242187-16.027344c4.761719-1.058594 9.480469 1.941406 10.535157 6.703125 1.058593 4.761719-1.941407 9.476563-6.703125 10.535157l-85.785156 19.03125c-.644532.136718-1.300782.207031-1.960938.203124zm0 0"/></g><path d="m362.378906 270.4375-91.144531 90.996094c-16.957031 16.914062-44.40625 16.914062-61.359375 0l-72.078125-71.945313c-8.136719-8.117187-12.710937-19.136719-12.710937-30.628906s4.574218-22.511719 12.710937-30.625l91.136719-91.023437c16.960937-16.910157 44.40625-16.910157 61.367187 0l72.078125 71.945312c8.144532 8.117188 12.722656 19.140625 12.722656 30.640625s-4.578124 22.523437-12.722656 30.640625zm0 0" fill="#df4d60"/><path d="m353.515625 279.335938-73.878906 73.699218c-13.742188 13.710938-38.621094 11.117188-55.558594-5.808594l-72.085937-71.953124c-16.949219-16.921876-19.535157-41.746094-5.800782-55.460938l73.914063-73.773438c13.734375-13.71875 38.609375-11.113281 55.550781 5.800782l72.070312 71.960937c16.9375 16.949219 19.535157 41.78125 5.789063 55.535157zm0 0" fill="#ff5364"/><path d="m202.433594 353.980469 52.417968-52.328125 47.660157-47.574219 52.417969-52.328125-57.1875-57.089844-52.417969 52.332032-47.660157 47.570312-52.425781 52.332031zm0 0" fill="#f0c419"/><path d="m216.601562 339.804688 42.519532-42.425782 38.648437-38.558594 42.515625-42.425781-57.179687-57.097656-42.511719 42.425781-38.65625 38.570313-42.515625 42.414062zm0 0" fill="#f3d55b"/></svg>