<svg height="511pt" viewBox="0 0 511 511.99924" width="511pt" xmlns="http://www.w3.org/2000/svg"><path d="m407.964844 353.457031c-7.71875 13.214844-21.242188 21.992188-36.457032 23.65625.726563 15.082031.253907 30.195313-1.414062 45.199219-1.234375 19.125-6.242188 37.816406-14.742188 54.996094-9.53125 15.808594-25.136718 27.011718-43.164062 30.984375-18.269531 4.941406-37.523438 4.941406-55.792969 0h-.351562c-18.269531 4.941406-37.523438 4.941406-55.789063 0-18.03125-3.972657-33.636718-15.175781-43.167968-30.984375-8.535157-17.164063-13.550782-35.863282-14.742188-54.996094-1.664062-15.003906-2.136719-30.117188-1.414062-45.199219-15.230469-1.675781-28.777344-10.445312-36.542969-23.65625-6.347657-8.089843-8.40625-18.738281-5.539063-28.609375 2.871094-9.871094 10.320313-17.753906 20.015625-21.179687 0 0-7.238281-28.511719-14.476562-78.386719-.652344-4.652344-.773438-9.359375-.355469-14.039062 89.777344-9.445313 74.769531-34.691407 152.363281-34.691407 77.597657 0 62.589844 25.160157 151.925781 34.605469.417969 4.707031.296876 9.445312-.355468 14.125-7.148438 49.875-14.386719 78.386719-14.386719 78.386719s36.105469 14.214843 14.386719 49.789062zm0 0" fill="#7f6e5d"/><path d="m391.457031 357.632812c-6.367187 12.542969-18.496093 21.15625-32.441406 23.03125.644531 14.679688.226563 29.386719-1.253906 44.003907-1.0625 18.5-5.496094 36.648437-13.089844 53.550781-7.992187 15.011719-21.9375 25.964844-38.417969 30.171875-16.199218 4.808594-33.445312 4.808594-49.644531 0h-.320313c-16.199218 4.808594-33.445312 4.808594-49.644531 0-16.480469-4.207031-30.425781-15.160156-38.417969-30.171875-7.636718-16.890625-12.085937-35.042969-13.117187-53.550781-1.480469-14.617188-1.898437-29.324219-1.253906-44.003907-13.957031-1.890624-26.105469-10.496093-32.519531-23.03125-19.246094-34.640624 12.878906-48.480468 12.878906-48.480468s-6.4375-27.765625-12.878906-76.324219c-.585938-4.53125-.691407-9.113281-.320313-13.664063 79.855469-9.199218 66.527344-33.785156 135.558594-33.785156s55.691406 24.496094 135.191406 33.695313c.375 4.582031.265625 9.191406-.316406 13.753906-6.355469 48.550781-12.800781 76.324219-12.800781 76.324219s32.125 13.839844 12.808593 48.480468zm0 0" fill="#cbb292"/><g fill="#2c2f38"><path d="m238.742188 282.304688c0 7.417968-7.152344 11.566406-12.976563 14.390624-8 3.976563-16.332031 7.253907-24.894531 9.796876-11.253906 4.675781-24.140625 3.066406-33.898438-4.234376-7.742187-6.675781-12.242187-16.351562-12.359375-26.574218 0-13.503906 12.007813-23.921875 19.6875-29.304688 3.617188-2.382812 6.179688-3.707031 6.179688-3.707031l28.160156 12.886719c2.300781 3.316406 6.226563 5.109375 10.238281 4.679687l10.769532 4.941407c2.34375 1.804687 4.371093 3.980468 6.003906 6.445312v.089844c2.015625 3.164062 3.085937 6.839844 3.089844 10.589844zm0 0"/><path d="m247.753906 330.8125-11.960937 17.921875c-1.6875 2.828125-1.648438 6.363281.109375 9.148437 1.753906 2.789063 4.925781 4.351563 8.207031 4.046876h23.914063c3.277343.308593 6.453124-1.257813 8.207031-4.042969 1.753906-2.789063 1.792969-6.328125.097656-9.152344l-11.988281-17.921875c-1.933594-2.644531-5.015625-4.207031-8.292969-4.207031s-6.359375 1.5625-8.292969 4.207031zm0 0"/><path d="m335.578125 414.898438c-.085937 1.5-.085937 3.085937-.085937 4.765624 0 0 0 2.292969-.355469 6.003907-1.148438 11.546875-6.261719 22.339843-14.476563 30.542969-1.792968 1.820312-4.242187 2.847656-6.796875 2.847656-2.554687 0-5.003906-1.027344-6.796875-2.847656l-8.121094-8.035157c-1.792968-1.820312-4.242187-2.847656-6.796874-2.847656-2.554688 0-5.003907 1.027344-6.796876 2.847656l-6.621093 6.621094c-1.769531 1.800781-4.183594 2.820313-6.710938 2.824219-3.230469-.015625-6.238281-1.636719-8.03125-4.324219-1.742187-2.699219-4.734375-4.328125-7.945312-4.324219-3.09375.015625-5.988281 1.527344-7.769531 4.058594-1.578126 2.4375-4.160157 4.042969-7.042969 4.386719-2.882813.339843-5.769531-.621094-7.875-2.621094l-6.621094-6.621094c-1.792969-1.820312-4.238281-2.847656-6.796875-2.847656-2.554688 0-5.003906 1.027344-6.796875 2.847656l-8.03125 8.035157c-1.800781 1.808593-4.246094 2.824218-6.796875 2.824218-2.554688 0-5-1.015625-6.800781-2.824218-8.234375-8.195313-13.378907-18.988282-14.5625-30.542969-.355469-3.710938-.355469-6.003907-.355469-6.003907 0-1.679687 0-3.265624-.085938-4.765624h.085938l14.917969-14.921876c3.777343-3.699218 9.820312-3.699218 13.597656 0l8.121094 8.121094c1.773437 1.820313 4.210937 2.847656 6.75 2.847656 2.542969 0 4.980469-1.027343 6.753906-2.847656l6.621094-6.617187c2.039062-2.019531 4.871093-3.015625 7.726562-2.726563 2.851563.289063 5.425781 1.839844 7.015625 4.226563 1.78125 2.644531 4.757813 4.234375 7.945313 4.234375 3.199219.039062 6.195312-1.558594 7.945312-4.234375 1.613281-2.355469 4.183594-3.878907 7.023438-4.167969 2.839843-.289062 5.664062.6875 7.71875 2.667969l6.707031 6.617187c1.777344 1.820313 4.210938 2.847656 6.753906 2.847656 2.542969 0 4.976563-1.027343 6.753906-2.847656l8.121094-8.121094c3.738282-3.707031 9.769532-3.707031 13.507813 0l14.917969 14.921876zm0 0"/><path d="m300.535156 220.691406h26.480469c24.378906 0 44.140625 19.757813 44.140625 44.136719v17.65625c0 14.625-11.859375 26.480469-26.484375 26.480469h-26.484375c-24.375 0-44.136719-19.761719-44.136719-44.136719v-17.65625c0-14.625 11.855469-26.480469 26.484375-26.480469zm0 0"/></g><path d="m115.15625 71.414062v-18.449218c0-29.25 23.710938-52.964844 52.964844-52.964844l15.890625 3.179688 2.292969.441406 38.929687 7.765625c20.566406 4.148437 41.757813 4.148437 62.324219 0l38.929687-7.765625 2.292969-.441406 15.890625-3.179688c29.253906 0 52.964844 23.714844 52.964844 52.964844v18.449218zm0 0" fill="#2c3e50"/><path d="m256.394531 52.964844c38.957031 0 56.859375-21.054688 64.777344-36.605469 1.464844-2.785156 4.300781-4.578125 7.445313-4.710937 3.144531-.128907 6.117187 1.421874 7.808593 4.074218 52.613281 79.253906 137.445313 77.277344 166.128907 74.027344 2.511718-.273438 5.015624.550781 6.878906 2.261719 1.859375 1.707031 2.890625 4.136719 2.832031 6.664062-.882813 36.535157-9.792969 121.132813-96.972656 113.1875-97.105469-8.828125-79.449219-35.3125-158.898438-35.3125-79.445312 0-61.792969 26.484375-158.894531 35.3125-87.179688 7.945313-96.089844-76.652343-96.996094-113.1875-.0625-2.527343.96875-4.957031 2.828125-6.664062 1.863281-1.710938 4.367188-2.535157 6.878907-2.261719 28.683593 3.25 113.515624 5.226562 166.128906-74.027344 1.691406-2.652344 4.664062-4.203125 7.808594-4.074218 3.144531.132812 5.980468 1.925781 7.445312 4.710937 7.945312 15.550781 25.847656 36.605469 64.800781 36.605469zm0 0" fill="#35495e"/><path d="m227.601562 143.199219c-3.871093 0-7.289062-2.523438-8.429687-6.226563-1.140625-3.699218.261719-7.707031 3.457031-9.890625l57.601563-39.230469c2.589843-2.039062 6.101562-2.464843 9.105469-1.105468 3.003906 1.363281 4.996093 4.285156 5.171874 7.578125.171876 3.292969-1.503906 6.40625-4.347656 8.074219l-57.597656 39.265624c-1.460938 1.003907-3.191406 1.539063-4.960938 1.535157zm0 0" fill="#fff"/><path d="m300.535156 105.832031c-.359375.003907-.714844-.015625-1.070312-.058593l-15.332032-1.863282c-2.734374-.34375-5.152343-1.941406-6.535156-4.320312-1.386718-2.382813-1.582031-5.273438-.527344-7.816406l6.507813-15.707032c1.867187-4.503906 7.03125-6.640625 11.535156-4.773437 4.503907 1.867187 6.644531 7.03125 4.777344 11.535156l-2.058594 4.953125 3.761719.496094c4.53125.667968 7.800781 4.691406 7.523438 9.261718-.273438 4.574219-4.003907 8.175782-8.582032 8.292969zm0 0" fill="#fff"/><path d="m221.085938 158.898438c-2.949219 0-5.703126-1.472657-7.34375-3.925782-1.636719-2.453125-1.941407-5.558594-.8125-8.285156l2.089843-5.023438-3.882812-.492187c-2.320313-.296875-4.429688-1.507813-5.863281-3.359375-1.433594-1.851562-2.070313-4.199219-1.773438-6.519531.671875-4.804688 5.058594-8.195313 9.878906-7.636719l15.335938 1.953125c2.730468.339844 5.148437 1.9375 6.535156 4.320313 1.386719 2.378906 1.578125 5.269531.523438 7.816406l-6.503907 15.703125c-1.371093 3.308593-4.605469 5.457031-8.183593 5.449219zm0 0" fill="#fff"/><path d="m285.191406 143.199219c-1.769531.003906-3.5-.53125-4.960937-1.535157l-57.601563-39.265624c-2.839844-1.667969-4.515625-4.78125-4.34375-8.074219.175782-3.292969 2.167969-6.214844 5.171875-7.578125 3.003907-1.359375 6.515625-.933594 9.105469 1.105468l57.597656 39.265626c3.199219 2.183593 4.601563 6.191406 3.460938 9.894531-1.140625 3.699219-4.558594 6.222656-8.429688 6.226562zm0 0" fill="#a5a5a4"/><path d="m212.257812 105.832031c-4.578124-.117187-8.308593-3.71875-8.585937-8.292969-.273437-4.570312 2.996094-8.59375 7.527344-9.261718l3.785156-.460938-2.054687-4.953125c-1.867188-4.503906.269531-9.667969 4.773437-11.535156 4.507813-1.867187 9.671875.269531 11.539063 4.773437l6.507812 15.707032c1.054688 2.542968.859375 5.433594-.527344 7.816406-1.386718 2.378906-3.800781 3.980469-6.535156 4.320312l-15.335938 1.863282c-.363281.03125-.726562.039062-1.09375.023437zm0 0" fill="#a5a5a4"/><path d="m291.707031 158.898438c-3.570312 0-6.789062-2.152344-8.15625-5.449219l-6.507812-15.738281c-1.054688-2.546876-.859375-5.4375.527343-7.816407 1.382813-2.382812 3.800782-3.980469 6.535157-4.320312l15.335937-1.863281c4.839844-.597657 9.246094 2.847656 9.839844 7.6875.597656 4.839843-2.847656 9.25-7.6875 9.84375l-3.789062.457031 2.058593 4.953125c1.144531 2.726562.847657 5.847656-.792969 8.3125-1.640624 2.460937-4.40625 3.9375-7.363281 3.933594zm0 0" fill="#a5a5a4"/><path d="m335.5 423.722656c-2.339844 0-4.585938-.929687-6.242188-2.585937l-14.898437-14.890625c-.140625-.144532-.332031-.226563-.535156-.226563s-.394531.082031-.535157.226563l-8.113281 8.113281c-7.191406 7.15625-18.820312 7.15625-26.011719 0l-6.648437-6.648437-8.492187-4.785157 7.34375 4.898438c-3.410157 5.121093-9.152344 8.195312-15.300782 8.195312-6.152344 0-11.894531-3.074219-15.304687-8.195312l-1.15625-.113281-6.636719 6.636718c-7.191406 7.171875-18.824219 7.171875-26.015625 0l-8.128906-8.128906c-.140625-.144531-.335938-.222656-.535157-.222656-.199218 0-.394531.078125-.535156.222656l-14.882812 14.882812c-2.214844 2.296876-5.5 3.214844-8.585938 2.40625-3.085937-.804687-5.496094-3.214843-6.304687-6.304687-.804688-3.085937.113281-6.367187 2.410156-8.582031l14.890625-14.902344c7.191406-7.167969 18.832031-7.167969 26.023438 0l8.128906 8.128906c.136718.144532.328125.226563.527344.226563.199218 0 .386718-.082031.523437-.226563l6.640625-6.636718c3.898438-3.894532 9.339844-5.839844 14.828125-5.292969 5.484375.542969 10.4375 3.515625 13.5 8.101562h1.226563c3.058593-4.585937 8.011718-7.558593 13.5-8.101562 5.484374-.546875 10.925781 1.398437 14.828124 5.292969l6.636719 6.636718c.140625.144532.332031.222656.53125.222656s.390625-.078124.527344-.222656l8.113281-8.121094c7.199219-7.148437 18.816406-7.148437 26.015625 0l14.910157 14.910157c2.535156 2.523437 3.296874 6.328125 1.929687 9.632812-1.367187 3.308594-4.59375 5.460938-8.171875 5.453125zm0 0" fill="#7f6e5d"/><path d="m313.828125 467.863281c-4.886719.011719-9.578125-1.929687-13.027344-5.394531l-8.085937-8.085938c-.304688-.300781-.792969-.300781-1.097656 0l-6.636719 6.636719c-3.984375 3.730469-9.382813 5.554688-14.8125 5.007813-5.429688-.550782-10.355469-3.421875-13.507813-7.875h-1.183594c-3.234374 4.652344-8.371093 7.632812-14.015624 8.136718-5.308594.433594-10.539063-1.484374-14.308594-5.242187l-6.640625-6.636719c-.300781-.300781-.792969-.300781-1.09375 0l-8.085938 8.085938c-7.203125 7.183594-18.863281 7.183594-26.070312 0-9.683594-9.632813-15.71875-22.335938-17.0625-35.929688-.40625-4.21875-.398438-6.859375-.398438-6.859375 0-31.347656-11.828125-44.269531-11.949219-44.394531-3.316406-3.519531-3.210937-9.042969.238282-12.4375 3.441406-3.351562 8.9375-3.332031 12.355468.042969 1.765626 1.765625 17.03125 18.140625 17.03125 56.789062 0 .175781 0 2.136719.308594 5.191407.960938 9.503906 5.191406 18.375 11.96875 25.105468.324219.257813.78125.257813 1.105469 0l8.085937-8.085937c7.292969-6.964844 18.773438-6.964844 26.066407 0l6.636719 6.636719c.570312.121093 1.152343-.125 1.457031-.617188 3.492187-4.9375 9.195312-7.835938 15.242187-7.75s11.664063 3.148438 15.011719 8.183594l1.15625.183594 6.636719-6.636719c7.292968-6.964844 18.769531-6.964844 26.058594 0l8.089843 8.085937c.320313.253906.773438.253906 1.09375 0 6.785157-6.730468 11.023438-15.605468 11.988281-25.113281.28125-3.054687.308594-5.015625.308594-5.210937 0-38.628907 15.28125-55.019532 17.027344-56.769532 3.507812-2.992187 8.726562-2.785156 11.984375.480469 3.253906 3.265625 3.449219 8.488281.445313 11.984375 0 0-11.855469 12.960938-11.855469 44.304688 0 0 0 2.648437-.398438 6.859374-1.34375 13.59375-7.382812 26.292969-17.070312 35.921876-3.4375 3.457031-8.113281 5.402343-12.988281 5.402343zm0 0" fill="#7f6e5d"/><path d="m243.859375 261.5625c-1.980469 3.902344-4.78125 7.335938-8.207031 10.0625v.089844c-4.730469 3.894531-10.644532 6.074218-16.773438 6.175781-13.59375 0-18.714844-5.472656-27.1875-14.5625-3.53125-3.707031-7.769531-8.386719-13.949218-14.214844-1.058594-1.015625-2.210938-1.933593-3.441407-2.734375-8.425781-5.460937-19.519531-4.324218-26.660156 2.734375-2.285156 2.15625-5.546875 2.929688-8.554687 2.023438-3.011719-.90625-5.304688-3.351563-6.015626-6.414063-.710937-3.058594.265626-6.265625 2.566407-8.40625 15.003906-14.878906 39.195312-14.878906 54.199219 0 6.621093 6.175782 11.121093 11.03125 14.742187 14.917969 1.675781 1.765625 2.914063 3.175781 4.0625 4.324219 2.300781 3.316406 6.226563 5.109375 10.238281 4.679687 4.101563-.453125 7.660156-3.035156 9.355469-6.796875 2.933594-6.210937 1.96875-13.5625-2.46875-18.804687-1.832031-2.570313-2.148437-5.921875-.839844-8.789063 1.3125-2.871094 4.054688-4.820312 7.195313-5.121094 3.140625-.300781 6.203125 1.101563 8.03125 3.671876 8.222656 10.664062 9.660156 25.082031 3.707031 37.164062zm0 0" fill="#7f6e5d"/><path d="m312.453125 220.691406h-11.917969c-7.617187-.03125-14.867187 3.253906-19.863281 9.003906-15.871094-19.644531-34.449219-36.941406-55.171875-51.378906 10.246094-1.277344 20.570312-1.867187 30.894531-1.765625 6.886719 0 12.976563.175781 18.539063.53125 13.746094 13.417969 26.300781 28.011719 37.519531 43.609375zm0 0" fill="#95a5a5"/><path d="m410.96875 318.144531c-20.460938 1.921875-41.0625-1.546875-59.765625-10.0625 11.742187-2.9375 19.972656-13.496093 19.953125-25.597656v-.53125c8.175781 3.609375 16.777344 6.160156 25.597656 7.589844-1.941406 9.269531-3.175781 14.125-3.175781 14.125 7.070313 3.046875 13.113281 8.074219 17.390625 14.476562zm0 0" fill="#95a5a5"/></svg>