<svg height="512pt" viewBox="0 0 512 512" width="512pt" xmlns="http://www.w3.org/2000/svg"><path d="m335.410156 396.003906v23.304688c0 12.191406-9.878906 22.070312-22.066406 22.070312h-132.414062c-5.855469 0-11.46875-2.324218-15.605469-6.464844-4.140625-4.136718-6.464844-9.75-6.464844-15.605468v-27.1875zm0 0" fill="#7d6599"/><path d="m317.757812 397.242188c68.253907 0 123.585938-55.332032 123.585938-123.585938v-50.40625l-.796875-54.464844c-8.570313-95.550781-88.648437-168.7656248-184.582031-168.7656248-95.9375 0-176.011719 73.2148438-184.585938 168.7656248l-.792968 54.464844v50.40625c0 68.253906 55.328124 123.585938 123.585937 123.585938zm0 0" fill="#7d6599"/><path d="m308.929688 397.242188c58.492187 0 105.929687-55.351563 105.929687-123.585938v-50.40625l-.679687-54.464844c-2.753907-42.0625-18.8125-82.160156-45.851563-114.496094-27.621094-33.773437-68.738281-53.636718-112.363281-54.289062-82.980469 0-151.101563 74.152344-158.21875 168.785156l-.679688 54.464844v50.40625c0 68.234375 47.441406 123.585938 105.933594 123.585938zm0 0" fill="#b49aca"/><path d="m194.171875 441.378906s-7.867187 55.746094 61.792969 44.136719c105.929687-17.652344 105.929687 26.484375 105.929687 26.484375 35.308594-17.65625 35.308594-52.964844 8.828125-61.792969-20.144531-5.53125-40.90625-8.496093-61.792968-8.828125" fill="#7d6599"/><path d="m88.238281 238.34375-85.316406-72.871094c-2.9335938-2.640625-3.757813-6.90625-2.019531-10.449218 1.742187-3.542969 5.621094-5.5 9.503906-4.796876l86.660156 26.324219" fill="#7d6599"/><path d="m423.6875 238.34375 85.320312-72.871094c2.929688-2.640625 3.753907-6.90625 2.015626-10.449218-1.738282-3.542969-5.621094-5.5-9.503907-4.796876l-86.660156 26.324219" fill="#7d6599"/><path d="m326.585938 264.828125h-141.242188c-4.875 0-8.828125-3.953125-8.828125-8.828125s3.953125-8.828125 8.828125-8.828125h141.242188c4.875 0 8.824218 3.953125 8.824218 8.828125s-3.949218 8.828125-8.824218 8.828125zm0 0" fill="#3d324c"/><path d="m264.792969 256h52.964843v26.484375c0 14.625-11.859374 26.480469-26.484374 26.480469s-26.480469-11.855469-26.480469-26.480469zm0 0" fill="#ff5364"/><g fill="#3d324c"><path d="m141.203125 211.863281c-3.566406-.003906-6.785156-2.152343-8.152344-5.449219-1.367187-3.300781-.609375-7.097656 1.914063-9.621093l88.273437-88.277344c3.464844-3.34375 8.972657-3.296875 12.375.109375 3.40625 3.40625 3.453125 8.910156.109375 12.375l-88.277344 88.277344c-1.652343 1.652344-3.898437 2.585937-6.242187 2.585937zm0 0"/><path d="m229.480469 211.863281c-2.339844 0-4.585938-.933593-6.242188-2.585937l-88.273437-88.277344c-3.347656-3.464844-3.296875-8.96875.105468-12.375 3.40625-3.40625 8.910157-3.453125 12.375-.109375l88.277344 88.277344c2.523438 2.523437 3.277344 6.320312 1.914063 9.621093-1.367188 3.296876-4.585938 5.445313-8.15625 5.449219zm0 0"/><path d="m282.445312 211.863281c-3.570312-.003906-6.785156-2.152343-8.152343-5.449219-1.367188-3.300781-.613281-7.097656 1.914062-9.621093l88.273438-88.277344c3.464843-3.34375 8.96875-3.296875 12.375.109375s3.453125 8.910156.109375 12.375l-88.277344 88.277344c-1.65625 1.652344-3.898438 2.585937-6.242188 2.585937zm0 0"/><path d="m370.722656 211.863281c-2.339844 0-4.585937-.933593-6.242187-2.585937l-88.273438-88.277344c-3.347656-3.464844-3.300781-8.96875.105469-12.375s8.910156-3.453125 12.375-.109375l88.277344 88.277344c2.523437 2.523437 3.277344 6.320312 1.910156 9.621093-1.363281 3.296876-4.582031 5.445313-8.152344 5.449219zm0 0"/></g></svg>