<svg height="512pt" viewBox="0 0 512 512" width="512pt" xmlns="http://www.w3.org/2000/svg"><path d="m335.410156 396.003906v23.304688c0 12.191406-9.878906 22.070312-22.066406 22.070312h-132.414062c-5.855469 0-11.46875-2.324218-15.605469-6.464844-4.140625-4.136718-6.464844-9.75-6.464844-15.605468v-27.1875zm0 0" fill="#7ed09e"/><path d="m317.757812 397.242188c68.253907 0 123.585938-55.332032 123.585938-123.585938v-50.40625l-.796875-54.464844c-8.570313-95.550781-88.648437-168.7656248-184.582031-168.7656248-95.9375 0-176.011719 73.2148438-184.585938 168.7656248l-.792968 54.464844v50.40625c0 68.253906 55.328124 123.585938 123.585937 123.585938zm0 0" fill="#7ed09e"/><path d="m308.929688 397.242188c58.492187 0 105.929687-55.351563 105.929687-123.585938v-50.40625l-.679687-54.464844c-2.753907-42.0625-18.8125-82.160156-45.851563-114.496094-27.621094-33.773437-68.738281-53.636718-112.363281-54.289062-82.980469 0-151.101563 74.152344-158.21875 168.785156l-.679688 54.464844v50.40625c0 68.234375 47.441406 123.585938 105.933594 123.585938zm0 0" fill="#bbd1b5"/><g fill="#7ed09e"><path d="m194.171875 441.378906s-7.867187 55.746094 61.792969 44.136719c105.929687-17.652344 105.929687 26.484375 105.929687 26.484375 35.308594-17.65625 35.308594-52.964844 8.828125-61.792969-20.144531-5.53125-40.90625-8.496093-61.792968-8.828125"/><path d="m88.238281 238.34375-85.316406-72.871094c-2.9335938-2.640625-3.757813-6.90625-2.019531-10.449218 1.742187-3.542969 5.621094-5.5 9.503906-4.796876l86.660156 26.324219"/><path d="m423.6875 238.34375 85.320312-72.871094c2.929688-2.640625 3.753907-6.90625 2.015626-10.449218-1.738282-3.542969-5.621094-5.5-9.503907-4.796876l-86.660156 26.324219"/><path d="m185.34375 238.433594c-32.453125-.078125-59.335938-25.207032-61.601562-57.582032l-.367188-5.464843 35.183594-20.496094 20.90625-12.261719 35.308594-20.605468 4.574218 3.027343c22.777344 15.019531 33.011719 43.203125 25.171875 69.339844-7.835937 26.136719-31.890625 44.039063-59.175781 44.042969zm0 0"/></g><path d="m238.308594 176.640625c-.347656 28.292969-22.871094 51.3125-51.148438 52.28125s-52.324218-20.460937-54.605468-48.664063l30.453124-17.742187 20.921876-12.269531 30.542968-17.832032c14.867188 9.804688 23.820313 26.417969 23.835938 44.226563zm0 0" fill="#fff"/><path d="m211.824219 176.640625c0 9.460937-5.046875 18.203125-13.238281 22.933594-8.195313 4.730469-18.289063 4.730469-26.484376 0-8.195312-4.730469-13.242187-13.472657-13.242187-22.933594-.019531-5.011719 1.421875-9.921875 4.148437-14.125l20.921876-12.269531c.46875-.074219.941406-.101563 1.414062-.089844 14.605469.042969 26.4375 11.875 26.480469 26.484375zm0 0" fill="#2c3e50"/><path d="m194.171875 176.640625c0 4.875-3.953125 8.828125-8.828125 8.828125s-8.828125-3.953125-8.828125-8.828125 3.953125-8.828125 8.828125-8.828125 8.828125 3.953125 8.828125 8.828125zm0 0" fill="#fff"/><path d="m326.761719 238.433594c-27.285157-.007813-51.335938-17.910156-59.171875-44.046875-7.835938-26.136719 2.398437-54.316407 25.175781-69.335938l4.574219-3.027343 56.222656 32.882812 35.167969 20.480469-.351563 5.464843c-2.265625 32.378907-29.15625 57.511719-61.617187 57.582032zm0 0" fill="#7ed09e"/><path d="m273.796875 176.640625c.347656 28.292969 22.871094 51.3125 51.148437 52.28125 28.277344.96875 52.324219-20.460937 54.605469-48.664063l-30.457031-17.742187-20.921875-12.269531-30.542969-17.832032c-14.863281 9.804688-23.816406 26.417969-23.832031 44.226563zm0 0" fill="#fff"/><path d="m300.277344 176.640625c0 14.625 11.859375 26.480469 26.484375 26.480469s26.480469-11.855469 26.480469-26.480469c.023437-5.011719-1.417969-9.921875-4.148438-14.125l-20.921875-12.269531c-.464844-.074219-.9375-.101563-1.410156-.089844-14.609375.042969-26.441407 11.875-26.484375 26.484375zm0 0" fill="#2c3e50"/><path d="m335.589844 176.640625c0 4.875-3.953125 8.828125-8.828125 8.828125s-8.828125-3.953125-8.828125-8.828125 3.953125-8.828125 8.828125-8.828125 8.828125 3.953125 8.828125 8.828125zm0 0" fill="#fff"/><path d="m335.410156 335.449219c-3.941406-.003907-7.402344-2.621094-8.480468-6.410157-8.929688-32.039062-37.714844-54.507812-70.964844-55.382812-33.242188.882812-62.015625 23.351562-70.941406 55.382812-.765626 3.140626-3.191407 5.609376-6.316407 6.433594-3.125.828125-6.453125-.121094-8.671875-2.472656-2.222656-2.347656-2.980468-5.726562-1.976562-8.796875 19.234375-67.425781 87.214844-68.203125 87.90625-68.203125.6875 0 68.667968.777344 87.929687 68.203125 1.339844 4.683594-1.371093 9.566406-6.054687 10.910156-.792969.21875-1.605469.332031-2.429688.335938zm0 0" fill="#2c3e50"/></svg>