<svg height="512pt" viewBox="0 0 512 512" width="512pt" xmlns="http://www.w3.org/2000/svg"><path d="m335.410156 396.003906v23.304688c0 12.191406-9.878906 22.070312-22.066406 22.070312h-132.414062c-5.855469 0-11.46875-2.324218-15.605469-6.464844-4.140625-4.136718-6.464844-9.75-6.464844-15.605468v-27.1875zm0 0" fill="#bdc3c7"/><path d="m317.757812 397.242188c68.253907 0 123.585938-55.332032 123.585938-123.585938v-50.40625l-.796875-54.464844c-8.570313-95.550781-88.648437-168.7656248-184.582031-168.7656248-95.9375 0-176.011719 73.2148438-184.585938 168.7656248l-.792968 54.464844v50.40625c0 68.253906 55.328124 123.585938 123.585937 123.585938zm0 0" fill="#bdc3c7"/><path d="m308.929688 397.242188c58.492187 0 105.929687-55.351563 105.929687-123.585938v-50.40625l-.679687-54.464844c-2.753907-42.0625-18.8125-82.160156-45.851563-114.496094-27.621094-33.773437-68.738281-53.636718-112.363281-54.289062-82.980469 0-151.101563 74.152344-158.21875 168.785156l-.679688 54.464844v50.40625c0 68.234375 47.441406 123.585938 105.933594 123.585938zm0 0" fill="#e6e7e8"/><g fill="#bdc3c7"><path d="m194.171875 441.378906s-7.867187 55.746094 61.792969 44.136719c105.929687-17.652344 105.929687 26.484375 105.929687 26.484375 35.308594-17.65625 35.308594-52.964844 8.828125-61.792969-20.144531-5.53125-40.90625-8.496093-61.792968-8.828125"/><path d="m88.238281 238.34375-85.316406-72.871094c-2.9335938-2.640625-3.757813-6.90625-2.019531-10.449218 1.742187-3.542969 5.621094-5.5 9.503906-4.796876l86.660156 26.324219"/><path d="m423.6875 238.34375 85.320312-72.871094c2.929688-2.640625 3.753907-6.90625 2.015626-10.449218-1.738282-3.542969-5.621094-5.5-9.503907-4.796876l-86.660156 26.324219"/></g><path d="m194.171875 238.34375h123.585937c4.875 0 8.828126 3.953125 8.828126 8.828125v26.484375c0 39-31.621094 70.621094-70.621094 70.621094-39.003906 0-70.621094-31.621094-70.621094-70.621094v-26.484375c0-4.875 3.953125-8.828125 8.828125-8.828125zm0 0" fill="#2c3e50"/><path d="m229.480469 185.378906c-4.875 0-8.828125-3.953125-8.828125-8.828125 0-8.332031-15.101563-17.652343-35.308594-17.652343s-35.3125 9.320312-35.3125 17.652343c0 4.875-3.949219 8.828125-8.828125 8.828125-4.875 0-8.824219-3.953125-8.824219-8.828125 0-19.800781 23.269532-35.308593 52.964844-35.308593s52.964844 15.507812 52.964844 35.308593c0 4.875-3.953125 8.828125-8.828125 8.828125zm0 0" fill="#2c3e50"/><path d="m370.722656 185.378906c-4.875 0-8.828125-3.953125-8.828125-8.828125 0-8.332031-15.105469-17.652343-35.308593-17.652343-20.207032 0-35.3125 9.320312-35.3125 17.652343 0 4.875-3.953126 8.828125-8.828126 8.828125s-8.828124-3.953125-8.828124-8.828125c0-19.800781 23.269531-35.308593 52.96875-35.308593 29.695312 0 52.964843 15.507812 52.964843 35.308593 0 4.875-3.953125 8.828125-8.828125 8.828125zm0 0" fill="#2c3e50"/><path d="m312.902344 315.410156c-12.472656 17.019532-31.898438 27.574219-52.964844 28.769532-21.066406 1.195312-41.5625-7.089844-55.878906-22.589844v-.089844c2.910156-21.007812 13.503906-55.789062 51.90625-30.191406 0 0 41.136718-34.25 56.9375 24.101562zm0 0" fill="#ff5364"/></svg>